<svg xmlns="http://www.w3.org/2000/svg" viewBox="0 0 733.94 423.34"><defs><style>.cls-1{isolation:isolate;}.cls-13,.cls-16,.cls-19,.cls-2,.cls-3,.cls-34,.cls-38,.cls-39,.cls-43,.cls-45,.cls-6,.cls-8{fill:none;}.cls-2,.cls-3{stroke:#a9c6ea;}.cls-13,.cls-16,.cls-19,.cls-2,.cls-21,.cls-22,.cls-3,.cls-38,.cls-39,.cls-43,.cls-45,.cls-6,.cls-8{stroke-miterlimit:10;}.cls-3{stroke-dasharray:5 3.5;}.cls-4{fill:#e4ecf9;}.cls-23,.cls-5{fill:#d7e3f4;}.cls-6{stroke:#fff;}.cls-7{fill:#b2cded;}.cls-21,.cls-22,.cls-8{stroke:#648acc;}.cls-17,.cls-9{fill:#f886bc;}.cls-10{fill:#bf2c4c;}.cls-11{fill:#28364c;}.cls-12{fill:#101d54;}.cls-13{stroke:#273b7a;}.cls-13,.cls-16,.cls-34,.cls-38,.cls-39,.cls-43,.cls-45{stroke-width:0.75px;}.cls-14,.cls-15{fill:#e03b5a;}.cls-15,.cls-17{fill-rule:evenodd;}.cls-16{stroke:#a31d4a;}.cls-18{fill:#0b0b3a;}.cls-19{stroke:#0b0b3a;stroke-width:0.5px;}.cls-19,.cls-29,.cls-34{stroke-linecap:round;}.cls-20,.cls-22{fill:#fff;}.cls-21{fill:#d9e4f4;}.cls-23{opacity:0.45;}.cls-24{fill:#fdd305;}.cls-25{fill:#fe9;}.cls-26{opacity:0.55;mix-blend-mode:multiply;}.cls-27{fill:#ffc043;}.cls-28{fill:#475577;}.cls-29{fill:#ffcd5c;stroke:#ffc043;stroke-width:3px;}.cls-29,.cls-34{stroke-linejoin:round;}.cls-30{fill:#648acc;}.cls-31{fill:#f46072;}.cls-32{fill:#0c3656;}.cls-33{fill:#00276f;}.cls-34{stroke:#00276f;}.cls-35{fill:#212237;}.cls-36{fill:#4868ef;}.cls-37{fill:#22252d;}.cls-38{stroke:#474b51;}.cls-39{stroke:#28364c;}.cls-40{fill:#103bb2;}.cls-41{fill:#f2b18f;}.cls-42{fill:#0070e4;}.cls-43{stroke:#0b2e6b;}.cls-44{fill:#d8cac0;}.cls-45{stroke:#846a6a;}</style></defs><title>home-v2-1</title><g class="cls-1"><g id="OBJECTS"><path class="cls-2" d="M112.8,419.43q-1.21-.3-2.42-.63" transform="translate(-9.89 -57.26)"/><path class="cls-3" d="M107,417.82C92,413.12,77.4,404.48,67.33,392.51c-35.49-42.16,6.1-96.2,47.48-113.22,20.18-8.3,38.36-18.21,44.29-41.22,5.67-22-9.86-45-13.87-66-8.07-42.28,29.95-75,70.06-75,37,0,53.62,14.09,90.31,38.67,27.73,18.58,79.81,29.47,119.82,25.55C473.06,156.61,491,135.74,529,118.75c26.14-11.69,62.57-14.19,87,3.14,26.12,18.51,16.19,54.76,19.17,81.83a50.25,50.25,0,0,0,5.91,19.45c21.4,37.76,65.23,39.7,65.23,95.61,0,40.34-64.36,56.32-99.12,61.57" transform="translate(-9.89 -57.26)"/><path class="cls-2" d="M605.47,380.6,603,381" transform="translate(-9.89 -57.26)"/><line class="cls-2" x1="92.91" y1="151.43" x2="107.18" y2="151.43"/><line class="cls-2" x1="107.18" y1="159.36" x2="121.44" y2="159.36"/><line class="cls-2" x1="528.17" y1="89.12" x2="542.43" y2="89.12"/><line class="cls-2" x1="519.11" y1="97.06" x2="533.38" y2="97.06"/><line class="cls-2" x1="540.85" y1="93.27" x2="560.23" y2="93.27"/><line class="cls-2" x1="665.24" y1="258.19" x2="675.5" y2="258.19"/><line class="cls-2" x1="655.93" y1="250.35" x2="670.19" y2="250.35"/><line class="cls-2" x1="193.65" y1="50.62" x2="207.91" y2="50.62"/><line class="cls-2" x1="170.41" y1="222.5" x2="193.87" y2="222.5"/><line class="cls-2" x1="198.82" y1="222.5" x2="211" y2="222.5"/><circle class="cls-2" cx="468.21" cy="192.59" r="4.6"/><circle class="cls-2" cx="649.14" cy="160.73" r="4.6"/><circle class="cls-2" cx="478.24" cy="61.49" r="4.6"/><circle class="cls-2" cx="570.5" cy="68.38" r="2.29"/><circle class="cls-2" cx="430.48" cy="240.45" r="2.29"/><circle class="cls-2" cx="164.36" cy="76.19" r="2.29"/><circle class="cls-2" cx="60.86" cy="219.29" r="2.29"/><circle class="cls-2" cx="173.66" cy="172.38" r="2.29"/><line class="cls-2" x1="105.29" y1="101.31" x2="105.29" y2="106.73"/><line class="cls-2" x1="108" y1="104.02" x2="102.58" y2="104.02"/><line class="cls-2" x1="422.36" y1="29.01" x2="422.36" y2="34.43"/><line class="cls-2" x1="425.07" y1="31.72" x2="419.65" y2="31.72"/><line class="cls-2" x1="592.95" y1="112.83" x2="592.95" y2="118.25"/><line class="cls-2" x1="595.66" y1="115.54" x2="590.24" y2="115.54"/><line class="cls-2" x1="681.56" y1="185.27" x2="681.56" y2="190.69"/><line class="cls-2" x1="684.27" y1="187.98" x2="678.85" y2="187.98"/><line class="cls-2" x1="655.93" y1="280.41" x2="655.93" y2="285.83"/><line class="cls-2" x1="658.64" y1="283.12" x2="653.22" y2="283.12"/><path class="cls-4" d="M510.68,277.61a45.56,45.56,0,0,0,5.93-20.4L507,255.87a35.75,35.75,0,0,0-1.06-9.53l9.12-3.41a45.88,45.88,0,0,0-10.23-18.62L497,230.2a35.73,35.73,0,0,0-7.48-6l4-8.85a45.56,45.56,0,0,0-20.4-5.93l-1.33,9.63a35.75,35.75,0,0,0-9.53,1.06L458.93,211a45.88,45.88,0,0,0-18.62,10.23l5.88,7.76a35.74,35.74,0,0,0-6,7.48l-8.85-4a45.56,45.56,0,0,0-5.93,20.4l9.63,1.33a35.74,35.74,0,0,0,1.06,9.53L427,267.1a45.88,45.88,0,0,0,10.23,18.62l7.76-5.87a35.74,35.74,0,0,0,7.48,6l-4,8.85a45.55,45.55,0,0,0,20.4,5.93l1.33-9.63a35.73,35.73,0,0,0,9.53-1.06l3.41,9.12a45.88,45.88,0,0,0,18.62-10.23L495.83,281a35.75,35.75,0,0,0,6-7.48Zm-46.1-.46a23,23,0,1,1,28.55-15.69A23,23,0,0,1,464.58,277.14Zm1.69-5.81a17,17,0,1,1,21.05-11.57A17,17,0,0,1,466.27,271.33Z" transform="translate(-9.89 -57.26)"/><path class="cls-4" d="M520.43,183.74a22.49,22.49,0,0,0-3.31-10l-4.29,2.16a17.65,17.65,0,0,0-3.1-3.58l2.75-3.94a22.66,22.66,0,0,0-9.38-4.7l-1.51,4.56a17.64,17.64,0,0,0-4.72-.34l-.84-4.73a22.5,22.5,0,0,0-10,3.31l2.16,4.29a17.65,17.65,0,0,0-3.58,3.1l-3.94-2.75a22.66,22.66,0,0,0-4.7,9.38l4.56,1.51a17.65,17.65,0,0,0-.34,4.72l-4.73.84a22.49,22.49,0,0,0,3.31,10l4.29-2.16a17.65,17.65,0,0,0,3.1,3.58l-2.75,3.94a22.65,22.65,0,0,0,9.38,4.7l1.51-4.56a17.65,17.65,0,0,0,4.72.34l.84,4.73a22.49,22.49,0,0,0,10-3.31l-2.16-4.29a17.64,17.64,0,0,0,3.58-3.1l3.94,2.75a22.65,22.65,0,0,0,4.7-9.38l-4.56-1.51a17.66,17.66,0,0,0,.34-4.72Zm-19.43,11a9.57,9.57,0,1,1,6.06-12.11A9.57,9.57,0,0,1,501,194.77Z" transform="translate(-9.89 -57.26)"/><path class="cls-4" d="M284.24,151.34a34.43,34.43,0,0,0-5.07-15.23l-6.56,3.3a27,27,0,0,0-4.75-5.47l4.21-6a34.67,34.67,0,0,0-14.35-7.19l-2.31,7a27,27,0,0,0-7.23-.52l-1.29-7.24A34.43,34.43,0,0,0,231.66,125l3.3,6.56a27,27,0,0,0-5.47,4.75l-6-4.21a34.67,34.67,0,0,0-7.19,14.35l7,2.31a27,27,0,0,0-.52,7.23l-7.24,1.29a34.43,34.43,0,0,0,5.07,15.23l6.56-3.3a27,27,0,0,0,4.75,5.47l-4.21,6A34.67,34.67,0,0,0,242,187.91l2.31-7a27,27,0,0,0,7.23.52l1.29,7.24a34.43,34.43,0,0,0,15.23-5.07l-3.3-6.56a27,27,0,0,0,5.47-4.75l6,4.21a34.67,34.67,0,0,0,7.19-14.35l-7-2.31a27,27,0,0,0,.52-7.23ZM254.5,168.22a14.65,14.65,0,1,1,9.28-18.53A14.65,14.65,0,0,1,254.5,168.22Z" transform="translate(-9.89 -57.26)"/><path class="cls-4" d="M218.48,206a25.81,25.81,0,0,0,3.36-11.55l-5.46-.76a20.25,20.25,0,0,0-.6-5.4l5.17-1.93a26,26,0,0,0-5.8-10.55l-4.4,3.33a20.24,20.24,0,0,0-4.24-3.4l2.29-5a25.81,25.81,0,0,0-11.55-3.36l-.76,5.46a20.25,20.25,0,0,0-5.4.6l-1.93-5.17a26,26,0,0,0-10.55,5.8l3.33,4.4a20.25,20.25,0,0,0-3.4,4.24l-5-2.29A25.8,25.8,0,0,0,170.18,192l5.46.76a20.25,20.25,0,0,0,.6,5.4l-5.17,1.93a26,26,0,0,0,5.8,10.55l4.4-3.33a20.25,20.25,0,0,0,4.24,3.4l-2.29,5A25.81,25.81,0,0,0,194.77,219l.76-5.46a20.24,20.24,0,0,0,5.4-.6l1.93,5.17a26,26,0,0,0,10.55-5.8l-3.33-4.4a20.25,20.25,0,0,0,3.4-4.24Zm-26.11-.26a13.05,13.05,0,1,1,16.17-8.89A13.05,13.05,0,0,1,192.37,205.74Zm1-3.29a9.62,9.62,0,1,1,11.93-6.56A9.62,9.62,0,0,1,193.33,202.45Z" transform="translate(-9.89 -57.26)"/><path class="cls-5" d="M344.31,480.2c3-6.28,18.92-33.79,35.66-42.87a18.07,18.07,0,0,1,6.78-2.45,7.28,7.28,0,0,1,6.5,2.47,8.17,8.17,0,0,1,1.09,6.34c-3,17.2-22.63,23.79-32.2,36.51" transform="translate(-9.89 -57.26)"/><path class="cls-5" d="M344.31,480.1s15.75-31.09,31.13-49.61c7.28-8.77,12.28-25,4.63-29.88-11.08-7-22,8.64-26.95,16.43-7.54,11.78-13.09,24.81-17.37,38.09-.62,1.92-6.27,25-6.38,25h14.94Z" transform="translate(-9.89 -57.26)"/><path class="cls-6" d="M374.43,409.51c-14.52,18.36-26.57,45.55-34.58,70.59" transform="translate(-9.89 -57.26)"/><path class="cls-7" d="M311.28,480.1s-1.83-47.84-23-70c-5.72-6-15.1-12.19-22.79-13.89-10-2.2-9.7,9.52-7.9,17.12,2.34,9.85,10.39,16,16.19,23.32,10.68,13.5,17.05,22.4,24.85,43.4" transform="translate(-9.89 -57.26)"/><path class="cls-5" d="M317.65,480.1c5.71-10.46,3.7-55.16.84-69.17a71.45,71.45,0,0,0-11.67-27c-5.06-7-20.2-22.57-29.11-16.26-5.15,3.65,2.65,16.79,4.71,20.74A224.65,224.65,0,0,1,298.52,429a246.41,246.41,0,0,1,9.7,50.5c0,.22,0,.43,0,.65" transform="translate(-9.89 -57.26)"/><path class="cls-7" d="M318.69,480.1c-1.88-25-.68-63.45,10.61-85.15,12.8-24.61,29.48-36,31.9-26.38,7,27.82-21.16,102.63-29.09,111.53" transform="translate(-9.89 -57.26)"/><path class="cls-6" d="M262.7,404.24c22.78,15.88,38.5,46,41.43,75.86" transform="translate(-9.89 -57.26)"/><path class="cls-6" d="M286,375.65c11.19,10,16.88,25.63,20.32,40.76a340.73,340.73,0,0,1,7.77,63.68" transform="translate(-9.89 -57.26)"/><path class="cls-6" d="M354,379.09c-13.78,31.65-25.4,65.85-27.34,101" transform="translate(-9.89 -57.26)"/><path class="cls-6" d="M386.52,440.89s-20.13,13.37-34.19,39.22" transform="translate(-9.89 -57.26)"/><path class="cls-7" d="M592.55,480c3-39.54-.34-78.32,14.72-115.79,4.27-10.63,14-27.41,27.49-28,20.81-.89,8.07,40.92,4.3,56.56a232.63,232.63,0,0,1-9.79,29.69C622.6,439.55,612.59,463.4,605,480" transform="translate(-9.89 -57.26)"/><path class="cls-5" d="M581.75,480c-6.55-16.76-13-33.58-19.44-50.37-5.75-14.89-12.43-29.45-17.08-44.75-3.53-11.64-12.67-38.33.7-46.53,23.81-14.61,42.85,41.91,45.36,62,3.31,26.46,2.6,53.07,3,79.66" transform="translate(-9.89 -57.26)"/><path class="cls-7" d="M562.82,480s-13.92-17.78-20.19-26.11c-14-18.62-31.31-38.85-28.73-59.78.59-4.82,2.36-10.18,7.2-13a16.82,16.82,0,0,1,10-1.91c11.39,1.09,21.6,17.63,26.73,26.11,10,16.61,25.58,74.72,25.58,74.72" transform="translate(-9.89 -57.26)"/><path class="cls-6" d="M552.18,350.09c17,34.35,33.57,98,34,129.93" transform="translate(-9.89 -57.26)"/><path class="cls-6" d="M525.77,389.55C540.72,418.26,571.11,480,571.11,480" transform="translate(-9.89 -57.26)"/><path class="cls-6" d="M633.89,345.34C621.7,372.54,605,431.5,598.25,480.1" transform="translate(-9.89 -57.26)"/><path class="cls-5" d="M605.61,480s7-31,11.77-48.58c5.24-19.13,22.36-48.4,40.36-56.72,4.14-1.91,9.14-3.23,13.15-1a11.41,11.41,0,0,1,5,6.46c3.06,8.95-11.93,37.2-17.08,45.13-10.09,15.53-24.55,40.2-36,54.75" transform="translate(-9.89 -57.26)"/><path class="cls-6" d="M667.55,381c-21.28,18.48-49.75,77.4-57.71,99.07" transform="translate(-9.89 -57.26)"/><path class="cls-7" d="M143.76,460.74c-2.73-14.45-7.2-43.11-10.59-60.69-1.64-8.51-6.39-18.9-9.4-27-5.5-14.73-18.79-40.33-35.27-39-20.45,1.7-3.92,38.46,1.28,52.34a201.33,201.33,0,0,0,12.47,26c8.17,14.82,20.28,35.46,29.3,49.78" transform="translate(-9.89 -57.26)"/><path class="cls-7" d="M155.57,445.15c-5-13.05-3.64-29.65-3.62-43.46,0-24.86,8.66-59.81,24.85-76.12,6.67-6.72,17.72-14.2,24.89-3.92,6.79,9.74-1.06,36.2-3.54,47.57-4.85,22.26-28.05,63.5-34.76,85.06" transform="translate(-9.89 -57.26)"/><path class="cls-6" d="M189.79,333c-11.5,29.84-27,84.27-30.91,116" transform="translate(-9.89 -57.26)"/><path class="cls-6" d="M90.23,342.35c14.58,23.45,35.94,73.67,47.25,117.39" transform="translate(-9.89 -57.26)"/><path class="cls-5" d="M144.34,429.15c6.13-10,13.41-42.62,15.07-54.26,2.33-16.37,2.58-33.67-1.47-49.8-2.74-10.88-15.25-43.44-31-28.76-7.38,6.89-6.2,44.47-5.32,54.53,1.72,19.7,11.92,55,15.43,74.43" transform="translate(-9.89 -57.26)"/><path class="cls-6" d="M135.68,304.72c10.78,28.09,8.05,97.89,4.68,122.31" transform="translate(-9.89 -57.26)"/><line class="cls-8" x1="38.61" y1="422.84" x2="666.44" y2="422.84"/><path class="cls-9" d="M301.89,197.42c3.07-3,10.52-13.26,11.36-13s-1.73,3.89-1,4,5.07-5.25,5.85-4.77c1.05.65-3.68,5.86-3.68,5.86s5.47-5.45,6.22-4.63c.53.58-3.45,4.94-4.76,6.79,1.68-1.83,4.75-4.47,5.29-3.85s-2.11,3.63-4,6.06c1.33-1.4,3.89-3.82,4.42-3.27s-5.88,10.3-11.75,17.42" transform="translate(-9.89 -57.26)"/><path class="cls-9" d="M262.82,234.79a440.83,440.83,0,0,0,43.63-42.7l9.8,6.55s-16.46,25.51-38,47.47" transform="translate(-9.89 -57.26)"/><path class="cls-10" d="M255,242.25c5.39-6.77,14.3-13.32,14.3-13.32l15.81,12.79L271.26,258" transform="translate(-9.89 -57.26)"/><path class="cls-9" d="M282.27,358.24,273.9,468.49l9.91,6.31s-27.22,1.42-28.11.53,1.12-7,1.12-7L252.26,358Z" transform="translate(-9.89 -57.26)"/><path class="cls-11" d="M260,475.24l-4.05-4,.57-2.09,6.23,6.09h3L276.34,470l11.47,7.18a1.55,1.55,0,0,1-.83,2.87L271.57,480l-4.92-3.42h-1.4V480l-10,0,0-4.76Z" transform="translate(-9.89 -57.26)"/><path class="cls-9" d="M260.28,357.65,235.59,468.49l9.91,6.31s-27.22,1.42-28.11.53,1.12-7,1.12-7l7.22-110.67Z" transform="translate(-9.89 -57.26)"/><path class="cls-11" d="M221.72,475.24l-4.05-4,.57-2.09,6.23,6.09h3L238,470l11.47,7.18a1.55,1.55,0,0,1-.83,2.87L233.26,480l-4.92-3.42h-1.4V480l-10,0,0-4.76Z" transform="translate(-9.89 -57.26)"/><path class="cls-12" d="M234.32,300.48c-13.58,23.91-13.56,68.38-13.56,68.38h63s-.87-39.07-7.9-61.08Z" transform="translate(-9.89 -57.26)"/><line class="cls-13" x1="245.47" y1="245.37" x2="247.04" y2="311.6"/><path class="cls-13" d="M269.3,305.41s-3.18,8.07-13.93,10.86" transform="translate(-9.89 -57.26)"/><path class="cls-9" d="M325,277.23c4.14,1.2,16.7,2.73,16.89,3.59s-4.23.38-3.94,1.06,7.05,1.87,7,2.79c-.05,1.24-6.91-.36-6.91-.36s7.42,2.12,7.07,3.18c-.25.75-6-.61-8.25-.85,2.41.58,6.22,2,5.94,2.75s-4.2-.08-7.25-.56c1.87.48,5.23,1.54,5,2.26s-9.92-.66-19-2.32" transform="translate(-9.89 -57.26)"/><path class="cls-14" d="M250.89,235.86s1,2.66,6.69,2.66c3.95,0,5.44-2.07,5.44-2.07s1.45,1.3,17,21.72c3.29,4.32,2.58,13.65-2.92,21.71a135.62,135.62,0,0,0-1.28,27.9h-45s-.79-32.35,2.33-50A29.93,29.93,0,0,1,250.89,235.86Z" transform="translate(-9.89 -57.26)"/><path class="cls-9" d="M280.64,249.85c30,23.54,50.8,28.65,50.8,28.65L329,290s-36-4.57-59.7-24.46" transform="translate(-9.89 -57.26)"/><path class="cls-15" d="M263.21,237.23c7.7,1.29,19.51,12.62,19.51,12.62l-12.54,18.4s-5.32-3.68-12.54-9.88" transform="translate(-9.89 -57.26)"/><path class="cls-16" d="M270.19,267.57c-9.39-5.72-13.61-9.91-13.61-9.91" transform="translate(-9.89 -57.26)"/><path class="cls-17" d="M266.57,215.92c3.13,5.17,4.42,10.35,0,13s-11.44,4-15.92-3.39c-3.14-5.17-2.11-11.52,2.27-14.17S263.44,210.75,266.57,215.92Z" transform="translate(-9.89 -57.26)"/><path class="cls-18" d="M262.93,217.25c.14.53.56,1.14,1.08,1.12a.32.32,0,0,0,.3-.23C264.61,217.25,262.63,216.15,262.93,217.25Z" transform="translate(-9.89 -57.26)"/><path class="cls-19" d="M260.85,216.8a4.07,4.07,0,0,1,3-1.74" transform="translate(-9.89 -57.26)"/><path class="cls-20" d="M267.77,221.82l-2.9,1.45s1,2.5,2.59,2C268.77,224.92,267.77,221.82,267.77,221.82Z" transform="translate(-9.89 -57.26)"/><path class="cls-17" d="M263.21,237.23a12.34,12.34,0,0,1-5.63,1.29c-4.53-.11-6.69-1.92-6.69-1.92l3-12.76,11,.8Z" transform="translate(-9.89 -57.26)"/><path class="cls-17" d="M265.52,216.16s3.75,2.51,3.88,3.18-1.45,1.63-1.45,1.63" transform="translate(-9.89 -57.26)"/><path class="cls-18" d="M255,207.8c-.4.2-1.8-.17-2.31-.17a11.91,11.91,0,0,0-2.13.18c-4.18.76-7.3,4.22-9.27,7.78-1.29,2.34-2.38,4.94-4.73,6.42-5.17,3.26-12,2.09-17.76,4s-10.41,8-8.83,14.35c.52,2.09,1.62,4,2.26,6,1.38,4.38.73,9.49,3.37,13.25a11.91,11.91,0,0,0,2.6,2.61,18,18,0,0,0,27.66-7.65c2.34-5.83,1.61-12.79,5-18.06,1.59-2.47,4-4.35,5.56-6.82,1.45-2.26,2.21-6.51,2.38-9.23,0-.63-1.09-5.85-.75-5.85a12.81,12.81,0,0,0,7.78-3.29A7.94,7.94,0,0,0,255,207.8Z" transform="translate(-9.89 -57.26)"/><path class="cls-9" d="M257.95,221.23a1.82,1.82,0,0,0-2.61.45c-1.34,2,1.88,4.52,3.43,4.64s1.51-1.57,1.51-1.57" transform="translate(-9.89 -57.26)"/><rect class="cls-21" x="510.29" y="132.28" width="97.91" height="130.75"/><rect class="cls-22" x="524.92" y="132.28" width="97.91" height="130.75"/><path class="cls-23" d="M541.92,142.45h64.7a3.59,3.59,0,0,1,3.59,3.59v9.9a3.59,3.59,0,0,1-3.59,3.59h-64.7a3.6,3.6,0,0,1-3.6-3.6V146A3.6,3.6,0,0,1,541.92,142.45Z"/><path class="cls-23" d="M541.92,204.19H576.1a3.59,3.59,0,0,1,3.59,3.59v40.86a3.59,3.59,0,0,1-3.59,3.59H541.92a3.6,3.6,0,0,1-3.6-3.6V207.79A3.59,3.59,0,0,1,541.92,204.19Z"/><path class="cls-7" d="M553.57,233.81h-2.18c-1.76,0-3.18-1.87-3.18-4.17s1.42-4.17,3.18-4.17h2.18Z" transform="translate(-9.89 -57.26)"/><ellipse class="cls-5" cx="543.68" cy="172.38" rx="3.18" ry="4.17"/><path class="cls-7" d="M574.69,233.81h-2.18c-1.76,0-3.18-1.87-3.18-4.17s1.42-4.17,3.18-4.17h2.18Z" transform="translate(-9.89 -57.26)"/><ellipse class="cls-5" cx="564.8" cy="172.38" rx="3.18" ry="4.17"/><path class="cls-7" d="M595.8,233.81h-2.18c-1.76,0-3.18-1.87-3.18-4.17s1.42-4.17,3.18-4.17h2.18Z" transform="translate(-9.89 -57.26)"/><ellipse class="cls-5" cx="585.91" cy="172.38" rx="3.18" ry="4.17"/><path class="cls-7" d="M616.92,233.81h-2.18c-1.76,0-3.18-1.87-3.18-4.17s1.42-4.17,3.18-4.17h2.18Z" transform="translate(-9.89 -57.26)"/><ellipse class="cls-5" cx="607.03" cy="172.38" rx="3.18" ry="4.17"/><path class="cls-7" d="M553.57,254h-2.18c-1.76,0-3.18-1.87-3.18-4.17s1.42-4.17,3.18-4.17h2.18Z" transform="translate(-9.89 -57.26)"/><ellipse class="cls-5" cx="543.68" cy="192.59" rx="3.18" ry="4.17"/><path class="cls-7" d="M574.69,254h-2.18c-1.76,0-3.18-1.87-3.18-4.17s1.42-4.17,3.18-4.17h2.18Z" transform="translate(-9.89 -57.26)"/><ellipse class="cls-5" cx="564.8" cy="192.59" rx="3.18" ry="4.17"/><path class="cls-7" d="M595.8,254h-2.18c-1.76,0-3.18-1.87-3.18-4.17s1.42-4.17,3.18-4.17h2.18Z" transform="translate(-9.89 -57.26)"/><ellipse class="cls-5" cx="585.91" cy="192.59" rx="3.18" ry="4.17"/><path class="cls-7" d="M616.92,254h-2.18c-1.76,0-3.18-1.87-3.18-4.17s1.42-4.17,3.18-4.17h2.18Z" transform="translate(-9.89 -57.26)"/><ellipse class="cls-5" cx="607.03" cy="192.59" rx="3.18" ry="4.17"/><polygon class="cls-22" points="115.49 422.84 281.65 422.84 281.65 295.52 157.3 295.52 115.49 344.41 115.49 422.84"/><polygon class="cls-21" points="234.49 422.84 295.71 422.84 295.71 295.52 275.45 295.52 234.49 344.41 234.49 422.84"/><rect class="cls-21" x="125.38" y="401.67" width="118.99" height="78.43" transform="translate(359.87 824.51) rotate(180)"/><path class="cls-7" d="M255,367.05c1.14,1,3.47.34,5.21-1.57s2.22-4.3,1.08-5.34L258.94,358l-6.28,6.91Z" transform="translate(-9.89 -57.26)"/><path class="cls-5" d="M252.81,365c1.14,1,3.47.34,5.2-1.57s2.22-4.3,1.08-5.34-3.47-.34-5.2,1.57S251.67,364,252.81,365Z" transform="translate(-9.89 -57.26)"/><path class="cls-7" d="M236.5,367.05c1.14,1,3.47.34,5.21-1.57s2.22-4.3,1.08-5.34L240.42,358l-6.28,6.91Z" transform="translate(-9.89 -57.26)"/><path class="cls-5" d="M234.29,365c1.14,1,3.47.34,5.2-1.57s2.22-4.3,1.08-5.34-3.47-.34-5.2,1.57S233.15,364,234.29,365Z" transform="translate(-9.89 -57.26)"/><path class="cls-7" d="M198.37,367.05c1.14,1,3.47.34,5.21-1.57s2.22-4.3,1.08-5.34L202.3,358,196,364.89Z" transform="translate(-9.89 -57.26)"/><path class="cls-5" d="M196.16,365c1.14,1,3.47.34,5.2-1.57s2.22-4.3,1.08-5.34-3.47-.34-5.21,1.57S195,364,196.16,365Z" transform="translate(-9.89 -57.26)"/><path class="cls-7" d="M178.73,367.05c1.14,1,3.47.34,5.21-1.57s2.22-4.3,1.08-5.34L182.66,358l-6.28,6.91Z" transform="translate(-9.89 -57.26)"/><path class="cls-5" d="M176.52,365c1.14,1,3.47.34,5.2-1.57s2.22-4.3,1.08-5.34-3.47-.34-5.2,1.57S175.38,364,176.52,365Z" transform="translate(-9.89 -57.26)"/><polygon class="cls-23" points="233.07 335.5 239.67 326.94 139.13 326.94 131.57 335.5 233.07 335.5"/><path class="cls-8" d="M354.15,333.28V439.61a9.31,9.31,0,0,1-9.31,9.31H285.68a9.31,9.31,0,0,1-9.31-9.31v-3" transform="translate(-9.89 -57.26)"/><path class="cls-8" d="M368.81,338.16V459.64a9.5,9.5,0,0,1-9.5,9.5h-94a9.31,9.31,0,0,1-9.31-9.31V436.56" transform="translate(-9.89 -57.26)"/><path class="cls-8" d="M395.42,336.12V406.6a9.31,9.31,0,0,0,9.31,9.31h73.46a9.31,9.31,0,0,0,9.31-9.31V285.87a9.31,9.31,0,0,1,9.31-9.31h30.29" transform="translate(-9.89 -57.26)"/><path class="cls-8" d="M383.61,338.16v98.78a9.31,9.31,0,0,0,9.31,9.31H527.79a9.31,9.31,0,0,0,9.31-9.31V299.61" transform="translate(-9.89 -57.26)"/><path class="cls-24" d="M287.37,183.58a87.63,87.63,0,1,1,158.45,51.6h0c-12.51,18.85-45,40.13-45,52.88v14.56a5.26,5.26,0,0,1-5.26,5.26H354.45a5.26,5.26,0,0,1-5.26-5.26V288.06c0-12.75-32.5-34-45-52.88h0A87.22,87.22,0,0,1,287.37,183.58Z" transform="translate(-9.89 -57.26)"/><path class="cls-20" d="M385,306.43c-.1-2.2-1.67-37.37,1.15-68.2a98.6,98.6,0,0,1-22.19,0c2.82,30.83,1.25,66,1.14,68.2l-1.55-.07c0-.54,1.65-36.92-1.23-68.34-26-3.61-37.62-18.34-39.71-32.23-1.22-8.12,1.55-16.2,6.59-19.22a13.24,13.24,0,0,1,10.69-1.07c6.19,1.78,12.07,7.11,15.73,14.27,4.23,8.27,6.73,22,8.17,36.89a96.55,96.55,0,0,0,22.49,0c1.44-14.9,3.94-28.62,8.17-36.89,3.66-7.16,9.55-12.49,15.73-14.27a13.25,13.25,0,0,1,10.69,1.07c5,3,7.82,11.1,6.59,19.22-2.09,13.9-13.72,28.62-39.71,32.23-2.88,31.41-1.25,67.79-1.23,68.34Zm29.54-120a14.18,14.18,0,0,0-3.91.58c-5.79,1.66-11.31,6.7-14.78,13.48-4.07,7.95-6.5,21.34-7.92,36,24.9-3.59,36-17.62,38-30.88,1.11-7.41-1.41-15-5.86-17.66A10.7,10.7,0,0,0,414.49,186.41Zm-79,0A10.7,10.7,0,0,0,330,187.9c-4.45,2.66-7,10.26-5.86,17.66,2,13.25,13.14,27.29,38,30.88-1.42-14.63-3.85-28-7.92-36-3.47-6.78-9-11.82-14.78-13.48A14.18,14.18,0,0,0,335.51,186.41Z" transform="translate(-9.89 -57.26)"/><path class="cls-25" d="M448,188.61a5,5,0,0,1-5-5,67.92,67.92,0,0,0-51.26-65.93,5,5,0,1,1,2.47-9.75,78,78,0,0,1,58.85,75.68A5,5,0,0,1,448,188.61Z" transform="translate(-9.89 -57.26)"/><circle class="cls-25" cx="368.45" cy="53.15" r="5.03"/><g class="cls-26"><path class="cls-27" d="M462.46,188.77c-4.84,35.93-33.84,73.13-87.46,73.13S293.46,223,287.54,188.77a87.17,87.17,0,0,0,16.63,46.41h0c12.51,18.85,45,40.13,45,52.88v14.56a5.26,5.26,0,0,0,5.26,5.26h41.11a5.26,5.26,0,0,0,5.26-5.26V288.06c0-12.75,32.5-34,45-52.88h0A87.17,87.17,0,0,0,462.46,188.77Z" transform="translate(-9.89 -57.26)"/></g><path class="cls-11" d="M402.89,294.28H347.11v26.58a22.87,22.87,0,0,0,3.56,12.26h0a24,24,0,0,0,20.24,11.12h8.18a24,24,0,0,0,20.24-11.12h0a22.87,22.87,0,0,0,3.56-12.26Z" transform="translate(-9.89 -57.26)"/><path class="cls-28" d="M347.11,312.2a3.47,3.47,0,0,0,.48,0l55.77-5.78a3.34,3.34,0,0,0,3-3.82,3.63,3.63,0,0,0-3.93-3.11l-55.78,5.78a3.34,3.34,0,0,0-3,3.82A3.64,3.64,0,0,0,347.11,312.2Z" transform="translate(-9.89 -57.26)"/><path class="cls-28" d="M347.11,324.37a3.47,3.47,0,0,0,.48,0l55.77-5.78a3.34,3.34,0,0,0,3-3.82,3.63,3.63,0,0,0-3.93-3.11l-55.78,5.78a3.34,3.34,0,0,0-3,3.82A3.64,3.64,0,0,0,347.11,324.37Z" transform="translate(-9.89 -57.26)"/><path class="cls-28" d="M349.34,336.41a3.46,3.46,0,0,0,.48,0l52.87-5.48a3.34,3.34,0,0,0,3-3.82,3.63,3.63,0,0,0-3.93-3.11l-52.87,5.48a3.34,3.34,0,0,0-3,3.82A3.64,3.64,0,0,0,349.34,336.41Z" transform="translate(-9.89 -57.26)"/><line class="cls-29" x1="365.11" y1="1.5" x2="365.11" y2="29.04"/><line class="cls-29" x1="414.77" y1="12.47" x2="403.65" y2="37.66"/><line class="cls-29" x1="456.62" y1="42.93" x2="436.28" y2="61.49"/><line class="cls-29" x1="315.46" y1="12.47" x2="326.58" y2="37.66"/><line class="cls-29" x1="273.6" y1="42.93" x2="293.95" y2="61.49"/><circle class="cls-30" cx="246.06" cy="379.45" r="1.9"/><circle class="cls-30" cx="266.48" cy="379.45" r="1.9"/><circle class="cls-30" cx="527.22" cy="242.35" r="1.9"/><circle class="cls-30" cx="537.91" cy="242.35" r="1.9"/><circle class="cls-30" cx="548.59" cy="242.35" r="1.9"/><circle class="cls-30" cx="517.22" cy="219.29" r="1.9"/><circle class="cls-31" cx="458.79" cy="330.34" r="39.13"/><circle class="cls-20" cx="458.79" cy="330.34" r="28.31"/><circle class="cls-31" cx="458.79" cy="330.34" r="19.45"/><circle class="cls-20" cx="458.79" cy="330.34" r="10.19"/><polygon class="cls-32" points="457.21 331.92 463.61 331.92 457.21 325.52 457.21 331.92"/><polygon class="cls-32" points="498.69 290.44 506.01 290.44 506.01 288.6 500.54 288.6 500.54 283.12 498.69 283.12 498.69 290.44"/><polygon class="cls-32" points="502.04 287.09 509.36 287.09 509.36 285.25 503.89 285.25 503.89 279.77 502.04 279.77 502.04 287.09"/><rect class="cls-32" x="459.73" y="364.33" width="62.59" height="1.85" transform="translate(-124.34 396.92) rotate(-45)"/><path class="cls-9" d="M117.71,317.78l-4.83,9.17A19.55,19.55,0,0,1,105,324.7c-4.51-2.23-5.82-5.29-5.82-5.29l8.16-10.8" transform="translate(-9.89 -57.26)"/><path class="cls-9" d="M128,300.46c4.49,2.65-2.93,19.4-7,20.46s-12.09-6.86-14.49-13.56,5.32-10.37,9.85-11.74S128,300.46,128,300.46Z" transform="translate(-9.89 -57.26)"/><path class="cls-33" d="M124.64,308.58c-.15.27-.3.54-.43.82s.35.64.51.3.27-.61.39-.92-.33-.45-.47-.2Z" transform="translate(-9.89 -57.26)"/><path class="cls-34" d="M127.13,306.95s-1-1.48-3.58-1" transform="translate(-9.89 -57.26)"/><path class="cls-20" d="M120.69,315.1l2.86,2s-1.12,2.16-2.14,1.32S120.69,315.1,120.69,315.1Z" transform="translate(-9.89 -57.26)"/><path class="cls-35" d="M132,304.13a43.6,43.6,0,0,1-5.82-2.67c-2.06.43-4.21,2.36-4.26,4.55,0,.49-.06,1.16-.55,1.23-.34,0-.62-.28-.71-.61a8.31,8.31,0,0,0-.22-1,1.44,1.44,0,0,0-1.76-.66,2.49,2.49,0,0,0-1.39,1.45c-.68,1.63-1.29,3.6.27,5a2.81,2.81,0,0,1,.68.68c.34.61-.06,1.36-.46,1.93a7.72,7.72,0,0,1-6.75,3.78c-2.56,0-6.83-3.38-7.11-5.07,0-.15-2.48-10.51,2.08-17.09,2.44-3.53,6.75-6.11,11.23-5.73a13,13,0,0,1,6.55,2.92C131.26,294.18,132.86,301.89,132,304.13Z" transform="translate(-9.89 -57.26)"/><path class="cls-9" d="M127.68,310.25s.66,5-.33,5.57-3.08-.88-3.08-.88" transform="translate(-9.89 -57.26)"/><path class="cls-9" d="M129.74,446.22l-3.66,23.64-.19,7.12,27.92-.14A1.23,1.23,0,0,0,155,475.6h0a1.23,1.23,0,0,0-.8-1.15l-12-5.54L147,444.36" transform="translate(-9.89 -57.26)"/><path class="cls-36" d="M156.25,476.54a3.8,3.8,0,0,0-1.34-2.13l-12.77-5.5c-7,2.85-16.14.67-16.14.67l-1.62,9.61a.58.58,0,0,0,.58.57l31.08-.16C156.66,479.61,156.26,476.57,156.25,476.54Z" transform="translate(-9.89 -57.26)"/><path class="cls-13" d="M144.91,469.47a15.06,15.06,0,0,0-1.8,3" transform="translate(-9.89 -57.26)"/><path class="cls-13" d="M146.52,470.43A13.23,13.23,0,0,0,145,473" transform="translate(-9.89 -57.26)"/><path class="cls-13" d="M147.88,471.13a18.84,18.84,0,0,0-1.39,2.36" transform="translate(-9.89 -57.26)"/><line class="cls-13" x1="114.66" y1="420.44" x2="146.5" y2="420.28"/><path class="cls-13" d="M125.43,473s7.48.15,8.12,4.66" transform="translate(-9.89 -57.26)"/><path class="cls-13" d="M152.3,473.29a24.21,24.21,0,0,0-2.47,4.28" transform="translate(-9.89 -57.26)"/><path class="cls-9" d="M43.09,452.42,19.8,449.64l-7.12-.19.14,27.92a1.23,1.23,0,0,0,1.24,1.23h0a1.23,1.23,0,0,0,1.15-.8l5.54-12,24.14,2.72" transform="translate(-9.89 -57.26)"/><path class="cls-36" d="M13.12,479.82a3.8,3.8,0,0,0,2.13-1.34l5.5-12.77c-2.85-7-.67-16.14-.67-16.14l-9.61-1.62a.58.58,0,0,0-.57.58L10,479.6C10.05,480.23,13.09,479.82,13.12,479.82Z" transform="translate(-9.89 -57.26)"/><path class="cls-13" d="M20.19,468.48a15,15,0,0,0-3-1.8" transform="translate(-9.89 -57.26)"/><path class="cls-13" d="M19.23,470.08a13.22,13.22,0,0,0-2.57-1.48" transform="translate(-9.89 -57.26)"/><path class="cls-13" d="M18.53,471.44a18.86,18.86,0,0,0-2.36-1.39" transform="translate(-9.89 -57.26)"/><line class="cls-13" x1="2.07" y1="390.85" x2="2.24" y2="422.69"/><path class="cls-13" d="M16.66,449s-.15,7.48-4.66,8.12" transform="translate(-9.89 -57.26)"/><path class="cls-13" d="M16.37,475.86a24.21,24.21,0,0,0-4.28-2.47" transform="translate(-9.89 -57.26)"/><path class="cls-37" d="M56.94,387.52c-5,13.38,3.16,32.81,3.16,32.81l4.31,31.29-40.84-1.8L24,477s43.81,3.12,54.4,3.12,14.69-2.37,17.8-8.58c4.63-9.25-2-60.39-2-61.24l-7.27-32.85" transform="translate(-9.89 -57.26)"/><line class="cls-38" x1="18.58" y1="392.78" x2="18.89" y2="420.06"/><path class="cls-37" d="M71.11,394.75S66.47,418.45,90,423.54c10.52,2.28,37.26,3,37.26,3l-4.57,36.6h26.71s5.53-27.58,7.2-46c1.11-12.27-4.17-17.76-14.09-19-8.4-1-33.66-2.68-33.66-2.68l-4.25-5.33" transform="translate(-9.89 -57.26)"/><path class="cls-38" d="M95.29,424.38s-19.81.06-24.55-22.14" transform="translate(-9.89 -57.26)"/><path class="cls-38" d="M81.19,400.16a53.94,53.94,0,0,0,12.34.57" transform="translate(-9.89 -57.26)"/><path class="cls-38" d="M55.33,397A39.43,39.43,0,0,0,64,398.5" transform="translate(-9.89 -57.26)"/><line class="cls-38" x1="114.58" y1="401.14" x2="140.51" y2="401.14"/><rect class="cls-30" x="167.9" y="300.1" width="2.13" height="23.24"/><circle class="cls-30" cx="168.97" cy="297.75" r="3.92"/><path class="cls-9" d="M159.19,361.68l7.88.58s6.06-2,8.47-2.1a3.16,3.16,0,0,1,2.25.75v2.38c0,1.59,2.13,2.29,2.13,1.21v-1.31c0,.09,4.37,2.15,1.82,4.11,1.19.25,1.83,1.92-.44,3.08a1.65,1.65,0,0,1-.11,2.94c.74,1.12-.76,2.36-2,2.61-2.25.49-20.29.11-20.29.11" transform="translate(-9.89 -57.26)"/><path class="cls-36" d="M113.18,326.08c13,17.92,6,23.72-3.31,69.42A276,276,0,0,1,55,390.13a350.11,350.11,0,0,1,21.13-50.68c6.54-12.73,17.42-19.06,23.58-20.68" transform="translate(-9.89 -57.26)"/><path class="cls-36" d="M93.53,346.23s20,31.34,29.52,32.73c15.1,2.21,40.07,1.59,40.07,1.59l1.49-22.05s-32.1-1.62-33.42-2.38c-4.3-2.44-18-30-18-30" transform="translate(-9.89 -57.26)"/><path class="cls-13" d="M114.84,373.24a88.52,88.52,0,0,1-19.56-24.88" transform="translate(-9.89 -57.26)"/><line class="cls-13" x1="150.1" y1="301" x2="148.21" y2="323.37"/><path class="cls-9" d="M721.69,323.65c-.48,4.28-3.93,16.46-3.2,17s2-3.76,2.5-3.23-1,7.23-.13,7.54c1.16.43,2.33-6.51,2.33-6.51s-.91,7.67.21,7.75c.79.06,1.75-5.76,2.4-7.94-.4,2.45-.58,6.5.24,6.54s1.55-3.91,2.28-6.9c-.28,1.91-.6,5.42.16,5.49s3.22-9.4,5.19-18.42" transform="translate(-9.89 -57.26)"/><path class="cls-9" d="M735.63,264.89s6.93,12.31,7.93,19.87c2.47,18.62-13,50.15-13,50.15s-11.22-3.06-11.22-4.47,7.82-34.54,7.82-34.54L716,270" transform="translate(-9.89 -57.26)"/><path class="cls-9" d="M701.92,224.46l1.51,13.88s-8.32,7.06-15.69-.85l.9-9.14Z" transform="translate(-9.89 -57.26)"/><path class="cls-9" d="M690.31,210.55s-9,12.41-5.33,17.06c2.72,3.43,9.84,3.82,12,2.47.47-2.54,6.31-10.94,5.38-12.81C698.82,210.14,690.31,210.55,690.31,210.55Z" transform="translate(-9.89 -57.26)"/><path class="cls-35" d="M704.34,212.7c-.29-4.69-4.92-6.06-13.8-5.53-1.19.07-3.3-.74-3.85.32-.72,1.39-.85,4.2.54,5.46a5.11,5.11,0,0,0,2.78,1.31c1.61.38,3.25,1.91,2.39,3.59-.22.44-.76,1.19-.42,1.55a4.84,4.84,0,0,0,1,.51c.64.34.6,1.31.2,1.92s-.22,1.28-.62,1.88c-.95,1.43.18,4.07,1.65,4.94,1.31.77,5.59,2.07,8.73.44,2.72-1.41,4.35-5.25,4.38-12.15C707.29,214.3,705.33,212.52,704.34,212.7Z" transform="translate(-9.89 -57.26)"/><path class="cls-9" d="M691.29,219.79c1.46-1.85,2.65-1.56,3.29-.54.86,1.36-.87,4.18-1.67,4.66-1.63,1-3,.87-3.08-.45" transform="translate(-9.89 -57.26)"/><path class="cls-11" d="M687.68,216.95c-.42.35-.81,1-.58,1.45a.32.32,0,0,0,.34.18C688.38,218.48,688.56,216.22,687.68,216.95Z" transform="translate(-9.89 -57.26)"/><path class="cls-39" d="M687.8,215.23a3.48,3.48,0,0,1,1.88,1.48" transform="translate(-9.89 -57.26)"/><path class="cls-20" d="M687.78,223.56l-2.06-1.1s-1.35,2.53-.39,3.06S687.78,223.56,687.78,223.56Z" transform="translate(-9.89 -57.26)"/><rect class="cls-40" x="656.75" y="478.63" width="32.51" height="1.46" transform="translate(1336.48 900.94) rotate(179.96)"/><path class="cls-37" d="M684.63,466.62l2.81.66s1.08,3.67,1.49,6.23a29.9,29.9,0,0,1,.32,5.11l-32.51,0s.85-2.82,8.61-7.36a16.94,16.94,0,0,0,4.61-3.84Z" transform="translate(-9.89 -57.26)"/><path class="cls-41" d="M688,454.92l-.53,12.36s-1.36,1.65-6.88,1.65A42.23,42.23,0,0,1,670,467.45l-1.09-16.67" transform="translate(-9.89 -57.26)"/><rect class="cls-40" x="703.05" y="478.63" width="32.51" height="1.46" transform="translate(1429.08 900.91) rotate(179.96)"/><path class="cls-37" d="M730.93,466.62l2.81.66s1.08,3.67,1.49,6.23a29.9,29.9,0,0,1,.32,5.11l-32.51,0s.85-2.82,8.61-7.36a16.94,16.94,0,0,0,4.61-3.84Z" transform="translate(-9.89 -57.26)"/><path class="cls-41" d="M732.64,454.42l1.1,12.86s-1.36,1.65-6.88,1.65a42.23,42.23,0,0,1-10.59-1.49l-2.5-16.67" transform="translate(-9.89 -57.26)"/><path class="cls-42" d="M727.4,326.52s5.07,10.56,1,30.76c2.07,45.1,7.47,105.74,7.47,105.74l-31-.11s-6.31-65.18-10.07-97.66c-4.18-36.18-6.8-80.49-6.8-80.49" transform="translate(-9.89 -57.26)"/><path class="cls-43" d="M709.89,462.92s-6.31-65.18-10.07-97.66" transform="translate(-9.89 -57.26)"/><path class="cls-42" d="M668.26,328.54S665,376.1,665,398.92,663.5,463,663.5,463h31.3l11.65-107.93c9.54-11.43,8.84-36.22,6.54-45.87l-31-8.48Z" transform="translate(-9.89 -57.26)"/><path class="cls-43" d="M700.06,414.36l6.4-59.27a33.19,33.19,0,0,0,8-20.18" transform="translate(-9.89 -57.26)"/><line class="cls-43" x1="664.91" y1="266.51" x2="657.5" y2="405.77"/><line class="cls-43" x1="685.47" y1="279.06" x2="700.67" y2="279.36"/><line class="cls-43" x1="711.51" y1="278.58" x2="717.29" y2="278.46"/><path class="cls-9" d="M641.87,256.11c-4.24-4.8-15.63-23.06-16.91-22.77s2.17,5.94,1.07,6-7-8.29-8.19-7.67c-1.63.85,4.86,9.07,4.86,9.07s-2.54-3.49-3.74-2.34c-.85.81-.4,2.52,1.36,5.41-1.18-1.48-2.3-1.74-3.16-.87s0,2.43,1,4c-.83-1-2.05-1.57-2.36-.48-.41,1.42,3,8.79,11.19,20.81" transform="translate(-9.89 -57.26)"/><path class="cls-44" d="M703.28,236.93s17.94.75,23.32,21.17c2.43,9.2,4,72.32,4,72.32L665,330s.87-57.06,2.34-69.42c2.68-22.58,20.46-24,20.46-24s.81,2,7.76,2S703.28,236.93,703.28,236.93Z" transform="translate(-9.89 -57.26)"/><path class="cls-44" d="M703.28,236.93c21.29,0,34.4,29.24,34.4,29.24l-13.39,6.72" transform="translate(-9.89 -57.26)"/><path class="cls-9" d="M675.15,278.42s-11.36,16.35-20.53,17.24c-12.33,1.19-34.26-39.85-34.26-39.85l13.84-9.35,18.95,23.83,6.46-9.66" transform="translate(-9.89 -57.26)"/><path class="cls-44" d="M687.83,236.58c-18.33,1-31.75,28.31-31.75,28.31l21.46,15.41,12.18-15.89" transform="translate(-9.89 -57.26)"/><line class="cls-45" x1="666.91" y1="222.5" x2="677.29" y2="208.99"/><path class="cls-45" d="M728.4,270.83a76.86,76.86,0,0,0-4.11-15.92" transform="translate(-9.89 -57.26)"/><path class="cls-9" d="M686.91,218s-3,1.42-2.8,2a10.71,10.71,0,0,0,1,1.85" transform="translate(-9.89 -57.26)"/><line class="cls-43" x1="653.62" y1="398.98" x2="685.47" y2="398.98"/><line class="cls-43" x1="694.35" y1="399.25" x2="725.33" y2="399.25"/></g></g></svg>