<svg xmlns="http://www.w3.org/2000/svg" xmlns:xlink="http://www.w3.org/1999/xlink" viewBox="0 0 520.02 450.48"><defs><style>.cls-1{isolation:isolate;}.cls-2{fill:url(#linear-gradient);}.cls-3{fill:url(#linear-gradient-2);}.cls-18,.cls-19,.cls-22,.cls-30,.cls-4{fill:none;}.cls-4{stroke:#1dceb4;stroke-width:1.09px;}.cls-18,.cls-19,.cls-30,.cls-4{stroke-linecap:round;}.cls-22,.cls-30,.cls-4{stroke-miterlimit:10;}.cls-5{fill:url(#linear-gradient-3);}.cls-6{fill:url(#linear-gradient-4);}.cls-7{fill:url(#linear-gradient-5);}.cls-8{fill:url(#linear-gradient-6);}.cls-9{fill:url(#linear-gradient-7);}.cls-10{fill:url(#linear-gradient-8);}.cls-11{fill:url(#linear-gradient-9);}.cls-12{fill:#f98091;}.cls-13{fill:#62a5e7;}.cls-14{fill:#fff;}.cls-15{fill:#c1c7d3;}.cls-16{fill:#a9b2bf;}.cls-17{fill:#91b6e0;}.cls-18,.cls-19{stroke:#01004c;stroke-linejoin:round;}.cls-18{stroke-width:2.27px;}.cls-19{stroke-width:1.13px;}.cls-20{fill:#01004c;}.cls-21{fill:#f995a6;}.cls-22{stroke:#f98091;stroke-width:0.85px;}.cls-23{fill:#e4e9ff;}.cls-24{fill:#fcd98e;}.cls-25{fill:#e2697d;}.cls-26{fill:#33337c;}.cls-27{fill:#282766;}.cls-28{fill:#ffadb7;}.cls-29{opacity:0.51;fill:url(#radial-gradient);}.cls-29,.cls-31,.cls-32{mix-blend-mode:overlay;}.cls-30{stroke:#ef8998;stroke-width:0.57px;}.cls-31{opacity:0.75;fill:url(#linear-gradient-10);}.cls-32{opacity:0.5;fill:url(#linear-gradient-11);}.cls-33{fill:#dae2f5;}.cls-34{fill:#8ea3f5;}.cls-35{fill:#f38061;}</style><linearGradient id="linear-gradient" x1="379.5" y1="493.2" x2="379.5" y2="181.48" gradientUnits="userSpaceOnUse"><stop offset="0" stop-color="#a3cae2"/><stop offset="0.53" stop-color="#cbe4f7"/></linearGradient><linearGradient id="linear-gradient-2" x1="194.52" y1="398.18" x2="159.93" y2="338.27" gradientUnits="userSpaceOnUse"><stop offset="0" stop-color="#148275"/><stop offset="0.09" stop-color="#148b7c"/><stop offset="0.45" stop-color="#14a692"/><stop offset="0.76" stop-color="#14b79f"/><stop offset="1" stop-color="#14bda4"/></linearGradient><linearGradient id="linear-gradient-3" x1="192.19" y1="382.79" x2="180.51" y2="316.53" xlink:href="#linear-gradient-2"/><linearGradient id="linear-gradient-4" x1="209.62" y1="367.43" x2="209.62" y2="281.67" xlink:href="#linear-gradient-2"/><linearGradient id="linear-gradient-5" x1="232.04" y1="355.81" x2="242.32" y2="297.52" xlink:href="#linear-gradient-2"/><linearGradient id="linear-gradient-6" x1="453.91" y1="405.91" x2="447.11" y2="367.37" xlink:href="#linear-gradient-2"/><linearGradient id="linear-gradient-7" x1="478.66" y1="403.28" x2="478.66" y2="347.14" xlink:href="#linear-gradient-2"/><linearGradient id="linear-gradient-8" x1="502.27" y1="407.76" x2="502.27" y2="331.38" xlink:href="#linear-gradient-2"/><linearGradient id="linear-gradient-9" x1="519.99" y1="411.09" x2="530.3" y2="352.58" xlink:href="#linear-gradient-2"/><radialGradient id="radial-gradient" cx="247.79" cy="138.26" r="6.13" gradientUnits="userSpaceOnUse"><stop offset="0"/><stop offset="1" stop-opacity="0"/></radialGradient><linearGradient id="linear-gradient-10" x1="347.95" y1="189.57" x2="351.08" y2="188.11" gradientUnits="userSpaceOnUse"><stop offset="0.21" stop-opacity="0"/><stop offset="1"/></linearGradient><linearGradient id="linear-gradient-11" x1="337.09" y1="267.66" x2="365.86" y2="217.84" gradientUnits="userSpaceOnUse"><stop offset="0.05" stop-opacity="0"/><stop offset="1"/></linearGradient></defs><title>about-2</title><g class="cls-1"><g id="OBJECTS"><path class="cls-2" d="M191.64,493.2c23.42-104.71-48.27-152.65-34.38-218.07S211,167.13,280.71,186s98.36,75.28,186.18,52.88S599.53,233.45,603.11,285,588.37,447.34,557.2,493.2Z" transform="translate(-114.46 -43.85)"/><path class="cls-3" d="M182.57,405.07c-1.79-13.67,3.58-22-12.55-29.13s-24.65-15.46-20.16-28.23,28-13.44,36.07-2.69,13.67,23.3,12.77,41.45Z" transform="translate(-114.46 -43.85)"/><path class="cls-4" d="M161.89,353.24s27.78-.3,28.83,38.84" transform="translate(-114.46 -43.85)"/><path class="cls-5" d="M196.69,382s-1.32-29.52-15.91-37-20.16-11.2-17.7-20.61,22.63-8.74,31.14,1.79,14.34,22.63,14.34,41.9Z" transform="translate(-114.46 -43.85)"/><path class="cls-4" d="M170.1,325.76s27.63.39,32.56,45.53" transform="translate(-114.46 -43.85)"/><path class="cls-6" d="M206.1,367.43A235.91,235.91,0,0,0,196,331.58c-6.95-18.6-6.27-47.27,6.72-49.74s9,21.51,15.91,34.5,12.1,23.75,6.72,40.1Z" transform="translate(-114.46 -43.85)"/><path class="cls-4" d="M202.66,287.52c-5.23,28.38,11.35,30.92,13,71.55" transform="translate(-114.46 -43.85)"/><path class="cls-7" d="M224.92,354.55S219,335,224.36,317.29s23.53-23.35,29.57-15.4-10.31,21.4-4.82,41.11Z" transform="translate(-114.46 -43.85)"/><path class="cls-4" d="M246.87,304.7s-19.27,15.83-11.2,41.52" transform="translate(-114.46 -43.85)"/><path class="cls-8" d="M451.65,400.74c-3.73-6.12-20.16-14.82-18.22-24.94s20.31-11.35,27.78,2.09a59.22,59.22,0,0,1,7.62,25.39Z" transform="translate(-114.46 -43.85)"/><path class="cls-4" d="M442.92,375.21s15.53,3.65,15.61,24" transform="translate(-114.46 -43.85)"/><path class="cls-9" d="M467.19,400.14c-4.63-9.41-10-30.32-4.33-43.17s22.85-13.74,21.81,1-4.33,31.07,12.25,45.26Z" transform="translate(-114.46 -43.85)"/><path class="cls-4" d="M474.06,353s-11,10,2.24,44.58" transform="translate(-114.46 -43.85)"/><path class="cls-10" d="M491.39,406.42c-7.62-9.86-15.14-19.42-12.72-34.2S488.1,352.5,499.9,344s23-17,26.14-10-19.12,22.7-21.14,36.15S516,407.76,516,407.76Z" transform="translate(-114.46 -43.85)"/><path class="cls-4" d="M518.87,339s-45.69,21.06-23.4,64.3" transform="translate(-114.46 -43.85)"/><path class="cls-11" d="M507.07,405.52c-2.09-12.25-8-33.76,7.36-46.6s37.45-2.24,34.61,8.36-19.61,7.75-23.75,20.89a34.44,34.44,0,0,0,1.45,24.11Z" transform="translate(-114.46 -43.85)"/><path class="cls-4" d="M541.95,364.52s-38.68-5.15-27.52,36.52" transform="translate(-114.46 -43.85)"/><path class="cls-12" d="M171.15,493.2H548.89s42.57-85.59-65-95.59-87.38-61.09-183.72-66S157.7,405.67,171.15,493.2Z" transform="translate(-114.46 -43.85)"/><path class="cls-13" d="M454.83,493.2C442,471.09,438.7,440,478.58,425.09s36.3-61.75,100.52-55.52,32.56,105.11,23,123.63Z" transform="translate(-114.46 -43.85)"/><path class="cls-14" d="M458.53,295.44H388.25a2,2,0,0,1-2-2h0a2,2,0,0,1,2-2h70.28Z" transform="translate(-114.46 -43.85)"/><path class="cls-15" d="M477.94,238.83v52.58h13.44l10.39-50.8a1.48,1.48,0,0,0-1.45-1.78Z" transform="translate(-114.46 -43.85)"/><path class="cls-16" d="M344.07,247.55h32.86a0,0,0,0,1,0,0v2a2.07,2.07,0,0,1-2.07,2.07H344.07a0,0,0,0,1,0,0v-4A0,0,0,0,1,344.07,247.55Z"/><path class="cls-14" d="M424.58,238.83H499L488.2,291.41H411.88l10.36-50.66A2.39,2.39,0,0,1,424.58,238.83Z" transform="translate(-114.46 -43.85)"/><path class="cls-17" d="M415,287.37l9.22-45.09a1.48,1.48,0,0,1,1.45-1.18h68.69a1.48,1.48,0,0,1,1.45,1.77L486.6,288a1.48,1.48,0,0,1-1.45,1.18H416.46A1.48,1.48,0,0,1,415,287.37Z" transform="translate(-114.46 -43.85)"/><path class="cls-14" d="M452.57,283.51l.26-2.49a6,6,0,0,1-5.14-2.33,9.15,9.15,0,0,1-1.47-5.44q0-.34,0-.69l3.62-1q0,.42,0,.81,0,.85.09,1.54a7.69,7.69,0,0,0,.47,2,3,3,0,0,0,1.12,1.47,3.29,3.29,0,0,0,1.91.52A3.56,3.56,0,0,0,456,277a4.05,4.05,0,0,0,1.11-2.62q0-.35,0-.67a5.73,5.73,0,0,0-.05-.78,6.19,6.19,0,0,0-.29-1.19,4.74,4.74,0,0,0-.6-1.09,11.91,11.91,0,0,0-.75-1q-.34-.38-1-1L450,264.28a7.78,7.78,0,0,1-1.85-2.83,7.09,7.09,0,0,1-.37-2.38,11,11,0,0,1,.07-1.22,7.24,7.24,0,0,1,2.26-4.83,7.67,7.67,0,0,1,5-1.88l.25-2.45h1.24l-.25,2.47a5.43,5.43,0,0,1,4.29,2,8.87,8.87,0,0,1,1.29,5.23v.28l-3.44.92q0-.41,0-.79a11.75,11.75,0,0,0-.07-1.36,6.45,6.45,0,0,0-.44-1.73,2.31,2.31,0,0,0-1.06-1.2,3.11,3.11,0,0,0-1.5-.34l-.34,0q-3.37.19-3.69,3.27a6.1,6.1,0,0,0,0,.64,4,4,0,0,0,.26,1.52,6,6,0,0,0,1.29,1.85l4.5,4.4a12.92,12.92,0,0,1,2.68,3.73,8.05,8.05,0,0,1,.72,3.44q0,.49-.05,1a7.64,7.64,0,0,1-2.15,4.77,7.43,7.43,0,0,1-4.58,2.12l-.28,2.54Z" transform="translate(-114.46 -43.85)"/><line class="cls-18" x1="274.76" y1="258.16" x2="265.24" y2="449.35"/><line class="cls-18" x1="390.44" y1="258.16" x2="399.97" y2="449.35"/><line class="cls-18" x1="271.59" y1="321.82" x2="393.72" y2="321.82"/><line class="cls-19" x1="312.4" y1="258.16" x2="310.31" y2="449.35"/><rect class="cls-20" x="274.39" y="261" width="116.28" height="5.23"/><path class="cls-13" d="M513.6,306H380.52a5.27,5.27,0,0,1-5.27-5.27h0a5.27,5.27,0,0,1,5.27-5.27H513.6a5.27,5.27,0,0,1,5.27,5.27h0A5.27,5.27,0,0,1,513.6,306Z" transform="translate(-114.46 -43.85)"/><rect class="cls-19" x="96.13" y="96.6" width="161.18" height="69.25"/><rect class="cls-12" x="113.91" y="113.12" width="40.55" height="4.09"/><rect class="cls-17" x="113.91" y="129.17" width="128.75" height="4.09"/><rect class="cls-17" x="113.91" y="145.23" width="128.75" height="4.09"/><path class="cls-12" d="M0,97.95H48.06a0,0,0,0,1,0,0v31.81a0,0,0,0,1,0,0H3.53A3.53,3.53,0,0,1,0,126.24V97.95A0,0,0,0,1,0,97.95Z"/><path class="cls-21" d="M117.37,138.89a2.91,2.91,0,1,0,0,5.83h45.15v-5.83Z" transform="translate(-114.46 -43.85)"/><line class="cls-22" x1="3.51" y1="97.95" x2="48.06" y2="97.95"/><path class="cls-23" d="M138.43,169.48v-1.62q-4.08-.14-4.3-5l2.63-.55q.09,3.28,1.87,3.28a1.21,1.21,0,0,0,1-.42A1.77,1.77,0,0,0,140,164a3.56,3.56,0,0,0-.12-1,2.67,2.67,0,0,0-.38-.81,5.48,5.48,0,0,0-.53-.66q-.27-.28-.73-.68L136,159a6.06,6.06,0,0,1-1.42-1.74,4.86,4.86,0,0,1-.47-2.25,3.93,3.93,0,0,1,1.05-2.89,4.23,4.23,0,0,1,2.87-1.17v-1.53h.87V151a4.09,4.09,0,0,1,1.67.44,2.86,2.86,0,0,1,1.09,1,5.06,5.06,0,0,1,.59,1.35,9,9,0,0,1,.26,1.64l-2.58.51c0-.33,0-.62-.07-.87a4.61,4.61,0,0,0-.15-.75,2,2,0,0,0-.28-.61,1.19,1.19,0,0,0-.46-.37,1.33,1.33,0,0,0-.69-.11,1.4,1.4,0,0,0-1,.44,1.57,1.57,0,0,0-.35,1.08,2.48,2.48,0,0,0,.31,1.3,5.16,5.16,0,0,0,1,1.11L140.4,159a12.18,12.18,0,0,1,.94.95,7.83,7.83,0,0,1,.77,1,4.81,4.81,0,0,1,.55,1.29,5.75,5.75,0,0,1,.19,1.49,4,4,0,0,1-1,2.75,3.92,3.92,0,0,1-2.6,1.27v1.64Z" transform="translate(-114.46 -43.85)"/><rect class="cls-19" x="133.4" y="29.59" width="57.53" height="37.94"/><polygon class="cls-17" points="177.91 39.75 177.91 37.95 174.66 37.95 173.45 37.95 172.87 37.95 172.87 54.53 148 54.53 148 56.33 152.15 56.33 173.77 56.33 177.91 56.33 177.91 54.53 174.66 54.53 174.66 39.75 177.91 39.75"/><circle class="cls-17" cx="152.15" cy="58.57" r="2.24"/><circle class="cls-17" cx="173.77" cy="58.57" r="2.24"/><polygon class="cls-17" points="170.74 37.95 145.43 37.95 148 52.68 170.74 52.68 170.74 37.95"/><rect class="cls-19" x="392.21" y="41.69" width="51.18" height="33.76"/><path class="cls-12" d="M542.82,95.24c-3.23-6.12-10.56,1.35-10.56,1.35s-7.33-7.47-10.56-1.35c-4.64,8.79,10.56,16.36,10.56,16.36S547.46,104,542.82,95.24Z" transform="translate(-114.46 -43.85)"/><rect class="cls-13" x="470.01" y="112.54" width="50.02" height="29.95" rx="4.41" ry="4.41"/><rect class="cls-24" x="470.01" y="119.55" width="50.02" height="3.4"/><rect class="cls-23" x="475.57" y="132.01" width="6.87" height="3.33"/><rect class="cls-23" x="485.34" y="132.01" width="6.87" height="3.33"/><rect class="cls-23" x="495.11" y="132.01" width="13.95" height="3.33"/><line class="cls-19" x1="475.57" y1="127.51" x2="498.86" y2="127.51"/><polygon class="cls-25" points="346.59 123.34 305.81 123.34 310.34 70.76 340.92 70.76 346.59 123.34"/><path class="cls-19" d="M426.29,115.55h19.57v-7.13a9.78,9.78,0,0,0-9.78-9.78h0a9.78,9.78,0,0,0-9.78,9.78Z" transform="translate(-114.46 -43.85)"/><polygon class="cls-12" points="338.78 123.34 298 123.34 302.54 70.76 333.12 70.76 338.78 123.34"/><circle class="cls-19" cx="434.83" cy="200.6" r="17.03"/><path class="cls-12" d="M543.83,245.6a3.32,3.32,0,0,1-2.74-1.06,4.88,4.88,0,0,1-.86-3.13v-.88a4.81,4.81,0,0,1,.83-3.11,3.41,3.41,0,0,1,2.76-1,3.48,3.48,0,0,1,2.77,1,4.61,4.61,0,0,1,.84,3.06v1a4.77,4.77,0,0,1-.86,3.1A3.39,3.39,0,0,1,543.83,245.6Zm0-1.93a1.12,1.12,0,0,0,.53-.12,1,1,0,0,0,.35-.3,1.5,1.5,0,0,0,.2-.49,3.49,3.49,0,0,0,.1-.61q0-.3,0-.73v-.9c0-.3,0-.54,0-.73a4,4,0,0,0-.08-.57,1.14,1.14,0,0,0-.19-.45.9.9,0,0,0-.35-.26,1.32,1.32,0,0,0-.54-.1,1.27,1.27,0,0,0-.54.11.93.93,0,0,0-.35.26,1.12,1.12,0,0,0-.19.46,4,4,0,0,0-.09.58q0,.28,0,.73v.91a8.36,8.36,0,0,0,0,.9,3,3,0,0,0,.16.69.94.94,0,0,0,.36.49A1.11,1.11,0,0,0,543.83,243.66ZM546,253l4.66-16.51h2L547.94,253Zm8.75.07A3.32,3.32,0,0,1,552,252a4.88,4.88,0,0,1-.86-3.13V248a4.81,4.81,0,0,1,.83-3.11,3.4,3.4,0,0,1,2.76-1,3.5,3.5,0,0,1,2.77,1,4.6,4.6,0,0,1,.84,3.05v1a4.77,4.77,0,0,1-.86,3.1A3.39,3.39,0,0,1,554.73,253.07Zm0-1.94a1.11,1.11,0,0,0,.54-.12,1,1,0,0,0,.35-.3,1.39,1.39,0,0,0,.2-.49,3.94,3.94,0,0,0,.09-.61q0-.3,0-.73V248c0-.3,0-.54,0-.73a4,4,0,0,0-.09-.58,1.15,1.15,0,0,0-.19-.45.93.93,0,0,0-.35-.26,1.3,1.3,0,0,0-.55-.11,1.28,1.28,0,0,0-.54.11.89.89,0,0,0-.35.27,1.15,1.15,0,0,0-.19.46,4.12,4.12,0,0,0-.08.58q0,.28,0,.73v.9a8.52,8.52,0,0,0,0,.9,3,3,0,0,0,.16.69.94.94,0,0,0,.36.49A1.12,1.12,0,0,0,554.73,251.13Z" transform="translate(-114.46 -43.85)"/><path class="cls-26" d="M323.2,326.21c14.64,44.21,14,108.93,9.54,135.82l10.68,3s26.68-72.82,16.53-127.78Z" transform="translate(-114.46 -43.85)"/><polygon class="cls-23" points="228.96 421.19 242.8 438.99 213.86 429.07 218.28 418.17 228.96 421.19"/><polygon class="cls-20" points="177.07 289.19 232.12 289.19 232.4 295.13 176.72 295.13 177.07 289.19"/><line class="cls-18" x1="177.08" y1="287.73" x2="169.31" y2="449.35"/><line class="cls-18" x1="232.04" y1="287.73" x2="239.81" y2="449.35"/><line class="cls-18" x1="236.62" y1="382.95" x2="172.5" y2="382.95"/><rect class="cls-13" x="166.25" y="280.56" width="76.62" height="10.53" rx="4.52" ry="4.52"/><path class="cls-20" d="M338.31,223.82c-11.45-25.09-17.44-69.23,18-73.26,0,0,10.76-8.51,23.34,3.14s-4.22,40.55-2.42,62.29,25.54,41.67,10.31,60.72-35,14.14-42.37-13.65S338.31,223.82,338.31,223.82Z" transform="translate(-114.46 -43.85)"/><path class="cls-27" d="M342.32,415.38l8.07,7.62s35.4-15.68,41-51.08-19-63-35.62-75.73l-56.68-1.57s-6.95,24.87,18.6,34.06,39.66,1.79,47.5,28.68S342.32,415.38,342.32,415.38Z" transform="translate(-114.46 -43.85)"/><polygon class="cls-23" points="235.93 379.14 239.96 401.32 218.9 379.14 227.86 371.53 235.93 379.14"/><path class="cls-28" d="M338.31,193.54l9.05,4.29,4.11-8.87s13,9.54,19.38-3.91a5.65,5.65,0,0,0,4,0s-1.51-7.67,1.18-14.68c0,0-5.23-9.61-10.92-4.26-3.65,3.43-7.23,5.43-8.57,4s2.33-4.91-.39-7.77a5.58,5.58,0,0,0-8.55.7c-4.42,6.73,1.12,9.86,1.12,9.86Z" transform="translate(-114.46 -43.85)"/><circle class="cls-29" cx="247.79" cy="138.26" r="6.13"/><path class="cls-30" d="M366.37,172.21a4.86,4.86,0,0,1,4,2.54" transform="translate(-114.46 -43.85)"/><path class="cls-30" d="M348.35,165.81a10.34,10.34,0,0,1,.91-1.67,3.37,3.37,0,0,1,2.85-1.46,3.47,3.47,0,0,1,2.25.79" transform="translate(-114.46 -43.85)"/><path class="cls-30" d="M350.95,162.87a5.36,5.36,0,0,0,.78,2.94" transform="translate(-114.46 -43.85)"/><path class="cls-31" d="M350,192.07h0l1.44-3.11a32.48,32.48,0,0,1-3.86-2.7A5.78,5.78,0,0,0,350,192.07Z" transform="translate(-114.46 -43.85)"/><path class="cls-24" d="M362.25,301.62c-19.26,12-32.82,19.21-69.45,11.36,0,0,6.27-35,11.65-67.89s17.25-53.55,35.18-52.2,23.52,39.66,20.61,64.75,2,43,2,43" transform="translate(-114.46 -43.85)"/><path class="cls-32" d="M345.21,207.51c.7,1.52-11.92,16.06-11.92,16.06-.15,18,6.34,51.23,26.18,56.06h0a138.34,138.34,0,0,1,.78-22c1.6-13.83.61-31.66-3.59-45.12C349.78,209.22,345,207.06,345.21,207.51Z" transform="translate(-114.46 -43.85)"/><path class="cls-28" d="M413,283.49s-10.46-4.33-27.33-17.63c-8.5-6.69-14.53-19.21-19.83-32.09L342,245.9c19.8,31,66.22,45.5,66.22,45.5h23.6C430.44,281.85,413,283.49,413,283.49Z" transform="translate(-114.46 -43.85)"/><path class="cls-24" d="M350.64,199.81s-29.23,3.92-12.35,39.47A60.54,60.54,0,0,0,342,245.9c11.12-3.1,18.75-7.79,23.84-12.13C360.58,221.06,356.08,208,350.64,199.81Z" transform="translate(-114.46 -43.85)"/><circle class="cls-33" cx="95.64" cy="43.37" r="10.48"/><path class="cls-34" d="M215.16,80.44c-1.51-.38-3.72,2-5,5.4-1.8-2.93-4.23-4.83-5.6-4.29s-1.13,3.63.69,6.84c1.5,2.65,3.56,4.57,5,4.85l.23.08c1.56.39,3.86-2.17,5.16-5.73S216.71,80.83,215.16,80.44Z" transform="translate(-114.46 -43.85)"/><circle class="cls-33" cx="332.4" cy="26.63" r="10.48"/><path class="cls-34" d="M451.92,63.71c-1.51-.38-3.72,2-5,5.4-1.8-2.93-4.23-4.83-5.6-4.29s-1.13,3.63.69,6.84c1.5,2.65,3.56,4.57,5,4.85l.23.08c1.56.39,3.86-2.17,5.16-5.73S453.47,64.1,451.92,63.71Z" transform="translate(-114.46 -43.85)"/><circle class="cls-35" cx="241.06" cy="14.68" r="14.68"/><circle class="cls-14" cx="232.4" cy="15.28" r="2.69"/><circle class="cls-14" cx="240.77" cy="15.28" r="2.69"/><circle class="cls-14" cx="249.13" cy="15.28" r="2.69"/><circle class="cls-35" cx="396.29" cy="142.95" r="14.68"/><circle class="cls-14" cx="387.63" cy="143.55" r="2.69"/><circle class="cls-14" cx="395.99" cy="143.55" r="2.69"/><circle class="cls-14" cx="404.36" cy="143.55" r="2.69"/></g></g></svg>