<svg id="OBJECTS" xmlns="http://www.w3.org/2000/svg" viewBox="0 0 463.07 409.05"><defs><style>.cls-1{fill:#d9e4f5;}.cls-2{fill:#c7d9ed;}.cls-3{fill:#b4cae3;}.cls-4{fill:#e2771a;}.cls-5{fill:#0060e6;}.cls-6{fill:#007eff;}.cls-7{fill:#f4c754;}.cls-8{fill:#f2bb31;}.cls-9{fill:#00a0ff;}.cls-10{fill:#3b3e7d;}.cls-11{fill:#18285d;}.cls-12{fill:#fff;}.cls-13{fill:#021147;}.cls-14{fill:#b9d2f0;}.cls-15{fill:#043c62;}.cls-16{fill:#06df9e;}.cls-17{fill:#ff6262;}.cls-18{fill:#0074ec;}.cls-19{fill:#ff5449;}.cls-20{fill:#5793ce;}.cls-21{fill:#fb9a83;}.cls-22{fill:#ff6d6b;}.cls-23{fill:#242d38;}.cls-24{fill:#286ae0;}.cls-25{fill:#ff2b25;}.cls-26{fill:#ffd3c1;}.cls-27{fill:#e79f00;}.cls-28{fill:#0070d4;}.cls-29{fill:#1a100e;}.cls-30{fill:#ed495c;}.cls-31{fill:#3c3c48;}.cls-32{fill:#173d7a;}</style></defs><title>about2-15</title><ellipse class="cls-1" cx="229.33" cy="333.72" rx="223.07" ry="26.7"/><path class="cls-1" d="M133.79,84.35A3.86,3.86,0,0,1,130,88.19H47.84a3.83,3.83,0,0,1-2.71-6.55,3.79,3.79,0,0,1,2.71-1.13h3.88A10,10,0,0,1,68,77.41a13.9,13.9,0,0,1,16-6.26,15.89,15.89,0,0,1,29.36,3.21,10,10,0,0,1,14.09,6.15H130A3.85,3.85,0,0,1,133.79,84.35Z" transform="translate(-17.13 -62.7)"/><path class="cls-1" d="M429.15,86.18A3.86,3.86,0,0,1,425.31,90H343.2a3.83,3.83,0,0,1-2.71-6.55,3.79,3.79,0,0,1,2.71-1.13h3.88a10,10,0,0,1,16.29-3.1,13.9,13.9,0,0,1,16-6.26,15.89,15.89,0,0,1,29.36,3.21,10,10,0,0,1,14.09,6.15h2.47A3.85,3.85,0,0,1,429.15,86.18Z" transform="translate(-17.13 -62.7)"/><path class="cls-1" d="M295.46,111.89a3.86,3.86,0,0,1-3.84,3.84H209.51a3.83,3.83,0,0,1-2.71-6.55,3.8,3.8,0,0,1,2.71-1.13h3.88a10,10,0,0,1,16.29-3.1,13.9,13.9,0,0,1,16-6.26,15.89,15.89,0,0,1,29.36,3.21A10,10,0,0,1,289.15,108h2.47A3.85,3.85,0,0,1,295.46,111.89Z" transform="translate(-17.13 -62.7)"/><path class="cls-2" d="M399.63,263.91c4.71-8.42,13.72-26.09,17.59-44.33,5.79-27.26,18.68-28.47,23.39-20.66,12.94,21.44-22.09,58.18-33.23,69Z" transform="translate(-17.13 -62.7)"/><path class="cls-3" d="M402.58,265.44a174.68,174.68,0,0,0,19.41-32,189,189,0,0,0,8.56-20.87.61.61,0,0,1,1.17.38,190.13,190.13,0,0,1-8.61,21,176.13,176.13,0,0,1-19.42,32Z" transform="translate(-17.13 -62.7)"/><path class="cls-2" d="M90.69,344.27c-4.32-8.62-12.51-26.68-15.55-45.09-4.54-27.5-17.36-29.29-22.43-21.71-13.9,20.82,19.42,59.13,30,70.47Z" transform="translate(-17.13 -62.7)"/><path class="cls-3" d="M87.67,345.66a174.68,174.68,0,0,1-17.93-32.83,189,189,0,0,1-7.59-21.23.61.61,0,0,0-1.18.32,190.16,190.16,0,0,0,7.64,21.37,176.14,176.14,0,0,0,17.94,32.9Z" transform="translate(-17.13 -62.7)"/><path class="cls-1" d="M101.24,369.33c-9.33-9.4-29.7-31.44-42.54-56.45-18.42-35.9-36.89-32.69-40.52-20C8.82,325.7,64,361.37,86.92,374.55Z" transform="translate(-17.13 -62.7)"/><path class="cls-2" d="M96.2,371.17c-16.07-12.05-29.66-26.32-38.9-37.08a273.58,273.58,0,0,1-19.86-25.91.89.89,0,0,0-1.49,1,275.24,275.24,0,0,0,20,26.08c9.12,10.63,22.47,24.66,38.28,36.67Z" transform="translate(-17.13 -62.7)"/><path class="cls-1" d="M393,281c9.75-9,31.1-30,45.07-54.45,20-35,38.34-31,41.39-18.13,7.87,33.22-48.91,66.34-72.38,78.45Z" transform="translate(-17.13 -62.7)"/><path class="cls-2" d="M398,283.08c16.61-11.31,30.83-24.94,40.55-35.26a273.59,273.59,0,0,0,21-25,.89.89,0,0,1,1.44,1A275.23,275.23,0,0,1,439.82,249c-9.6,10.21-23.57,23.61-39.91,34.88Z" transform="translate(-17.13 -62.7)"/><path class="cls-1" d="M112.61,226.47c-9.65-5.75-31.06-19.55-46.9-37.39C43,163.48,28.48,170,28.19,181.22c-.76,29,52.16,46.59,73.76,52.57Z" transform="translate(-17.13 -62.7)"/><path class="cls-2" d="M108.85,229A215,215,0,0,1,69,206.81a232.15,232.15,0,0,1-21.8-17.09.75.75,0,0,0-1,1.11A233.54,233.54,0,0,0,68.16,208a217.74,217.74,0,0,0,39.21,22Z" transform="translate(-17.13 -62.7)"/><path class="cls-2" d="M164.62,115.77c1.6-15,.35-29.52-7.12-25.94s-4.86,28.51,5.31,44.95l2.12,6.42c-7.2-12.11-21.57-22.37-27.46-18.54s4.32,9.77,14.53,13.67c7.77,3,12.18,6.69,14.23,8.79l10,30.32c-11.46-19.15-34.15-35.32-43.48-29.25s6.86,15.51,23.06,21.69c12.24,4.67,19.23,10.53,22.51,13.88l2,6,3.3-.57-11.92-36.07a42.93,42.93,0,0,1,5.54-12.27c5.88-9.21,10.51-20.06,3.53-19.63-6.05.37-10.92,12.92-11.23,25.35l-4.12-12.48A62.38,62.38,0,0,1,164.62,115.77Z" transform="translate(-17.13 -62.7)"/><path class="cls-1" d="M455,281.54C459,267,465.54,254,471.17,260.06s-6,28.29-21.53,39.81l-4.34,5.18c11.16-8.6,28.3-12.83,32.37-7.09s-7.63,7.49-18.55,7.34c-8.32-.11-13.79,1.72-16.47,2.92l-20.5,24.48c17.72-13.56,44.78-20.21,51.21-11.13s-12.1,11.88-29.44,11.64c-13.1-.18-21.76,2.68-26,4.59l-4.09,4.88-2.86-1.75,24.39-29.12a42.94,42.94,0,0,0-.62-13.44c-2.06-10.73-2.36-22.53,4-19.55,5.49,2.58,5.38,16,1.08,27.71l8.44-10.07A62.38,62.38,0,0,0,455,281.54Z" transform="translate(-17.13 -62.7)"/><path class="cls-4" d="M433.54,169.65a4.86,4.86,0,1,1,4.86-4.86A4.87,4.87,0,0,1,433.54,169.65Zm0-8.2a3.34,3.34,0,1,0,3.34,3.34A3.34,3.34,0,0,0,433.54,161.46Z" transform="translate(-17.13 -62.7)"/><path class="cls-5" d="M458.24,174.6a4.86,4.86,0,1,1,4.86-4.86A4.87,4.87,0,0,1,458.24,174.6Zm0-8.2a3.34,3.34,0,1,0,3.34,3.34A3.34,3.34,0,0,0,458.24,166.4Z" transform="translate(-17.13 -62.7)"/><path class="cls-6" d="M469.94,184.52a.76.76,0,0,1-.76-.76V180.4a.76.76,0,0,1,1.52,0v3.36A.76.76,0,0,1,469.94,184.52Z" transform="translate(-17.13 -62.7)"/><path class="cls-6" d="M469.94,190.4a.76.76,0,0,1-.76-.76v-3.36a.76.76,0,0,1,1.52,0v3.36A.76.76,0,0,1,469.94,190.4Z" transform="translate(-17.13 -62.7)"/><path class="cls-6" d="M474.66,185.78h-3a.76.76,0,1,1,0-1.52h3a.76.76,0,0,1,0,1.52Z" transform="translate(-17.13 -62.7)"/><path class="cls-6" d="M468.24,185.78h-3a.76.76,0,1,1,0-1.52h3a.76.76,0,0,1,0,1.52Z" transform="translate(-17.13 -62.7)"/><path class="cls-7" d="M444,179a.76.76,0,0,1-.76-.76v-3.36a.76.76,0,0,1,1.52,0v3.36A.76.76,0,0,1,444,179Z" transform="translate(-17.13 -62.7)"/><path class="cls-7" d="M444,184.92a.76.76,0,0,1-.76-.76V180.8a.76.76,0,1,1,1.52,0v3.36A.76.76,0,0,1,444,184.92Z" transform="translate(-17.13 -62.7)"/><path class="cls-7" d="M448.7,180.3h-3a.76.76,0,1,1,0-1.52h3a.76.76,0,1,1,0,1.52Z" transform="translate(-17.13 -62.7)"/><path class="cls-7" d="M442.29,180.3h-3a.76.76,0,1,1,0-1.52h3a.76.76,0,1,1,0,1.52Z" transform="translate(-17.13 -62.7)"/><path class="cls-4" d="M37.7,261.52a4.86,4.86,0,1,1-4.86-4.86A4.87,4.87,0,0,1,37.7,261.52Zm-8.2,0a3.34,3.34,0,1,0,3.34-3.34A3.34,3.34,0,0,0,29.51,261.52Z" transform="translate(-17.13 -62.7)"/><path class="cls-5" d="M42.65,236.82A4.86,4.86,0,1,1,37.79,232,4.87,4.87,0,0,1,42.65,236.82Zm-8.2,0a3.34,3.34,0,1,0,3.34-3.34A3.34,3.34,0,0,0,34.45,236.82Z" transform="translate(-17.13 -62.7)"/><path class="cls-8" d="M52.57,225.11a.76.76,0,0,1-.76.76H48.45a.76.76,0,1,1,0-1.52h3.36A.76.76,0,0,1,52.57,225.11Z" transform="translate(-17.13 -62.7)"/><path class="cls-8" d="M58.46,225.11a.76.76,0,0,1-.76.76H54.33a.76.76,0,0,1,0-1.52h3.36A.76.76,0,0,1,58.46,225.11Z" transform="translate(-17.13 -62.7)"/><path class="cls-8" d="M53.83,220.4v3a.76.76,0,1,1-1.52,0v-3a.76.76,0,1,1,1.52,0Z" transform="translate(-17.13 -62.7)"/><path class="cls-8" d="M53.83,226.81v3a.76.76,0,0,1-1.52,0v-3a.76.76,0,1,1,1.52,0Z" transform="translate(-17.13 -62.7)"/><path class="cls-5" d="M47.09,251.07a.76.76,0,0,1-.76.76H43a.76.76,0,0,1,0-1.52h3.36A.76.76,0,0,1,47.09,251.07Z" transform="translate(-17.13 -62.7)"/><path class="cls-5" d="M53,251.07a.76.76,0,0,1-.76.76H48.85a.76.76,0,1,1,0-1.52h3.36A.76.76,0,0,1,53,251.07Z" transform="translate(-17.13 -62.7)"/><path class="cls-5" d="M48.35,246.35v3a.76.76,0,1,1-1.52,0v-3a.76.76,0,1,1,1.52,0Z" transform="translate(-17.13 -62.7)"/><path class="cls-5" d="M48.35,252.77v3a.76.76,0,1,1-1.52,0v-3a.76.76,0,1,1,1.52,0Z" transform="translate(-17.13 -62.7)"/><path class="cls-9" d="M67.89,124.83a7.93,7.93,0,0,0-1.22-2.92,7.78,7.78,0,0,0-1.46-1.62,8,8,0,0,0-12.06,10l-9,10.76a2.15,2.15,0,0,0,.27,3l1,.86a8.11,8.11,0,0,0,1.8,1.14,8.2,8.2,0,0,0,2,.64,1.26,1.26,0,0,0,1.4-1.68L50,143l2.16.37a1.24,1.24,0,0,0,1.18-.43,1.26,1.26,0,0,0,.22-1.25l-.76-2.06,2.16.37a1.26,1.26,0,0,0,1.4-1.68l-.76-2.05,1.94-2.33a8,8,0,0,0,8.85-2.63c.13-.16.25-.33.36-.5a7,7,0,0,0,.39-.64A8,8,0,0,0,67.89,124.83ZM59.39,123a2.76,2.76,0,0,1,3.89-.36,2.62,2.62,0,0,1,.43.46,2.76,2.76,0,0,1-.08,3.44,2.84,2.84,0,0,1-.28.29,2.71,2.71,0,0,1-.83.51l-.13,0a2.71,2.71,0,0,1-.63.13H61.2l-.18,0h0l-.15,0-.13,0-.11,0-.17-.06-.22-.1a2.68,2.68,0,0,1-.49-.33,2.77,2.77,0,0,1-.59-3.56A2.63,2.63,0,0,1,59.39,123Z" transform="translate(-17.13 -62.7)"/><path class="cls-6" d="M54.65,134.48h0a.36.36,0,0,1,0,.51l-7,8.45a.36.36,0,0,1-.51,0h0a.36.36,0,0,1,0-.51l7-8.45A.36.36,0,0,1,54.65,134.48Z" transform="translate(-17.13 -62.7)"/><path class="cls-6" d="M53.07,133.16h0a.36.36,0,0,1,0,.51l-7,8.45a.36.36,0,0,1-.51,0h0a.36.36,0,0,1,0-.51l7-8.45A.36.36,0,0,1,53.07,133.16Z" transform="translate(-17.13 -62.7)"/><path class="cls-6" d="M63.35,126.79a2.87,2.87,0,0,1-.24.33,2.76,2.76,0,0,1-2.86.89,2.73,2.73,0,0,1-1-.54,2.76,2.76,0,0,1-.35-3.89,2.8,2.8,0,0,1,.28-.29,2.77,2.77,0,0,0,.59,3.56,2.68,2.68,0,0,0,.49.33l.22.1.17.06.11,0,.13,0,.15,0h0l.18,0h.56a2.71,2.71,0,0,0,.63-.13l.13,0A2.71,2.71,0,0,0,63.35,126.79Z" transform="translate(-17.13 -62.7)"/><path class="cls-6" d="M65.41,127.84a2.69,2.69,0,0,1,0-.41,2.77,2.77,0,0,1,2.49-2.61,7.93,7.93,0,0,0-1.22-2.92,7.86,7.86,0,0,0-3,1.15,2.76,2.76,0,0,1-.08,3.44,2.84,2.84,0,0,1-.28.29,2.71,2.71,0,0,1-.83.51l-.13,0a2.71,2.71,0,0,1-.63.13H61.2l-.18,0h0l-.15,0-.13,0-.11,0-.17-.06c-.08.24-.15.49-.2.74a8.13,8.13,0,0,0-.18,1.32,7.94,7.94,0,0,0,1.37,4.89,7.93,7.93,0,0,0,4.92-2.94c.13-.16.25-.33.36-.5a7,7,0,0,0,.39-.64A2.76,2.76,0,0,1,65.41,127.84Z" transform="translate(-17.13 -62.7)"/><path class="cls-9" d="M77.68,130.35a8,8,0,1,0-11.18,7.11l-.73,14a2.15,2.15,0,0,0,2,2.26l1.34.07a8.19,8.19,0,0,0,4.14-.88,1.26,1.26,0,0,0,.11-2.19l-1.84-1.19,2-1a1.26,1.26,0,0,0,.11-2.18l-1.84-1.19,2-1a1.26,1.26,0,0,0,.11-2.19L72,140.78l.16-3A8,8,0,0,0,77.68,130.35Zm-5.11-1.79a2.76,2.76,0,1,1,.05-.41A2.76,2.76,0,0,1,72.56,128.56Z" transform="translate(-17.13 -62.7)"/><path class="cls-6" d="M70.21,139.93h0a.36.36,0,0,1,.34.38l-.57,11a.36.36,0,0,1-.38.34h0a.36.36,0,0,1-.34-.38l.57-11A.36.36,0,0,1,70.21,139.93Z" transform="translate(-17.13 -62.7)"/><path class="cls-6" d="M68.16,139.82h0a.36.36,0,0,1,.34.38l-.57,11a.36.36,0,0,1-.38.34h0a.36.36,0,0,1-.34-.38l.57-11A.36.36,0,0,1,68.16,139.82Z" transform="translate(-17.13 -62.7)"/><path class="cls-6" d="M72.57,129a2.76,2.76,0,1,1-5.52-.29,2.71,2.71,0,0,1,.05-.4,2.76,2.76,0,0,0,5.46.28A2.73,2.73,0,0,1,72.57,129Z" transform="translate(-17.13 -62.7)"/><path class="cls-10" d="M71.8,111.82a9.14,9.14,0,0,0-12,4.82,9,9,0,0,0-.56,1.83,7.93,7.93,0,0,1,3.44.39A5.63,5.63,0,0,1,63,118a5.69,5.69,0,1,1,10.19,5,8,8,0,0,1,2.71,2.16,9.14,9.14,0,0,0-4.09-13.37Zm-1.15,13.55a5.71,5.71,0,0,1-2.59.55h0a5.7,5.7,0,0,1-3.72-1.56l-.07-.07A5.72,5.72,0,0,1,63,122.37a2.77,2.77,0,0,0-3.48.48,9.16,9.16,0,0,0,2.86,4.36l.13.11.24.19a9.15,9.15,0,0,0,4.37,1.78l.33,0h.07a9.15,9.15,0,0,0,5.12-1.1s0,0,0-.07A2.77,2.77,0,0,0,70.65,125.37Z" transform="translate(-17.13 -62.7)"/><path class="cls-3" d="M33.95,159.68h-2.1a1,1,0,0,1-1-1v-2.1a1,1,0,0,1,2,0v1.11h1.11a1,1,0,0,1,0,2Z" transform="translate(-17.13 -62.7)"/><path class="cls-3" d="M90.67,159.68H86.49a1,1,0,0,1,0-2h4.17a1,1,0,0,1,0,2Zm-8.1,0H78.39a1,1,0,1,1,0-2h4.17a1,1,0,1,1,0,2Zm-8.1,0H70.29a1,1,0,1,1,0-2h4.17a1,1,0,1,1,0,2Zm-8.1,0H62.19a1,1,0,0,1,0-2h4.17a1,1,0,1,1,0,2Zm-8.1,0H54.08a1,1,0,0,1,0-2h4.17a1,1,0,0,1,0,2Zm-8.1,0H46a1,1,0,1,1,0-2h4.17a1,1,0,1,1,0,2Zm-8.1,0H37.88a1,1,0,1,1,0-2h4.17a1,1,0,1,1,0,2Z" transform="translate(-17.13 -62.7)"/><path class="cls-3" d="M96.69,159.68H94.6a1,1,0,0,1,0-2h1.11v-1.11a1,1,0,1,1,2,0v2.1A1,1,0,0,1,96.69,159.68Z" transform="translate(-17.13 -62.7)"/><path class="cls-3" d="M96.69,153.8a1,1,0,0,1-1-1v-4a1,1,0,1,1,2,0v4A1,1,0,0,1,96.69,153.8Zm0-7.79a1,1,0,0,1-1-1v-4a1,1,0,1,1,2,0v4A1,1,0,0,1,96.69,146Zm0-7.79a1,1,0,0,1-1-1v-4a1,1,0,1,1,2,0v4A1,1,0,0,1,96.69,138.22Zm0-7.79a1,1,0,0,1-1-1v-4a1,1,0,1,1,2,0v4A1,1,0,0,1,96.69,130.43Zm0-7.79a1,1,0,0,1-1-1v-4a1,1,0,1,1,2,0v4A1,1,0,0,1,96.69,122.64Zm0-7.79a1,1,0,0,1-1-1v-4a1,1,0,1,1,2,0v4A1,1,0,0,1,96.69,114.85Z" transform="translate(-17.13 -62.7)"/><path class="cls-3" d="M96.69,107.05a1,1,0,0,1-1-1V105H94.6a1,1,0,0,1,0-2h2.1a1,1,0,0,1,1,1v2.1A1,1,0,0,1,96.69,107.05Z" transform="translate(-17.13 -62.7)"/><path class="cls-3" d="M90.67,105H86.49a1,1,0,0,1,0-2h4.17a1,1,0,0,1,0,2Zm-8.1,0H78.39a1,1,0,1,1,0-2h4.17a1,1,0,1,1,0,2Zm-8.1,0H70.29a1,1,0,1,1,0-2h4.17a1,1,0,1,1,0,2Zm-8.1,0H62.19a1,1,0,0,1,0-2h4.17a1,1,0,0,1,0,2Zm-8.1,0H54.08a1,1,0,0,1,0-2h4.17a1,1,0,0,1,0,2Zm-8.1,0H46a1,1,0,1,1,0-2h4.17a1,1,0,1,1,0,2Zm-8.1,0H37.88a1,1,0,1,1,0-2h4.17a1,1,0,1,1,0,2Z" transform="translate(-17.13 -62.7)"/><path class="cls-3" d="M31.85,107.05a1,1,0,0,1-1-1V104a1,1,0,0,1,1-1h2.1a1,1,0,0,1,0,2H32.84v1.11A1,1,0,0,1,31.85,107.05Z" transform="translate(-17.13 -62.7)"/><path class="cls-3" d="M31.85,153.8a1,1,0,0,1-1-1v-4a1,1,0,1,1,2,0v4A1,1,0,0,1,31.85,153.8Zm0-7.79a1,1,0,0,1-1-1v-4a1,1,0,0,1,2,0v4A1,1,0,0,1,31.85,146Zm0-7.79a1,1,0,0,1-1-1v-4a1,1,0,1,1,2,0v4A1,1,0,0,1,31.85,138.22Zm0-7.79a1,1,0,0,1-1-1v-4a1,1,0,0,1,2,0v4A1,1,0,0,1,31.85,130.43Zm0-7.79a1,1,0,0,1-1-1v-4a1,1,0,0,1,2,0v4A1,1,0,0,1,31.85,122.64Zm0-7.79a1,1,0,0,1-1-1v-4a1,1,0,1,1,2,0v4A1,1,0,0,1,31.85,114.85Z" transform="translate(-17.13 -62.7)"/><path class="cls-3" d="M124.65,173.2a1,1,0,0,1-1-1V168a1,1,0,1,1,2,0v4.19A1,1,0,0,1,124.65,173.2Zm0-8.14a1,1,0,0,1-1-1v-4.19a1,1,0,1,1,2,0v4.19A1,1,0,0,1,124.65,165.06Zm0-8.14a1,1,0,0,1-1-1v-4.19a1,1,0,1,1,2,0v4.19A1,1,0,0,1,124.65,156.92Zm0-8.14a1,1,0,0,1-1-1V143.6a1,1,0,1,1,2,0v4.19A1,1,0,0,1,124.65,148.78Zm0-8.14a1,1,0,0,1-1-1v-4.19a1,1,0,1,1,2,0v4.19A1,1,0,0,1,124.65,140.64Zm-3.39-4.75h-4.19a1,1,0,0,1,0-2h4.19a1,1,0,1,1,0,2Zm-8.14,0h-4.19a1,1,0,1,1,0-2h4.19a1,1,0,0,1,0,2Zm-8.14,0h-4.19a1,1,0,1,1,0-2H105a1,1,0,0,1,0,2Zm-8.14,0h-.09a1,1,0,1,1,0-2h.09a1,1,0,1,1,0,2Z" transform="translate(-17.13 -62.7)"/><path class="cls-6" d="M342.28,130.18l-.17,5.85,5.48.16a13.14,13.14,0,0,0,1.39,4l-3.89,3.67,4,4.26,3.72-3.51a13.11,13.11,0,0,0,4.78,2.18l-.16,5.48,5.85.17.16-5.65a13,13,0,0,0,3.34-1.25l3.67,3.89,4.26-4-3.51-3.72a13.11,13.11,0,0,0,2.18-4.78l4.79.14.17-5.85-5-.14a13.05,13.05,0,0,0-1.75-4.2l3.72-3.51-4-4.26-3.89,3.67a13.1,13.1,0,0,0-4.63-1.75l.16-5.52-5.85-.17-.17,6a13,13,0,0,0-3.51,1.58L350,119.18l-4.26,4,3.67,3.88a13.08,13.08,0,0,0-1.44,3.26Zm14.61-.1a5.37,5.37,0,1,1-.22,7.59A5.37,5.37,0,0,1,356.89,130.08Z" transform="translate(-17.13 -62.7)"/><path class="cls-5" d="M361.48,142.44a8.62,8.62,0,1,0-9.49-7.65A8.62,8.62,0,0,0,361.48,142.44Zm-4.59-12.36a5.37,5.37,0,1,1-.22,7.59A5.37,5.37,0,0,1,356.89,130.08Z" transform="translate(-17.13 -62.7)"/><path class="cls-6" d="M380.79,132.68l-.1,3.4,3.18.09a7.63,7.63,0,0,0,.81,2.34l-2.26,2.13,2.33,2.47,2.16-2a7.62,7.62,0,0,0,2.78,1.26l-.09,3.18,3.4.1.09-3.28a7.58,7.58,0,0,0,1.94-.72l2.13,2.26,2.47-2.33-2-2.16a7.61,7.61,0,0,0,1.26-2.78l2.78.08.1-3.4-2.88-.08a7.58,7.58,0,0,0-1-2.44l2.16-2-2.33-2.47-2.26,2.13a7.61,7.61,0,0,0-2.69-1l.09-3.2-3.4-.1-.1,3.47a7.55,7.55,0,0,0-2,.92l-2-2.16-2.47,2.33,2.13,2.26a7.6,7.6,0,0,0-.83,1.89Zm8.48-.06a3.12,3.12,0,1,1-.13,4.41A3.12,3.12,0,0,1,389.27,132.62Z" transform="translate(-17.13 -62.7)"/><path class="cls-5" d="M391.94,139.8a5,5,0,1,0-5.51-4.44A5,5,0,0,0,391.94,139.8Zm-2.67-7.18a3.12,3.12,0,1,1-.13,4.41A3.12,3.12,0,0,1,389.27,132.62Z" transform="translate(-17.13 -62.7)"/><path class="cls-3" d="M417.12,159.68H415a1,1,0,0,1,0-2h1.11v-1.11a1,1,0,1,1,2,0v2.1A1,1,0,0,1,417.12,159.68Z" transform="translate(-17.13 -62.7)"/><path class="cls-3" d="M411,159.68H406.8a1,1,0,0,1,0-2H411a1,1,0,1,1,0,2Zm-8.22,0h-4.23a1,1,0,0,1,0-2h4.23a1,1,0,1,1,0,2Zm-8.22,0h-4.23a1,1,0,0,1,0-2h4.23a1,1,0,0,1,0,2Zm-8.22,0h-4.23a1,1,0,1,1,0-2h4.23a1,1,0,0,1,0,2Zm-8.22,0h-4.23a1,1,0,1,1,0-2h4.23a1,1,0,0,1,0,2Zm-8.22,0H365.7a1,1,0,1,1,0-2h4.23a1,1,0,1,1,0,2Zm-8.22,0h-4.23a1,1,0,0,1,0-2h4.23a1,1,0,1,1,0,2Zm-8.22,0h-4.23a1,1,0,1,1,0-2h4.23a1,1,0,1,1,0,2Zm-8.22,0H341a1,1,0,1,1,0-2h4.23a1,1,0,1,1,0,2Zm-8.22,0h-4.23a1,1,0,1,1,0-2h4.23a1,1,0,0,1,0,2Z" transform="translate(-17.13 -62.7)"/><path class="cls-3" d="M328.83,159.68h-2.1a1,1,0,0,1-1-1v-2.1a1,1,0,1,1,2,0v1.11h1.11a1,1,0,1,1,0,2Z" transform="translate(-17.13 -62.7)"/><path class="cls-3" d="M326.73,153.54a1,1,0,0,1-1-1v-4.29a1,1,0,1,1,2,0v4.29A1,1,0,0,1,326.73,153.54Zm0-8.33a1,1,0,0,1-1-1v-4.29a1,1,0,1,1,2,0v4.29A1,1,0,0,1,326.73,145.21Zm0-8.33a1,1,0,0,1-1-1v-4.29a1,1,0,1,1,2,0v4.29A1,1,0,0,1,326.73,136.87Zm0-8.33a1,1,0,0,1-1-1v-4.29a1,1,0,1,1,2,0v4.29A1,1,0,0,1,326.73,128.54Zm0-8.33a1,1,0,0,1-1-1v-4.29a1,1,0,1,1,2,0v4.29A1,1,0,0,1,326.73,120.2Z" transform="translate(-17.13 -62.7)"/><path class="cls-3" d="M326.73,111.87a1,1,0,0,1-1-1v-2.1a1,1,0,0,1,1-1h2.1a1,1,0,0,1,0,2h-1.11v1.11A1,1,0,0,1,326.73,111.87Z" transform="translate(-17.13 -62.7)"/><path class="cls-3" d="M411,109.77H406.8a1,1,0,0,1,0-2H411a1,1,0,1,1,0,2Zm-8.22,0h-4.23a1,1,0,0,1,0-2h4.23a1,1,0,1,1,0,2Zm-8.22,0h-4.23a1,1,0,0,1,0-2h4.23a1,1,0,0,1,0,2Zm-8.22,0h-4.23a1,1,0,1,1,0-2h4.23a1,1,0,0,1,0,2Zm-8.22,0h-4.23a1,1,0,1,1,0-2h4.23a1,1,0,0,1,0,2Zm-8.22,0H365.7a1,1,0,0,1,0-2h4.23a1,1,0,1,1,0,2Zm-8.22,0h-4.23a1,1,0,0,1,0-2h4.23a1,1,0,1,1,0,2Zm-8.22,0h-4.23a1,1,0,0,1,0-2h4.23a1,1,0,1,1,0,2Zm-8.22,0H341a1,1,0,0,1,0-2h4.23a1,1,0,0,1,0,2Zm-8.22,0h-4.23a1,1,0,1,1,0-2h4.23a1,1,0,0,1,0,2Z" transform="translate(-17.13 -62.7)"/><path class="cls-3" d="M417.12,111.87a1,1,0,0,1-1-1v-1.11H415a1,1,0,0,1,0-2h2.1a1,1,0,0,1,1,1v2.1A1,1,0,0,1,417.12,111.87Z" transform="translate(-17.13 -62.7)"/><path class="cls-3" d="M417.12,153.54a1,1,0,0,1-1-1v-4.29a1,1,0,1,1,2,0v4.29A1,1,0,0,1,417.12,153.54Zm0-8.33a1,1,0,0,1-1-1v-4.29a1,1,0,1,1,2,0v4.29A1,1,0,0,1,417.12,145.21Zm0-8.33a1,1,0,0,1-1-1v-4.29a1,1,0,1,1,2,0v4.29A1,1,0,0,1,417.12,136.87Zm0-8.33a1,1,0,0,1-1-1v-4.29a1,1,0,1,1,2,0v4.29A1,1,0,0,1,417.12,128.54Zm0-8.33a1,1,0,0,1-1-1v-4.29a1,1,0,1,1,2,0v4.29A1,1,0,0,1,417.12,120.2Z" transform="translate(-17.13 -62.7)"/><path class="cls-3" d="M298.84,173.2a1,1,0,0,1-1-1V168a1,1,0,0,1,2,0v4.19A1,1,0,0,1,298.84,173.2Zm0-8.14a1,1,0,0,1-1-1v-4.19a1,1,0,1,1,2,0v4.19A1,1,0,0,1,298.84,165.06Zm0-8.14a1,1,0,0,1-1-1v-4.19a1,1,0,0,1,2,0v4.19A1,1,0,0,1,298.84,156.92Zm0-8.14a1,1,0,0,1-1-1V143.6a1,1,0,0,1,2,0v4.19A1,1,0,0,1,298.84,148.78Zm0-8.14a1,1,0,0,1-1-1v-4.19a1,1,0,1,1,2,0v4.19A1,1,0,0,1,298.84,140.64Zm27.89-5.41H326a1,1,0,1,1,0-2h.75a1,1,0,0,1,0,2Zm-4.69,0h-4.19a1,1,0,1,1,0-2H322a1,1,0,1,1,0,2Zm-8.14,0h-4.19a1,1,0,1,1,0-2h4.19a1,1,0,0,1,0,2Zm-8.14,0h-4.19a1,1,0,1,1,0-2h4.19a1,1,0,0,1,0,2Z" transform="translate(-17.13 -62.7)"/><path class="cls-5" d="M50.55,249.29h0Z" transform="translate(-17.13 -62.7)"/><polygon class="cls-5" points="33.41 186.6 33.34 186.69 33.36 186.6 33.41 186.6"/><rect class="cls-10" x="52.91" y="101.47" width="348.56" height="216.12" rx="14.04" ry="14.04"/><path class="cls-11" d="M418.59,276v90.22a14,14,0,0,1-14,14H84.07a14,14,0,0,1-14-14V276Z" transform="translate(-17.13 -62.7)"/><path class="cls-12" d="M403.11,187.77V356.7a9,9,0,0,1-9,9H94.52A9,9,0,0,1,89,363.78a9.09,9.09,0,0,1-1.13-1.06,8.94,8.94,0,0,1-2.31-6V187.77a9,9,0,0,1,9-9H394.11a8.93,8.93,0,0,1,4.55,1.24,9,9,0,0,1,3.09,3A9,9,0,0,1,403.11,187.77Z" transform="translate(-17.13 -62.7)"/><path class="cls-13" d="M451.15,372.79V374a27.35,27.35,0,0,1-27.35,27.35h-359A27.35,27.35,0,0,1,37.48,374v-1.2Z" transform="translate(-17.13 -62.7)"/><path class="cls-12" d="M198,372.79v.27c0,2.17,1.45,3.92,3.24,3.92h84.45c1.79,0,3.24-1.76,3.24-3.92v-.27Z" transform="translate(-17.13 -62.7)"/><path class="cls-1" d="M403.11,187.77v10H85.52v-10a9,9,0,0,1,9-9H394.11a9,9,0,0,1,9,9Z" transform="translate(-17.13 -62.7)"/><rect class="cls-12" x="140.04" y="123.51" width="170.01" height="5.04" rx="0.75" ry="0.75"/><path class="cls-10" d="M116.57,188.74v1.87a.7.7,0,0,1-1,.6l-1.62-.93-1.62-.93a.7.7,0,0,1,0-1.21l1.62-.93,1.62-.93a.7.7,0,0,1,1,.6Z" transform="translate(-17.13 -62.7)"/><path class="cls-10" d="M125,188.74v1.87a.7.7,0,0,0,1,.6l1.62-.93,1.62-.93a.7.7,0,0,0,0-1.21l-1.62-.93-1.62-.93a.7.7,0,0,0-1,.6Z" transform="translate(-17.13 -62.7)"/><path class="cls-14" d="M401.49,182.62H87.14a9,9,0,0,1,7.38-3.85H394.11A9,9,0,0,1,401.49,182.62Z" transform="translate(-17.13 -62.7)"/><rect class="cls-15" x="168.05" y="70.91" width="100.66" height="21.83" rx="9.92" ry="9.92"/><path class="cls-12" d="M275.07,138a6.49,6.49,0,1,0,6.49,6.49A6.49,6.49,0,0,0,275.07,138Zm.26,8.88v-2.27h2.93a8.58,8.58,0,0,1-.35,2.27Zm1.84,2.59a7.23,7.23,0,0,0,1.13-2.07h2a5.94,5.94,0,0,1-3.88,2.9A6.6,6.6,0,0,0,277.17,149.51Zm.57-2.07a6.66,6.66,0,0,1-1,1.73,5.43,5.43,0,0,1-1.44,1.31v-3Zm-2.41-6.11v-2.77h.23a8.1,8.1,0,0,1,2,2.75Zm2.84,0a8.52,8.52,0,0,0-.87-1.59,8.79,8.79,0,0,0-.82-1,6,6,0,0,1,3.63,2.61Zm-2.84,2.79v-2.27h2.48a7.45,7.45,0,0,1,.45,2.27Zm3.45,0a8,8,0,0,0-.42-2.27h2a5.89,5.89,0,0,1,.62,2.27Zm2.25.52a5.9,5.9,0,0,1-.5,2.27h-2.07a9.18,9.18,0,0,0,.32-2.27Zm-9.29,2.27h-2.13a5.9,5.9,0,0,1-.5-2.27h2.31A9.18,9.18,0,0,0,271.75,146.92Zm.86-5.59a8,8,0,0,1,.73-1.28,7.71,7.71,0,0,1,1.32-1.47h.17v2.77Zm2.21.52v2.27h-2.87a7.49,7.49,0,0,1,.45-2.27Zm-4.77-.52a6,6,0,0,1,3.71-2.62,8.76,8.76,0,0,0-.84,1,8.51,8.51,0,0,0-.87,1.59Zm4.77,3.32v2.27h-2.53a8.54,8.54,0,0,1-.35-2.27Zm-5.69-.52a5.89,5.89,0,0,1,.62-2.27h2.1a8,8,0,0,0-.42,2.27Zm2.79,3.32a7.23,7.23,0,0,0,1.13,2.07,6.58,6.58,0,0,0,.8.85,6,6,0,0,1-4-2.92Zm2.9,0v3a6.14,6.14,0,0,1-2.35-3Z" transform="translate(-17.13 -62.7)"/><path class="cls-12" d="M258.69,138.29a6.17,6.17,0,0,1,0,12.34H196.33a6.17,6.17,0,0,1,0-12.34h62.35m0-.64H196.33a6.81,6.81,0,0,0,0,13.61h62.35a6.81,6.81,0,0,0,0-13.61Z" transform="translate(-17.13 -62.7)"/><rect class="cls-3" x="117.78" y="174.78" width="24.31" height="24.31" rx="4.63" ry="4.63"/><rect class="cls-16" x="114.55" y="171.31" width="24.31" height="24.31" rx="4.63" ry="4.63"/><path class="cls-12" d="M148.3,243.94l-6.64,2.28,6.64,2.28v3.73l-11.18-4.06v-3.9l11.18-4.06Z" transform="translate(-17.13 -62.7)"/><rect class="cls-3" x="157.92" y="174.78" width="24.31" height="24.31" rx="4.63" ry="4.63"/><rect class="cls-17" x="154.7" y="171.31" width="24.31" height="24.31" rx="4.63" ry="4.63"/><path class="cls-12" d="M184.68,238.35H188l-5.54,15.82h-3.36Z" transform="translate(-17.13 -62.7)"/><rect class="cls-3" x="196.64" y="174.78" width="24.31" height="24.31" rx="4.63" ry="4.63"/><rect class="cls-18" x="193.42" y="171.31" width="24.31" height="24.31" rx="4.63" ry="4.63"/><path class="cls-12" d="M217.22,240.21l11.18,4.06v3.9l-11.18,4.06V248.5l6.64-2.28-6.64-2.28Z" transform="translate(-17.13 -62.7)"/><rect class="cls-3" x="317.18" y="242.99" width="24.31" height="24.31" rx="4.63" ry="4.63"/><rect class="cls-6" x="313.96" y="239.51" width="24.31" height="24.31" rx="4.63" ry="4.63"/><path class="cls-12" d="M343,306.45a7.93,7.93,0,1,0,7.93,7.93A7.94,7.94,0,0,0,343,306.45Zm.32,10.85v-2.78h3.58a10.48,10.48,0,0,1-.42,2.78Zm2.25,3.16a8.84,8.84,0,0,0,1.38-2.53h2.41a7.26,7.26,0,0,1-4.75,3.55A8.08,8.08,0,0,0,345.58,320.47Zm.7-2.53a8.14,8.14,0,0,1-1.18,2.11,6.64,6.64,0,0,1-1.76,1.61v-3.72Zm-2.94-7.47V307.1l.28,0a9.89,9.89,0,0,1,2.49,3.36Zm3.47,0a10.41,10.41,0,0,0-1.07-1.95,10.74,10.74,0,0,0-1-1.24,7.33,7.33,0,0,1,4.44,3.18Zm-3.47,3.41v-2.78h3a9.1,9.1,0,0,1,.55,2.78Zm4.22,0a9.77,9.77,0,0,0-.51-2.78h2.49a7.2,7.2,0,0,1,.76,2.78Zm2.75.64a7.21,7.21,0,0,1-.61,2.78h-2.53a11.22,11.22,0,0,0,.4-2.78Zm-11.36,2.78h-2.61a7.21,7.21,0,0,1-.61-2.78h2.82A11.22,11.22,0,0,0,338.95,317.31Zm1.05-6.83a9.75,9.75,0,0,1,.89-1.57,9.42,9.42,0,0,1,1.61-1.8h.2v3.38Zm2.7.64v2.78h-3.5a9.15,9.15,0,0,1,.55-2.78Zm-5.83-.64a7.31,7.31,0,0,1,4.53-3.2,10.7,10.7,0,0,0-1,1.26,10.4,10.4,0,0,0-1.07,1.95Zm5.83,4.05v2.78h-3.09a10.44,10.44,0,0,1-.42-2.78Zm-7-.64a7.2,7.2,0,0,1,.76-2.78h2.56a9.77,9.77,0,0,0-.51,2.78Zm3.4,4.05a8.84,8.84,0,0,0,1.38,2.53,8,8,0,0,0,1,1,7.36,7.36,0,0,1-4.84-3.57Zm3.55,0v3.67a7.5,7.5,0,0,1-2.87-3.67Z" transform="translate(-17.13 -62.7)"/><path class="cls-3" d="M235.28,274.82H134.48a2.8,2.8,0,0,1-2.8-2.8h0a2.8,2.8,0,0,1,2.8-2.8h100.8a2.8,2.8,0,0,1,2.8,2.8h0A2.8,2.8,0,0,1,235.28,274.82Z" transform="translate(-17.13 -62.7)"/><path class="cls-3" d="M235.28,285.19H134.48a2.8,2.8,0,0,1-2.8-2.8h0a2.8,2.8,0,0,1,2.8-2.8h100.8a2.8,2.8,0,0,1,2.8,2.8h0A2.8,2.8,0,0,1,235.28,285.19Z" transform="translate(-17.13 -62.7)"/><path class="cls-3" d="M235.28,295.55H134.48a2.8,2.8,0,0,1-2.8-2.8h0a2.8,2.8,0,0,1,2.8-2.8h100.8a2.8,2.8,0,0,1,2.8,2.8h0A2.8,2.8,0,0,1,235.28,295.55Z" transform="translate(-17.13 -62.7)"/><path class="cls-3" d="M235.28,305.92H134.48a2.8,2.8,0,0,1-2.8-2.8h0a2.8,2.8,0,0,1,2.8-2.8h100.8a2.8,2.8,0,0,1,2.8,2.8h0A2.8,2.8,0,0,1,235.28,305.92Z" transform="translate(-17.13 -62.7)"/><path class="cls-3" d="M235.28,316.28H134.48a2.8,2.8,0,0,1-2.8-2.8h0a2.8,2.8,0,0,1,2.8-2.8h100.8a2.8,2.8,0,0,1,2.8,2.8h0A2.8,2.8,0,0,1,235.28,316.28Z" transform="translate(-17.13 -62.7)"/><rect class="cls-3" x="114.55" y="258.34" width="106.4" height="5.6" rx="2.8" ry="2.8"/><path class="cls-3" d="M321.84,300.32H253.15a2.86,2.86,0,0,0-2.89,2.75,2.8,2.8,0,0,0,2.8,2.85h68.79a2.8,2.8,0,0,0,2.8-2.8h0A2.8,2.8,0,0,0,321.84,300.32Z" transform="translate(-17.13 -62.7)"/><path class="cls-3" d="M321.84,310.68H253.15a2.86,2.86,0,0,0-2.89,2.75,2.8,2.8,0,0,0,2.8,2.85h68.79a2.8,2.8,0,0,0,2.8-2.8h0A2.8,2.8,0,0,0,321.84,310.68Z" transform="translate(-17.13 -62.7)"/><path class="cls-3" d="M321.84,321H253.15a2.86,2.86,0,0,0-2.89,2.75,2.8,2.8,0,0,0,2.8,2.85h68.79a2.8,2.8,0,0,0,2.8-2.8h0A2.8,2.8,0,0,0,321.84,321Z" transform="translate(-17.13 -62.7)"/><path class="cls-3" d="M355.39,237.43v51.91c0,.11,0,.22,0,.32a3.63,3.63,0,0,1-.51,1.58,3,3,0,0,1-2.55,1.51H253.14a3,3,0,0,1-2.74-1.87,3.68,3.68,0,0,1-.33-1.54V237.43a3.75,3.75,0,0,1,.19-1.2,3.47,3.47,0,0,1,.88-1.39,2.9,2.9,0,0,1,2-.83h99.18a2.83,2.83,0,0,1,1.66.54,3.29,3.29,0,0,1,1.06,1.29A3.7,3.7,0,0,1,355.39,237.43Z" transform="translate(-17.13 -62.7)"/><path class="cls-1" d="M355.38,289.66a3.63,3.63,0,0,1-.51,1.58l-52.58-27.65-1.76-.93-50.27-26.43a3.47,3.47,0,0,1,.88-1.39l51.15,26.9,1.76.93h0Z" transform="translate(-17.13 -62.7)"/><path class="cls-1" d="M355,235.85l-51,26.82h0l-1.76.93L250.4,290.88a3.68,3.68,0,0,1-.33-1.54v-.14l50.46-26.54,1.76-.93L354,234.56A3.29,3.29,0,0,1,355,235.85Z" transform="translate(-17.13 -62.7)"/><ellipse class="cls-1" cx="78.1" cy="401.15" rx="40.53" ry="7.9"/><path class="cls-19" d="M72.45,331.58l-5.82,3.59a18,18,0,0,0-8.25-2.66,13.55,13.55,0,0,1-.82-4.76c0-14.38,11.33-40.94,11.33-40.94l-1,29.68C67.11,324.05,69.54,328.73,72.45,331.58Z" transform="translate(-17.13 -62.7)"/><path class="cls-5" d="M89,321.36,66.63,335.17A17.91,17.91,0,1,0,75,348.75l78.8-48.62.92,1.49,19.45-.57,9.16-17,.06-.12-1.56-3.1-5,2.51-1,.53-.78.29-5.26,9.75-11.07.33-2.91-4.71-2.91-4.71.17-.31,5.09-9.44,11.07-.33,4-7.38-3.33.1-16.12.47-9.23,17.13.92,1.49ZM61.79,341.81l3.36,5.44,1.75,2.84-4.62,8.56-9.72.28-5.11-8.28.17-.31,4.45-8.26Z" transform="translate(-17.13 -62.7)"/><path class="cls-20" d="M89,321.36,66.63,335.17A17.91,17.91,0,0,0,40.46,356.8a17.9,17.9,0,0,0,33-11.2L152.22,297l.92,1.49,19.45-.57L180.08,284l1.75-3.24-8.38.25-5.26,9.75-11.07.33-2.91-4.71-1.16-1.88-1.75-2.84,5.26-9.75,11.07-.33,2.23-4.14-16.12.47-9.23,17.13.92,1.49Zm-28.8,17.31,5.11,8.28-.17.31-4.45,8.25L51,355.8l-3.36-5.44-1.75-2.84L50.48,339Z" transform="translate(-17.13 -62.7)"/><path class="cls-6" d="M99.65,260.59a3.33,3.33,0,1,0,6.67,0,3.3,3.3,0,0,0-.07-.68,3.46,3.46,0,0,0-.2-.63h0a3.34,3.34,0,0,0-3.06-2,3.12,3.12,0,0,0-.62.06h0a3.22,3.22,0,0,0-1,.36A3.33,3.33,0,0,0,99.65,260.59Zm.52,0a2.81,2.81,0,0,1,1.92-2.67,2.75,2.75,0,0,1,.89-.15,2.72,2.72,0,0,1,.63.07,2.81,2.81,0,0,1,2.18,2.74,2.81,2.81,0,1,1-5.63,0Z" transform="translate(-17.13 -62.7)"/><path class="cls-21" d="M86.12,270.71v6.62s2,3.38,4.65,3.6,5-2.9,5-2.9v-6.86Z" transform="translate(-17.13 -62.7)"/><path class="cls-22" d="M93.14,272.31a4.54,4.54,0,0,0,2.67,3.21v-3Z" transform="translate(-17.13 -62.7)"/><path class="cls-21" d="M95.05,273.62c-10,2.82-13.25-4.89-14.65-9.77-.15-.54-.29-1.14-.42-1.79l0-.08c-.14-.72-.25-1.49-.35-2.28-.07-.59-.14-1.18-.19-1.78-.14-1.46-.23-2.92-.3-4.22a6.89,6.89,0,0,1,4.41-6.76c4-1.54,10.09-2.76,15.85.51a6.92,6.92,0,0,1,3.51,5.89s1,3.91.53,5.66a17.9,17.9,0,0,0-.74,4.62c-.16,2.33-1.48,8-2.86,9.12S95.05,273.62,95.05,273.62Z" transform="translate(-17.13 -62.7)"/><path class="cls-22" d="M98.76,263.28a.32.32,0,0,1-.25-.29,4.87,4.87,0,0,0-2-3.42.31.31,0,0,1,.35-.53A5.42,5.42,0,0,1,99.14,263a.32.32,0,0,1-.3.33Z" transform="translate(-17.13 -62.7)"/><path class="cls-22" d="M96.89,261.8a.31.31,0,0,1-.15-.53,2.87,2.87,0,0,1,1.36-.67.31.31,0,0,1,.13.62,2.28,2.28,0,0,0-1,.5A.31.31,0,0,1,96.89,261.8Z" transform="translate(-17.13 -62.7)"/><path class="cls-13" d="M78.78,258.39a43,43,0,0,0,2.72,11c2.53,5.58,7.25,4.56,9.79,3.8,1.86-.56,4.39-2.62,5.42-3.57a6.23,6.23,0,0,0,1.55-2.7,1.07,1.07,0,0,0-1-1.37c-1.19-.11-2.42-1.12-2.72-3.92-.5-4.74,2.66-4.75,2.66-4.75,1.92-.17,2.94,2.23,2.94,2.23a6.07,6.07,0,0,0,.94-4.06c-.21-2.22,2-.64,2-.64s3.14-2.73,3.21-5.42-1.49-2.79-2.9-3.48,1.84-3.23.29-4.58a4,4,0,0,0-4.6-.78c-1.27.71-1.7-2.76-3.64-2.83s-3.18,2.05-4.54,1.2-4.83-2.12-6.38.5-2,3.29-3.25,3.43a5.91,5.91,0,0,0-4.1,6.61C77.93,253.09,78.54,255.3,78.78,258.39Z" transform="translate(-17.13 -62.7)"/><path class="cls-6" d="M98,256.95a2.58,2.58,0,0,1,.87.47,5.9,5.9,0,0,1,2,.14l.45.12c.25.07.49.15.73.24a13.49,13.49,0,0,1,1.43.63,18.7,18.7,0,0,1,2.18,1.3l.43.31.12-.25a3.46,3.46,0,0,0-.2-.63h0c-.26-.18-.65-.44-1.13-.73s-.82-.47-1.3-.7l-.05,0c-.38-.18-.78-.35-1.2-.51h0a10.24,10.24,0,0,0-1.31-.39A6,6,0,0,0,98,256.95Z" transform="translate(-17.13 -62.7)"/><path class="cls-23" d="M111.41,468.06a7,7,0,0,0,2.36,0l1.11-.36,1.82-.55s6.53-2.56,8.84-4.81,1.9-4.72-1.7-5.92-6.82-.06-8.75-.83c0,0-5.77.49-5.45,3.57a38.82,38.82,0,0,0,.14,7.28A1.92,1.92,0,0,0,111.41,468.06Z" transform="translate(-17.13 -62.7)"/><path class="cls-12" d="M114.6,456.94a.38.38,0,0,1-.12-.7,5.92,5.92,0,0,1,2.76-.86,2.65,2.65,0,0,1,2.32,1.42.38.38,0,1,1-.7.32,1.89,1.89,0,0,0-1.65-1,5.21,5.21,0,0,0-2.33.75A.38.38,0,0,1,114.6,456.94Z" transform="translate(-17.13 -62.7)"/><path class="cls-12" d="M115.9,456.8a.38.38,0,0,1-.12-.7,5.92,5.92,0,0,1,2.76-.86,2.65,2.65,0,0,1,2.32,1.42.38.38,0,1,1-.7.32,1.89,1.89,0,0,0-1.65-1,5.21,5.21,0,0,0-2.33.75A.38.38,0,0,1,115.9,456.8Z" transform="translate(-17.13 -62.7)"/><path class="cls-12" d="M117.16,456.53a.38.38,0,0,1-.12-.7,5.92,5.92,0,0,1,2.76-.86,2.65,2.65,0,0,1,2.32,1.42.38.38,0,1,1-.7.32,1.89,1.89,0,0,0-1.65-1,5.21,5.21,0,0,0-2.33.75A.38.38,0,0,1,117.16,456.53Z" transform="translate(-17.13 -62.7)"/><path class="cls-21" d="M116.4,451.6l-.35,6.06c-2.24.62-3.92.91-5.19-.08l-.36-6.42Z" transform="translate(-17.13 -62.7)"/><path class="cls-24" d="M118.24,454.11c-3.35,2.07-8.72.86-8.72.86.64-.11-4.68-39.93-5.38-45.92-.65-5.53-7.54-21.6-10.44-30.71-.2-.63-.38-1.23-.54-1.79l-.65-2.28c-1.28-4.46-2.12-7.3-2.12-7.3l19.14-4.18q.85,3.22,1.62,6.35l.33,1.36.2.86C123.41,421.21,118.24,454.11,118.24,454.11Z" transform="translate(-17.13 -62.7)"/><path class="cls-11" d="M111.47,370.49a63.4,63.4,0,0,1-19,3.77c-1.28-4.46-2.12-7.3-2.12-7.3l19.14-4.18q.85,3.22,1.62,6.35Z" transform="translate(-17.13 -62.7)"/><path class="cls-23" d="M61.79,466.73a7,7,0,0,0,2.27.63l1.16,0,1.9,0s7-.64,9.83-2.15,3.14-4,0-6.16-6.53-2-8.16-3.25c0,0-5.67-1.15-6.22,1.9a38.82,38.82,0,0,0-1.9,7A1.92,1.92,0,0,0,61.79,466.73Z" transform="translate(-17.13 -62.7)"/><path class="cls-12" d="M68,456.94a.38.38,0,0,1,.08-.71,5.92,5.92,0,0,1,2.89-.05,2.65,2.65,0,0,1,1.83,2,.38.38,0,1,1-.76.11,1.89,1.89,0,0,0-1.31-1.4,5.21,5.21,0,0,0-2.45.07A.38.38,0,0,1,68,456.94Z" transform="translate(-17.13 -62.7)"/><path class="cls-12" d="M69.24,457.17a.38.38,0,0,1,.08-.71,5.92,5.92,0,0,1,2.89-.05,2.65,2.65,0,0,1,1.83,2,.38.38,0,1,1-.76.11,1.89,1.89,0,0,0-1.31-1.4,5.21,5.21,0,0,0-2.45.07A.38.38,0,0,1,69.24,457.17Z" transform="translate(-17.13 -62.7)"/><path class="cls-12" d="M70.53,457.27a.38.38,0,0,1,.08-.71,5.92,5.92,0,0,1,2.89-.05,2.65,2.65,0,0,1,1.83,2,.38.38,0,1,1-.76.11,1.89,1.89,0,0,0-1.31-1.4,5.21,5.21,0,0,0-2.45.07A.38.38,0,0,1,70.53,457.27Z" transform="translate(-17.13 -62.7)"/><path class="cls-21" d="M71.18,452.32l-2,5.72c-2.32,0-4-.23-5-1.53l1.45-6.27Z" transform="translate(-17.13 -62.7)"/><path class="cls-24" d="M89.4,365.11q-.08,3.33-.23,6.55-.06,1.31-.13,2.66c-.09,1.55-.19,3.15-.31,4.77-.94,13-2.76,27.6-4.17,34.95-.94,4.87-12.31,41.19-12.31,41.19-3.74,1-8.48-1.54-8.61-1.61.65,0,5.42-43.6,6.92-46.79.94-2,.08-7.29-.62-29.85q0-1.57-.1-3.24,0-1.1,0-2.11c-.08-4.79.06-7.86.06-7.86Z" transform="translate(-17.13 -62.7)"/><path class="cls-11" d="M69.86,363.78l19.55,1.33q-.08,3.33-.23,6.55-.06,1.31-.13,2.66a74.3,74.3,0,0,1-19.25-2.69C69.71,366.85,69.86,363.78,69.86,363.78Z" transform="translate(-17.13 -62.7)"/><path class="cls-19" d="M111.47,363.89s-11.66,4.58-22.07,4.63S69,367.57,69,367.57s-.87-15.72-1.44-33.29q-.05-1.73-.11-3.47c0-1.29-.07-2.58-.11-3.87s-.06-2.31-.08-3.47q-.05-2.22-.09-4.41,0-1.75-.05-3.46c-.16-13.24-.79-25.18,1.34-27.86,4.38-5.51,17.61-11,17.61-11a26.47,26.47,0,0,0,10,.72s7.41,5.6,12.6,9.38c4.1,3,.87,13.67,1.09,28.34q0,1.68.06,3.41l0,1.13c0,1,0,2.11.08,3.27s.06,2.22.1,3.4.07,2.53.12,3.85c0,1.12.07,2.26.11,3.41C110.78,347.81,111.47,363.89,111.47,363.89Z" transform="translate(-17.13 -62.7)"/><path class="cls-25" d="M86.08,284.23a15.87,15.87,0,0,0,10.93-3,.37.37,0,0,0-.47-.57,15.51,15.51,0,0,1-12.14,2.56.37.37,0,0,0-.15.72A16.89,16.89,0,0,0,86.08,284.23Z" transform="translate(-17.13 -62.7)"/><path class="cls-25" d="M109.87,318.57a124.28,124.28,0,0,1-23.46,2.29,96.46,96.46,0,0,1-19.2-1.79q0-1.75-.05-3.46c5.57,1.19,21.47,3.71,42.65-.45Q109.84,316.83,109.87,318.57Z" transform="translate(-17.13 -62.7)"/><path class="cls-25" d="M110.07,326.37a124.24,124.24,0,0,1-23.65,2.33,96.79,96.79,0,0,1-19-1.75c0-1.16-.06-2.31-.08-3.47C73,324.68,88.88,327.13,110,323,110,324,110,325.19,110.07,326.37Z" transform="translate(-17.13 -62.7)"/><path class="cls-25" d="M110.3,333.63A124.4,124.4,0,0,1,86.41,336a97,97,0,0,1-18.81-1.71q-.05-1.73-.11-3.47c5.89,1.22,21.73,3.59,42.69-.6C110.22,331.34,110.26,332.48,110.3,333.63Z" transform="translate(-17.13 -62.7)"/><path class="cls-19" d="M109.62,287.75s18.29,28.36,21.3,26.5l8.44-5.21,4.3-2.65S141.1,323,131,326.35c-6.33,2.1-23.5-19.5-23.5-19.5S107.53,292.23,109.62,287.75Z" transform="translate(-17.13 -62.7)"/><path class="cls-26" d="M293.47,346.35a395.8,395.8,0,0,1-31.84-50.44l.62,18.14s18.55,29.88,24.34,36.09C288.9,350.13,293.47,349.35,293.47,346.35Z" transform="translate(-17.13 -62.7)"/><path class="cls-27" d="M245.11,291.55s-3.22.86-6.35,1.65a22,22,0,0,0-4.48,1.56s-.28,27.54,0,35.9-2.42,16-1.89,20.91c0,0,23.89,1.69,29-.33,0,0-2-21.5.25-27.54s3.45-10.41,2.92-12.91c-1.36-6.42-3-7.38-2.56-13.29S245.11,291.55,245.11,291.55Z" transform="translate(-17.13 -62.7)"/><path class="cls-28" d="M255.46,301.49a15.87,15.87,0,0,1-10.6-4,.37.37,0,0,1,.52-.53,15.51,15.51,0,0,0,11.85,3.68.37.37,0,1,1,.08.74A16.89,16.89,0,0,1,255.46,301.49Z" transform="translate(-17.13 -62.7)"/><path class="cls-28" d="M240,335.8a.37.37,0,0,1,0-.74,24,24,0,0,0,16.74-9.41.37.37,0,1,1,.59.45,24.76,24.76,0,0,1-17.3,9.7Z" transform="translate(-17.13 -62.7)"/><path class="cls-28" d="M239.66,339.3c-.78,0-1.23,0-1.25,0a.37.37,0,0,1,.08-.74,24,24,0,0,0,17.93-6.86.37.37,0,0,1,.52.53A25,25,0,0,1,239.66,339.3Z" transform="translate(-17.13 -62.7)"/><polygon class="cls-21" points="317.75 302.62 324.06 304.84 321.93 310.58 315.12 308.6 317.75 302.62"/><path class="cls-20" d="M340.25,368.35s-1.39-2.12-.89-3.22,10.59-7.27,12.26-10,3.64-1.39,4.57-.43-9.12,23.63-9.12,23.63-7.15-1.89-9-3.42S339.9,370.86,340.25,368.35Z" transform="translate(-17.13 -62.7)"/><path class="cls-12" d="M346.84,365.3a.44.44,0,0,1-.78.26,6.84,6.84,0,0,1-1.47-3,3.07,3.07,0,0,1,1.22-2.9.44.44,0,1,1,.49.74,2.19,2.19,0,0,0-.82,2.06,6,6,0,0,0,1.27,2.53A.44.44,0,0,1,346.84,365.3Z" transform="translate(-17.13 -62.7)"/><path class="cls-12" d="M345.21,366.12a.44.44,0,0,1-.78.26,6.85,6.85,0,0,1-1.47-3,3.06,3.06,0,0,1,1.22-2.9.44.44,0,1,1,.49.74,2.19,2.19,0,0,0-.82,2.06,6,6,0,0,0,1.27,2.53A.44.44,0,0,1,345.21,366.12Z" transform="translate(-17.13 -62.7)"/><path class="cls-12" d="M348.41,364a.44.44,0,0,1-.78.26,6.85,6.85,0,0,1-1.47-3,3.06,3.06,0,0,1,1.22-2.9.44.44,0,1,1,.49.74,2.19,2.19,0,0,0-.82,2.06,6,6,0,0,0,1.27,2.53A.44.44,0,0,1,348.41,364Z" transform="translate(-17.13 -62.7)"/><path class="cls-29" d="M251.13,354s25.49-7.42,38.25-7.93,47.14,18.47,47.14,18.47c.82,2,.28,4.21-1.05,6.21a8.48,8.48,0,0,1-.61.82,12.17,12.17,0,0,1-1.61,1.68S307.85,370,290.9,361c0,0-23.8,5.93-37.51,5.55,0,0-5.65-4.72-2.27-12.55" transform="translate(-17.13 -62.7)"/><circle class="cls-13" cx="234.23" cy="207.54" r="13.58"/><circle class="cls-13" cx="229.28" cy="194.26" r="8.32"/><path class="cls-22" d="M261.1,274s2.06-2.16,3.25-.1-1.29,7.57-4.51,5.86Z" transform="translate(-17.13 -62.7)"/><circle class="cls-12" cx="261.99" cy="279.57" r="0.62" transform="translate(-58.34 451.1) rotate(-84.55)"/><path class="cls-30" d="M260.74,278.07a.28.28,0,0,0,.29-.17,4.31,4.31,0,0,1,2.69-2.24.27.27,0,0,0,.2-.33.29.29,0,0,0-.35-.19,4.79,4.79,0,0,0-3.07,2.57.27.27,0,0,0,.16.35Z" transform="translate(-17.13 -62.7)"/><path class="cls-30" d="M262.76,277.37a.3.3,0,0,0,.16,0A.26.26,0,0,0,263,277a2.56,2.56,0,0,0-1-.92.29.29,0,0,0-.39.1.26.26,0,0,0,.11.37,2,2,0,0,1,.76.69A.29.29,0,0,0,262.76,277.37Z" transform="translate(-17.13 -62.7)"/><path class="cls-26" d="M245.78,284.56l-.67,7s3,2.82,5.52,3.28,3.67-2.44,3.67-2.44l.62-6.5Z" transform="translate(-17.13 -62.7)"/><path class="cls-22" d="M245.71,285.24l-.27,2.79c1.52,2,4.47,3,9,2.77l.41-4.24Z" transform="translate(-17.13 -62.7)"/><path class="cls-26" d="M262,276.76c-.15.67-.31,1.34-.49,2-1.24,4.47-4.58,9.1-8.29,9.58-8,1-10.67-5.43-11.49-10.09-.09-.52.22-1.07.17-1.68a45.88,45.88,0,0,1-.52-4.7c0-1.11.06-2.2.1-3.18a6.45,6.45,0,0,1,4.57-5.91c3.74-1.09,9.32-1.7,14.21,1.83a6.5,6.5,0,0,1,2.63,5.78A48.75,48.75,0,0,1,262,276.76Z" transform="translate(-17.13 -62.7)"/><path class="cls-22" d="M252.06,279.36a.31.31,0,0,1,0-.61l1.06-.08-1.07-4a.31.31,0,0,1,.59-.16l1.27,4.69-1.8.13Z" transform="translate(-17.13 -62.7)"/><path class="cls-13" d="M259.67,268.82c2.93,1.69,2,6.31,1.83,9.81,0,.14.76-2.5.84-2.55a48.07,48.07,0,0,0,.93-6.48,6.59,6.59,0,0,0-2.8-5.9c-5.17-3.62-11-3-15-1.92a6.56,6.56,0,0,0-4.8,6c0,1-.09,2.11-.1,3.24.48.35,1.71.61,1.68,1.43-.07,2.17-.23,5.86.22,5.74s1.16-5.08.93-6.66c0,0,.81-1.07,3.77-1.9a55.37,55.37,0,0,0,7.52-2.81,6.62,6.62,0,0,0,2.09-1.57A6.52,6.52,0,0,0,259.67,268.82Z" transform="translate(-17.13 -62.7)"/><ellipse class="cls-13" cx="257.41" cy="274.86" rx="1.22" ry="0.78" transform="matrix(0.1, -1, 1, 0.1, -57.81, 442.27)"/><ellipse class="cls-13" cx="248.32" cy="274.02" rx="1.22" ry="0.78" transform="matrix(0.1, -1, 1, 0.1, -65.2, 432.46)"/><path class="cls-13" d="M259.19,271.45a14.89,14.89,0,0,0-3.19-.58c-.35,0-.66.22-.64.5h0a.5.5,0,0,0,.53.41,17,17,0,0,1,4.38.7.58.58,0,0,0-.19-.5A1.87,1.87,0,0,0,259.19,271.45Z" transform="translate(-17.13 -62.7)"/><path class="cls-13" d="M246.77,270.41a14.9,14.9,0,0,1,3.24,0c.35,0,.61.33.54.61h0a.5.5,0,0,1-.59.31,16.94,16.94,0,0,0-4.43-.08.58.58,0,0,1,.27-.46A1.87,1.87,0,0,1,246.77,270.41Z" transform="translate(-17.13 -62.7)"/><path class="cls-12" d="M255.26,281.5a3.47,3.47,0,0,1-3.79,2.7,3.35,3.35,0,0,1-3.2-3.36Z" transform="translate(-17.13 -62.7)"/><path class="cls-22" d="M251.33,286a3,3,0,0,0,1.44-.28.3.3,0,0,0-.26-.54h0a2.41,2.41,0,0,1-1.12.22,2.55,2.55,0,0,1-1.12-.43.3.3,0,0,0-.36.48A3.14,3.14,0,0,0,251.33,286Z" transform="translate(-17.13 -62.7)"/><path class="cls-21" d="M242.23,272.18s-1.89-2.8-3.33-1-.18,7.45,3,6.4Z" transform="translate(-17.13 -62.7)"/><circle class="cls-12" cx="240.59" cy="277.52" r="0.62" transform="matrix(0.09, -1, 1, 0.09, -75.65, 427.97)"/><path class="cls-22" d="M241.42,275.75a.26.26,0,0,1-.23-.21,4.06,4.06,0,0,0-2-2.62.26.26,0,0,1,.23-.47,4.52,4.52,0,0,1,2.32,3,.26.26,0,0,1-.21.3Z" transform="translate(-17.13 -62.7)"/><path class="cls-22" d="M239.72,274.72a.26.26,0,0,1-.18-.42,2.4,2.4,0,0,1,1.06-.7.26.26,0,0,1,.17.5,1.9,1.9,0,0,0-.81.52A.26.26,0,0,1,239.72,274.72Z" transform="translate(-17.13 -62.7)"/><path class="cls-12" d="M251.72,273.4a1.23,1.23,0,0,0-.06-.52,1.26,1.26,0,0,0-1-.85l-4.42-.52a1.26,1.26,0,0,0-.93.26,1.29,1.29,0,0,0-.47.85l-.07.57a3.54,3.54,0,0,0,.74,2.64,3.25,3.25,0,0,0,2.11,1.25h.12a3.6,3.6,0,0,0,4-3.16l.06-.48A.2.2,0,0,0,251.72,273.4Zm-.58.45a3.08,3.08,0,0,1-3.41,2.7h-.11a2.74,2.74,0,0,1-1.77-1.06,3,3,0,0,1-.62-2.24l.07-.57a.74.74,0,0,1,.82-.65l4.42.52a.74.74,0,0,1,.65.82Z" transform="translate(-17.13 -62.7)"/><path class="cls-12" d="M261.1,274.2a1.24,1.24,0,0,0-.19-.49,1.27,1.27,0,0,0-.91-.57l-4.43-.52a1.26,1.26,0,0,0-1.24.62,1.22,1.22,0,0,0-.16.47v0l-.07.57a3.55,3.55,0,0,0,.74,2.64,3.25,3.25,0,0,0,2.1,1.24h.12a3.6,3.6,0,0,0,4-3.16l.06-.48A1.15,1.15,0,0,0,261.1,274.2Zm-.57.76a3.08,3.08,0,0,1-3.41,2.7H257a2.74,2.74,0,0,1-1.77-1.06,3,3,0,0,1-.62-2.24l.07-.57a.74.74,0,0,1,.82-.65l4.43.52a.74.74,0,0,1,.65.82Z" transform="translate(-17.13 -62.7)"/><path class="cls-12" d="M245.25,271.77a6.34,6.34,0,0,0-3.17-.95l.14.54a6,6,0,0,1,2.7.82l.2.13.33-.41Z" transform="translate(-17.13 -62.7)"/><path class="cls-12" d="M251.54,273.43l-.11-.51a5.38,5.38,0,0,1,1.6-.08,3.54,3.54,0,0,1,1.4.44l-.28.44a3.09,3.09,0,0,0-1.18-.36A4.92,4.92,0,0,0,251.54,273.43Z" transform="translate(-17.13 -62.7)"/><path class="cls-12" d="M262.58,273.41a7.32,7.32,0,0,0-1.89.36l.17.5a7,7,0,0,1,1.85-.33Z" transform="translate(-17.13 -62.7)"/><polygon class="cls-21" points="262.65 337.87 260.39 344.57 254.47 344.01 256.48 336.88 262.65 337.87"/><path class="cls-20" d="M277.1,407s1.51-2,2.71-2,10.49,7.42,13.66,8,2.57,2.94,2,4.13-25.32-.38-25.32-.38-.7-7.36.1-9.62S274.62,407.59,277.1,407Z" transform="translate(-17.13 -62.7)"/><path class="cls-12" d="M282.24,412.17a.44.44,0,0,1-.52-.64,6.85,6.85,0,0,1,2.31-2.42,3.07,3.07,0,0,1,3.15.14.44.44,0,1,1-.53.71,2.19,2.19,0,0,0-2.22-.06A6.05,6.05,0,0,0,282.5,412,.44.44,0,0,1,282.24,412.17Z" transform="translate(-17.13 -62.7)"/><path class="cls-12" d="M280.91,410.92a.44.44,0,0,1-.52-.64,6.85,6.85,0,0,1,2.31-2.42,3.06,3.06,0,0,1,3.15.14.44.44,0,1,1-.53.72,2.19,2.19,0,0,0-2.22-.06,6,6,0,0,0-1.94,2.06A.44.44,0,0,1,280.91,410.92Z" transform="translate(-17.13 -62.7)"/><path class="cls-12" d="M284,413.18a.44.44,0,0,1-.52-.64,6.85,6.85,0,0,1,2.31-2.42,3.06,3.06,0,0,1,3.15.14.44.44,0,1,1-.53.72,2.19,2.19,0,0,0-2.22-.06A6,6,0,0,0,284.3,413,.44.44,0,0,1,284,413.18Z" transform="translate(-17.13 -62.7)"/><path class="cls-31" d="M232,354.53a13.6,13.6,0,0,0,1.43,8c1.9,3.59,6,7.35,14.84,6.89a280.16,280.16,0,0,1,32.09,0s-2,6.35-4.07,15.56c-1.24,5.42-5.12,18.56-5.12,18.56,2.55,1.5,5.26,1.12,8,.62,0,0,19.54-33.52,17.84-44.42s-64.65-8.14-64.65-8.14Z" transform="translate(-17.13 -62.7)"/><path class="cls-26" d="M271.22,345.84c-8.86-5.59-22.9-16.25-22.9-16.25a225.69,225.69,0,0,1-14-34.84s-5.9,6.8-1.81,22c4,14.83,10.39,20.15,10.39,20.15s16.38,11.73,25,14.64C269.28,349.27,270,348.19,271.22,345.84Z" transform="translate(-17.13 -62.7)"/><rect class="cls-32" x="254.61" y="348.59" width="59.14" height="4.47" rx="1.8" ry="1.8" transform="translate(-21.73 -58.93) rotate(-0.76)"/><polygon class="cls-20" points="296.65 289.97 248.19 290.61 262.62 264.01 310.99 263.53 296.65 289.97"/><polygon class="cls-32" points="293.64 290 293.63 290.01 245.27 290.49 259.61 264.05 262.62 264.01 248.28 290.45 293.64 290"/><circle class="cls-12" cx="297.38" cy="339.69" r="3.08" transform="translate(-21.59 -58.75) rotate(-0.76)"/><ellipse class="cls-1" cx="421.1" cy="374.38" rx="40.53" ry="7.9"/><path class="cls-20" d="M411.24,353.55v81.92a3.26,3.26,0,0,0,3.26,3.26H462a3.26,3.26,0,0,0,3.26-3.26V353.55a3.26,3.26,0,0,0-3.26-3.26H414.5a3.26,3.26,0,0,0-3.26,3.26Z" transform="translate(-17.13 -62.7)"/><path class="cls-32" d="M426,366.09h31.71a2.24,2.24,0,0,0,2.24-2.24h0a2.24,2.24,0,0,0-2.24-2.24H426a2.24,2.24,0,0,0-2.24,2.24h0A2.24,2.24,0,0,0,426,366.09Z" transform="translate(-17.13 -62.7)"/><rect class="cls-32" x="406.66" y="309.12" width="36.19" height="4.49" rx="2.24" ry="2.24"/><path class="cls-32" d="M426,386.53h31.71a2.24,2.24,0,0,0,2.24-2.24h0a2.24,2.24,0,0,0-2.24-2.24H426a2.24,2.24,0,0,0-2.24,2.24h0A2.24,2.24,0,0,0,426,386.53Z" transform="translate(-17.13 -62.7)"/><path class="cls-32" d="M426,396.76h31.71a2.24,2.24,0,0,0,2.24-2.24h0a2.24,2.24,0,0,0-2.24-2.24H426a2.24,2.24,0,0,0-2.24,2.24h0A2.24,2.24,0,0,0,426,396.76Z" transform="translate(-17.13 -62.7)"/><path class="cls-32" d="M426,407h31.71a2.24,2.24,0,0,0,2.24-2.24h0a2.24,2.24,0,0,0-2.24-2.24H426a2.24,2.24,0,0,0-2.24,2.24h0A2.24,2.24,0,0,0,426,407Z" transform="translate(-17.13 -62.7)"/><path class="cls-32" d="M426,417.2h31.71A2.24,2.24,0,0,0,460,415h0a2.24,2.24,0,0,0-2.24-2.24H426a2.24,2.24,0,0,0-2.24,2.24h0A2.24,2.24,0,0,0,426,417.2Z" transform="translate(-17.13 -62.7)"/><path class="cls-32" d="M426,427.42h31.71a2.24,2.24,0,0,0,2.24-2.24h0a2.24,2.24,0,0,0-2.24-2.24H426a2.24,2.24,0,0,0-2.24,2.24h0A2.24,2.24,0,0,0,426,427.42Z" transform="translate(-17.13 -62.7)"/><circle class="cls-13" cx="401.21" cy="299.86" r="0.96"/><circle class="cls-9" cx="401.21" cy="302.42" r="0.96"/><circle class="cls-12" cx="401.21" cy="310.08" r="0.96"/><circle class="cls-9" cx="401.21" cy="312.65" r="0.96"/><circle class="cls-12" cx="401.21" cy="330.52" r="0.96"/><circle class="cls-9" cx="401.21" cy="333.09" r="0.96"/><circle class="cls-13" cx="401.21" cy="320.3" r="0.96"/><circle class="cls-9" cx="401.21" cy="322.87" r="0.96"/><circle class="cls-13" cx="401.21" cy="340.75" r="0.96"/><circle class="cls-9" cx="401.21" cy="343.31" r="0.96"/><circle class="cls-12" cx="401.21" cy="350.97" r="0.96"/><circle class="cls-9" cx="401.21" cy="353.53" r="0.96"/><circle class="cls-13" cx="401.21" cy="361.19" r="0.96"/><circle class="cls-9" cx="401.21" cy="363.76" r="0.96"/><path class="cls-5" d="M421.54,350.29h33.4a3.7,3.7,0,0,0-3.7-3.7h-26a3.7,3.7,0,0,0-3.7,3.7Z" transform="translate(-17.13 -62.7)"/><polygon class="cls-9" points="401.46 205.97 401.46 208.19 420.06 208.19 420.06 283.89 422.27 283.89 422.27 205.97 401.46 205.97"/><circle class="cls-5" cx="421.1" cy="207.08" r="2.88"/></svg>