<svg id="Layer_1" data-name="Layer 1" xmlns="http://www.w3.org/2000/svg" viewBox="0 0 731.81 560.69"><defs><style>.cls-1{fill:#e3eef7;}.cls-2{fill:#fff;}.cls-3{fill:#002c3d;}.cls-4{fill:#ffcc0d;}.cls-5{fill:#ffb200;}.cls-6{fill:#ffd3c1;}.cls-7{fill:#043c62;}.cls-8{fill:#5793ce;}.cls-9{fill:#286ae0;}.cls-10{fill:#ffb49c;}.cls-11{fill:#ffa889;}.cls-12{fill:#eee;}.cls-13{fill:#0057c2;}.cls-14{fill:#00ae75;}.cls-15{fill:#009367;}.cls-16{fill:#003e51;}.cls-17{fill:#007d27;}.cls-18{fill:#0065c1;}.cls-19{fill:#f25f68;}.cls-20{fill:#050545;}.cls-21{fill:#d4ecff;}.cls-22{fill:#173d7a;}.cls-23{fill:#e5e7ed;}.cls-24{fill:#ff5449;}</style></defs><title>sass-content-12-1</title><rect class="cls-1" x="225.13" y="129.25" width="156.26" height="117.23" rx="0.88" ry="0.88"/><rect class="cls-1" x="225.13" width="156.26" height="117.23" rx="0.88" ry="0.88"/><rect class="cls-1" x="60.48" y="129.25" width="156.26" height="117.23" rx="0.88" ry="0.88"/><rect class="cls-1" x="60.48" width="156.26" height="117.23" rx="0.88" ry="0.88"/><path class="cls-2" d="M416.77,164.11a18,18,0,0,0-4.73,3c-1.43,1.28-2.93,2.49-4.43,3.71-1.26,1,.35,2.64,1.6,2.07,3.32-1.49,7.18-3.42,9.24-6.56.66-1-.46-2.68-1.68-2.18Z" transform="translate(-41.76 -25.55)"/><path class="cls-2" d="M396.67,158.67c-3.49.92-6.67,3.23-9.77,5a1.33,1.33,0,0,0,1,2.41c3.55-1,7.57-2.22,10.2-4.94a1.5,1.5,0,0,0-1.44-2.48Z" transform="translate(-41.76 -25.55)"/><path class="cls-2" d="M416,157.55c-6.13,3.3-12.07,6.92-18.44,9.77-7,3.15-14.43,4.88-21.62,7.51-1.72.63-1.64,3.58.46,3.43,14.45-1.06,30.72-8.73,41.42-18.34,1.31-1.18-.36-3.16-1.83-2.37Z" transform="translate(-41.76 -25.55)"/><path class="cls-2" d="M416.77,36.31a18,18,0,0,0-4.73,3c-1.43,1.28-2.93,2.49-4.43,3.71-1.26,1,.35,2.64,1.6,2.07,3.32-1.49,7.18-3.42,9.24-6.56.66-1-.46-2.68-1.68-2.18Z" transform="translate(-41.76 -25.55)"/><path class="cls-2" d="M396.67,30.87c-3.49.92-6.67,3.23-9.77,5a1.33,1.33,0,0,0,1,2.41c3.55-1,7.57-2.22,10.2-4.94a1.5,1.5,0,0,0-1.44-2.48Z" transform="translate(-41.76 -25.55)"/><path class="cls-2" d="M416,29.74C409.92,33,404,36.67,397.6,39.52c-7,3.15-14.43,4.88-21.62,7.51-1.72.63-1.64,3.58.46,3.43,14.45-1.06,30.72-8.73,41.42-18.34,1.31-1.18-.36-3.16-1.83-2.37Z" transform="translate(-41.76 -25.55)"/><path class="cls-2" d="M248.64,164.11a18,18,0,0,0-4.73,3c-1.43,1.28-2.93,2.49-4.43,3.71-1.26,1,.35,2.64,1.6,2.07,3.32-1.49,7.18-3.42,9.24-6.56.66-1-.46-2.68-1.68-2.18Z" transform="translate(-41.76 -25.55)"/><path class="cls-2" d="M228.53,158.67c-3.49.92-6.67,3.23-9.77,5a1.33,1.33,0,0,0,1,2.41c3.55-1,7.57-2.22,10.2-4.94a1.5,1.5,0,0,0-1.44-2.48Z" transform="translate(-41.76 -25.55)"/><path class="cls-2" d="M247.91,157.55c-6.13,3.3-12.07,6.92-18.44,9.77-7,3.15-14.43,4.88-21.62,7.51-1.72.63-1.64,3.58.46,3.43,14.45-1.06,30.72-8.73,41.42-18.34,1.31-1.18-.36-3.16-1.83-2.37Z" transform="translate(-41.76 -25.55)"/><path class="cls-2" d="M248.64,36.31a18,18,0,0,0-4.73,3c-1.43,1.28-2.93,2.49-4.43,3.71-1.26,1,.35,2.64,1.6,2.07,3.32-1.49,7.18-3.42,9.24-6.56.66-1-.46-2.68-1.68-2.18Z" transform="translate(-41.76 -25.55)"/><path class="cls-2" d="M228.53,30.87c-3.49.92-6.67,3.23-9.77,5a1.33,1.33,0,0,0,1,2.41c3.55-1,7.57-2.22,10.2-4.94a1.5,1.5,0,0,0-1.44-2.48Z" transform="translate(-41.76 -25.55)"/><path class="cls-2" d="M247.91,29.74c-6.13,3.3-12.07,6.92-18.44,9.77-7,3.15-14.43,4.88-21.62,7.51-1.72.63-1.64,3.58.46,3.43,14.45-1.06,30.72-8.73,41.42-18.34,1.31-1.18-.36-3.16-1.83-2.37Z" transform="translate(-41.76 -25.55)"/><path class="cls-3" d="M354.95,437.56s-15.18,22.11,0,26.1,73.38,8.43,51.24-16.25S354.95,437.56,354.95,437.56Z" transform="translate(-41.76 -25.55)"/><path class="cls-3" d="M387.61,570.35c-4.94-4.36-3-111.69-3-111.69H367.36s2,107.32-3,111.69-48.66-16.05-48.66,14.38H436.28C436.28,554.3,392.55,574.71,387.61,570.35Z" transform="translate(-41.76 -25.55)"/><path class="cls-4" d="M341.36,159c-74.52-3.91-98.51,14-106.72,34.14s48.76,235.49,73.16,244,81.87-14.92,88.73-25.82S394.08,161.73,341.36,159Z" transform="translate(-41.76 -25.55)"/><path class="cls-4" d="M460.19,449.12c9.11-29.41.49-41.49-10.9-47.53S342.33,412,327.5,416.28c-10.9,3.15-28.38,9.93-26.13,16.88C307.8,453.06,453.75,469.93,460.19,449.12Z" transform="translate(-41.76 -25.55)"/><path class="cls-5" d="M304.47,429c2-1.81,6-3,8.38-4.15,4.46-2.21,9-4.33,13.48-6.41C333,415.36,341,413.19,347,409a.51.51,0,0,0-.26-.94c-6.92,0-15.34,5.77-21.44,8.63-7.41,3.47-14.87,6.83-21.14,12-.22.18.1.51.32.32Z" transform="translate(-41.76 -25.55)"/><path class="cls-6" d="M517.36,80.52S512.45,54.78,513.79,53s6.1,9.52,6.1,9.52S518.4,43,521.38,42.43,525.24,63,525.24,63s6.16-24.1,9.48-23.66S530.9,64.9,531.2,64.45s11.31-22.17,14.43-21.28-8,23.21-8,23.21,12.94-12.95,14.28-11.61-20.09,27.53-20.09,27.53Z" transform="translate(-41.76 -25.55)"/><path id="_Path_" data-name="&lt;Path&gt;" class="cls-7" d="M351,187.83c3-2.29,11.48-4.85,12.62-4.5,1.06-.55,9.85.38,13.24,2.06,20.65,10.23,51.48,15.09,53.24,33.45,0,0,.84,13.19-9.41,14.16l-51.92,4.9-51.92,4.9c-10.25,1-11.89-12.15-11.89-12.15C303.29,212.29,332.68,201.74,351,187.83Z" transform="translate(-41.76 -25.55)"/><path class="cls-8" d="M622.71,535.48c-6.16,2.35-8.14,6.08-8.22,9.31s1.72,11.76,5.47,13.32,64.77-7.66,63.6-16.95-30.38-9.34-36.09-8.45S630.5,532.52,622.71,535.48Z" transform="translate(-41.76 -25.55)"/><path class="cls-6" d="M606.37,517.49l17,19.71a6.83,6.83,0,0,0,6.86,6.55l5.51,0a6.83,6.83,0,0,0,6.77-7.36l-18.21-24.75" transform="translate(-41.76 -25.55)"/><path class="cls-8" d="M454,525.39c-4.3-5-8.49-5.58-11.55-4.56s-10.48,5.62-10.66,9.68,29.26,58.29,37.59,54-1.56-31.74-4.34-36.81S459.49,531.7,454,525.39Z" transform="translate(-41.76 -25.55)"/><path class="cls-6" d="M456.87,511.94l-11.82,15.22a6.31,6.31,0,0,0,1.23,8.94l5.2,3.86a6.31,6.31,0,0,0,8.94-1.46L474.72,518" transform="translate(-41.76 -25.55)"/><path class="cls-9" d="M347.39,364.49s-6.83,58.89,23.41,69.73c57.91,20.75,128.45,1.53,128.45,1.53l-48.57,78.92,20.22,14.26,72.48-85.54,66.95,83.93,28-1.5s-76.22-128.77-95.65-147.29c-15.51-14.79-119.21-16.6-119.21-16.6S375.42,338.56,347.39,364.49Z" transform="translate(-41.76 -25.55)"/><path id="_Path_2" data-name="&lt;Path&gt;" class="cls-6" d="M367.23,202.72h0a13.72,13.72,0,0,0,13.27-14.15l-1.09-34.13-27.42.88,1.09,34.13A13.72,13.72,0,0,0,367.23,202.72Z" transform="translate(-41.76 -25.55)"/><path class="cls-6" d="M384.64,72.58l-.76,0c-3.23-5.64-8.17-9.72-14.31-9.86l-24.24-.56c-9.88-.23-19.1,10.49-17.54,21.2l13.7,62.54c1.53,10.54,9.28,24.42,33.75,25.62.49,0,1,.1,1.46.11l.65.07c14.27.33,25.74-11.54,26.07-25.81l3.83-49.64A23.2,23.2,0,0,0,384.64,72.58Z" transform="translate(-41.76 -25.55)"/><path id="_Path_3" data-name="&lt;Path&gt;" class="cls-3" d="M371.4,75.67a348.59,348.59,0,0,1-21.87,30.56c-7.74,9.65-9.86,17.8-10.47,25.48a3.12,3.12,0,0,1-6,.91c-9.78-23.56-24.29-73.18,26.68-73.77Z" transform="translate(-41.76 -25.55)"/><path id="_Path_4" data-name="&lt;Path&gt;" class="cls-6" d="M325.07,131.7c3.15,6.9,9.26,10.87,13.66,8.87a5.71,5.71,0,0,0,1.2-.74c3.35-2.69,3.9-9.17,1.06-15.39-3.15-6.9-9.26-10.87-13.66-8.87S321.93,124.8,325.07,131.7Z" transform="translate(-41.76 -25.55)"/><path class="cls-7" d="M395.21,192.92C435.13,208.84,498.67,119.56,516.06,76a20.39,20.39,0,0,1,18.19,4.45s-31.2,116-115.85,168.76Z" transform="translate(-41.76 -25.55)"/><path id="_Path_5" data-name="&lt;Path&gt;" class="cls-3" d="M369.26,73.56" transform="translate(-41.76 -25.55)"/><path id="_Path_6" data-name="&lt;Path&gt;" class="cls-3" d="M365.84,78.16s36.66,23.74,46,43.09c0,0,16.25-76.91-52.11-62.4Z" transform="translate(-41.76 -25.55)"/><path class="cls-7" d="M424.14,279.09c18.61-24.13-7.84-45.52-9.17-49l-8.45-33.34-24.46,39-49.23-35.64L320.76,242.5l26.64,122c10.38,1.59,54.79,6.08,76.12-2.56C421.88,345.21,417.5,287.7,424.14,279.09Z" transform="translate(-41.76 -25.55)"/><path class="cls-3" d="M358.24,79.31a121.28,121.28,0,0,1,29.56,30S386,84.86,380.11,70.77s-19.2-4.8-19.2-4.8Z" transform="translate(-41.76 -25.55)"/><path class="cls-10" d="M379.43,124.69c-.78,4.31,0,9.54,2.59,13.07a5,5,0,0,1,1.5,2.72,21.61,21.61,0,0,1-2.43,1.94c-.21.29-.53.38-.61.8-.15.79,0,1.13.77,1.58,3.21,1.87,7.22-3,6.63-5.89-.42-2.05-2.13-3.47-3.45-5-2.58-2.9-2.43-5.75-3.39-9.26-.21-.75-1.46-.84-1.61,0Z" transform="translate(-41.76 -25.55)"/><path class="cls-10" d="M353.08,165.85c3.19,5.49,11.84,5.47,17.21,6.92a.91.91,0,0,0,.48-1.75c-3-1.06-6.26-1.28-9.28-2.33-2.74-1-5-3-7.9-3.51a.47.47,0,0,0-.52.68Z" transform="translate(-41.76 -25.55)"/><path class="cls-11" d="M363.59,137.08a1.14,1.14,0,0,0,0-2.28,1.14,1.14,0,0,0,0,2.28Z" transform="translate(-41.76 -25.55)"/><path class="cls-11" d="M360.54,143.58a1.42,1.42,0,0,0,0-2.83,1.42,1.42,0,0,0,0,2.83Z" transform="translate(-41.76 -25.55)"/><path class="cls-11" d="M367.16,143.42a1.26,1.26,0,0,0,0-2.51,1.26,1.26,0,0,0,0,2.51Z" transform="translate(-41.76 -25.55)"/><path class="cls-11" d="M395.6,132.53a1.24,1.24,0,0,0,0-2.48,1.24,1.24,0,0,0,0,2.48Z" transform="translate(-41.76 -25.55)"/><path class="cls-11" d="M393.69,138.5a.74.74,0,0,0-1.44-.19c-.29,1,1.46,1.28,1.44.19Z" transform="translate(-41.76 -25.55)"/><path class="cls-11" d="M398.62,138.79a1.07,1.07,0,0,0,0-2.14,1.07,1.07,0,0,0,0,2.14Z" transform="translate(-41.76 -25.55)"/><path class="cls-3" d="M369.75,110.07c-2.69-1.75-6.61.51-9.17,1.73a13.26,13.26,0,0,0-6.74,6.45c-.35.84.8,1.61,1.51,1.16,2.37-1.52,4.41-3.39,7-4.57s5.48-.28,7.74-2c.94-.73.48-2.2-.35-2.74Z" transform="translate(-41.76 -25.55)"/><path class="cls-3" d="M386.56,113.08c2,1.24,4.3,0,6.46.58,2.47.67,4.41,2.25,6.67,3.34a1,1,0,0,0,1.4-1.4c-1.29-2.63-4.06-4.33-6.77-5.22-2.41-.79-6.14-2.28-8.12,0a1.77,1.77,0,0,0,.35,2.74Z" transform="translate(-41.76 -25.55)"/><ellipse class="cls-3" cx="326.48" cy="98.86" rx="3.15" ry="4.67"/><ellipse class="cls-3" cx="347.14" cy="98.86" rx="3.15" ry="4.67"/><path class="cls-12" d="M410.83,207.46c1.31,11.71,2.67,21.85,10.31,31,10.27,12.24,7.62,28.32,1.12,41.81a1.11,1.11,0,0,0,1.91,1.12c6.07-9.43,8.81-22.42,5.93-33.38-1.59-6.05-5.11-9.58-9-14.21-5.9-7-6.83-17.89-9.9-26.34-.06-.17-.37-.17-.35,0Z" transform="translate(-41.76 -25.55)"/><path class="cls-13" d="M430.7,383.24c6.72,4.56,18.58,4.49,26.35,5.71,12.55,2,25.16,3.64,37.66,5.91,7,1.27,19.95,1.93,25.39,7.29,4.36,4.3,5.35,12.69,7.49,18.21a68.3,68.3,0,0,0,13,20.91c.82.92,2.15-.43,1.35-1.35-7.06-8.14-11.16-17.12-14.46-27.26-1.35-4.15-2.63-9.57-5.93-12.68-5.39-5.08-16.16-6-23-7.32-12.55-2.41-25.25-4.07-37.91-5.74-9.53-1.26-20.27-4.34-29.9-3.85a.1.1,0,0,0,0,.18Z" transform="translate(-41.76 -25.55)"/><path class="cls-13" d="M499.56,434.31c.34-2.16-.75-4.63-2-6.32-.2-.26-.73-.23-.7.19.13,2.08.73,4.71,2.17,6.28a.34.34,0,0,0,.57-.15Z" transform="translate(-41.76 -25.55)"/><path class="cls-13" d="M499.41,435.18a4.79,4.79,0,0,0,3.15-3.9.5.5,0,0,0-.74-.43,10.89,10.89,0,0,0-3.25,3.23.75.75,0,0,0,.84,1.09Z" transform="translate(-41.76 -25.55)"/><path class="cls-13" d="M424,384.75c1.59.13,3.11.4,4.72.41,1.07,0,2.45.23,3.33-.53,1.68-1.44,1.1-4.89-.06-6.43-.33-.44-1.25-.38-1.19.32a12.39,12.39,0,0,1,.1,2.72,2.71,2.71,0,0,1-.31,1.25c-.31.39-.74.31-1.29.36-1.87.2-3.6.62-5.43,1-.56.1-.37.89.13.93Z" transform="translate(-41.76 -25.55)"/><path class="cls-12" d="M345.3,196.51c-.81,12.06,12.08,18.35,22.51,18.35,12.66,0,21.56-7.56,20.47-20.51a.65.65,0,0,0-1.3,0c-.55,6.08-1.56,11.74-7.35,15.3-4.79,2.95-10.84,2.91-16.19,2-9.44-1.69-13.43-7.35-18-15.14a.08.08,0,0,0-.15,0Z" transform="translate(-41.76 -25.55)"/><circle class="cls-2" cx="294.24" cy="114.9" r="2.97"/><path class="cls-12" d="M344.47,345.38c3.43,4,9.57,2.91,14.33,2.91,4.24,0,10.54,1.43,13.85-1.86a.35.35,0,0,0-.24-.58c-4.53,0-9.07.11-13.61,0s-9.67-1-14.28-.61a.07.07,0,0,0-.05.12Z" transform="translate(-41.76 -25.55)"/><path class="cls-7" d="M308.34,219c-16,18.95-27.9,83.52-21.94,97.26s59.67,34.42,90.05,32.32V327.68s-25.08-6.87-57.54-24.86c0,0,9.35-36,23.91-58.7Z" transform="translate(-41.76 -25.55)"/><path class="cls-12" d="M338.46,246.34c-3.61,6.19-4.43,13.67-7,20.33-2.41,6.24-8.1,12.53-7.43,19.45,0,.3.48.51.64.17,5.67-12.17,14.83-25.88,14.08-39.88a.15.15,0,0,0-.28-.08Z" transform="translate(-41.76 -25.55)"/><path class="cls-12" d="M328.14,277.6a123.13,123.13,0,0,0,3.15,16.23c1.51,6.12,2.21,12.41,3.81,18.5a.4.4,0,0,0,.79-.11c-.53-11.16-2.86-24.36-7.1-34.71-.13-.31-.69-.32-.65.09Z" transform="translate(-41.76 -25.55)"/><path class="cls-12" d="M338.65,313.29c6.84,4.69,14.59,8.32,22,12,4.89,2.4,9.9,4.66,15.44,4.34.62,0,.85-1.06.16-1.16-13.6-2-24.72-10.9-37.54-15.34-.12,0-.18.13-.08.19Z" transform="translate(-41.76 -25.55)"/><rect class="cls-3" x="330.65" y="277.21" width="29.26" height="45.94" rx="1.44" ry="1.44"/><path class="cls-6" d="M370.28,331.08s4.22-9.07,10.17-10.95,6.59,5.6,6.59,5.6,14.37-12.33,17.65-1.54,1.93,24.51-3,24.51-32.32-.15-32.32-.15S365.15,338.6,370.28,331.08Z" transform="translate(-41.76 -25.55)"/><path class="cls-10" d="M385.11,327.2c-.67.51-1.1-.08-1.71-.36a1.09,1.09,0,0,0-1.58.64,2.18,2.18,0,0,0,1.73,2.64,2.74,2.74,0,0,0,3-1.45c.53-.86-.59-2.14-1.47-1.47Z" transform="translate(-41.76 -25.55)"/><path class="cls-10" d="M398.66,333.36c1.24-.65,2.61-1.63,2.2-3.2a.62.62,0,0,0-.59-.45c-1.2.15-1.82,1-2.85,1.53-1.4.73-.16,2.85,1.24,2.12Z" transform="translate(-41.76 -25.55)"/><path class="cls-10" d="M400.63,337.9c.65-.73,1.59-1.43,1.54-2.49a.48.48,0,0,0-.47-.47c-1.05,0-1.75.88-2.48,1.54-1,.86.56,2.38,1.42,1.42Z" transform="translate(-41.76 -25.55)"/><path class="cls-10" d="M400.34,344.82c1.7-.88,3.62-2.14,3.86-4.18.09-.78-.84-1-1.4-.8-1.42.62-2.37,2-3.73,2.8s-.16,2.92,1.27,2.18Z" transform="translate(-41.76 -25.55)"/><ellipse class="cls-3" cx="332.63" cy="54.23" rx="23.76" ry="16.66" transform="translate(17.32 225.54) rotate(-45)"/><path class="cls-2" d="M327.54,73.69c3.67-2.48,7.3-4.94,11.05-7.29,3.19-2,7.69-3.4,10.11-6.25a.36.36,0,0,0-.25-.6c-3.82,0-7.77,3.06-11,5a61.61,61.61,0,0,0-10.67,8.24c-.46.45.15,1.28.7.91Z" transform="translate(-41.76 -25.55)"/><path class="cls-10" d="M362.34,152.36a7,7,0,0,0,3.28,4.6c2,1,3.86,1.14,5.61-.32a.78.78,0,0,0-.34-1.3c-2.72-.49-5.68-.81-6.93-3.66-.41-.94-1.86-.26-1.62.68Z" transform="translate(-41.76 -25.55)"/><path class="cls-14" d="M710,523a45.6,45.6,0,0,1,.94-14.33c1.52-7.45,4.16-14.79,8.75-20.85a38.49,38.49,0,0,0,4-5.6c3.79-7.48-.46-16.32-1-24.69a27.79,27.79,0,0,1,9.47-22.45c2.74-2.35,6-4.21,8.07-7.15,4.18-5.9,2.4-13.91,2.3-21.14-.06-3.92.65-8.25,3.66-10.77a11,11,0,0,1,6.68-2.25,19,19,0,0,1,14.82,6.5,20.39,20.39,0,0,1,4.71,15.56c-.8,6.86-5,13.26-4.32,20.13.49,5.13,3.61,9.63,4.86,14.63a20.79,20.79,0,0,1-2.36,15.64c-2.1,3.46-5.19,6.25-7.31,9.7-5.37,8.73-4.1,20.87-11.07,28.39-4.12,4.44-10.41,6.37-14.57,10.77-5,5.23-6,12.92-6.87,20.08l-19,16.32c2.39-4.24,2.29-9.46,1.38-14.24S710.57,527.86,710,523Z" transform="translate(-41.76 -25.55)"/><path class="cls-14" d="M726.73,533.17a45.6,45.6,0,0,0,1-14.33c-.51-7.58-2.13-15.22-5.87-21.83a38.47,38.47,0,0,1-3.21-6.08c-2.75-7.92,2.65-16.11,4.29-24.33a27.79,27.79,0,0,0-6.37-23.52c-2.4-2.7-5.37-5-7-8.17-3.35-6.41-.52-14.11.56-21.26.58-3.88.47-8.26-2.18-11.16a11,11,0,0,0-6.32-3.12A19,19,0,0,0,686,403.8a20.39,20.39,0,0,0-6.76,14.79c-.13,6.9,3.15,13.81,1.58,20.53-1.17,5-4.87,9.06-6.78,13.85a20.79,20.79,0,0,0,.24,15.82c1.62,3.72,4.3,6.89,5.94,10.59,4.15,9.38,1.26,21.23,7.16,29.62,3.49,5,9.46,7.71,13,12.63,4.21,5.85,4.24,13.62,4.11,20.82l16.65,18.72c-1.8-4.53-1-9.68.55-14.29S725.53,537.88,726.73,533.17Z" transform="translate(-41.76 -25.55)"/><path class="cls-15" d="M707.3,511.05A45.59,45.59,0,0,1,704.48,497c-.48-7.59.16-15.36,3-22.41a38.5,38.5,0,0,0,2.4-6.45c1.71-8.21-4.7-15.64-7.39-23.58a27.78,27.78,0,0,1,3.29-24.15c2-3,4.68-5.62,5.93-9,2.5-6.79-1.31-14.06-3.29-21-1.08-3.77-1.53-8.14.72-11.35a11,11,0,0,1,5.86-3.91,19,19,0,0,1,16,2.41,20.39,20.39,0,0,1,8.61,13.79c1,6.83-1.34,14.1,1.08,20.56,1.81,4.83,6,8.36,8.51,12.86a20.79,20.79,0,0,1,1.8,15.72c-1.13,3.89-3.38,7.38-4.53,11.27-2.91,9.83,1.49,21.22-3.28,30.3-2.82,5.37-8.39,8.86-11.26,14.2-3.42,6.34-2.45,14-1.39,21.18l-14.1,20.71c1.2-4.72-.25-9.73-2.38-14.1S709.11,515.57,707.3,511.05Z" transform="translate(-41.76 -25.55)"/><path class="cls-15" d="M715.36,550.81a45.59,45.59,0,0,0-.94-14.33c-1.52-7.45-4.16-14.79-8.75-20.85a38.5,38.5,0,0,1-4-5.6c-3.79-7.48.46-16.32,1-24.69a27.79,27.79,0,0,0-9.47-22.45c-2.74-2.35-6-4.21-8.07-7.15-4.18-5.91-2.4-13.91-2.3-21.14.06-3.92-.65-8.25-3.66-10.77a11,11,0,0,0-6.68-2.25,19,19,0,0,0-14.82,6.5,20.39,20.39,0,0,0-4.71,15.56c.8,6.86,5,13.26,4.32,20.13-.49,5.13-3.61,9.63-4.86,14.63A20.79,20.79,0,0,0,654.76,494c2.1,3.46,5.19,6.25,7.31,9.7,5.37,8.73,4.1,20.87,11.07,28.39,4.12,4.44,10.41,6.37,14.57,10.77,5,5.23,6,12.92,6.87,20.08l19,16.32c-2.39-4.24-2.29-9.46-1.38-14.24S714.8,555.65,715.36,550.81Z" transform="translate(-41.76 -25.55)"/><polygon class="cls-16" points="635.89 559.18 684.12 559.18 692.24 499.96 626.41 499.96 635.89 559.18"/><rect class="cls-3" x="665.53" y="519.07" width="71.11" height="9.87" transform="translate(1360.42 1022.45) rotate(180)"/><path class="cls-17" d="M684.85,516.73a218.3,218.3,0,0,1-14-38.76c-3.37-13.37-3.8-26.62-5.24-40.22-.13-1.22-2-1.68-2.29-.31-6.64,26.91,7.33,57.16,20.13,80.1.51.92,1.81.11,1.38-.81Z" transform="translate(-41.76 -25.55)"/><path class="cls-17" d="M721.37,516.07c-1.64-11.85-2.28-21.73.3-33.56,2.15-9.84,5.51-19.35,7.28-29.28,3.3-18.53,1.78-37.64-3.31-55.7-.78-2.78-5-1.61-4.32,1.19,5.12,21.81,5.66,42.13,1,64-3.62,16.94-8.77,36.78-2.31,53.69a.72.72,0,0,0,1.39-.38Z" transform="translate(-41.76 -25.55)"/><path class="cls-17" d="M755.11,401.86c-1.16,8.9.54,18.53.89,27.5a160.9,160.9,0,0,1-1.24,29.73c-1.29,8.88-2.84,16.9-7.41,24.74-4.38,7.51-9.52,15-12.73,23-.28.71.76,1.23,1.24.72C748.12,494.68,757.39,479,759,461.12a214.42,214.42,0,0,0,.16-30.31c-.48-9.39-.59-20-3.58-29a.25.25,0,0,0-.49.07Z" transform="translate(-41.76 -25.55)"/><path class="cls-17" d="M696.66,404.22c-.23,12.48-4.59,24.39-4.71,36.79-.12,11.61,5.4,22.1,9,32.88a1.26,1.26,0,0,0,2.45-.33c.7-5.84-1.2-10.1-3.22-15.48a52.76,52.76,0,0,1-3.79-18.37c-.13-11.85,2.53-23.66,1.55-35.49a.64.64,0,0,0-1.27,0Z" transform="translate(-41.76 -25.55)"/><circle class="cls-18" cx="568.57" cy="69.63" r="51.17"/><circle class="cls-19" cx="568.57" cy="69.63" r="45.04"/><rect class="cls-20" x="567.06" y="33.48" width="3.02" height="36.15"/><rect class="cls-20" x="526.97" y="68.12" width="41.6" height="3.02"/><circle class="cls-2" cx="568.57" cy="69.63" r="4.18"/><path class="cls-3" d="M770.15,586.24H43.27a1.51,1.51,0,1,1,0-3H770.15a1.51,1.51,0,1,1,0,3Z" transform="translate(-41.76 -25.55)"/><rect class="cls-21" x="420.82" y="316.55" width="14.38" height="6.45"/><polygon class="cls-21" points="487.81 311.88 473.44 311.88 475.07 305.43 489.45 305.43 487.81 311.88"/><polygon class="cls-21" points="571.52 311.88 557.15 311.88 558.79 305.43 573.16 305.43 571.52 311.88"/><rect class="cls-21" x="544.76" y="316.55" width="14.38" height="6.45"/><rect class="cls-22" x="410.16" y="310.37" width="163" height="9.41" rx="1" ry="1"/><path class="cls-8" d="M652.34,195.09H554.88a2.76,2.76,0,0,0-2.66,2L515.35,329.4A2.76,2.76,0,0,0,518,332.9h97.46a2.76,2.76,0,0,0,2.66-2L655,198.6A2.76,2.76,0,0,0,652.34,195.09Z" transform="translate(-41.76 -25.55)"/><ellipse class="cls-23" cx="588.32" cy="264" rx="12.66" ry="9.52" transform="translate(132.89 733.11) rotate(-74.26)"/><path class="cls-23" d="M649.82,201.78c-1.57,6.9-3.7,13.58-5,20.58a.57.57,0,0,0,1.09.3c2.58-6.92,3.38-13.6,4.18-20.84,0-.17-.26-.2-.3,0Z" transform="translate(-41.76 -25.55)"/><path class="cls-23" d="M623.27,199.66c7.09.1,14.08.68,21.19.43.6,0,.81-1,.15-1.11-7.36-1-14-.46-21.34.38a.15.15,0,0,0,0,.3Z" transform="translate(-41.76 -25.55)"/><path class="cls-3" d="M675.83,586.24a1.51,1.51,0,0,1-1.51-1.51V354.49a1.51,1.51,0,1,1,3,0V584.73A1.51,1.51,0,0,1,675.83,586.24Z" transform="translate(-41.76 -25.55)"/><path class="cls-3" d="M170.43,586.24a1.51,1.51,0,0,1-1.51-1.51V354.49a1.51,1.51,0,0,1,3,0V584.73A1.51,1.51,0,0,1,170.43,586.24Z" transform="translate(-41.76 -25.55)"/><path class="cls-24" d="M119.87,360.42h603a5.93,5.93,0,0,0,5.93-5.93h0a5.93,5.93,0,0,0-5.93-5.93h-603a5.93,5.93,0,0,0-5.93,5.93h0A5.93,5.93,0,0,0,119.87,360.42Z" transform="translate(-41.76 -25.55)"/><path class="cls-3" d="M675,468.3H170.43a1.51,1.51,0,0,1,0-3H675a1.51,1.51,0,0,1,0,3Z" transform="translate(-41.76 -25.55)"/></svg>