<?xml version="1.0" encoding="utf-8"?>
<!-- Generator: Adobe Illustrator 21.0.0, SVG Export Plug-In . SVG Version: 6.00 Build 0)  -->
<svg version="1.1" id="Layer_1" xmlns="http://www.w3.org/2000/svg" xmlns:xlink="http://www.w3.org/1999/xlink" x="0px" y="0px"
	 viewBox="0 0 484 497" style="enable-background:new 0 0 484 497;" xml:space="preserve">
<style type="text/css">
	.st0{fill:#0070D4;}
	.st1{fill:#1A2E35;}
	.st2{fill:#FFBF9D;}
	.st3{fill:#5793CE;}
	.st4{opacity:0.6;}
	.st5{fill:#FFFFFF;}
	.st6{fill:#FF9A6C;}
	.st7{opacity:0.3;}
	.st8{fill:#E79F00;}
	.st9{fill:#FAFAFA;}
	.st10{fill:#375A64;}
	.st11{fill:#009367;}
	.st12{opacity:0.5;}
	.st13{fill:#00AE75;}
	.st14{fill:#FF5449;}
</style>
<g>
	<g>
		<g>
			<rect x="108.5" y="377.4" class="st0" width="15.9" height="106.3"/>
		</g>
		<g>
			<rect x="97.2" y="364.7" class="st0" width="120.7" height="14.7"/>
		</g>
		<g>
			<rect x="117.4" y="422.8" class="st0" width="83" height="14.7"/>
		</g>
		<g>
			<rect x="192.5" y="377.4" class="st0" width="15.9" height="106.3"/>
		</g>
		<g>
			<g>
				<path class="st1" d="M217.9,379.2c0,0.2-27.1,0.3-60.4,0.3c-33.4,0-60.4-0.1-60.4-0.3c0-0.2,27.1-0.3,60.4-0.3
					C190.8,378.9,217.9,379,217.9,379.2z"/>
			</g>
		</g>
		<g>
			<g>
				<ellipse class="st1" cx="124.5" cy="432.2" rx="0.3" ry="17.6"/>
			</g>
		</g>
		<g>
			<g>
				<ellipse class="st1" cx="192.4" cy="432.8" rx="0.3" ry="16.4"/>
			</g>
		</g>
		<g>
			<g>
				<path class="st1" d="M218.6,368.7c0,0-0.4-0.1-1.2-0.3c-0.8-0.2-2.1-0.5-3.7-0.5c-3.2-0.2-7.9,0.5-13.3,2.5
					c-2.7,1-5.6,2.3-8.7,3.6c-3.1,1.3-6.5,2.6-10.3,3.4c-3.8,0.8-7.9,0.7-11.9-0.1c-4.1-0.8-8.2-2.2-12.2-3.9
					c-4.1-1.7-8-3.5-11.9-4.9c-3.9-1.4-7.8-2.5-11.5-3c-7.6-1-14.5,0-20,1.5c-5.5,1.6-9.7,3.8-12.4,5.5c-0.7,0.4-1.3,0.8-1.8,1.2
					c-0.5,0.4-0.9,0.7-1.3,0.9c-0.7,0.5-1.1,0.8-1.1,0.8s0.3-0.3,1-0.8c0.4-0.3,0.8-0.6,1.3-0.9c0.5-0.3,1.1-0.7,1.8-1.2
					c2.7-1.7,6.9-4,12.4-5.6c5.5-1.6,12.5-2.6,20.1-1.6c3.8,0.5,7.7,1.5,11.6,3c3.9,1.4,7.8,3.2,11.9,4.9c4.1,1.7,8.1,3.1,12.2,3.9
					c4.1,0.8,8.1,0.9,11.8,0.1c3.7-0.7,7.1-2,10.3-3.3c3.1-1.3,6-2.6,8.7-3.6c5.4-2,10.1-2.7,13.4-2.5c1.6,0.1,2.8,0.4,3.7,0.6
					C218.1,368.6,218.6,368.7,218.6,368.7z"/>
			</g>
		</g>
		<g>
			<g>
				<path class="st1" d="M127.9,372.1c0,0-1.1,0.8-3.4,1.4c-2.2,0.7-5.8,1.2-9.8,0l-0.2,0l0.1-0.1c1.9-1.9,4.5-3.6,7.5-4.7
					c3-1.1,6.6-1.6,10.1-1.2c1.1,0.2,2.2,0.4,3.3,0.7c1,0.3,2.1,0.6,3,1.3c0.9,0.6,1.5,1.7,1.3,2.8c-0.2,1.1-1.3,1.7-2.1,2.1
					c-3.7,1.3-7.2,2-10.1,2.3c-2.9,0.3-5.3,0.4-7,0.3c-1.7-0.1-2.6-0.2-2.6-0.2s0.2,0,0.7,0c0.5,0,1.1,0,1.9,0.1c1.6,0,4,0,7-0.4
					c2.9-0.4,6.4-1,10-2.3c0.9-0.3,1.8-0.9,2-1.9c0.2-1-0.4-2-1.2-2.6c-0.8-0.6-1.9-0.9-2.9-1.3c-1-0.3-2.1-0.5-3.2-0.7
					c-3.5-0.4-7,0.1-10,1.1c-3,1.1-5.5,2.8-7.4,4.6l0-0.2c3.9,1.2,7.4,0.7,9.7,0.1c1.1-0.3,2-0.7,2.5-0.9
					C127.6,372.3,127.9,372.1,127.9,372.1z"/>
			</g>
		</g>
		<g>
			<g>
				<path class="st1" d="M209.9,375.1c0,0,0,0.6,0.5,1.3c0.5,0.7,1.8,1.5,3.4,1.4c0.8-0.1,1.7-0.3,2.4-0.9c0.7-0.6,1.2-1.6,1-2.6
					c-0.2-1-1.2-1.8-2.3-2.1c-1.1-0.3-2.4-0.1-3.6-0.1c-2.5,0.1-4.9,0.5-7,1.1c-2.1,0.6-3.9,1.4-5.2,2.3c-1.4,0.9-2.3,1.8-2.9,2.5
					c-0.3,0.3-0.5,0.6-0.7,0.8c-0.1,0.2-0.2,0.3-0.2,0.3c0,0,0.2-0.5,0.8-1.2c0.6-0.7,1.5-1.7,2.9-2.6c1.4-0.9,3.2-1.8,5.3-2.4
					c2.1-0.6,4.5-0.9,7-1.1c1.2-0.1,2.5-0.2,3.7,0.1c1.2,0.3,2.3,1.1,2.5,2.2c0.2,1.1-0.3,2.2-1.1,2.8c-0.8,0.6-1.7,0.9-2.5,0.9
					c-1.7,0.1-3-0.7-3.5-1.5c-0.3-0.4-0.4-0.7-0.4-1C209.9,375.2,209.9,375.1,209.9,375.1z"/>
			</g>
		</g>
		<g>
			<g>
				<path class="st1" d="M216.3,364.2c0,0-0.2,0-0.6,0c-0.5,0-1.1,0-1.8,0c-0.8,0-1.8,0.1-2.9,0.2c-1.1,0.2-2.4,0.3-3.8,0.6
					c-2.8,0.6-6,1.5-9.6,2.7c-3.6,1.2-7.5,2.6-11.7,3.7c-4.2,1.1-8.4,1.6-12.2,1.3c-3.8-0.3-7.1-1.3-9.7-2.4
					c-2.6-1.2-4.6-2.4-5.8-3.4c-1.3-1-1.9-1.6-1.9-1.6s0.2,0.1,0.5,0.4c0.3,0.3,0.8,0.6,1.5,1.1c1.3,0.9,3.2,2.2,5.8,3.3
					c2.6,1.1,5.9,2.1,9.6,2.4c3.7,0.3,7.9-0.2,12.1-1.3c4.2-1.1,8.1-2.5,11.7-3.7c3.6-1.2,6.8-2.1,9.6-2.7c1.4-0.3,2.7-0.4,3.8-0.6
					c1.1-0.1,2.1-0.1,2.9-0.2c0.7,0,1.3,0.1,1.8,0.1C216.1,364.1,216.3,364.2,216.3,364.2z"/>
			</g>
		</g>
		<g>
			<g>
				<path class="st1" d="M194.1,484c0,0,0-0.4,0-1.1c0-0.7,0-1.7,0.1-3.1c0.2-2.7,1.2-6.4,2.9-10.9c1.7-4.5,4.3-9.6,5.9-15.6
					c0.8-3,1.3-6.3,1.5-9.7c0.1-3.4,0-7-0.7-10.5c-0.6-3.6-1.6-7-2.9-10.1c-1.3-3.2-2.8-6.1-3.7-9.2c-1-3-1.3-6.1-0.9-8.9
					c0.4-2.8,1.3-5.3,2.4-7.4c2.2-4.2,5-7.1,6.8-8.9c1.9-1.9,3.1-2.8,3.1-2.8s-0.3,0.3-0.8,0.7c-0.5,0.5-1.3,1.2-2.2,2.1
					c-1.8,1.9-4.6,4.7-6.8,8.9c-1.1,2.1-2,4.6-2.4,7.4c-0.4,2.8-0.1,5.8,0.9,8.8c0.9,3,2.4,6,3.7,9.1c1.3,3.2,2.4,6.6,3,10.2
					c0.6,3.6,0.8,7.2,0.6,10.6c-0.2,3.4-0.7,6.7-1.5,9.8c-1.7,6.1-4.3,11.2-6,15.6c-1.8,4.4-2.7,8.2-3,10.8
					c-0.1,1.3-0.2,2.4-0.2,3.1C194.1,483.6,194.1,484,194.1,484z"/>
			</g>
		</g>
		<g>
			<g>
				<path class="st1" d="M192.1,417.6c0,0,0.1,0.2,0.3,0.5c0.2,0.4,0.5,0.9,0.8,1.5c0.7,1.3,1.6,3.2,2.7,5.5
					c1.1,2.4,2.3,5.2,3.3,8.5c1,3.3,1.7,7,1.6,11c-0.1,4-0.8,7.7-1.8,11c-1,3.3-2.1,6.2-3.1,8.5c-1,2.4-1.9,4.3-2.5,5.6
					c-0.3,0.6-0.5,1.1-0.7,1.5c-0.2,0.3-0.3,0.5-0.3,0.5s0.1-0.2,0.2-0.5c0.2-0.4,0.4-0.9,0.7-1.5c0.6-1.3,1.5-3.2,2.4-5.6
					c1.9-4.8,4.6-11.6,4.8-19.5c0.1-3.9-0.6-7.7-1.6-10.9c-1-3.3-2.2-6.1-3.2-8.5c-1.1-2.4-2-4.2-2.6-5.5c-0.3-0.6-0.5-1.1-0.7-1.5
					C192.2,417.8,192.1,417.6,192.1,417.6z"/>
			</g>
		</g>
		<g>
			<g>
				<path class="st1" d="M204,411.5c0,0-0.1-0.1-0.2-0.3c-0.1-0.2-0.1-0.7,0.2-1.1c0.3-0.4,1-0.6,1.7-0.4c0.7,0.2,1.2,0.9,1.5,1.7
					c0.3,0.8,0.5,1.8,0.5,2.8c0,1-0.2,2.1-0.8,3.1c-0.3,0.5-0.8,1-1.4,1.1c-0.7,0.1-1.3-0.3-1.6-0.8c-0.7-1.1-1.1-2.3-1.5-3.5
					c-0.7-2.5-0.8-5.1-0.5-7.3c0.4-2.3,1.1-4.2,2-5.7c0.9-1.5,1.8-2.6,2.4-3.3c0.7-0.7,1.1-1,1.1-1c0,0-0.1,0.1-0.3,0.3
					c-0.2,0.2-0.4,0.4-0.8,0.8c-0.6,0.7-1.5,1.8-2.3,3.3c-0.8,1.5-1.6,3.4-1.9,5.6c-0.3,2.2-0.2,4.7,0.5,7.2
					c0.4,1.2,0.8,2.4,1.5,3.5c0.3,0.5,0.8,0.9,1.4,0.7c0.5-0.1,1-0.5,1.3-1c0.6-0.9,0.8-2,0.8-3c0-1-0.1-1.9-0.4-2.7
					c-0.3-0.8-0.8-1.4-1.4-1.7c-0.6-0.2-1.3-0.1-1.5,0.3c-0.3,0.4-0.3,0.8-0.3,1C203.9,411.4,204,411.5,204,411.5z"/>
			</g>
		</g>
		<g>
			<g>
				<path class="st1" d="M210.1,452.9c0,0,0,0.1-0.2,0.3c-0.1,0.2-0.3,0.5-0.5,0.8c-0.4,0.7-1,1.7-1.7,3c-1.4,2.6-2.9,6.3-3.9,10.6
					c-1,4.3-1.3,8.3-1.2,11.2c0,1.4,0.1,2.6,0.2,3.4c0,0.3,0.1,0.6,0.1,0.9c0,0.2,0,0.3,0,0.3c0,0-0.3-1.8-0.4-4.7
					c-0.1-2.9,0.1-7,1.2-11.3c1-4.3,2.6-8.1,4-10.6C209,454.3,210.1,452.9,210.1,452.9z"/>
			</g>
		</g>
		<g>
			<g>
				<path class="st1" d="M191.9,432.5c0,0-3.6,1.4-9.6,2.7c-6,1.3-14.5,2.5-23.9,1.9c-4.7-0.3-9.1-0.9-13.1-1.7
					c-4-0.8-7.5-1.9-10.4-2.8c-3-0.8-5.4-1.2-7.1-1.3c-0.9,0-1.5,0-2,0c-0.5,0-0.7,0-0.7,0s0.9-0.2,2.7-0.1c1.7,0,4.2,0.4,7.2,1.2
					c3,0.8,6.5,1.9,10.4,2.7c4,0.8,8.4,1.4,13.1,1.7c9.4,0.6,17.8-0.6,23.8-1.8c3-0.7,5.4-1.3,7-1.8c0.8-0.2,1.4-0.4,1.9-0.6
					C191.6,432.5,191.9,432.5,191.9,432.5z"/>
			</g>
		</g>
		<g>
			<g>
				<path class="st1" d="M172.2,427.8c0,0-1.2,0.6-3.5,1.2c-2.3,0.6-5.8,1.1-10,0.3c-0.5-0.1-1.1-0.3-1.6-0.6
					c-0.5-0.3-1-0.6-1.2-1.2c-0.3-0.6-0.1-1.3,0.4-1.7c0.5-0.4,1.1-0.6,1.7-0.7c2.5-0.4,5.1-0.7,8-0.7c5.6-0.1,11.9,0.6,18.1,2.5
					c1.2,0.4,2.4,0.8,3.5,1.2l0.3,0.1l-0.3,0.1c-5.6,2.5-11.2,4-16.3,4.7c-5.2,0.7-9.9,0.7-13.7,0.3c-3.9-0.4-7-1-9.1-1.6
					c-2.1-0.6-3.2-0.9-3.2-0.9s0.3,0.1,0.8,0.2c0.6,0.1,1.3,0.4,2.4,0.6c2.1,0.5,5.2,1.1,9.1,1.5c3.9,0.4,8.6,0.4,13.7-0.4
					c5.1-0.7,10.7-2.2,16.3-4.7l0,0.2c-1.1-0.4-2.3-0.8-3.5-1.2c-6.2-1.9-12.4-2.7-18-2.5c-2.8,0-5.5,0.3-7.9,0.7
					c-0.6,0.1-1.2,0.3-1.6,0.7c-0.4,0.4-0.6,1-0.3,1.5c0.5,1,1.7,1.5,2.7,1.7c4.2,0.8,7.7,0.4,10-0.2c1.2-0.3,2-0.6,2.6-0.8
					C171.9,427.9,172.2,427.8,172.2,427.8z"/>
			</g>
		</g>
		<g>
			<g>
				<path class="st1" d="M125.7,428.8c0,0,0.2-0.2,0.6-0.4c0.4-0.2,1.1-0.5,1.9-0.9c1.6-0.7,4-1.3,6.6-1.4c2.7-0.1,5.1,0.3,6.7,0.8
					c0.8,0.2,1.5,0.5,1.9,0.7c0.4,0.2,0.7,0.3,0.7,0.3c0,0-0.3-0.1-0.7-0.2c-0.5-0.2-1.1-0.4-2-0.6c-1.7-0.5-4-0.8-6.7-0.7
					c-2.6,0.1-5,0.7-6.6,1.3c-0.8,0.3-1.5,0.6-1.9,0.8C125.9,428.8,125.7,428.9,125.7,428.8z"/>
			</g>
		</g>
		<g>
			<g>
				<path class="st1" d="M116.6,453.8c0,0-0.3-0.3-0.8-0.9c-0.5-0.6-1.2-1.6-1.8-2.9c-0.3-0.7-0.5-1.5-0.5-2.4c0-0.9,0.3-1.9,1-2.8
					c0.6-0.8,1.7-1.6,3-1.4c0.6,0.1,1.2,0.4,1.7,0.8c0.5,0.5,0.8,1,1.1,1.7c0.5,1.3,0.6,2.7,0.7,4.1c0.1,1.5,0.1,3,0,4.6
					c-0.1,1.6-0.4,3.2-0.8,4.8c-0.2,0.8-0.4,1.6-0.7,2.5c-0.3,0.8-0.6,1.7-1.1,2.4c-0.5,0.7-1.3,1.4-2.3,1.3c-1,0-1.8-0.7-2.3-1.5
					c-0.5-0.8-0.9-1.7-1.2-2.6c-0.3-0.9-0.5-1.8-0.7-2.8c-0.8-3.8-1.1-7.8-0.5-11.9c0.5-4.1,1.7-7.9,2.9-11.6
					c1.2-3.7,2.4-7.2,3.2-10.6c1.7-6.9,1.7-13.4,0.9-18.6c-0.7-5.3-2.2-9.4-3.3-12.2c-0.6-1.4-1.1-2.4-1.4-3.1
					c-0.3-0.7-0.5-1.1-0.5-1.1s0.2,0.4,0.6,1.1c0.4,0.7,0.9,1.7,1.5,3.1c1.2,2.8,2.6,6.9,3.4,12.2c0.8,5.3,0.8,11.8-0.9,18.7
					c-0.8,3.4-2,7-3.2,10.6c-1.2,3.7-2.3,7.5-2.8,11.5c-0.5,4-0.3,8.1,0.5,11.8c0.2,0.9,0.5,1.9,0.7,2.8c0.3,0.9,0.6,1.8,1.1,2.5
					c0.5,0.7,1.3,1.4,2.1,1.4c0.9,0,1.6-0.5,2.1-1.2c0.5-0.7,0.8-1.5,1.1-2.3c0.3-0.8,0.5-1.6,0.7-2.4c0.4-1.6,0.7-3.2,0.8-4.8
					c0.1-1.6,0.1-3.1,0.1-4.5c-0.1-1.4-0.2-2.9-0.7-4.1c-0.4-1.2-1.4-2.3-2.6-2.4c-1.2-0.2-2.2,0.6-2.9,1.4c-0.6,0.8-1,1.8-1,2.7
					c0,0.9,0.2,1.7,0.5,2.4c0.6,1.4,1.3,2.3,1.8,2.9C116.3,453.5,116.6,453.8,116.6,453.8z"/>
			</g>
		</g>
		<g>
			<g>
				<path class="st1" d="M123.8,457.1c0,0,0.2,1.7-0.1,4.4c-0.3,2.7-1.2,6.5-3.2,10.2c-2,3.7-4.6,6.7-7,8c-1.2,0.7-2.3,0.9-3.1,0.9
					c-0.8,0-1.2-0.1-1.2-0.1c0,0,0.4,0.1,1.2,0c0.8,0,1.9-0.3,3-1c2.4-1.3,4.9-4.3,6.9-7.9c2-3.7,2.9-7.4,3.2-10.1
					c0.2-1.4,0.2-2.5,0.2-3.2c0-0.3,0-0.6,0-0.9C123.8,457.2,123.8,457.1,123.8,457.1z"/>
			</g>
		</g>
		<g>
			<g>
				<path class="st1" d="M109.8,379.2c0,0-0.1,0.2-0.2,0.5c-0.2,0.3-0.3,0.9-0.5,1.5c-0.4,1.4-0.7,3.4-0.4,6
					c0.3,2.5,1.1,5.5,2.5,8.5c1.3,3.1,3.1,6.4,4.3,10.1c0.6,1.9,1,3.7,1.2,5.6c0.2,1.8,0.1,3.6-0.2,5.3c-0.5,3.4-1.5,6.3-2.4,8.6
					c-1,2.4-1.9,4.2-2.6,5.5c-0.7,1.3-1.1,1.9-1.1,1.9s0.1-0.2,0.3-0.5c0.2-0.4,0.5-0.9,0.8-1.5c0.6-1.3,1.6-3.1,2.5-5.5
					c0.9-2.4,1.9-5.3,2.4-8.6c0.2-1.7,0.3-3.4,0.1-5.2c-0.1-1.8-0.6-3.7-1.2-5.5c-1.2-3.7-3-7-4.3-10.1c-1.3-3.1-2.2-6.1-2.4-8.6
					c-0.3-2.6,0.1-4.6,0.5-6C109.4,379.9,109.8,379.2,109.8,379.2z"/>
			</g>
		</g>
		<g>
			<g>
				<path class="st1" d="M122.8,413c0,0,0-0.1,0.1-0.4c0-0.2,0.1-0.6,0.2-1.1c0.2-0.9,0.3-2.3,0.3-4c0-3.4-1-8-2.8-12.8
					c-1.8-4.8-3.6-9.1-4.6-12.4c-1-3.2-1.2-5.3-1.2-5.3c0,0,0,0.1,0.1,0.4c0.1,0.2,0.1,0.6,0.2,1.1c0.2,0.9,0.5,2.2,1,3.8
					c1,3.2,2.8,7.5,4.6,12.3c1.8,4.8,2.8,9.5,2.7,12.9c0,1.7-0.2,3.1-0.3,4C123,412.5,122.8,413,122.8,413z"/>
			</g>
		</g>
	</g>
	<g>
		<g>
			<g>
				<polygon class="st2" points="95,415.3 88.1,469.6 111.8,473.4 126.6,418.3 				"/>
			</g>
		</g>
		<g>
			<g>
				<g>
					<g>
						<g>
							<path class="st3" d="M88.8,462.4l-0.3,1.5c0,0-28.8,6-30.1,10.9l53.1,8.9l2.6-17.5C105.6,468.5,97.2,467.5,88.8,462.4z"/>
						</g>
					</g>
				</g>
				<g class="st4">
					<g>
						<g>
							<g>
								<path class="st5" d="M107.7,470.9c1,0.4,1.5,1.7,1,2.7c-0.4,1-1.7,1.5-2.7,1.1c-1-0.4-1.6-1.9-1.1-2.8
									c0.5-0.9,2.1-1.5,3-0.8"/>
							</g>
						</g>
					</g>
				</g>
				<g class="st4">
					<g>
						<g>
							<path class="st5" d="M111.5,483.7l0.6-4.2l-51.1-7c0,0-2.6,0.6-2.6,2.3L111.5,483.7z"/>
						</g>
					</g>
				</g>
				<g>
					<g>
						<g>
							<g>
								<path class="st1" d="M88.3,464.1c0,0.3,1.2,0.6,2.4,1.6c1.1,1,1.6,2.2,1.9,2.2c0.2,0,0.2-1.6-1.2-2.8
									C89.9,463.8,88.3,463.8,88.3,464.1z"/>
							</g>
						</g>
					</g>
				</g>
				<g>
					<g>
						<g>
							<g>
								<path class="st1" d="M82.3,465.4c-0.1,0.2,0.9,0.9,1.6,2.1c0.7,1.2,0.7,2.4,1,2.4c0.2,0.1,0.7-1.4-0.2-2.9
									C83.8,465.5,82.3,465.1,82.3,465.4z"/>
							</g>
						</g>
					</g>
				</g>
				<g>
					<g>
						<g>
							<g>
								<path class="st1" d="M77.9,471.4c0.2,0.1,0.8-1.1,0.4-2.6c-0.4-1.5-1.5-2.3-1.7-2.1c-0.2,0.2,0.5,1.1,0.8,2.3
									C77.7,470.3,77.6,471.4,77.9,471.4z"/>
							</g>
						</g>
					</g>
				</g>
			</g>
		</g>
	</g>
	<g>
		<g>
			<g>
				<g>
					<polygon class="st2" points="128.1,415.9 132,463.3 153.7,460.1 155.2,413.6 					"/>
				</g>
			</g>
		</g>
		<g>
			<g>
				<path class="st3" d="M153.8,450.8c0,0-14.6,11.8-22.7,3.1l-1.6,4.6l-6.4,32.4c-0.4,2.1,0.7,4.3,2.8,4.9c1.6,0.5,3.3,0,4.4-1.2
					c5.9-6.3,27.5-29.7,27-32.7l-0.7-7.8C156.5,452.6,155.4,451.3,153.8,450.8L153.8,450.8z"/>
			</g>
			<g class="st4">
				<path class="st5" d="M126.7,496l30.5-36.7l0.1,1.7c0.3,1.8-0.5,2.6-1.3,3.9c-2.4,3.7-9.2,12.1-25.5,29.8
					C129.5,495.7,128.1,496.2,126.7,496L126.7,496z"/>
			</g>
			<g class="st4">
				<g>
					<path class="st5" d="M151.9,454.6c-1,0.8-1.2,2.3-0.5,3.3c0.7,1,2.4,1.2,3.4,0.5c1-0.8,1.3-2.6,0.5-3.5
						c-0.9-0.9-2.8-1.1-3.6-0.1"/>
				</g>
			</g>
			<g>
				<g>
					<path class="st1" d="M134.9,477.8c-0.2,0.1-1.3-1.9-3.8-2.9c-2.5-1-4.7-0.3-4.8-0.6c0-0.1,0.5-0.4,1.4-0.6
						c0.9-0.2,2.4-0.2,3.7,0.4c1.4,0.6,2.4,1.5,3,2.3C134.9,477.1,135,477.7,134.9,477.8z"/>
				</g>
			</g>
			<g>
				<g>
					<path class="st1" d="M132.3,483.4c-0.2,0.2-1.6-1-3.8-1.5c-2.2-0.5-4,0-4.1-0.2c-0.1-0.2,1.8-1.2,4.3-0.6
						C131.2,481.6,132.5,483.2,132.3,483.4z"/>
				</g>
			</g>
			<g>
				<g>
					<path class="st1" d="M139.9,470.5c-0.2,0.2-2.4-1.7-5.7-2.7c-3.3-1-6.2-0.7-6.2-1c-0.1-0.2,2.9-1,6.5,0.1
						C138,468,140.1,470.4,139.9,470.5z"/>
				</g>
			</g>
			<g>
				<g>
					<path class="st1" d="M139.9,460.8c-0.1,0.2-2.4-0.5-5.4-0.4c-3,0.1-5.3,1-5.4,0.7c-0.1-0.2,2.2-1.5,5.4-1.6
						C137.6,459.3,140,460.6,139.9,460.8z"/>
				</g>
			</g>
			<g>
				<g>
					<path class="st1" d="M132.8,460.4c-0.1,0-0.1-0.6,0.1-1.5c0.2-1,0.7-2.4,1.7-3.8c0.5-0.7,1.1-1.6,2.3-2c0.6-0.2,1.4,0,1.9,0.6
						c0.4,0.6,0.5,1.2,0.4,1.9c-0.3,2.5-2.9,4.8-5.8,4.8c-3,0-5.5-1.9-6.4-4.2c-0.2-0.6-0.3-1.3,0.1-2c0.4-0.7,1.3-0.8,1.8-0.7
						c1.2,0.3,1.9,1.1,2.6,1.7c1.3,1.3,2,2.5,2.4,3.4c0.4,0.9,0.5,1.4,0.5,1.5c-0.2,0.1-0.8-2.1-3.4-4.4c-0.6-0.5-1.4-1.2-2.3-1.4
						c-0.4-0.1-0.8,0-1,0.4c-0.2,0.3-0.2,0.8,0,1.3c0.8,1.9,3.1,3.7,5.6,3.6c2.5,0,4.7-2,5-4c0.1-0.5,0-1-0.3-1.3
						c-0.2-0.3-0.6-0.4-1-0.3c-0.8,0.2-1.5,1-2,1.7C133,458.1,132.9,460.4,132.8,460.4z"/>
				</g>
			</g>
		</g>
	</g>
	<g>
		<path class="st1" d="M220.9,316.1c0,0,11.7,41.7-20.2,48.9l-50.9,0.5l-30.8,82.1l-30.7-2.1l11.2-92.2c1.3-11.5,9.8-21,21.2-23.5
			l66-14.4L220.9,316.1z"/>
	</g>
	<g>
		<path class="st1" d="M125.1,132.6c-23.2-4-25.4,17-25.2,23c0.2,6,2.2,11.4,4.3,17c2.1,5.6,0.8,13.3-1,19.1
			c-2.1,6.7-8.7,12.9-6.4,19.6c1.9,5.2,8.8,7.8,9.6,13.3c0.7,4.3-2.8,8.1-4.1,12.3c-2.4,7.9,3.1,15.8,8.4,22.2
			c2.2,2.6,4.8,5.5,8.2,5.6c4.7,0.1,7.5-5,9.7-9.3c5.9-11.6,14.7-21.8,25.4-29.3"/>
	</g>
	<g>
		<g>
			<path class="st1" d="M72.9,261l-13.7-13.8c-0.2-0.3-0.6-0.4-1-0.3L42.4,251c-0.7,0.2-1,1.1-0.5,1.7L68.2,280
				c0,0,19.6-5.3,19.1-5.6C86.7,274.1,72.9,261,72.9,261z"/>
		</g>
		<g>
			<path class="st2" d="M54.2,268.4l0.3-0.7c0.3-0.8,1.1-1.3,2-1.3c3.2,0.2,10.5,0.6,10.5,0.8c0,0.3,0.7,2.2-1.6,2.8
				c-2.3,0.6-6.4,0-6.4,0l3.4,3.9l1.1-1.5c0.3-0.3,0.8-0.5,1.3-0.5l6,0.7c0,0,0.5,2.3-1.3,2.7c-1.8,0.4-4,0.2-4,0.2l-0.7,4.4
				l6.3,4.9l-2.3,3.5l-8.4-4.2l-1.3-4.3c-0.2-0.5-0.1-1,0.1-1.5l0.5-1l-1.6-1.1c-0.7-0.5-1-1.2-0.9-2l0.2-1.2l-2.7-2.4
				C54.1,270.1,53.9,269.2,54.2,268.4z"/>
		</g>
		<g>
			<polygon class="st2" points="81.9,280.9 81.9,280.9 77.8,277.4 65.5,275.6 64.8,280 60.4,284.2 77,292.6 			"/>
		</g>
		<g>
			<g>
				<path class="st2" d="M76,262c0.9,0.1,1.7-0.2,2.4-0.8l0.7-0.6c1.1-1.4,2.9-2.1,4.7-1.7l9.5,3.7l10.2,8.3l-5.1,12.8l-17.5-4.6
					c-1.9-0.5-3.5-1.7-4.4-3.4l-1.7-3c0,0-6-2.3-5.5-5.7l-13.1-2.7c0,0-0.8-1.8,1.2-2.6C58.9,261,71.7,261.7,76,262z"/>
			</g>
			<g>
				<g>
					
						<ellipse transform="matrix(0.2033 -0.9791 0.9791 0.2033 -207.3705 278.4697)" class="st6" cx="67.4" cy="266.7" rx="0.3" ry="11.6"/>
				</g>
			</g>
			<g>
				<g>
					<path class="st6" d="M79.4,275.1c-0.1,0.1-1.1-0.4-2.4-1.1c-1.3-0.6-2.4-1.1-2.3-1.3c0-0.2,1.2,0.1,2.6,0.7
						C78.6,274.1,79.5,274.9,79.4,275.1z"/>
				</g>
			</g>
		</g>
		<g>
			<g>
				<path class="st6" d="M67.3,283.1c-0.1,0.1-1.3-1.1-3.1-3l-0.1-0.1l0-0.1c0.2-1.1,0.4-2.4,0.7-3.8c0.1-0.3,0.3-0.6,0.7-0.8
					c0.3-0.2,0.6-0.2,0.9-0.2c0.5,0,1-0.1,1.5-0.1c0.5,0,1-0.1,1.4,0c0.4,0.1,0.7-0.1,1-0.2c0.5-0.4,0.5-1.1,0.5-1.4
					c0-0.4-0.1-0.6-0.1-0.6c0,0,0.2,0.1,0.3,0.6c0.1,0.4,0.2,1.1-0.4,1.8c-0.3,0.3-0.8,0.4-1.3,0.4c-0.4,0-0.9,0-1.3,0.1
					c-0.5,0-1,0.1-1.5,0.1c-0.6,0.1-0.9,0.1-1,0.6c-0.3,1.3-0.5,2.6-0.8,3.7l-0.1-0.2C66.3,281.7,67.4,283,67.3,283.1z"/>
			</g>
		</g>
		<g>
			<path class="st2" d="M58,268.4c1.1,1.6,7.8,1.8,8.4,1.7c0.7-0.1,1.2,0,1.6,0.3c0.6,0.4,0.5,1.3-0.2,1.6l-6.1,2.6L58,268.4z"/>
		</g>
		<g>
			<g>
				<path class="st6" d="M66.7,272.2c0,0.1-0.3,0.1-0.9,0.1c-0.3,0-0.6,0-1,0c-0.2,0-0.4,0-0.6,0.1c-0.1,0-0.2,0-0.3,0.1
					c0,0-0.1,0-0.1,0.1c0,0,0,0.1,0-0.1l0,0.1c-0.4,0.6-0.8,1.3-1.3,2c-1.8,2.5-3.5,4.3-3.6,4.2c-0.1-0.1,1.4-2.1,3.1-4.6
					c0.5-0.7,0.9-1.3,1.3-1.9l0,0.1c0.1-0.3,0.2-0.3,0.2-0.4c0.1,0,0.1-0.1,0.2-0.1c0.1,0,0.3-0.1,0.4-0.1c0.2,0,0.4,0,0.6,0
					c0.4,0,0.7,0,1,0.1C66.4,272,66.7,272.1,66.7,272.2z"/>
			</g>
		</g>
		<g>
			<g>
				<path class="st6" d="M67.2,270c0,0.2-2.4,0.3-5.4,0.2c-0.8,0-1.4,0-2,0.2c-0.6,0.2-0.9,0.6-1.2,1c-0.5,0.8-0.8,1.4-0.9,1.3
					c-0.1,0,0-0.6,0.5-1.6c0.2-0.4,0.7-1,1.4-1.3c0.7-0.3,1.5-0.3,2.2-0.3C64.8,269.7,67.2,269.8,67.2,270z"/>
			</g>
		</g>
	</g>
	<g class="st7">
		<g>
			<path d="M152.1,298.4c2.6,0.3,6.4-0.7,8.1-2.7s3.6-3.9,4.7-6.3c2.3-4.9,6.5-11.3,8.6-15.4c0.1,1.2-3.4,12.8-3.7,18.4
				c-0.2,3.1,0,6.4,1.9,8.9c1.3,1.7,3.3,2.7,4.7,4.3c2.8,3,3.1,8,0.7,11.4c-1.2,1.7-3.5,3-5.4,2.3c-1.1-0.4-1.9-1.3-2.4-2.4
				c-0.5-1-0.8-2.1-1.2-3.2c-1.6-4.6-4.8-8.7-9-11.3c-2.1-1.3-4.4-3.2-6.7-4.2"/>
		</g>
	</g>
	<g>
		<g>
			<path class="st8" d="M76.2,294.7l26.2,8.7c9.3,3.2,19.6,0.9,26.8-5.9l9.2-8.8l-27.3-7.4l-14.7,1.7l-13.5-4.3L76.2,294.7z"/>
		</g>
		<g>
			<g>
				<g>
					<path class="st9" d="M102.9,290.1c0,0,0.4,0.7,1.1,1.7c0.7,1,1.8,2.4,3.1,3.7c1.4,1.3,2.7,2.4,3.8,3.1c1,0.7,1.7,1.1,1.7,1.1
						c0,0-0.2-0.1-0.5-0.2c-0.3-0.2-0.8-0.4-1.3-0.8c-1.1-0.7-2.5-1.7-3.8-3.1c-1.4-1.4-2.4-2.8-3.1-3.8c-0.3-0.5-0.6-1-0.8-1.3
						C103,290.3,102.9,290.1,102.9,290.1z"/>
				</g>
			</g>
			<g>
				<g>
					<path class="st9" d="M108.6,292.5c0.1,0-0.2,1.4,0.2,3c0.4,1.6,1.4,2.7,1.3,2.7c0,0.1-1.1-1-1.6-2.7
						C108.1,293.8,108.5,292.4,108.6,292.5z"/>
				</g>
			</g>
			<g>
				<g>
					<path class="st9" d="M105.9,290.5c0.1,0,0.1,1.2,0.5,2.6c0.3,1.4,0.9,2.5,0.8,2.5c-0.1,0-0.7-1-1.1-2.5
						C105.7,291.7,105.8,290.5,105.9,290.5z"/>
				</g>
			</g>
			<g>
				<g>
					<path class="st9" d="M104.6,295.8c0-0.1,1,0,2.2,0.4c1.2,0.4,2.1,0.9,2,0.9c0,0.1-0.9-0.3-2.1-0.7
						C105.5,296.1,104.6,295.9,104.6,295.8z"/>
				</g>
			</g>
			<g>
				<g>
					<path class="st9" d="M102.1,292.8c0-0.1,1.3,0.2,2.6,1c1.4,0.8,2.3,1.7,2.2,1.7c-0.1,0.1-1-0.8-2.3-1.5
						C103.2,293.2,102,292.8,102.1,292.8z"/>
				</g>
			</g>
			<g>
				<path class="st9" d="M105,295.9c-0.3-0.3-0.7-0.6-1.1-0.6c-0.1,0-0.3,0-0.4,0.1c-0.1,0.1,0,0.3,0.1,0.3c0.1,0.1,0.2,0.1,0.3,0.1
					c-0.2,0.1-0.4,0.2-0.5,0.3c-0.1,0.1-0.1,0.1-0.1,0.2c0,0.1,0.1,0.1,0.2,0.1c0.2,0,0.4-0.1,0.6-0.1c0,0.1-0.2,0.1-0.3,0.2
					c-0.1,0.1-0.2,0.2-0.1,0.3c0.1,0.1,0.2,0,0.2,0C104.4,296.5,104.7,296.2,105,295.9"/>
			</g>
			<g>
				<path class="st9" d="M105.8,290.8c-0.1,0-0.1,0.1,0,0.2c0.1,0,0.2,0,0.2,0c0.1,0,0.1-0.1,0.1-0.2c0.2-0.4,0.4-0.8,0.4-1.2
					c0-0.1,0-0.2-0.1-0.3c-0.1-0.1-0.2,0-0.3,0.1c-0.3,0.2-0.4,0.5-0.4,0.8c0.1-0.3,0.1-0.6,0-0.8c0-0.1-0.1-0.2-0.2-0.2
					c-0.1,0-0.1,0.1-0.1,0.2c0,0.3,0,0.6,0,0.8c0-0.3-0.2-0.5-0.5-0.7c-0.1,0-0.2-0.1-0.2,0c-0.1,0-0.1,0.1-0.1,0.2
					c0,0.1,0.1,0.1,0.1,0.2c0.3,0.4,0.7,0.8,1.1,1"/>
			</g>
			<g>
				<path class="st9" d="M102.9,290.1c-0.1,0.1,0,0.2,0.1,0.2c0.1,0,0.2,0,0.2-0.1c0-0.1,0.1-0.2,0.1-0.3c0-0.5,0-1.1-0.2-1.5
					c0-0.1-0.1-0.2-0.2-0.2c-0.1,0-0.2,0.1-0.3,0.2c-0.2,0.3-0.2,0.8,0,1.1c-0.1-0.3-0.2-0.6-0.5-0.9c-0.1-0.1-0.2-0.2-0.3-0.1
					c-0.1,0.1-0.1,0.2-0.1,0.3c0.1,0.3,0.3,0.6,0.5,0.9c-0.2-0.3-0.6-0.5-0.9-0.5c-0.1,0-0.2,0-0.3,0.1c0,0.1,0,0.2,0,0.2
					c0.1,0.1,0.1,0.1,0.2,0.2c0.6,0.3,1.2,0.5,1.8,0.6"/>
			</g>
		</g>
		<g>
			<g>
				<g>
					<path class="st9" d="M87.4,282.8c0,0-0.2,0.8-0.5,2c-0.3,1.2-0.6,2.9-0.8,4.8c-0.1,1.9,0,3.6,0.1,4.9c0.1,1.2,0.3,2,0.2,2
						c0,0-0.1-0.2-0.2-0.5c-0.1-0.3-0.2-0.8-0.3-1.5c-0.2-1.2-0.3-3-0.2-4.9c0.1-1.9,0.5-3.6,0.8-4.8c0.2-0.6,0.3-1.1,0.5-1.4
						C87.3,283,87.4,282.8,87.4,282.8z"/>
				</g>
			</g>
			<g>
				<g>
					<path class="st9" d="M89.3,288.6c0,0.1-1.2,0.7-2.1,2.1c-1,1.4-1.1,2.8-1.2,2.8c-0.1,0,0-1.5,1-2.9
						C88,289.2,89.3,288.6,89.3,288.6z"/>
				</g>
			</g>
			<g>
				<g>
					<path class="st9" d="M89,285.3c0.1,0.1-0.8,0.9-1.7,2c-0.8,1.2-1.3,2.3-1.4,2.3c-0.1,0,0.3-1.2,1.2-2.4
						C88,286,89,285.3,89,285.3z"/>
				</g>
			</g>
			<g>
				<g>
					<path class="st9" d="M84.2,287.8c0.1,0,0.7,0.8,1.2,1.9c0.5,1.1,0.7,2.1,0.6,2.1c-0.1,0-0.4-0.9-0.9-2
						C84.6,288.7,84.1,287.8,84.2,287.8z"/>
				</g>
			</g>
			<g>
				<g>
					<path class="st9" d="M84.8,283.9c0.1,0,0.7,1.1,1,2.6c0.3,1.5,0.2,2.8,0.1,2.8c-0.1,0-0.1-1.3-0.4-2.8
						C85.3,285.1,84.8,283.9,84.8,283.9z"/>
				</g>
			</g>
			<g>
				<path class="st9" d="M84.4,288.2c0.1-0.4,0-0.9-0.2-1.3c-0.1-0.1-0.2-0.3-0.3-0.2c-0.1,0-0.2,0.2-0.2,0.3c0,0.1,0.1,0.2,0.1,0.3
					c-0.2-0.1-0.4-0.2-0.6-0.2c-0.1,0-0.2,0-0.2,0.1c0,0.1,0,0.2,0.1,0.2c0.2,0.1,0.3,0.2,0.5,0.4c-0.1,0-0.2,0-0.3-0.1
					c-0.1,0-0.3,0-0.3,0.1c0,0.1,0.1,0.1,0.2,0.2C83.6,288.1,84,288.2,84.4,288.2"/>
			</g>
			<g>
				<path class="st9" d="M88.8,285.5c-0.1,0-0.2,0-0.1,0.1c0,0.1,0.1,0.1,0.1,0.2c0.1,0,0.2,0,0.2,0c0.4-0.1,0.8-0.2,1.2-0.5
					c0.1-0.1,0.2-0.1,0.1-0.2c0-0.1-0.1-0.2-0.2-0.2c-0.3-0.1-0.7,0-0.9,0.2c0.2-0.1,0.5-0.3,0.6-0.6c0.1-0.1,0.1-0.2,0-0.3
					c-0.1-0.1-0.2,0-0.3,0c-0.2,0.1-0.5,0.3-0.6,0.6c0.2-0.2,0.3-0.5,0.2-0.8c0-0.1-0.1-0.2-0.1-0.2c-0.1,0-0.1,0-0.2,0.1
					c0,0.1-0.1,0.1-0.1,0.2c-0.1,0.5-0.1,1,0,1.5"/>
			</g>
			<g>
				<path class="st9" d="M87.4,282.8c-0.1,0-0.1,0.1-0.1,0.2c0,0.1,0.2,0.1,0.2,0.1c0.1,0,0.2-0.1,0.2-0.1c0.4-0.3,0.8-0.7,1.1-1.1
					c0.1-0.1,0.1-0.2,0-0.3c-0.1-0.1-0.2-0.1-0.3-0.1c-0.4,0.1-0.7,0.4-0.9,0.7c0.2-0.3,0.3-0.6,0.4-0.9c0-0.1,0-0.3-0.1-0.3
					c-0.1,0-0.2,0.1-0.3,0.2c-0.2,0.3-0.3,0.6-0.4,1c0.1-0.3,0-0.7-0.2-1c-0.1-0.1-0.1-0.2-0.2-0.1c-0.1,0-0.1,0.1-0.2,0.2
					c0,0.1,0,0.2,0,0.3c0.2,0.6,0.4,1.2,0.8,1.8"/>
			</g>
		</g>
		<g>
			<path class="st8" d="M202.1,279.3c-4.4-5.2-6.8-11.9-6.4-18.8c0-0.4,0.1-0.9,0.1-1.3c1.7-15.6,4.7-41-1.3-53.6
				c-3.9-8.3-28.4-12.2-28.4-12.2l-28.3,5.8l-13,11.4c-2.1,1.8-3.4,4.3-3.9,7l-11.9,74.2l24.1-1.7l1.9-21.6l2.7,28.5
				c0,0,22.9,17.8,30.3,21.1c7.4,3.3,20.4-5.9,30.4-1.8c10,4.1,23,0,23,0C222,304.6,209.2,287.7,202.1,279.3z"/>
		</g>
		<g>
			<path class="st8" d="M180.2,202.1l-36.4,66l-39.4,0.7l-6.7,16.8l50.9,11.7c5.8,1,10.3,0.3,14-4.3l33.5-62.4
				C196.1,230.6,198.8,202.9,180.2,202.1z"/>
		</g>
		<g class="st7">
			<path d="M81,283.1c0,0,6.4,1.7,10.5,2.8c1.8,0.5,3,2.3,2.6,4.1l0,0c-0.4,2,1,3.9,3.1,4.2c9,1.2,30.9,4.2,31.4,3.8
				c0.5-0.5,4.3-4.4,4.3-4.4l-35.1-8.1l0.6-2l-15.8-4.1L81,283.1z"/>
		</g>
		<g>
			<g>
				<path class="st1" d="M136.1,268.3c0,0-0.2-0.4-0.5-1c-0.3-0.8-0.7-1.8-1.2-3l0.1,0.1c-1.5-1.2-3.2-3-4.5-5.6
					c-1.3-2.5-1.9-5.8-1.9-9.2c0-2.9,0.3-5.7,0.4-8.1c0.1-2.5,0-4.7-0.4-6.6c-0.7-3.7-2.3-5.6-2.1-5.6c0,0,0.1,0.1,0.3,0.3
					c0.2,0.2,0.4,0.6,0.7,1c0.5,0.9,1.2,2.4,1.6,4.2c0.4,1.9,0.6,4.2,0.5,6.7c-0.1,2.5-0.3,5.3-0.3,8.1c0,3.3,0.6,6.5,1.8,9
					c1.2,2.5,2.8,4.3,4.2,5.6l0,0l0,0c0.4,1.2,0.8,2.3,1,3.1C136.1,267.9,136.2,268.3,136.1,268.3z"/>
			</g>
		</g>
		<g>
			<g>
				<path class="st1" d="M192.7,280.5c0,0,0.1,0.5,0.2,1.3c0.1,0.8,0.1,2.1-0.1,3.6c-0.3,3-1.4,7.2-4,11.2c-2.6,3.9-6,6.6-8.7,8
					c-1.3,0.7-2.5,1.2-3.3,1.5c-0.8,0.3-1.3,0.4-1.3,0.4c0-0.1,1.8-0.7,4.3-2.2c2.6-1.5,5.9-4.2,8.4-8c2.5-3.8,3.7-7.9,4.1-10.9
					C192.8,282.4,192.6,280.5,192.7,280.5z"/>
			</g>
		</g>
		<g>
			<g>
				<g>
					<path class="st9" d="M177.8,224.9c0,0-0.1,0.2-0.4,0.6c-0.2,0.4-0.6,0.9-1,1.6c-0.8,1.4-1.8,3.4-2.7,5.8
						c-0.8,2.3-1.3,4.5-1.6,6.1c-0.1,0.8-0.2,1.5-0.3,1.9c-0.1,0.5-0.1,0.7-0.1,0.7c0,0,0-0.3,0-0.7c0-0.5,0.1-1.1,0.2-1.9
						c0.2-1.6,0.7-3.8,1.5-6.2c0.8-2.4,1.9-4.4,2.7-5.8c0.4-0.7,0.8-1.2,1.1-1.6C177.6,225.1,177.8,224.9,177.8,224.9z"/>
				</g>
			</g>
			<g>
				<g>
					<path class="st9" d="M178.1,232.8c0,0.1-1.8,0.5-3.4,1.9c-1.7,1.4-2.4,3.1-2.4,3.1c0,0,0.1-0.4,0.5-1.1c0.4-0.6,1-1.5,1.8-2.2
						c0.9-0.7,1.8-1.2,2.5-1.4C177.7,232.9,178.1,232.8,178.1,232.8z"/>
				</g>
			</g>
			<g>
				<g>
					<path class="st9" d="M178.9,228.6c0,0.1-1.4,0.7-2.8,1.9c-1.5,1.2-2.4,2.4-2.5,2.4c0,0,0.2-0.3,0.6-0.8c0.4-0.5,1-1.1,1.7-1.7
						c0.7-0.6,1.5-1.1,2-1.4C178.6,228.7,178.9,228.6,178.9,228.6z"/>
				</g>
			</g>
			<g>
				<g>
					<path class="st9" d="M172,230c0.1,0,0.5,1.2,0.7,2.8c0.2,1.6,0.1,2.9,0.1,2.9c-0.1,0-0.1-1.3-0.3-2.8
						C172.2,231.3,171.9,230,172,230z"/>
				</g>
			</g>
			<g>
				<g>
					<path class="st9" d="M174.2,225.4c0,0,0.1,0.4,0.2,1.1c0.1,0.7,0.1,1.6,0,2.6c-0.1,1-0.3,1.9-0.4,2.6c-0.2,0.6-0.3,1-0.4,1
						c-0.1,0,0.4-1.6,0.5-3.6C174.3,227,174.1,225.4,174.2,225.4z"/>
				</g>
			</g>
			<g>
				<path class="st9" d="M172.2,230.6c0.2-0.5,0.3-1.1,0.1-1.7c0-0.2-0.2-0.4-0.3-0.4c-0.2,0-0.3,0.1-0.3,0.3c0,0.2,0,0.3,0.1,0.5
					c-0.2-0.2-0.4-0.3-0.6-0.4c-0.1-0.1-0.3-0.1-0.3,0c-0.1,0.1,0,0.2,0.1,0.3c0.2,0.2,0.3,0.4,0.5,0.6c-0.1,0-0.2-0.1-0.4-0.2
					c-0.1-0.1-0.3-0.1-0.4,0.1c0,0.1,0.1,0.2,0.2,0.3C171.1,230.2,171.6,230.4,172.2,230.6"/>
			</g>
			<g>
				<path class="st9" d="M178.5,228.7c-0.1-0.1-0.2,0-0.2,0.1c0,0.1,0,0.2,0.1,0.2c0.1,0,0.2,0.1,0.3,0.1c0.6,0,1.1,0,1.7-0.2
					c0.1,0,0.2-0.1,0.3-0.2c0-0.1-0.1-0.2-0.2-0.3c-0.4-0.2-0.8-0.2-1.2,0c0.3-0.1,0.7-0.2,0.9-0.5c0.1-0.1,0.2-0.2,0.1-0.3
					c-0.1-0.1-0.2-0.1-0.3-0.1c-0.4,0.1-0.7,0.3-1,0.5c0.3-0.2,0.5-0.6,0.5-0.9c0-0.1,0-0.2-0.1-0.3c-0.1,0-0.2,0-0.3,0
					c-0.1,0.1-0.1,0.1-0.2,0.2c-0.3,0.6-0.5,1.2-0.6,1.9"/>
			</g>
			<g>
				<path class="st9" d="M177.8,224.9c-0.1,0-0.2,0.1-0.2,0.2c0,0.1,0.2,0.2,0.3,0.2c0.1,0,0.2,0,0.3-0.1c0.6-0.3,1.2-0.6,1.7-1.1
					c0.1-0.1,0.2-0.2,0.2-0.4c0-0.2-0.2-0.2-0.4-0.2c-0.5,0-1,0.2-1.4,0.6c0.3-0.3,0.6-0.6,0.8-1c0.1-0.2,0.1-0.4-0.1-0.5
					c-0.1-0.1-0.3,0-0.4,0.1c-0.3,0.3-0.6,0.7-0.8,1.1c0.2-0.4,0.2-0.9,0.1-1.3c-0.1-0.1-0.1-0.2-0.3-0.3c-0.1,0-0.2,0.1-0.3,0.2
					c-0.1,0.1-0.1,0.2-0.1,0.3c0,0.8,0.1,1.7,0.3,2.5"/>
			</g>
		</g>
		<g>
			<g>
				<g>
					<path class="st9" d="M144.3,245.4c0,0-0.1,0.2-0.4,0.6c-0.2,0.4-0.6,0.9-1,1.6c-0.8,1.4-1.8,3.4-2.7,5.8
						c-0.8,2.3-1.3,4.5-1.6,6.1c-0.1,0.8-0.2,1.5-0.3,1.9c-0.1,0.5-0.1,0.7-0.1,0.7c0,0,0-0.3,0-0.7c0-0.5,0.1-1.1,0.2-1.9
						c0.2-1.6,0.7-3.8,1.5-6.2c0.8-2.4,1.9-4.4,2.7-5.8c0.4-0.7,0.8-1.2,1.1-1.6C144.1,245.6,144.3,245.4,144.3,245.4z"/>
				</g>
			</g>
			<g>
				<g>
					<path class="st9" d="M144.6,253.4c0,0.1-1.8,0.5-3.4,1.9c-1.7,1.4-2.4,3.1-2.4,3.1c0,0,0.1-0.4,0.5-1.1c0.4-0.6,1-1.5,1.8-2.2
						c0.9-0.7,1.8-1.2,2.5-1.4C144.2,253.4,144.6,253.3,144.6,253.4z"/>
				</g>
			</g>
			<g>
				<g>
					<path class="st9" d="M145.5,249.1c0,0.1-1.4,0.7-2.8,1.9c-1.5,1.2-2.4,2.4-2.5,2.4c0,0,0.2-0.3,0.6-0.8c0.4-0.5,1-1.1,1.7-1.7
						c0.7-0.6,1.5-1.1,2-1.4C145.1,249.2,145.4,249.1,145.5,249.1z"/>
				</g>
			</g>
			<g>
				<g>
					<path class="st9" d="M138.5,250.5c0.1,0,0.5,1.2,0.7,2.8c0.2,1.6,0.1,2.9,0.1,2.9c-0.1,0-0.1-1.3-0.3-2.8
						C138.8,251.8,138.4,250.6,138.5,250.5z"/>
				</g>
			</g>
			<g>
				<g>
					<path class="st9" d="M140.7,245.9c0,0,0.1,0.4,0.2,1.1c0.1,0.7,0.1,1.6,0,2.6c-0.1,1-0.3,1.9-0.4,2.6c-0.2,0.6-0.3,1-0.4,1
						c-0.1,0,0.4-1.6,0.5-3.6C140.8,247.5,140.6,245.9,140.7,245.9z"/>
				</g>
			</g>
			<g>
				<path class="st9" d="M138.7,251.1c0.2-0.5,0.3-1.1,0.1-1.7c0-0.2-0.2-0.4-0.3-0.4c-0.2,0-0.3,0.1-0.3,0.3c0,0.2,0,0.3,0.1,0.5
					c-0.2-0.2-0.4-0.3-0.6-0.4c-0.1-0.1-0.3-0.1-0.3,0c-0.1,0.1,0,0.2,0.1,0.3c0.2,0.2,0.3,0.4,0.5,0.6c-0.1,0-0.2-0.1-0.4-0.2
					c-0.1-0.1-0.3-0.1-0.4,0.1c0,0.1,0.1,0.2,0.2,0.3C137.6,250.7,138.1,250.9,138.7,251.1"/>
			</g>
			<g>
				<path class="st9" d="M145,249.2c-0.1-0.1-0.2,0-0.2,0.1s0,0.2,0.1,0.2s0.2,0.1,0.3,0.1c0.6,0,1.1,0,1.7-0.2
					c0.1,0,0.2-0.1,0.3-0.2c0-0.1-0.1-0.2-0.2-0.3c-0.4-0.2-0.8-0.2-1.2,0c0.3-0.1,0.7-0.2,0.9-0.5c0.1-0.1,0.2-0.2,0.1-0.3
					c-0.1-0.1-0.2-0.1-0.3-0.1c-0.4,0.1-0.7,0.3-1,0.5c0.3-0.2,0.5-0.6,0.5-0.9c0-0.1,0-0.2-0.1-0.3c-0.1,0-0.2,0-0.3,0
					c-0.1,0.1-0.1,0.1-0.2,0.2c-0.3,0.6-0.5,1.2-0.6,1.9"/>
			</g>
			<g>
				<path class="st9" d="M144.3,245.4c-0.1,0-0.2,0.1-0.2,0.2c0,0.1,0.2,0.2,0.3,0.2c0.1,0,0.2,0,0.3-0.1c0.6-0.3,1.2-0.6,1.7-1.1
					c0.1-0.1,0.2-0.2,0.2-0.4c0-0.2-0.2-0.2-0.4-0.2c-0.5,0-1,0.2-1.4,0.6c0.3-0.3,0.6-0.6,0.8-1c0.1-0.2,0.1-0.4-0.1-0.5
					c-0.1-0.1-0.3,0-0.4,0.1c-0.3,0.3-0.6,0.7-0.8,1.1c0.2-0.4,0.2-0.9,0.1-1.3c-0.1-0.1-0.1-0.2-0.3-0.3c-0.1,0-0.2,0.1-0.3,0.2
					c-0.1,0.1-0.1,0.2-0.1,0.3c0,0.8,0.1,1.7,0.3,2.5"/>
			</g>
		</g>
		<g>
			<g>
				<g>
					<path class="st9" d="M145.9,281.5c0,0,0.3,0,0.7-0.1c0.5,0,1.1-0.1,1.9-0.2c1.6-0.2,3.8-0.6,6.2-1.3c2.4-0.7,4.4-1.7,5.9-2.4
						c0.7-0.4,1.3-0.7,1.7-0.9c0.4-0.2,0.6-0.3,0.6-0.3s-0.2,0.2-0.6,0.4c-0.4,0.3-0.9,0.6-1.7,1c-1.4,0.8-3.5,1.8-5.9,2.5
						c-2.4,0.7-4.6,1.1-6.3,1.2c-0.8,0.1-1.5,0.1-1.9,0.1C146.2,281.5,145.9,281.5,145.9,281.5z"/>
				</g>
			</g>
			<g>
				<g>
					<path class="st9" d="M152.1,276.4c0-0.1,1.4,1.1,3.6,1.6c2.1,0.5,3.9,0,3.9,0.1c0,0-0.4,0.2-1.1,0.3c-0.7,0.1-1.7,0.1-2.8-0.2
						c-1.1-0.3-2-0.7-2.6-1.1C152.4,276.8,152.1,276.5,152.1,276.4z"/>
				</g>
			</g>
			<g>
				<g>
					<path class="st9" d="M148.2,278.3c0-0.1,1.4,0.6,3.2,1.1c1.8,0.5,3.4,0.5,3.4,0.6c0,0-0.4,0.1-1,0c-0.6,0-1.5-0.1-2.4-0.4
						c-0.9-0.2-1.7-0.6-2.3-0.8C148.5,278.5,148.2,278.3,148.2,278.3z"/>
				</g>
			</g>
			<g>
				<g>
					<path class="st9" d="M153.5,283.1c-0.1,0,0.7-1.1,1.8-2.3c1.1-1.1,2.2-1.8,2.3-1.8c0,0.1-1,0.8-2.1,2
						C154.3,282.1,153.5,283.1,153.5,283.1z"/>
				</g>
			</g>
			<g>
				<g>
					<path class="st9" d="M148.4,284c0,0,0.2-0.3,0.7-0.8c0.5-0.5,1.2-1,2.1-1.6c0.9-0.5,1.7-0.9,2.3-1.2c0.6-0.2,1-0.3,1-0.3
						c0,0.1-1.5,0.6-3.2,1.7C149.7,283,148.5,284.1,148.4,284z"/>
				</g>
			</g>
			<g>
				<path class="st9" d="M153.8,282.6c-0.6,0.1-1.1,0.4-1.4,0.9c-0.1,0.2-0.2,0.4-0.1,0.5c0.1,0.1,0.3,0.1,0.4,0.1
					c0.1-0.1,0.2-0.2,0.3-0.3c0,0.3,0,0.5,0,0.8c0,0.1,0.1,0.3,0.2,0.3c0.1,0,0.2-0.1,0.2-0.2c0.1-0.2,0.2-0.5,0.2-0.8
					c0.1,0.1,0.1,0.3,0.1,0.4c0,0.1,0.1,0.3,0.3,0.3c0.1,0,0.1-0.2,0.1-0.3C154.1,283.6,154,283.1,153.8,282.6"/>
			</g>
			<g>
				<path class="st9" d="M148.5,278.6c0,0.1,0.1,0.2,0.2,0.1c0.1,0,0.1-0.2,0.1-0.2c0-0.1-0.1-0.2-0.1-0.3c-0.3-0.5-0.7-0.9-1.1-1.2
					c-0.1-0.1-0.2-0.1-0.3-0.1c-0.1,0.1-0.1,0.2-0.1,0.4c0.1,0.4,0.3,0.8,0.7,1c-0.3-0.2-0.6-0.4-0.9-0.5c-0.1,0-0.3,0-0.3,0.1
					c0,0.1,0.1,0.2,0.2,0.3c0.3,0.2,0.6,0.4,1,0.5c-0.4-0.1-0.8-0.1-1.1,0.2c-0.1,0.1-0.2,0.1-0.2,0.2c0,0.1,0.1,0.2,0.2,0.2
					c0.1,0,0.2,0,0.3,0c0.7-0.1,1.3-0.3,1.9-0.7"/>
			</g>
			<g>
				<path class="st9" d="M145.9,281.4c0,0.1,0.2,0.1,0.3,0s0.1-0.2,0-0.3c-0.1-0.1-0.2-0.2-0.3-0.2c-0.6-0.4-1.2-0.7-1.9-0.7
					c-0.1,0-0.3,0-0.4,0.1c-0.1,0.1,0,0.3,0,0.5c0.3,0.4,0.8,0.7,1.3,0.7c-0.4-0.1-0.9-0.1-1.3,0c-0.2,0-0.3,0.2-0.3,0.3
					c0,0.1,0.2,0.2,0.3,0.3c0.4,0.1,0.9,0.1,1.3,0c-0.5,0.1-0.9,0.3-1.1,0.7c-0.1,0.1-0.1,0.3-0.1,0.4c0.1,0.1,0.2,0.1,0.3,0.1
					c0.1,0,0.2-0.1,0.3-0.2c0.7-0.5,1.3-1.1,1.8-1.7"/>
			</g>
		</g>
		<g>
			<g>
				<g>
					<path class="st9" d="M183,307.7c0,0,0.2,0.1,0.7,0.2c0.4,0.1,1.1,0.3,1.8,0.6c1.6,0.4,3.8,0.9,6.2,1.1c2.5,0.2,4.7,0.1,6.3,0
						c0.8-0.1,1.5-0.2,1.9-0.2c0.5-0.1,0.7-0.1,0.7-0.1c0,0-0.2,0.1-0.7,0.2c-0.4,0.1-1.1,0.2-1.9,0.3c-1.6,0.2-3.9,0.3-6.4,0.1
						c-2.5-0.2-4.7-0.7-6.3-1.2c-0.8-0.2-1.4-0.5-1.8-0.6C183.2,307.8,183,307.7,183,307.7z"/>
				</g>
			</g>
			<g>
				<g>
					<path class="st9" d="M190.6,305.4c0.1-0.1,0.9,1.6,2.7,2.9c1.8,1.3,3.6,1.5,3.6,1.6c0,0-0.5,0-1.2-0.2
						c-0.7-0.2-1.7-0.6-2.6-1.2c-0.9-0.6-1.6-1.4-2-2C190.8,305.8,190.6,305.4,190.6,305.4z"/>
				</g>
			</g>
			<g>
				<g>
					<path class="st9" d="M186.3,305.7c0.1-0.1,1.1,1.1,2.6,2.2c1.5,1.1,2.9,1.7,2.9,1.8c0,0-0.4-0.1-1-0.4
						c-0.6-0.3-1.3-0.7-2.1-1.3c-0.8-0.6-1.4-1.2-1.8-1.6C186.5,306,186.3,305.7,186.3,305.7z"/>
				</g>
			</g>
			<g>
				<g>
					<path class="st9" d="M189.4,312.1c0-0.1,1-0.8,2.5-1.4c1.5-0.6,2.8-0.8,2.8-0.8c0,0.1-1.2,0.4-2.7,1
						C190.5,311.5,189.4,312.1,189.4,312.1z"/>
				</g>
			</g>
			<g>
				<g>
					<path class="st9" d="M184.4,311.1c0,0,0.4-0.2,1-0.5c0.6-0.2,1.5-0.5,2.5-0.7c1-0.2,1.9-0.2,2.6-0.2c0.7,0,1.1,0.1,1.1,0.1
						c0,0.1-1.6,0-3.6,0.4C185.9,310.5,184.4,311.1,184.4,311.1z"/>
				</g>
			</g>
			<g>
				<path class="st9" d="M189.9,311.7c-0.6-0.1-1.2,0-1.7,0.3c-0.2,0.1-0.4,0.3-0.3,0.4c0,0.2,0.2,0.2,0.4,0.2
					c0.2,0,0.3-0.1,0.4-0.2c-0.1,0.2-0.2,0.5-0.3,0.7c0,0.1,0,0.3,0.1,0.3c0.1,0,0.2,0,0.3-0.1c0.2-0.2,0.3-0.4,0.5-0.6
					c0,0.1-0.1,0.3-0.1,0.4c0,0.1,0,0.3,0.1,0.3c0.1,0,0.2-0.1,0.2-0.2C189.8,312.8,189.9,312.3,189.9,311.7"/>
			</g>
			<g>
				<path class="st9" d="M186.5,306c0,0.1,0,0.2,0.1,0.2c0.1,0,0.2-0.1,0.2-0.2c0-0.1,0-0.2,0-0.3c-0.1-0.5-0.3-1.1-0.6-1.6
					c-0.1-0.1-0.2-0.2-0.3-0.2c-0.1,0-0.2,0.2-0.2,0.3c-0.1,0.4,0,0.9,0.3,1.2c-0.2-0.3-0.4-0.6-0.7-0.8c-0.1-0.1-0.3-0.1-0.4,0
					c-0.1,0.1,0,0.2,0,0.3c0.2,0.3,0.4,0.6,0.7,0.8c-0.3-0.2-0.7-0.3-1-0.3c-0.1,0-0.2,0.1-0.2,0.2c0,0.1,0,0.2,0.1,0.2
					c0.1,0.1,0.2,0.1,0.3,0.1c0.6,0.1,1.3,0.2,2,0.1"/>
			</g>
			<g>
				<path class="st9" d="M183,307.7c0,0.1,0.2,0.2,0.3,0.1s0.2-0.2,0.1-0.3c0-0.1-0.1-0.2-0.2-0.3c-0.4-0.5-0.9-1.1-1.5-1.4
					c-0.1-0.1-0.3-0.1-0.4-0.1c-0.1,0.1-0.2,0.3-0.1,0.4c0.1,0.5,0.4,1,0.9,1.2c-0.3-0.3-0.8-0.4-1.2-0.5c-0.2,0-0.4,0-0.4,0.2
					c0,0.1,0.1,0.3,0.2,0.4c0.4,0.3,0.8,0.4,1.2,0.5c-0.4-0.1-0.9,0-1.3,0.3c-0.1,0.1-0.2,0.2-0.2,0.3c0,0.1,0.1,0.2,0.2,0.2
					c0.1,0,0.2,0,0.3,0c0.8-0.2,1.6-0.5,2.3-0.9"/>
			</g>
		</g>
		<g>
			<g>
				<g>
					<path class="st9" d="M166.9,252.6c0,0,0.1,0.8,0.2,2c0.1,1.2,0.4,3,0.9,4.8c0.5,1.8,1.2,3.4,1.7,4.6c0.5,1.1,0.9,1.8,0.9,1.8
						c0,0-0.1-0.1-0.3-0.4c-0.2-0.3-0.5-0.7-0.7-1.3c-0.6-1.1-1.3-2.7-1.8-4.6c-0.5-1.9-0.8-3.6-0.8-4.9c0-0.6,0-1.1,0-1.5
						C166.8,252.8,166.8,252.6,166.9,252.6z"/>
				</g>
			</g>
			<g>
				<g>
					<path class="st9" d="M170.6,257.5c0.1,0-0.9,1.1-1.3,2.7c-0.4,1.6-0.1,3-0.2,3c-0.1,0-0.5-1.4,0-3.1
						C169.5,258.4,170.6,257.4,170.6,257.5z"/>
				</g>
			</g>
			<g>
				<g>
					<path class="st9" d="M169.2,254.5c0.1,0-0.5,1.1-0.9,2.5c-0.4,1.4-0.5,2.6-0.5,2.6c-0.1,0-0.1-1.2,0.3-2.7
						C168.5,255.4,169.2,254.4,169.2,254.5z"/>
				</g>
			</g>
			<g>
				<g>
					<path class="st9" d="M165.5,258.4c0-0.1,0.9,0.5,1.7,1.4c0.9,0.9,1.4,1.8,1.3,1.8c-0.1,0-0.6-0.8-1.5-1.6
						C166.2,259.1,165.4,258.5,165.5,258.4z"/>
				</g>
			</g>
			<g>
				<g>
					<path class="st9" d="M164.8,254.5c0,0,1,0.8,1.8,2.2c0.8,1.3,1.1,2.6,1.1,2.6c-0.1,0-0.5-1.2-1.3-2.5
						C165.6,255.5,164.8,254.6,164.8,254.5z"/>
				</g>
			</g>
			<g>
				<path class="st9" d="M165.9,258.7c-0.1-0.4-0.3-0.8-0.7-1.1c-0.1-0.1-0.3-0.2-0.4-0.1c-0.1,0.1-0.1,0.2-0.1,0.3
					c0.1,0.1,0.2,0.2,0.2,0.3c-0.2,0-0.4,0-0.6,0c-0.1,0-0.2,0.1-0.2,0.1c0,0.1,0.1,0.1,0.2,0.2c0.2,0.1,0.4,0.1,0.6,0.2
					c-0.1,0.1-0.2,0-0.3,0c-0.1,0-0.2,0.1-0.2,0.2c0,0.1,0.1,0.1,0.2,0.1C165,258.9,165.4,258.8,165.9,258.7"/>
			</g>
			<g>
				<path class="st9" d="M169,254.7c-0.1,0-0.1,0.1-0.1,0.2c0,0.1,0.1,0.1,0.2,0.1c0.1,0,0.1,0,0.2-0.1c0.4-0.2,0.7-0.5,1-0.9
					c0.1-0.1,0.1-0.2,0.1-0.3c0-0.1-0.2-0.1-0.3-0.1c-0.3,0-0.6,0.2-0.8,0.5c0.2-0.2,0.3-0.5,0.4-0.7c0-0.1,0-0.2-0.1-0.3
					c-0.1,0-0.2,0-0.2,0.1c-0.2,0.2-0.3,0.5-0.4,0.7c0.1-0.3,0.1-0.6-0.1-0.8c0-0.1-0.1-0.1-0.2-0.1c-0.1,0-0.1,0.1-0.1,0.1
					c0,0.1,0,0.1,0,0.2c0.1,0.5,0.2,1,0.5,1.5"/>
			</g>
			<g>
				<path class="st9" d="M166.9,252.6c-0.1,0-0.1,0.2,0,0.2c0.1,0.1,0.2,0.1,0.3,0c0.1,0,0.1-0.1,0.2-0.2c0.3-0.4,0.5-0.9,0.6-1.4
					c0-0.1,0-0.2-0.1-0.3c-0.1-0.1-0.2,0-0.4,0c-0.3,0.2-0.6,0.6-0.6,1c0.1-0.3,0.1-0.7,0-1c0-0.1-0.1-0.3-0.2-0.3
					c-0.1,0-0.2,0.1-0.2,0.2c-0.1,0.3-0.1,0.7,0,1c0-0.3-0.2-0.7-0.6-0.9c-0.1-0.1-0.2-0.1-0.3,0c-0.1,0-0.1,0.1-0.1,0.2
					c0,0.1,0.1,0.2,0.1,0.2c0.4,0.5,0.8,1,1.3,1.4"/>
			</g>
		</g>
		<g>
			<g>
				<g>
					<path class="st9" d="M154.2,253.9c0,0-0.5,0.6-1.3,1.6c-0.8,1-1.8,2.4-2.7,4.1c-0.9,1.7-1.5,3.3-1.9,4.5
						c-0.4,1.2-0.6,1.9-0.6,1.9c0,0,0-0.2,0.1-0.5c0.1-0.3,0.2-0.8,0.4-1.4c0.3-1.2,1-2.9,1.9-4.6c0.9-1.7,2-3.1,2.8-4.1
						c0.4-0.5,0.8-0.9,1-1.1C154,254.1,154.2,253.9,154.2,253.9z"/>
				</g>
			</g>
			<g>
				<g>
					<path class="st9" d="M153.5,260c0,0.1-1.4,0.2-2.8,1.1c-1.4,0.9-2.2,2.1-2.2,2c-0.1,0,0.6-1.3,2.1-2.2
						C152.1,260,153.5,260,153.5,260z"/>
				</g>
			</g>
			<g>
				<g>
					<path class="st9" d="M154.6,256.9c0,0.1-1.1,0.4-2.4,1.2c-1.3,0.7-2.1,1.5-2.2,1.5c0,0,0.8-1,2.1-1.7
						C153.4,257.1,154.6,256.9,154.6,256.9z"/>
				</g>
			</g>
			<g>
				<g>
					<path class="st9" d="M149.2,257.2c0.1,0,0.3,1,0.3,2.2c0,1.2-0.2,2.2-0.3,2.2c-0.1,0,0.1-1,0.1-2.2
						C149.2,258.1,149.1,257.2,149.2,257.2z"/>
				</g>
			</g>
			<g>
				<g>
					<path class="st9" d="M151.4,253.9c0.1,0,0.1,1.3-0.2,2.8c-0.4,1.5-1,2.6-1,2.6c-0.1,0,0.5-1.2,0.8-2.7
						C151.3,255.1,151.3,253.9,151.4,253.9z"/>
				</g>
			</g>
			<g>
				<path class="st9" d="M154.3,256.9c0-0.1-0.2,0-0.2,0c0,0.1,0,0.2,0.1,0.2c0.1,0,0.1,0.1,0.2,0.1c0.4,0.1,0.9,0.1,1.3,0.1
					c0.1,0,0.2-0.1,0.2-0.1c0-0.1,0-0.2-0.1-0.3c-0.3-0.2-0.6-0.3-0.9-0.2c0.3,0,0.5-0.1,0.8-0.3c0.1-0.1,0.2-0.2,0.1-0.3
					c0-0.1-0.2-0.1-0.2-0.1c-0.3,0-0.6,0.1-0.8,0.3c0.3-0.1,0.4-0.4,0.5-0.7c0-0.1,0-0.2,0-0.2c-0.1,0-0.1,0-0.2,0
					c-0.1,0-0.1,0.1-0.1,0.2c-0.3,0.4-0.5,0.9-0.7,1.4"/>
			</g>
			<g>
				<path class="st9" d="M154.2,254c-0.1,0-0.2,0.1-0.2,0.1c0,0.1,0.1,0.2,0.2,0.2c0.1,0,0.2,0,0.3,0c0.5-0.1,1-0.3,1.4-0.6
					c0.1-0.1,0.2-0.2,0.2-0.3c0-0.1-0.2-0.2-0.3-0.2c-0.4-0.1-0.8,0-1.1,0.3c0.3-0.2,0.5-0.4,0.7-0.7c0.1-0.1,0.1-0.3,0-0.4
					c-0.1-0.1-0.2,0-0.3,0c-0.3,0.2-0.5,0.4-0.7,0.7c0.2-0.3,0.3-0.7,0.2-1c0-0.1-0.1-0.2-0.2-0.2c-0.1,0-0.2,0-0.2,0.1
					c-0.1,0.1-0.1,0.2-0.1,0.2c-0.1,0.6-0.1,1.3,0,1.9"/>
			</g>
		</g>
		<g>
			<g>
				<g>
					<path class="st9" d="M169.3,200.4c0,0-0.5,0.6-1.3,1.6c-0.8,1-1.8,2.4-2.7,4.1c-0.9,1.7-1.5,3.3-1.9,4.5
						c-0.4,1.2-0.6,1.9-0.6,1.9c0,0,0-0.2,0.1-0.5c0.1-0.3,0.2-0.8,0.4-1.4c0.3-1.2,1-2.9,1.9-4.6c0.9-1.7,2-3.1,2.8-4.1
						c0.4-0.5,0.8-0.9,1-1.1C169.2,200.5,169.3,200.4,169.3,200.4z"/>
				</g>
			</g>
			<g>
				<g>
					<path class="st9" d="M168.7,206.5c0,0.1-1.4,0.2-2.8,1.1c-1.4,0.9-2.2,2.1-2.2,2c-0.1,0,0.6-1.3,2.1-2.2
						C167.2,206.4,168.7,206.4,168.7,206.5z"/>
				</g>
			</g>
			<g>
				<g>
					<path class="st9" d="M169.8,203.4c0,0.1-1.1,0.4-2.4,1.2c-1.3,0.7-2.1,1.5-2.2,1.5c0,0,0.8-1,2.1-1.7
						C168.6,203.6,169.8,203.3,169.8,203.4z"/>
				</g>
			</g>
			<g>
				<g>
					<path class="st9" d="M164.3,203.6c0.1,0,0.3,1,0.3,2.2c0,1.2-0.2,2.2-0.3,2.2c-0.1,0,0.1-1,0.1-2.2
						C164.3,204.6,164.2,203.6,164.3,203.6z"/>
				</g>
			</g>
			<g>
				<g>
					<path class="st9" d="M166.5,200.3c0.1,0,0.1,1.3-0.2,2.8c-0.4,1.5-1,2.6-1,2.6c-0.1,0,0.5-1.2,0.8-2.7
						C166.4,201.6,166.5,200.3,166.5,200.3z"/>
				</g>
			</g>
			<g>
				<path class="st9" d="M169.5,203.4c0-0.1-0.2,0-0.2,0c0,0.1,0,0.2,0.1,0.2c0.1,0,0.1,0.1,0.2,0.1c0.4,0.1,0.9,0.1,1.3,0.1
					c0.1,0,0.2-0.1,0.2-0.1c0-0.1,0-0.2-0.1-0.3c-0.3-0.2-0.6-0.3-0.9-0.2c0.3,0,0.5-0.1,0.8-0.3c0.1-0.1,0.2-0.2,0.1-0.3
					c0-0.1-0.2-0.1-0.2-0.1c-0.3,0-0.6,0.1-0.8,0.3c0.3-0.1,0.4-0.4,0.5-0.7c0-0.1,0-0.2,0-0.2c-0.1,0-0.1,0-0.2,0
					c-0.1,0-0.1,0.1-0.1,0.2c-0.3,0.4-0.5,0.9-0.7,1.4"/>
			</g>
			<g>
				<path class="st9" d="M169.4,200.4c-0.1,0-0.2,0.1-0.2,0.1c0,0.1,0.1,0.2,0.2,0.2c0.1,0,0.2,0,0.3,0c0.5-0.1,1-0.3,1.4-0.6
					c0.1-0.1,0.2-0.2,0.2-0.3c0-0.1-0.2-0.2-0.3-0.2c-0.4-0.1-0.8,0-1.1,0.3c0.3-0.2,0.5-0.4,0.7-0.7c0.1-0.1,0.1-0.3,0-0.4
					c-0.1-0.1-0.2,0-0.3,0c-0.3,0.2-0.5,0.4-0.7,0.7c0.2-0.3,0.3-0.7,0.2-1c0-0.1-0.1-0.2-0.2-0.2c-0.1,0-0.2,0-0.2,0.1
					c-0.1,0.1-0.1,0.2-0.1,0.2c-0.1,0.6-0.1,1.3,0,1.9"/>
			</g>
		</g>
		<g>
			<g>
				<g>
					<path class="st9" d="M122.6,274.6c0,0,0.1,0.8,0.2,2c0.1,1.2,0.4,3,0.9,4.8c0.5,1.8,1.2,3.4,1.7,4.6c0.5,1.1,0.9,1.8,0.9,1.8
						c0,0-0.1-0.1-0.3-0.4c-0.2-0.3-0.5-0.7-0.7-1.3c-0.6-1.1-1.3-2.7-1.8-4.6c-0.5-1.9-0.8-3.6-0.8-4.9c0-0.6,0-1.1,0-1.5
						C122.5,274.8,122.6,274.6,122.6,274.6z"/>
				</g>
			</g>
			<g>
				<g>
					<path class="st9" d="M126.3,279.5c0.1,0-0.9,1.1-1.3,2.7c-0.4,1.6-0.1,3-0.2,3c-0.1,0-0.5-1.4,0-3.1
						C125.2,280.4,126.3,279.4,126.3,279.5z"/>
				</g>
			</g>
			<g>
				<g>
					<path class="st9" d="M125,276.4c0.1,0-0.5,1.1-0.9,2.5c-0.4,1.4-0.5,2.6-0.5,2.6c-0.1,0-0.1-1.2,0.3-2.7
						C124.2,277.4,124.9,276.4,125,276.4z"/>
				</g>
			</g>
			<g>
				<g>
					<path class="st9" d="M121.2,280.4c0-0.1,0.9,0.5,1.7,1.4c0.9,0.9,1.4,1.8,1.3,1.8c-0.1,0-0.6-0.8-1.5-1.6
						C121.9,281.1,121.1,280.5,121.2,280.4z"/>
				</g>
			</g>
			<g>
				<g>
					<path class="st9" d="M120.5,276.5c0,0,1,0.8,1.8,2.2c0.8,1.3,1.1,2.6,1.1,2.6c-0.1,0-0.5-1.2-1.3-2.5
						C121.3,277.5,120.5,276.6,120.5,276.5z"/>
				</g>
			</g>
			<g>
				<path class="st9" d="M121.6,280.7c-0.1-0.4-0.3-0.8-0.7-1.1c-0.1-0.1-0.3-0.2-0.4-0.1c-0.1,0.1-0.1,0.2-0.1,0.3
					c0.1,0.1,0.2,0.2,0.2,0.3c-0.2,0-0.4,0-0.6,0c-0.1,0-0.2,0.1-0.2,0.1c0,0.1,0.1,0.1,0.2,0.2c0.2,0.1,0.4,0.1,0.6,0.2
					c-0.1,0.1-0.2,0-0.3,0c-0.1,0-0.2,0.1-0.2,0.2c0,0.1,0.1,0.1,0.2,0.1C120.7,280.9,121.1,280.8,121.6,280.7"/>
			</g>
			<g>
				<path class="st9" d="M124.7,276.7c-0.1,0-0.1,0.1-0.1,0.2c0,0.1,0.1,0.1,0.2,0.1c0.1,0,0.1,0,0.2-0.1c0.4-0.2,0.7-0.5,1-0.9
					c0.1-0.1,0.1-0.2,0.1-0.3c0-0.1-0.2-0.1-0.3-0.1c-0.3,0-0.6,0.2-0.8,0.5c0.2-0.2,0.3-0.5,0.4-0.7c0-0.1,0-0.2-0.1-0.3
					c-0.1,0-0.2,0-0.2,0.1c-0.2,0.2-0.3,0.5-0.4,0.7c0.1-0.3,0.1-0.6-0.1-0.8c0-0.1-0.1-0.1-0.2-0.1c-0.1,0-0.1,0.1-0.1,0.1
					c0,0.1,0,0.1,0,0.2c0.1,0.5,0.2,1,0.5,1.5"/>
			</g>
			<g>
				<path class="st9" d="M122.6,274.6c-0.1,0-0.1,0.2,0,0.2c0.1,0.1,0.2,0.1,0.3,0c0.1,0,0.1-0.1,0.2-0.2c0.3-0.4,0.5-0.9,0.6-1.4
					c0-0.1,0-0.2-0.1-0.3c-0.1-0.1-0.2,0-0.4,0c-0.3,0.2-0.6,0.6-0.6,1c0.1-0.3,0.1-0.7,0-1c0-0.1-0.1-0.3-0.2-0.3
					c-0.1,0-0.2,0.1-0.2,0.2c-0.1,0.3-0.1,0.7,0,1c0-0.3-0.2-0.7-0.6-0.9c-0.1-0.1-0.2-0.1-0.3,0c-0.1,0-0.1,0.1-0.1,0.2
					c0,0.1,0.1,0.2,0.1,0.2c0.4,0.5,0.8,1,1.3,1.4"/>
			</g>
		</g>
		<g>
			<g>
				<g>
					<path class="st9" d="M180.9,280.8c0,0,0.1,0.8,0.2,2c0.1,1.2,0.4,3,0.9,4.8c0.5,1.8,1.2,3.4,1.7,4.6c0.5,1.1,0.9,1.8,0.9,1.8
						c0,0-0.1-0.2-0.3-0.4c-0.2-0.3-0.5-0.7-0.7-1.3c-0.6-1.1-1.3-2.7-1.8-4.6c-0.5-1.9-0.8-3.6-0.8-4.9c0-0.6,0-1.1,0-1.5
						C180.9,281,180.9,280.8,180.9,280.8z"/>
				</g>
			</g>
			<g>
				<g>
					<path class="st9" d="M184.7,285.6c0.1,0-0.9,1.1-1.3,2.7c-0.4,1.6-0.1,3-0.2,3c-0.1,0-0.5-1.4,0-3.1
						C183.6,286.6,184.7,285.6,184.7,285.6z"/>
				</g>
			</g>
			<g>
				<g>
					<path class="st9" d="M183.3,282.6c0.1,0-0.5,1.1-0.9,2.5c-0.4,1.4-0.5,2.6-0.5,2.6c-0.1,0-0.1-1.2,0.3-2.7
						C182.6,283.6,183.3,282.6,183.3,282.6z"/>
				</g>
			</g>
			<g>
				<g>
					<path class="st9" d="M179.5,286.6c0-0.1,0.9,0.5,1.7,1.4c0.9,0.9,1.4,1.8,1.3,1.8c-0.1,0-0.6-0.8-1.5-1.6
						C180.3,287.3,179.5,286.6,179.5,286.6z"/>
				</g>
			</g>
			<g>
				<g>
					<path class="st9" d="M178.9,282.7c0,0,1,0.8,1.8,2.2c0.8,1.3,1.1,2.6,1.1,2.6c-0.1,0-0.5-1.2-1.3-2.5
						C179.7,283.6,178.8,282.7,178.9,282.7z"/>
				</g>
			</g>
			<g>
				<path class="st9" d="M179.9,286.8c-0.1-0.4-0.3-0.8-0.7-1.1c-0.1-0.1-0.3-0.2-0.4-0.1c-0.1,0.1-0.1,0.2-0.1,0.3
					c0.1,0.1,0.2,0.2,0.2,0.3c-0.2,0-0.4,0-0.6,0c-0.1,0-0.2,0.1-0.2,0.1c0,0.1,0.1,0.1,0.2,0.2c0.2,0.1,0.4,0.1,0.6,0.2
					c-0.1,0.1-0.2,0-0.3,0c-0.1,0-0.2,0.1-0.2,0.2c0,0.1,0.1,0.1,0.2,0.1C179.1,287,179.5,287,179.9,286.8"/>
			</g>
			<g>
				<path class="st9" d="M183.1,282.8c-0.1,0-0.1,0.1-0.1,0.2c0,0.1,0.1,0.1,0.2,0.1s0.1,0,0.2-0.1c0.4-0.2,0.7-0.5,1-0.9
					c0.1-0.1,0.1-0.2,0.1-0.3c0-0.1-0.2-0.1-0.3-0.1c-0.3,0-0.6,0.2-0.8,0.5c0.2-0.2,0.3-0.5,0.4-0.7c0-0.1,0-0.2-0.1-0.3
					c-0.1,0-0.2,0-0.2,0.1c-0.2,0.2-0.3,0.5-0.4,0.7c0.1-0.3,0.1-0.6-0.1-0.8c0-0.1-0.1-0.1-0.2-0.1c-0.1,0-0.1,0.1-0.1,0.1
					c0,0.1,0,0.1,0,0.2c0.1,0.5,0.2,1,0.5,1.5"/>
			</g>
			<g>
				<path class="st9" d="M181,280.8c-0.1,0-0.1,0.2,0,0.2c0.1,0.1,0.2,0.1,0.3,0c0.1,0,0.1-0.1,0.2-0.2c0.3-0.4,0.5-0.9,0.6-1.4
					c0-0.1,0-0.2-0.1-0.3c-0.1-0.1-0.2,0-0.4,0c-0.3,0.2-0.6,0.6-0.6,1c0.1-0.3,0.1-0.7,0-1c0-0.1-0.1-0.3-0.2-0.3
					c-0.1,0-0.2,0.1-0.2,0.2c-0.1,0.3-0.1,0.7,0,1c0-0.3-0.2-0.7-0.6-0.9c-0.1-0.1-0.2-0.1-0.3,0c-0.1,0-0.1,0.1-0.1,0.2
					c0,0.1,0.1,0.2,0.1,0.2c0.4,0.5,0.8,1,1.3,1.4"/>
			</g>
		</g>
		<g>
			<g>
				<g>
					<path class="st9" d="M196.2,232.6c0,0-0.7,0.3-1.9,0.8c-1.1,0.5-2.7,1.3-4.2,2.4c-1.6,1.1-2.9,2.2-3.7,3.1
						c-0.9,0.9-1.4,1.5-1.4,1.5c0,0,0.1-0.2,0.3-0.4c0.2-0.3,0.5-0.7,1-1.1c0.9-0.9,2.1-2.1,3.7-3.2c1.6-1.1,3.1-1.9,4.3-2.4
						c0.6-0.2,1.1-0.4,1.4-0.5C196,232.7,196.2,232.6,196.2,232.6z"/>
				</g>
			</g>
			<g>
				<g>
					<path class="st9" d="M192.8,237.7c0,0.1-1.3-0.5-3-0.3c-1.7,0.1-2.9,0.9-2.9,0.8c0,0,1.1-0.9,2.9-1.1
						C191.6,237,192.9,237.7,192.8,237.7z"/>
				</g>
			</g>
			<g>
				<g>
					<path class="st9" d="M195.3,235.5c0,0.1-1.2-0.1-2.6,0c-1.5,0.1-2.6,0.4-2.6,0.3c0-0.1,1.1-0.5,2.6-0.6
						C194.1,235.1,195.3,235.4,195.3,235.5z"/>
				</g>
			</g>
			<g>
				<g>
					<path class="st9" d="M190.3,233.2c0.1,0-0.2,1-0.8,2.1c-0.6,1.1-1.2,1.9-1.3,1.8c-0.1,0,0.5-0.9,1.1-1.9
						C189.8,234.1,190.2,233.2,190.3,233.2z"/>
				</g>
			</g>
			<g>
				<g>
					<path class="st9" d="M193.7,231.3c0.1,0-0.5,1.2-1.5,2.4c-1,1.2-2.1,1.9-2.1,1.9c0-0.1,0.9-0.8,1.9-2
						C193.1,232.4,193.7,231.3,193.7,231.3z"/>
				</g>
			</g>
			<g>
				<path class="st9" d="M190.1,233.7c0.4-0.2,0.7-0.6,0.8-1c0.1-0.1,0.1-0.3,0-0.4c-0.1-0.1-0.2,0-0.3,0c-0.1,0.1-0.1,0.2-0.2,0.3
					c0-0.2-0.1-0.4-0.2-0.6c0-0.1-0.1-0.2-0.2-0.1c-0.1,0-0.1,0.1-0.1,0.2c0,0.2,0,0.4,0,0.6c-0.1-0.1-0.1-0.2-0.1-0.3
					c0-0.1-0.2-0.2-0.3-0.1c-0.1,0.1-0.1,0.2,0,0.2C189.6,233,189.9,233.3,190.1,233.7"/>
			</g>
			<g>
				<path class="st9" d="M194.9,235.3c0-0.1-0.1-0.1-0.2,0c-0.1,0.1-0.1,0.1,0,0.2c0,0.1,0.1,0.1,0.2,0.2c0.3,0.3,0.7,0.5,1.1,0.6
					c0.1,0,0.2,0,0.3,0c0.1-0.1,0-0.2,0-0.3c-0.1-0.3-0.4-0.5-0.8-0.6c0.3,0.1,0.5,0.2,0.8,0.1c0.1,0,0.2-0.1,0.2-0.2
					c0-0.1-0.1-0.2-0.2-0.2c-0.3-0.1-0.6-0.1-0.8-0.1c0.3,0,0.6-0.1,0.7-0.4c0-0.1,0.1-0.1,0.1-0.2c0-0.1-0.1-0.1-0.2-0.1
					c-0.1,0-0.1,0-0.2,0.1c-0.5,0.2-0.9,0.5-1.2,0.9"/>
			</g>
			<g>
				<path class="st9" d="M196.2,232.6c-0.1-0.1-0.2,0-0.2,0c0,0.1,0,0.2,0.1,0.3c0.1,0.1,0.2,0.1,0.2,0.1c0.5,0.1,1,0.2,1.6,0.1
					c0.1,0,0.2-0.1,0.3-0.2c0-0.1,0-0.2-0.1-0.3c-0.3-0.3-0.7-0.3-1.1-0.2c0.3,0,0.7-0.1,0.9-0.3c0.1-0.1,0.2-0.2,0.2-0.3
					c0-0.1-0.2-0.1-0.3-0.1c-0.3,0-0.7,0.1-1,0.3c0.3-0.1,0.6-0.5,0.6-0.8c0-0.1,0-0.2,0-0.3c-0.1-0.1-0.2-0.1-0.2,0
					c-0.1,0-0.1,0.1-0.2,0.2c-0.4,0.5-0.7,1.1-0.9,1.7"/>
			</g>
		</g>
		<g>
			<g>
				<g>
					<path class="st9" d="M121.1,252.2c0,0-0.1,0.8-0.3,2c-0.2,1.2-0.3,3-0.2,4.9c0.1,1.9,0.4,3.6,0.7,4.8c0.3,1.2,0.5,2,0.5,2
						c0,0-0.1-0.2-0.2-0.5c-0.1-0.3-0.3-0.8-0.5-1.4c-0.3-1.2-0.7-2.9-0.8-4.9c-0.1-1.9,0-3.7,0.2-4.9c0.1-0.6,0.2-1.1,0.3-1.5
						C121,252.4,121.1,252.2,121.1,252.2z"/>
				</g>
			</g>
			<g>
				<g>
					<path class="st9" d="M123.7,257.8c0.1,0.1-1.1,0.9-1.8,2.4c-0.8,1.5-0.8,2.9-0.8,2.9c-0.1,0-0.2-1.4,0.6-3
						C122.4,258.5,123.7,257.7,123.7,257.8z"/>
				</g>
			</g>
			<g>
				<g>
					<path class="st9" d="M123,254.5c0.1,0-0.7,1-1.4,2.2c-0.7,1.3-1,2.4-1.1,2.4c-0.1,0,0.2-1.2,0.9-2.5
						C122.1,255.3,123,254.5,123,254.5z"/>
				</g>
			</g>
			<g>
				<g>
					<path class="st9" d="M118.5,257.6c0,0,0.8,0.7,1.4,1.7c0.6,1.1,0.9,2,0.9,2c-0.1,0-0.5-0.9-1.1-1.9
						C119,258.4,118.4,257.6,118.5,257.6z"/>
				</g>
			</g>
			<g>
				<g>
					<path class="st9" d="M118.7,253.6c0.1,0,0.8,1,1.3,2.5c0.5,1.5,0.5,2.8,0.5,2.8c-0.1,0-0.2-1.2-0.7-2.7
						C119.2,254.8,118.6,253.7,118.7,253.6z"/>
				</g>
			</g>
			<g>
				<path class="st9" d="M118.8,257.9c0-0.4-0.1-0.9-0.4-1.2c-0.1-0.1-0.2-0.2-0.4-0.2c-0.1,0-0.2,0.2-0.1,0.3
					c0,0.1,0.1,0.2,0.2,0.3c-0.2-0.1-0.4-0.1-0.6-0.1c-0.1,0-0.2,0-0.2,0.1c0,0.1,0.1,0.2,0.1,0.2c0.2,0.1,0.3,0.2,0.5,0.3
					c-0.1,0-0.2,0-0.3,0c-0.1,0-0.3,0-0.2,0.1c0,0.1,0.1,0.1,0.2,0.1C117.9,258,118.3,258,118.8,257.9"/>
			</g>
			<g>
				<path class="st9" d="M122.7,254.7c-0.1,0-0.1,0.1-0.1,0.1c0,0.1,0.1,0.1,0.2,0.1c0.1,0,0.1,0,0.2,0c0.4-0.1,0.8-0.3,1.1-0.6
					c0.1-0.1,0.1-0.1,0.1-0.2c0-0.1-0.1-0.1-0.2-0.2c-0.3,0-0.7,0.1-0.9,0.3c0.2-0.2,0.4-0.4,0.5-0.6c0-0.1,0.1-0.2,0-0.3
					c-0.1-0.1-0.2,0-0.3,0.1c-0.2,0.2-0.4,0.4-0.5,0.6c0.2-0.2,0.2-0.6,0.1-0.8c0-0.1-0.1-0.2-0.2-0.2c-0.1,0-0.1,0-0.2,0.1
					c0,0.1,0,0.1,0,0.2c0,0.5,0,1,0.1,1.5"/>
			</g>
			<g>
				<path class="st9" d="M121.1,252.2c-0.1,0-0.1,0.1-0.1,0.2c0.1,0.1,0.2,0.1,0.3,0.1c0.1,0,0.2-0.1,0.2-0.2
					c0.4-0.4,0.7-0.8,0.9-1.3c0-0.1,0.1-0.2,0-0.3c-0.1-0.1-0.2-0.1-0.3-0.1c-0.4,0.1-0.7,0.4-0.8,0.8c0.2-0.3,0.2-0.6,0.2-1
					c0-0.1,0-0.3-0.2-0.3c-0.1,0-0.2,0.1-0.2,0.2c-0.2,0.3-0.2,0.7-0.3,1c0-0.3-0.1-0.7-0.4-1c-0.1-0.1-0.2-0.1-0.3-0.1
					c-0.1,0-0.1,0.1-0.1,0.2c0,0.1,0,0.2,0.1,0.3c0.2,0.6,0.6,1.2,1,1.7"/>
			</g>
		</g>
		<g>
			<g>
				<g>
					<path class="st9" d="M201.8,288.7c0,0,0.2,0.8,0.5,2c0.3,1.2,0.8,2.9,1.6,4.6c0.8,1.7,1.7,3.2,2.4,4.3c0.7,1,1.2,1.6,1.2,1.7
						c0,0-0.1-0.1-0.4-0.4c-0.2-0.3-0.6-0.7-0.9-1.2c-0.7-1-1.7-2.5-2.4-4.3c-0.8-1.8-1.3-3.5-1.5-4.7c-0.1-0.6-0.2-1.1-0.2-1.5
						C201.8,288.9,201.8,288.7,201.8,288.7z"/>
				</g>
			</g>
			<g>
				<g>
					<path class="st9" d="M206.2,292.9c0.1,0-0.7,1.2-0.9,2.9c-0.2,1.7,0.3,3,0.2,3c0,0-0.7-1.3-0.5-3
						C205.2,294,206.2,292.9,206.2,292.9z"/>
				</g>
			</g>
			<g>
				<g>
					<path class="st9" d="M204.4,290.1c0.1,0-0.3,1.1-0.5,2.6c-0.2,1.4-0.1,2.6-0.2,2.6c-0.1,0-0.3-1.2-0.1-2.7
						C203.8,291.2,204.4,290.1,204.4,290.1z"/>
				</g>
			</g>
			<g>
				<g>
					<path class="st9" d="M201.2,294.6c0-0.1,0.9,0.4,1.9,1.1c1,0.8,1.6,1.6,1.5,1.6c-0.1,0-0.8-0.7-1.7-1.4
						C202,295.2,201.2,294.7,201.2,294.6z"/>
				</g>
			</g>
			<g>
				<g>
					<path class="st9" d="M200,290.8c0-0.1,1.1,0.7,2.1,1.9c1,1.2,1.5,2.4,1.4,2.4c-0.1,0-0.6-1.1-1.6-2.3
						C201,291.7,200,290.9,200,290.8z"/>
				</g>
			</g>
			<g>
				<path class="st9" d="M201.7,294.8c-0.2-0.4-0.4-0.8-0.8-1c-0.1-0.1-0.3-0.1-0.4,0c-0.1,0.1-0.1,0.2,0,0.3
					c0.1,0.1,0.2,0.2,0.3,0.2c-0.2,0-0.4,0-0.6,0.1c-0.1,0-0.2,0.1-0.2,0.2c0,0.1,0.1,0.1,0.2,0.1c0.2,0,0.4,0.1,0.6,0.1
					c-0.1,0.1-0.2,0.1-0.3,0.1c-0.1,0-0.2,0.1-0.2,0.2c0,0.1,0.1,0.1,0.2,0.1C200.9,295.1,201.3,295,201.7,294.8"/>
			</g>
			<g>
				<path class="st9" d="M204.2,290.4c-0.1,0-0.1,0.1-0.1,0.2c0,0.1,0.1,0.1,0.2,0.1c0.1,0,0.1-0.1,0.2-0.1c0.3-0.3,0.6-0.6,0.8-1
					c0-0.1,0.1-0.2,0-0.3c-0.1-0.1-0.2-0.1-0.3-0.1c-0.3,0.1-0.6,0.3-0.7,0.6c0.2-0.2,0.2-0.5,0.3-0.8c0-0.1,0-0.2-0.1-0.3
					c-0.1,0-0.2,0.1-0.2,0.1c-0.1,0.2-0.2,0.5-0.3,0.8c0.1-0.3,0-0.6-0.2-0.8c-0.1-0.1-0.1-0.1-0.2-0.1c-0.1,0-0.1,0.1-0.1,0.2
					c0,0.1,0,0.1,0,0.2c0.1,0.5,0.4,1,0.7,1.4"/>
			</g>
			<g>
				<path class="st9" d="M201.8,288.7c-0.1,0-0.1,0.2,0,0.2c0.1,0.1,0.2,0,0.3,0c0.1-0.1,0.1-0.1,0.2-0.2c0.2-0.5,0.4-1,0.4-1.5
					c0-0.1,0-0.2-0.1-0.3c-0.1-0.1-0.2,0-0.3,0.1c-0.3,0.2-0.5,0.7-0.5,1.1c0.1-0.3,0-0.7-0.1-1c0-0.1-0.1-0.3-0.3-0.2
					c-0.1,0-0.2,0.2-0.2,0.3c0,0.3,0,0.7,0.1,1c-0.1-0.3-0.3-0.6-0.7-0.8c-0.1,0-0.2-0.1-0.3,0c-0.1,0-0.1,0.2-0.1,0.2
					c0,0.1,0.1,0.2,0.1,0.2c0.4,0.5,0.9,0.9,1.5,1.2"/>
			</g>
		</g>
		<g>
			<g>
				<g>
					<path class="st9" d="M189.5,267.3c0,0,0.2-0.8,0.5-2c0.3-1.2,0.6-2.9,0.6-4.8c0.1-1.9-0.1-3.6-0.2-4.9c-0.2-1.2-0.3-2-0.3-2
						c0,0,0.1,0.2,0.2,0.5c0.1,0.3,0.2,0.8,0.3,1.5c0.2,1.2,0.4,3,0.3,4.9c-0.1,1.9-0.4,3.6-0.7,4.9c-0.2,0.6-0.3,1.1-0.4,1.4
						C189.6,267.1,189.5,267.3,189.5,267.3z"/>
				</g>
			</g>
			<g>
				<g>
					<path class="st9" d="M187.4,261.5c-0.1-0.1,1.2-0.8,2.1-2.2c0.9-1.4,1-2.8,1.1-2.8c0.1,0,0,1.5-0.9,2.9
						C188.8,261,187.4,261.6,187.4,261.5z"/>
				</g>
			</g>
			<g>
				<g>
					<path class="st9" d="M187.8,264.8c-0.1-0.1,0.8-0.9,1.6-2.1c0.8-1.2,1.2-2.3,1.3-2.3c0.1,0-0.3,1.2-1.1,2.4
						C188.8,264.1,187.8,264.9,187.8,264.8z"/>
				</g>
			</g>
			<g>
				<g>
					<path class="st9" d="M192.6,262.2c-0.1,0-0.7-0.8-1.2-1.9c-0.5-1.1-0.7-2.1-0.7-2.1c0.1,0,0.4,0.9,0.9,2
						C192.2,261.4,192.7,262.2,192.6,262.2z"/>
				</g>
			</g>
			<g>
				<g>
					<path class="st9" d="M192,266.1c-0.1,0-0.7-1.1-1-2.6c-0.3-1.5-0.3-2.8-0.2-2.8c0.1,0,0.1,1.3,0.4,2.8
						C191.6,265,192.1,266.1,192,266.1z"/>
				</g>
			</g>
			<g>
				<path class="st9" d="M192.3,261.9c0,0.4,0.1,0.9,0.3,1.3c0.1,0.1,0.2,0.3,0.4,0.2c0.1,0,0.2-0.2,0.2-0.3c0-0.1-0.1-0.2-0.2-0.3
					c0.2,0.1,0.4,0.1,0.6,0.2c0.1,0,0.2,0,0.2-0.1c0-0.1,0-0.2-0.1-0.2c-0.2-0.1-0.3-0.2-0.5-0.4c0.1,0,0.2,0,0.3,0.1
					c0.1,0,0.3,0,0.3-0.1c0-0.1-0.1-0.1-0.2-0.2C193.2,261.9,192.8,261.9,192.3,261.9"/>
			</g>
			<g>
				<path class="st9" d="M188.1,264.7c0.1,0,0.2,0,0.1-0.1c0-0.1-0.1-0.1-0.2-0.1c-0.1,0-0.2,0-0.2,0c-0.4,0.1-0.8,0.3-1.2,0.5
					c-0.1,0.1-0.2,0.1-0.1,0.2c0,0.1,0.1,0.2,0.2,0.2c0.3,0.1,0.7,0,0.9-0.3c-0.2,0.1-0.4,0.3-0.6,0.6c-0.1,0.1-0.1,0.2,0,0.3
					c0.1,0.1,0.2,0,0.3,0c0.2-0.2,0.4-0.4,0.6-0.6c-0.2,0.2-0.2,0.5-0.2,0.8c0,0.1,0.1,0.2,0.1,0.2c0.1,0,0.1,0,0.2-0.1
					s0.1-0.1,0.1-0.2c0.1-0.5,0.1-1,0-1.5"/>
			</g>
			<g>
				<path class="st9" d="M189.5,267.3c0.1,0,0.1-0.1,0.1-0.2c0-0.1-0.2-0.1-0.2-0.1c-0.1,0-0.2,0.1-0.2,0.1c-0.4,0.3-0.8,0.7-1,1.2
					c-0.1,0.1-0.1,0.2,0,0.3c0.1,0.1,0.2,0.1,0.3,0.1c0.4-0.1,0.7-0.4,0.9-0.7c-0.2,0.3-0.3,0.6-0.3,0.9c0,0.1,0,0.3,0.1,0.3
					c0.1,0,0.2-0.1,0.3-0.2c0.2-0.3,0.3-0.6,0.4-1c-0.1,0.3,0,0.7,0.3,1c0.1,0.1,0.2,0.1,0.2,0.1c0.1,0,0.1-0.1,0.2-0.2
					c0-0.1,0-0.2,0-0.3c-0.2-0.6-0.4-1.2-0.8-1.7"/>
			</g>
		</g>
		<g>
			<g>
				<g>
					<path class="st9" d="M154.1,221.8c0,0-0.7,0.3-1.9,0.8c-1.1,0.5-2.7,1.3-4.2,2.4c-1.6,1.1-2.9,2.2-3.7,3.1
						c-0.9,0.9-1.4,1.5-1.4,1.5c0,0,0.1-0.2,0.3-0.4c0.2-0.3,0.5-0.7,1-1.1c0.9-0.9,2.1-2.1,3.7-3.2c1.6-1.1,3.1-1.9,4.3-2.4
						c0.6-0.2,1.1-0.4,1.4-0.5C153.9,221.9,154.1,221.8,154.1,221.8z"/>
				</g>
			</g>
			<g>
				<g>
					<path class="st9" d="M150.7,227c0,0.1-1.3-0.5-3-0.3c-1.7,0.1-2.9,0.9-2.9,0.8c0,0,1.1-0.9,2.9-1.1
						C149.5,226.2,150.8,226.9,150.7,227z"/>
				</g>
			</g>
			<g>
				<g>
					<path class="st9" d="M153.1,224.7c0,0.1-1.2-0.1-2.6,0c-1.5,0.1-2.6,0.4-2.6,0.3c0-0.1,1.1-0.5,2.6-0.6
						C152,224.3,153.2,224.6,153.1,224.7z"/>
				</g>
			</g>
			<g>
				<g>
					<path class="st9" d="M148.1,222.4c0.1,0-0.2,1-0.8,2.1c-0.6,1.1-1.2,1.9-1.3,1.8c-0.1,0,0.5-0.9,1.1-1.9
						C147.7,223.3,148.1,222.4,148.1,222.4z"/>
				</g>
			</g>
			<g>
				<g>
					<path class="st9" d="M151.6,220.5c0.1,0-0.5,1.2-1.5,2.4c-1,1.2-2.1,1.9-2.1,1.9c0-0.1,0.9-0.8,1.9-2
						C151,221.6,151.5,220.5,151.6,220.5z"/>
				</g>
			</g>
			<g>
				<path class="st9" d="M148,222.9c0.4-0.2,0.7-0.6,0.8-1c0.1-0.1,0.1-0.3,0-0.4c-0.1-0.1-0.2,0-0.3,0c-0.1,0.1-0.1,0.2-0.2,0.3
					c0-0.2-0.1-0.4-0.2-0.6c0-0.1-0.1-0.2-0.2-0.1c-0.1,0-0.1,0.1-0.1,0.2c0,0.2,0,0.4,0,0.6c-0.1-0.1-0.1-0.2-0.1-0.3
					c0-0.1-0.2-0.2-0.3-0.1c-0.1,0.1-0.1,0.2,0,0.2C147.5,222.2,147.7,222.5,148,222.9"/>
			</g>
			<g>
				<path class="st9" d="M152.8,224.6c0-0.1-0.1-0.1-0.2,0c-0.1,0.1-0.1,0.1,0,0.2c0,0.1,0.1,0.1,0.2,0.2c0.3,0.3,0.7,0.5,1.1,0.6
					c0.1,0,0.2,0,0.3,0c0.1-0.1,0-0.2,0-0.3c-0.1-0.3-0.4-0.5-0.8-0.6c0.3,0.1,0.5,0.2,0.8,0.1c0.1,0,0.2-0.1,0.2-0.2
					c0-0.1-0.1-0.2-0.2-0.2c-0.3-0.1-0.6-0.1-0.8-0.1c0.3,0,0.6-0.1,0.7-0.4c0-0.1,0.1-0.1,0.1-0.2c0-0.1-0.1-0.1-0.2-0.1
					c-0.1,0-0.1,0-0.2,0.1c-0.5,0.2-0.9,0.5-1.2,0.9"/>
			</g>
			<g>
				<path class="st9" d="M154.1,221.9c-0.1-0.1-0.2,0-0.2,0c0,0.1,0,0.2,0.1,0.3c0.1,0.1,0.2,0.1,0.2,0.1c0.5,0.1,1,0.2,1.6,0.1
					c0.1,0,0.2-0.1,0.3-0.2c0-0.1,0-0.2-0.1-0.3c-0.3-0.3-0.7-0.3-1.1-0.2c0.3,0,0.7-0.1,0.9-0.3c0.1-0.1,0.2-0.2,0.2-0.3
					c0-0.1-0.2-0.1-0.3-0.1c-0.3,0-0.7,0.1-1,0.3c0.3-0.1,0.6-0.5,0.6-0.8c0-0.1,0-0.2,0-0.3c-0.1-0.1-0.2-0.1-0.2,0
					c-0.1,0-0.1,0.1-0.2,0.2c-0.4,0.5-0.7,1.1-0.9,1.7"/>
			</g>
		</g>
		<g>
			<g>
				<g>
					<path class="st9" d="M183.9,205.7c0,0,0.4,0.7,1,1.8c0.6,1.1,1.6,2.5,2.9,3.9c1.3,1.4,2.6,2.6,3.5,3.4c1,0.8,1.6,1.2,1.6,1.2
						c0,0-0.2-0.1-0.5-0.3c-0.3-0.2-0.7-0.5-1.2-0.8c-1-0.7-2.3-1.9-3.6-3.3c-1.3-1.5-2.2-2.9-2.8-4c-0.3-0.6-0.5-1-0.7-1.3
						C184,205.9,183.9,205.7,183.9,205.7z"/>
				</g>
			</g>
			<g>
				<g>
					<path class="st9" d="M189.4,208.5c0.1,0-0.3,1.4,0,3c0.3,1.7,1.2,2.8,1.1,2.8c0,0.1-1-1-1.4-2.8
						C188.8,209.8,189.4,208.5,189.4,208.5z"/>
				</g>
			</g>
			<g>
				<g>
					<path class="st9" d="M186.9,206.4c0.1,0,0,1.2,0.3,2.6c0.2,1.4,0.7,2.5,0.6,2.6c-0.1,0-0.6-1-0.9-2.5
						C186.6,207.6,186.8,206.3,186.9,206.4z"/>
				</g>
			</g>
			<g>
				<g>
					<path class="st9" d="M185.2,211.6c0-0.1,1,0.1,2.2,0.5c1.2,0.4,2,1,2,1.1c0,0.1-0.9-0.4-2-0.8
						C186.1,211.9,185.2,211.6,185.2,211.6z"/>
				</g>
			</g>
			<g>
				<g>
					<path class="st9" d="M182.9,208.3c0-0.1,1.2,0.3,2.6,1.2c1.3,0.9,2.1,1.9,2.1,1.9c-0.1,0.1-0.9-0.8-2.2-1.7
						C184,208.9,182.9,208.4,182.9,208.3z"/>
				</g>
			</g>
			<g>
				<path class="st9" d="M185.6,211.6c-0.3-0.3-0.6-0.6-1.1-0.7c-0.1,0-0.3,0-0.4,0.1c-0.1,0.1,0,0.2,0.1,0.3
					c0.1,0.1,0.2,0.1,0.3,0.1c-0.2,0.1-0.4,0.1-0.5,0.3c-0.1,0-0.2,0.1-0.1,0.2c0,0.1,0.1,0.1,0.2,0.1c0.2,0,0.4,0,0.6-0.1
					c-0.1,0.1-0.2,0.1-0.3,0.2c-0.1,0.1-0.2,0.2-0.1,0.3c0.1,0.1,0.2,0,0.2,0C185,212.2,185.3,212,185.6,211.6"/>
			</g>
			<g>
				<path class="st9" d="M186.8,206.7c-0.1,0-0.1,0.1,0,0.2c0.1,0,0.1,0,0.2,0c0.1,0,0.1-0.1,0.1-0.2c0.2-0.4,0.4-0.8,0.5-1.2
					c0-0.1,0-0.2-0.1-0.3c-0.1-0.1-0.2,0-0.3,0c-0.3,0.2-0.5,0.5-0.5,0.8c0.1-0.3,0.1-0.5,0-0.8c0-0.1-0.1-0.2-0.2-0.2
					c-0.1,0-0.1,0.1-0.2,0.2c-0.1,0.3-0.1,0.6,0,0.8c0-0.3-0.2-0.6-0.4-0.7c-0.1,0-0.2-0.1-0.2,0c-0.1,0-0.1,0.1-0.1,0.2
					c0,0.1,0,0.1,0.1,0.2c0.3,0.4,0.6,0.8,1.1,1.1"/>
			</g>
			<g>
				<path class="st9" d="M184,205.7c-0.1,0.1,0,0.2,0.1,0.2c0.1,0,0.2,0,0.2-0.1s0.1-0.2,0.1-0.3c0.1-0.5,0.1-1-0.1-1.6
					c0-0.1-0.1-0.2-0.2-0.3c-0.1,0-0.2,0.1-0.3,0.2c-0.2,0.3-0.3,0.8-0.1,1.1c0-0.3-0.2-0.6-0.4-0.9c-0.1-0.1-0.2-0.2-0.3-0.1
					c-0.1,0.1-0.1,0.2-0.1,0.3c0.1,0.3,0.2,0.7,0.4,0.9c-0.2-0.3-0.5-0.5-0.9-0.5c-0.1,0-0.2,0-0.3,0.1c-0.1,0.1,0,0.2,0,0.2
					c0,0.1,0.1,0.1,0.2,0.2c0.5,0.3,1.2,0.6,1.8,0.7"/>
			</g>
		</g>
		<g>
			<g>
				<g>
					<path class="st9" d="M129.8,211.7c0,0,0.4,0.7,1,1.8c0.6,1.1,1.6,2.5,2.9,3.9c1.3,1.4,2.6,2.6,3.5,3.4c1,0.8,1.6,1.2,1.6,1.2
						c0,0-0.2-0.1-0.5-0.3c-0.3-0.2-0.7-0.5-1.2-0.8c-1-0.7-2.3-1.9-3.6-3.3c-1.3-1.5-2.2-2.9-2.8-4c-0.3-0.6-0.5-1-0.7-1.3
						C129.8,211.9,129.8,211.7,129.8,211.7z"/>
				</g>
			</g>
			<g>
				<g>
					<path class="st9" d="M135.3,214.5c0.1,0-0.3,1.4,0,3c0.3,1.7,1.2,2.8,1.1,2.8c0,0.1-1-1-1.4-2.8
						C134.7,215.8,135.2,214.4,135.3,214.5z"/>
				</g>
			</g>
			<g>
				<g>
					<path class="st9" d="M132.7,212.3c0.1,0,0,1.2,0.3,2.6c0.2,1.4,0.7,2.5,0.6,2.6c-0.1,0-0.6-1-0.9-2.5
						C132.5,213.5,132.7,212.3,132.7,212.3z"/>
				</g>
			</g>
			<g>
				<g>
					<path class="st9" d="M131,217.6c0-0.1,1,0.1,2.2,0.5c1.2,0.4,2,1,2,1.1c0,0.1-0.9-0.4-2-0.8C132,217.9,131,217.6,131,217.6z"/>
				</g>
			</g>
			<g>
				<g>
					<path class="st9" d="M128.8,214.3c0-0.1,1.2,0.3,2.6,1.2c1.3,0.9,2.1,1.9,2.1,1.9c-0.1,0.1-0.9-0.8-2.2-1.7
						C129.9,214.9,128.7,214.4,128.8,214.3z"/>
				</g>
			</g>
			<g>
				<path class="st9" d="M131.5,217.6c-0.3-0.3-0.6-0.6-1.1-0.7c-0.1,0-0.3,0-0.4,0.1c-0.1,0.1,0,0.2,0.1,0.3
					c0.1,0.1,0.2,0.1,0.3,0.1c-0.2,0.1-0.4,0.1-0.5,0.3c-0.1,0-0.2,0.1-0.1,0.2c0,0.1,0.1,0.1,0.2,0.1c0.2,0,0.4,0,0.6-0.1
					c-0.1,0.1-0.2,0.1-0.3,0.2c-0.1,0.1-0.2,0.2-0.1,0.3c0.1,0.1,0.2,0,0.2,0C130.8,218.2,131.2,217.9,131.5,217.6"/>
			</g>
			<g>
				<path class="st9" d="M132.6,212.7c-0.1,0-0.1,0.1,0,0.2c0.1,0,0.1,0,0.2,0c0.1,0,0.1-0.1,0.1-0.2c0.2-0.4,0.4-0.8,0.5-1.2
					c0-0.1,0-0.2-0.1-0.3c-0.1-0.1-0.2,0-0.3,0c-0.3,0.2-0.5,0.5-0.5,0.8c0.1-0.3,0.1-0.5,0-0.8c0-0.1-0.1-0.2-0.2-0.2
					c-0.1,0-0.1,0.1-0.2,0.2c-0.1,0.3-0.1,0.6,0,0.8c0-0.3-0.2-0.6-0.4-0.7c-0.1,0-0.2-0.1-0.2,0c-0.1,0-0.1,0.1-0.1,0.2
					c0,0.1,0,0.1,0.1,0.2c0.3,0.4,0.6,0.8,1.1,1.1"/>
			</g>
			<g>
				<path class="st9" d="M129.8,211.7c-0.1,0.1,0,0.2,0.1,0.2c0.1,0,0.2,0,0.2-0.1c0.1-0.1,0.1-0.2,0.1-0.3c0.1-0.5,0.1-1-0.1-1.6
					c0-0.1-0.1-0.2-0.2-0.3c-0.1,0-0.2,0.1-0.3,0.2c-0.2,0.3-0.3,0.8-0.1,1.1c0-0.3-0.2-0.6-0.4-0.9c-0.1-0.1-0.2-0.2-0.3-0.1
					c-0.1,0.1-0.1,0.2-0.1,0.3c0.1,0.3,0.2,0.7,0.4,0.9c-0.2-0.3-0.5-0.5-0.9-0.5c-0.1,0-0.2,0-0.3,0.1c-0.1,0.1,0,0.2,0,0.2
					c0,0.1,0.1,0.1,0.2,0.2c0.5,0.3,1.2,0.6,1.8,0.7"/>
			</g>
		</g>
		<g>
			<g>
				<path class="st1" d="M185.5,203.3c0,0-0.1,0-0.4,0c-0.3,0-0.7,0-1.2,0c-1.1,0.1-2.7,0.4-4.6,1.2c-3.8,1.7-8.3,6.4-11.3,13.6l0,0
					l0,0c-6,12.5-14.3,29.9-24,50.2l-0.1,0.2l-0.2,0c-12.1,0.2-25.4,0.5-39.4,0.7l0.3-0.2c-1.6,4.1-3.4,8.4-5.1,12.8
					c-0.5,1.3-1.1,2.7-1.6,4l-0.2-0.4c20.4,4.7,39.5,9.1,56.2,12.9l-0.1,0c2.5-0.6,4.9-1.7,6.8-3.4c0.9-0.8,1.7-1.8,2.3-2.9
					c0.6-1.1,1.3-2.1,1.9-3.2c2.4-4.2,4.7-8.2,6.9-12c4.3-7.6,8-14.2,11.1-19.6c3.1-5.4,5.5-9.7,7.2-12.7c0.8-1.4,1.5-2.6,1.9-3.3
					c0.2-0.4,0.4-0.6,0.5-0.9c0.1-0.2,0.2-0.3,0.2-0.3c0,0,0,0.1-0.1,0.3c-0.1,0.2-0.3,0.5-0.5,0.9c-0.4,0.8-1,1.9-1.8,3.4
					c-1.6,3-4,7.3-7.1,12.7c-3.1,5.5-6.8,12.1-11,19.7c-2.1,3.8-4.4,7.8-6.8,12c-0.6,1.1-1.2,2.1-1.9,3.2c-0.6,1.1-1.4,2.2-2.4,3
					c-1.9,1.8-4.4,2.9-7,3.5l-0.1,0l-0.1,0c-16.7-3.8-35.8-8.2-56.2-12.9l-0.4-0.1l0.1-0.3c0.5-1.3,1.1-2.6,1.6-4
					c1.7-4.4,3.5-8.7,5.1-12.8l0.1-0.2l0.2,0c14-0.2,27.3-0.5,39.4-0.7l-0.3,0.2c9.8-20.3,18.1-37.6,24.2-50.1l0,0
					c3-7.2,7.6-11.9,11.5-13.6c1.9-0.8,3.6-1.1,4.7-1.1c0.5,0,0.9,0,1.2,0C185.4,203.2,185.5,203.3,185.5,203.3z"/>
			</g>
		</g>
	</g>
	<g>
		<g>
			<path class="st1" d="M165.5,308.3c-5.7-6.8-14.3-12-23.2-11.5c-6.6,0.4-15.2,3.5-20.7,6.6c-15.7,8.9-12.7,29.1-12.7,29.1l17,107
				l31.5-4.1l-3.4-102.8l17.5-13.3L165.5,308.3z"/>
		</g>
		<g>
			<g>
				<path class="st10" d="M171.9,319c0,0-0.1,0.1-0.3,0.3c-0.2,0.2-0.5,0.5-0.9,0.8c-0.9,0.7-2,1.7-3.5,3c-3.1,2.6-7.6,6.4-13,10.9
					l0.1-0.2c0.5,10.2,1,23.3,1.4,37.6c0.5,16.8,1,32,1.3,43c0.2,5.5,0.3,9.9,0.4,13c0,1.5,0.1,2.7,0.1,3.5c0,0.4,0,0.7,0,0.9
					c0,0.2,0,0.3,0,0.3c0,0,0-0.1,0-0.3c0-0.2,0-0.5-0.1-0.9c-0.1-0.9-0.1-2-0.2-3.5c-0.1-3.1-0.4-7.6-0.6-13c-0.5-11-1-26.2-1.5-43
					c-0.4-14.3-0.9-27.4-1.3-37.6l0-0.1l0.1-0.1c5.5-4.5,10-8.2,13.2-10.7c1.5-1.2,2.8-2.2,3.6-2.9c0.4-0.3,0.7-0.6,1-0.7
					C171.8,319,171.9,319,171.9,319z"/>
			</g>
		</g>
		<g>
			<g>
				<path class="st10" d="M157.4,430.4c0,0,0,0.1,0,0.3c0,0.2,0,0.6,0,0.9c0,0.9,0,2.1,0.1,3.7l0,0.1l-0.1,0
					c-6,0.8-17.1,2.3-31.5,4.2l-0.3,0l0-0.3c-2-12.6-4.4-27.7-7-44c-3.5-22.2-6.6-42.2-8.9-56.8c-1.3-7.3-0.8-13.3,0-17.4
					c0.4-2,0.9-3.6,1.3-4.6c0.4-1,0.8-1.5,0.8-1.5c0,0,0,0.1-0.2,0.4c-0.1,0.3-0.3,0.6-0.5,1.1c-0.4,1-0.8,2.5-1.2,4.6
					c-0.7,4-1.1,10,0.2,17.3c2.3,14.5,5.6,34.6,9.1,56.7c2.6,16.3,5,31.4,6.9,44l-0.3-0.2c14.4-1.8,25.5-3.2,31.5-3.9l-0.1,0.1
					c0-1.6,0-2.8,0.1-3.7c0-0.4,0-0.7,0-0.9C157.4,430.6,157.4,430.4,157.4,430.4z"/>
			</g>
		</g>
		<g>
			<g>
				<path class="st10" d="M147.8,316.2c0.1,0,0.7,0.7,1.5,2.1c0.8,1.4,1.8,3.4,2.6,5.7c0.7,2.4,1.1,4.6,1.2,6.2c0.1,1.6,0,2.6,0,2.6
					c-0.2,0-0.3-4-1.7-8.6C149.9,319.6,147.6,316.3,147.8,316.2z"/>
			</g>
		</g>
	</g>
	<g>
		<g>
			<g>
				<g>
					<g>
						<g>
							<path class="st2" d="M164.3,199.3c2.4-2.4,1-3.8,0.1-6.1l-16.9-50.5c-7.3-16.6-28.9-6.7-28.9-6.7c-10.2,3.7-11.6,15.2-9.3,23
								c2.6,8.7,6.1,19.1,9.5,25.1c6.7,12,17.1,10,17.1,10l4.3,11.5c1.5,4.1,6.4,5.7,10,3.2L164.3,199.3z"/>
						</g>
					</g>
				</g>
				<g>
					<g>
						<g>
							<g>
								<g>
									<g>
										<path class="st1" d="M115.3,167.4c0.3,0.9,1.3,1.3,2.2,1.1c0.9-0.3,1.4-1.2,1.1-2.1c-0.3-0.9-1.3-1.3-2.2-1.1
											C115.5,165.6,115,166.5,115.3,167.4z"/>
									</g>
								</g>
							</g>
						</g>
					</g>
					<g>
						<g>
							<g>
								<g>
									<g>
										<g>
											<path class="st1" d="M113.8,165.2c0.3,0.1,1.2-1.2,2.9-1.9c1.7-0.7,3.4-0.2,3.5-0.5c0.1-0.1-0.3-0.4-1-0.6
												c-0.7-0.2-1.8-0.2-2.9,0.2c-1.1,0.4-1.9,1.2-2.2,1.8C113.7,164.7,113.7,165.2,113.8,165.2z"/>
										</g>
									</g>
								</g>
							</g>
						</g>
					</g>
				</g>
				<g>
					<g>
						<g>
							<g>
								<g>
									<g>
										<path class="st1" d="M131.7,162.2c0.3,0.9,1.3,1.3,2.2,1.1c0.9-0.3,1.4-1.2,1.1-2.1c-0.3-0.9-1.3-1.3-2.2-1.1
											C131.9,160.3,131.4,161.3,131.7,162.2z"/>
									</g>
								</g>
							</g>
						</g>
					</g>
					<g>
						<g>
							<g>
								<g>
									<g>
										<g>
											<path class="st1" d="M131,158.8c0.3,0.1,1.2-1.2,2.9-1.9c1.7-0.7,3.4-0.2,3.5-0.5c0.1-0.1-0.3-0.4-1-0.6
												c-0.7-0.2-1.8-0.2-2.9,0.2c-1.1,0.4-1.9,1.2-2.2,1.8C130.9,158.3,130.9,158.8,131,158.8z"/>
										</g>
									</g>
								</g>
							</g>
						</g>
					</g>
				</g>
				<g>
					<g>
						<g>
							<g>
								<g>
									<g>
										<path class="st1" d="M129.9,174.2c0-0.1-1.2,0.1-3,0.5c-0.5,0.1-0.9,0.2-1.1-0.1c-0.2-0.3-0.2-0.8-0.2-1.4
											c0-1.2,0-2.5,0.1-3.9c0-5.5-0.1-10-0.3-10c-0.2,0-0.4,4.5-0.5,10c0,1.4,0,2.7,0,3.9c0,0.6-0.1,1.3,0.4,1.8
											c0.2,0.3,0.7,0.4,1,0.4c0.3,0,0.6-0.1,0.8-0.2C128.8,174.7,130,174.3,129.9,174.2z"/>
									</g>
								</g>
							</g>
						</g>
					</g>
				</g>
				<g>
					<g>
						<g>
							<g>
								<g>
									<path class="st6" d="M135.9,194c0,0,8.8-2.6,15.3-10.9c0,0-0.9,10.3-14,13.8L135.9,194z"/>
								</g>
							</g>
						</g>
					</g>
				</g>
				<g>
					<g>
						<path class="st6" d="M132.9,180c-0.5-0.4-0.8-1.1-0.6-1.8c0.2-0.6,0.8-1.1,1.4-1.2c-0.3-0.6-0.1-1.3,0.4-1.7
							c0.5-0.4,1.2-0.5,1.8-0.3c1.2,0.3,2.1,1.6,2,2.8c0,1.3-1,2.4-2.2,2.8c-1.2,0.4-2.6,0-3.5-0.9"/>
					</g>
				</g>
				<g>
					<g>
						<g>
							<g>
								<g>
									<g>
										<path class="st1" d="M135.5,173.5c-0.3,0.1,0.4,2-0.7,3.9c-1.1,2-3.2,2.5-3.1,2.8c0,0.1,0.6,0.2,1.5-0.1
											c0.9-0.3,2-1,2.7-2.2c0.7-1.2,0.7-2.5,0.5-3.3C136,173.9,135.7,173.5,135.5,173.5z"/>
									</g>
								</g>
							</g>
						</g>
					</g>
				</g>
				<g>
					<g>
						<g>
							<g>
								<g>
									<path class="st1" d="M128.4,156.3c0.3,0.4,2-0.5,4.2-1c2.1-0.6,4-0.6,4.1-1.1c0-0.2-0.4-0.6-1.3-0.8
										c-0.8-0.2-2.1-0.3-3.3,0.1c-1.3,0.3-2.3,0.9-3,1.5C128.4,155.6,128.2,156.1,128.4,156.3z"/>
								</g>
							</g>
						</g>
					</g>
				</g>
				<g>
					<g>
						<g>
							<g>
								<g>
									<path class="st1" d="M111.4,159.7c0.5,0.3,1.5-0.6,3-1.1c1.4-0.6,2.8-0.7,2.9-1.2c0-0.2-0.3-0.6-1-0.8
										c-0.7-0.2-1.7-0.2-2.7,0.2c-1,0.4-1.7,1.1-2.1,1.7C111.2,159.1,111.2,159.5,111.4,159.7z"/>
								</g>
							</g>
						</g>
					</g>
				</g>
			</g>
		</g>
		<g>
			<g>
				<g>
					
						<ellipse transform="matrix(2.523438e-02 -0.9997 0.9997 2.523438e-02 -28.6094 297.2358)" class="st1" cx="138.1" cy="163.3" rx="0.4" ry="0.4"/>
				</g>
			</g>
		</g>
		<g>
			<g>
				<path class="st1" d="M172.4,195.1l8.3,1.8c0,0-0.4-3-0.4-3c0,0-0.9-13-11.2-22.2c-10.4-9.3,3.7-12.9-5.3-25.1
					c-3-4-6.3-7.7-10.6-10.4c-0.8-0.5-1.5-1-2.1-1.6c-1.8-1.6-3.3-3.4-5.2-4.7c-1.4-1-3.2-1.8-4.9-1.8c0,0,0,0,0,0
					c-1-0.4-2.1-0.8-3.3-0.9c-5.1-0.8-10.1,1.3-14.8,3.3c-4.6,1.9-16.8,1.5-13,14c0,0,0,0,0,0c0.8-2.1,3.9-3.8,6.4-1.8
					c1.7,1.4,2.6,2.7,3,4.9c0.5,2.9,1.4,6.2,4.9,6.9c0.9,0.2,1.8,0.2,2.6,0c3-0.7,5.3-5.1,11-4.1c0,0,5.5,1.7,5.8,5.2
					c0.3,3.5-1.6,9.9,1.8,12.9c3.4,3.1,4,3,3.9,5.6c0,0.6,0,1-0.1,1.3c-0.4,4.2,0.4,24.4,17,18C166.2,193.5,172.4,195.1,172.4,195.1
					"/>
			</g>
		</g>
	</g>
	<g>
		<g>
			<path class="st1" d="M165.3,195.1c0,0,0.1,0.1,0.2,0.3c0.1,0.2,0.2,0.5,0.2,1c0,0.4,0,1-0.3,1.6c-0.3,0.6-0.7,1.2-1.3,1.7
				c-1.1,1-2.5,2.2-4.2,3.4c-1.7,1.1-3.5,2.3-5.5,3.6c-1,0.6-1.9,1.3-2.9,1.8c-1,0.5-2,0.9-3,1.1c-1,0.3-1.9,0.5-2.8,0.6
				c-1,0.1-1.9-0.2-2.5-0.7c-1.3-0.8-2.1-1.9-2.5-2.7c-0.4-0.8-0.5-1.3-0.4-1.3c0.1,0,0.2,0.4,0.6,1.1c0.5,0.7,1.2,1.7,2.5,2.4
				c0.6,0.4,1.4,0.6,2.2,0.5c0.9-0.1,1.8-0.3,2.7-0.6c1-0.3,1.9-0.7,2.9-1.1c1-0.5,1.9-1.1,2.9-1.7c1.9-1.3,3.8-2.5,5.5-3.6
				c1.7-1.1,3.1-2.2,4.2-3.2c1.2-0.9,1.6-2.1,1.6-2.9C165.4,195.6,165.2,195.2,165.3,195.1z"/>
		</g>
	</g>
</g>
<g>
	<g>
		<g>
			<g>
				<g>
					<g>
						<path class="st11" d="M394.7,392.5c1.3-4.3,3.9-8.5,8.1-10.3c4.3-1.9,9.3-0.8,13.7,0.8c4.4,1.6,8.7,3.7,13.4,4
							c4.7,0.3,10-1.9,11.4-6.4c1.3-4.2-1.2-8.7-4.4-11.8c-6.7-6.4-16.7-9.2-25.7-7c-9,2.2-16.7,9.2-19.8,17.9"/>
					</g>
				</g>
			</g>
		</g>
	</g>
	<g>
		<g class="st12">
			<g>
				<g>
					<g>
						<g>
							<g>
								<path d="M394.7,392.5c1.3-4.3,3.9-8.5,8.1-10.3c4.3-1.9,9.3-0.8,13.7,0.8c4.4,1.6,8.7,3.7,13.4,4c4.7,0.3,10-1.9,11.4-6.4
									c1.3-4.2-1.2-8.7-4.4-11.8c-6.7-6.4-16.7-9.2-25.7-7c-9,2.2-16.7,9.2-19.8,17.9"/>
							</g>
						</g>
					</g>
				</g>
			</g>
		</g>
		<g>
			<g>
				<g>
					<g>
						<g>
							<path class="st13" d="M357.6,411.3c-6.9-6.5-6.5-17.9-3.1-26.7c3.4-8.8,10.9-15.6,19.3-20.1c16.2-8.7,36.5-9.3,53.2-1.7
								c-8.2,0.3-16.2,4.9-20.4,12c-3.8,6.3-4.6,13.8-7.7,20.5c-3.5,7.4-9.8,13.3-17.4,16.3C373.8,414.4,365.1,414.4,357.6,411.3"/>
						</g>
					</g>
				</g>
			</g>
		</g>
		<g>
			<g>
				<g>
					<g>
						<g>
							<path class="st13" d="M354.3,372.1c-7.6-9-8.6-23.4-7.5-35.1c1.1-11.7,3.8-23.5,2-35.1c-1.1-6.9-3.8-13.5-4.7-20.4
								c-0.9-6.9,0.4-14.7,5.7-19.2c6.2-5.1,15.9-3.9,22.3,0.9c6.4,4.8,10.1,12.4,12.8,19.9c6,16.6,8.1,35,3.3,51.9
								c-4.9,16.9-16.4,32-33.2,37.2"/>
						</g>
					</g>
				</g>
			</g>
		</g>
		<g>
			<g>
				<g>
					<g>
						<g>
							<g>
								<path class="st1" d="M350.6,445.8c0,0,0-0.4,0-1c0-0.7,0-1.7,0.1-3c0.1-2.6,0.3-6.3,0.9-10.9c0.6-4.6,1.5-10,2.9-15.9
									c1.4-5.9,3.8-12.3,7.3-18.4c3.4-6.2,7.6-11.5,11.9-15.9c4.3-4.4,8.6-7.8,12.5-10.4c1.9-1.3,3.7-2.3,5.3-3.2
									c1.6-0.9,3-1.6,4.2-2.1c1.1-0.5,2.1-0.9,2.7-1.2c0.6-0.3,1-0.4,1-0.4c0,0-0.3,0.2-0.9,0.5c-0.7,0.3-1.6,0.7-2.7,1.3
									c-1.1,0.6-2.5,1.3-4.1,2.2c-1.6,0.9-3.4,2-5.2,3.3c-3.8,2.6-8.1,6-12.3,10.4c-4.2,4.4-8.3,9.7-11.7,15.8
									c-7,12.2-8.9,25.1-10.3,34.1c-0.6,4.6-0.9,8.3-1.1,10.8c-0.1,1.2-0.1,2.2-0.2,3C350.7,445.4,350.7,445.8,350.6,445.8z"/>
							</g>
						</g>
					</g>
				</g>
			</g>
		</g>
		<g>
			<g>
				<g>
					<g>
						<g>
							<g>
								<path class="st11" d="M285,336.7c-14.1,8.5-14,16.2-11.7,23.5c2.4,7.3,11,12.4,18.2,9.6c4.1-1.5,7-5.1,9.5-8.6
									c2.5-3.5,4.9-7.3,8.4-9.9c3.5-2.5,8.6-3.5,12.1-1"/>
							</g>
						</g>
					</g>
				</g>
			</g>
			<g class="st12">
				<g>
					<g>
						<g>
							<g>
								<g>
									<path d="M285,336.7c-14.1,8.5-14,16.2-11.7,23.5c2.4,7.3,11,12.4,18.2,9.6c4.1-1.5,7-5.1,9.5-8.6c2.5-3.5,4.9-7.3,8.4-9.9
										c3.5-2.5,8.6-3.5,12.1-1"/>
								</g>
							</g>
						</g>
					</g>
				</g>
			</g>
			<g>
				<g>
					<g>
						<g>
							<g>
								<path class="st13" d="M274.5,346c3.7-5.1,12.8-6.6,18.5-4c5.7,2.5,10,7.6,13.7,12.6c3.8,5,7.4,10.3,12.6,13.8
									c5.2,3.5,12.5,4.8,17.7,1.2c3.4-2.3,5.4-6.3,6-10.4c0.6-4.1,0-8.2-0.8-12.3c-1.2-5.9-3.3-12.1-8-15.8
									c-5.3-4.2-12.6-4.4-19.3-4.2c-7.7,0.3-15.5,0.8-22.8,3.5C284.9,333.1,277.5,338.9,274.5,346"/>
							</g>
						</g>
					</g>
				</g>
			</g>
			<g>
				<g>
					<g>
						<g>
							<g>
								<g>
									<path class="st1" d="M338.9,434.5c0,0,0-0.1,0-0.3c0-0.2,0-0.5,0-0.9c0-0.8-0.1-2-0.1-3.5c-0.1-3.1-0.2-7.5-0.4-12.9
										c-0.2-5.4-0.4-11.9-0.8-19c-0.4-7.2-0.9-15-2-23.2c-0.6-4.1-1.2-8.1-2.3-11.8c-1.1-3.7-2.7-7.2-4.3-10.3
										c-1.7-3.2-3.5-6-5.4-8.5c-2-2.5-4-4.7-5.9-6.5c-4-3.7-7.8-5.9-10.5-7.2c-0.7-0.3-1.3-0.6-1.8-0.8c-0.5-0.2-1-0.4-1.4-0.5
										c-0.3-0.1-0.6-0.3-0.8-0.3c-0.2-0.1-0.3-0.1-0.3-0.1c0,0,0.1,0,0.3,0.1c0.2,0.1,0.5,0.2,0.9,0.3c0.4,0.1,0.9,0.3,1.4,0.5
										c0.5,0.2,1.2,0.5,1.9,0.8c2.8,1.2,6.7,3.4,10.7,7.1c2,1.8,4.1,4,6.1,6.5c2,2.5,3.8,5.4,5.5,8.6c1.7,3.2,3.2,6.7,4.4,10.4
										c1.2,3.8,1.8,7.8,2.4,11.9c1.1,8.2,1.6,16.1,2,23.3c0.4,7.2,0.5,13.6,0.6,19.1c0.1,5.4,0.2,9.8,0.2,12.9c0,1.5,0,2.6,0,3.5
										c0,0.4,0,0.7,0,0.9C339,434.4,338.9,434.5,338.9,434.5z"/>
								</g>
							</g>
						</g>
					</g>
				</g>
			</g>
		</g>
		<g>
			<g>
				<g>
					<g>
						<g>
							<g>
								<path class="st1" d="M344,440.9c0,0-0.8-2.1-1.5-6c-0.7-4-1.3-9.8-0.6-17c0.6-7.2,2.4-15.6,5.4-24.6
									c2.9-9.1,6.8-18.7,10.2-29.2c1.7-5.2,3.1-10.4,4-15.4c1-5.1,1.6-10,2-14.7c0.8-9.4,0.7-18,0.4-25.2c-0.2-7.2-0.6-13-0.9-17
									c-0.1-2-0.2-3.5-0.3-4.6c0-0.5,0-0.9-0.1-1.2c0-0.3,0-0.4,0-0.4c0,0,0,0.1,0.1,0.4c0,0.3,0.1,0.7,0.1,1.2
									c0.1,1.1,0.2,2.6,0.4,4.6c0.3,4,0.8,9.8,1.1,17c0.3,7.2,0.4,15.8-0.3,25.2c-0.4,4.7-1,9.7-2,14.8c-1,5.1-2.4,10.3-4,15.5
									c-3.4,10.4-7.3,20.1-10.2,29.1c-2.9,9-4.8,17.4-5.5,24.5c-0.7,7.1-0.2,13,0.4,16.9c0.3,2,0.7,3.5,0.9,4.5
									c0.1,0.5,0.2,0.9,0.3,1.2C344,440.7,344,440.9,344,440.9z"/>
							</g>
						</g>
					</g>
				</g>
			</g>
		</g>
		<g>
			<g>
				<g>
					<g>
						<g>
							<polygon class="st14" points="378.9,447.2 312.8,447.2 311.3,434.5 378.9,434.5 							"/>
						</g>
					</g>
				</g>
			</g>
		</g>
		<g>
			<g>
				<g>
					<g>
						<g>
							<polygon class="st14" points="319.9,445.8 328.2,484 364.1,484 371.8,445.8 							"/>
						</g>
					</g>
				</g>
			</g>
		</g>
		<g>
			<g>
				<g>
					<g>
						<g>
							<g>
								
									<ellipse transform="matrix(2.803570e-03 -1 1 2.803570e-03 -101.6785 792.3459)" class="st14" cx="346.4" cy="447.2" rx="0.3" ry="32.5"/>
							</g>
						</g>
					</g>
				</g>
			</g>
		</g>
		<g>
			<g>
				<g>
					<g>
						<g>
							<g>
								<path class="st1" d="M367.6,466.1c-0.1,0.1-2-1.8-5.8-3.3c-1.9-0.8-4.4-1.4-7.1-1.4c-2.7-0.1-5.7,0.6-8.7,1.6
									c-3,1-5.8,2.2-8.6,2.9c-2.8,0.6-5.3,0.5-7.4,0.2c-2.1-0.3-3.7-0.9-4.8-1.5c-0.5-0.3-0.9-0.5-1.1-0.7
									c-0.2-0.2-0.4-0.3-0.4-0.3c0-0.1,0.6,0.3,1.6,0.8c1.1,0.5,2.7,1,4.7,1.3c2,0.3,4.6,0.3,7.2-0.3c2.6-0.7,5.5-1.9,8.5-2.9
									c3-1,6.1-1.7,8.9-1.6c2.8,0.1,5.3,0.8,7.2,1.6c2,0.8,3.4,1.8,4.3,2.5c0.5,0.4,0.8,0.7,1,0.9
									C367.5,466,367.6,466.1,367.6,466.1z"/>
							</g>
						</g>
					</g>
				</g>
			</g>
		</g>
		<g>
			<g>
				<g>
					<g>
						<g>
							<g>
								<path class="st5" d="M367.1,468.6c-0.1,0.1-1.9-1.7-5.6-3.3c-1.8-0.8-4.2-1.4-6.8-1.4c-2.6-0.1-5.5,0.5-8.4,1.5
									c-2.9,1-5.6,2.1-8.3,2.8c-2.6,0.7-5.1,1-7.1,0.8c-2.1-0.1-3.7-0.7-4.7-1.2c-0.5-0.3-0.9-0.5-1.1-0.7
									c-0.2-0.2-0.4-0.3-0.3-0.3c0-0.1,0.5,0.3,1.6,0.8c1,0.4,2.6,0.9,4.6,1c2,0.1,4.4-0.2,6.9-0.9c2.6-0.7,5.3-1.9,8.2-2.8
									c2.9-1,5.9-1.6,8.6-1.5c2.7,0.1,5.1,0.7,7,1.6c1.9,0.8,3.2,1.8,4.1,2.5c0.4,0.4,0.8,0.7,1,0.9
									C367,468.5,367.1,468.6,367.1,468.6z"/>
							</g>
						</g>
					</g>
				</g>
			</g>
		</g>
		<g>
			<g>
				<g>
					<g>
						<g>
							<g>
								<path class="st5" d="M368.2,463.6c-0.1,0.1-2-1.8-6-3.5c-2-0.8-4.4-1.6-7.3-1.7c-2.8-0.2-5.9,0.5-9,1.6
									c-3.1,1-6,2.3-8.9,2.9c-2.9,0.5-5.5,0.4-7.6,0c-2.2-0.4-3.8-1-4.9-1.6c-0.5-0.3-0.9-0.5-1.2-0.7c-0.3-0.2-0.4-0.3-0.4-0.3
									c0-0.1,0.6,0.3,1.7,0.8c1.1,0.5,2.8,1,4.9,1.3c2.1,0.3,4.7,0.4,7.5-0.1c2.7-0.6,5.6-1.9,8.8-2.9c3.1-1.1,6.3-1.8,9.2-1.6
									c2.9,0.2,5.4,1,7.4,1.9c2,0.9,3.5,1.9,4.4,2.7c0.5,0.4,0.8,0.7,1.1,0.9C368.1,463.4,368.2,463.5,368.2,463.6z"/>
							</g>
						</g>
					</g>
				</g>
			</g>
		</g>
	</g>
	<g>
		<g>
			<g>
				<g>
					<g>
						<g>
							<ellipse class="st1" cx="346.3" cy="447.3" rx="33.2" ry="0.3"/>
						</g>
					</g>
				</g>
			</g>
		</g>
	</g>
</g>
</svg>
