<svg id="Layer_1" data-name="Layer 1" xmlns="http://www.w3.org/2000/svg" viewBox="0 0 735.96 551.48"><defs><style>.cls-1{fill:#e3eef7;}.cls-2{fill:#c0d4e0;}.cls-3{fill:#002c3d;}.cls-4{fill:#5793ce;}.cls-5{fill:#00ae75;}.cls-6{fill:#009367;}.cls-7{fill:#003e51;}.cls-8{fill:#007d27;}.cls-9{fill:#0065c1;}.cls-10{fill:#f25f68;}.cls-11{fill:#050545;}.cls-12{fill:#fff;}.cls-13{fill:#ffd3c1;}.cls-14{fill:#ff5449;}.cls-15{fill:#173d7a;}.cls-16{fill:#ffb49c;}.cls-17{fill:#ffa889;}.cls-18{fill:#ff2b25;}.cls-19{fill:#1d4c91;}.cls-20{fill:#286ae0;}</style></defs><title>sass-content-12-2</title><rect class="cls-1" x="140.2" y="118.17" width="102.01" height="135.97"/><rect class="cls-1" x="27.73" y="118.17" width="102.01" height="135.97"/><rect class="cls-1" x="140.2" y="261.45" width="102.01" height="135.97"/><rect class="cls-1" x="27.73" y="261.45" width="102.01" height="135.97"/><path class="cls-2" d="M175.15,160.89a14.36,14.36,0,0,0,2.56,4.23c1.11,1.25,2.22,2.53,3.31,3.82s2.63-.35,2.09-1.61c-1.24-2.91-2.92-6.46-5.76-8.13a1.51,1.51,0,0,0-2.2,1.69Z" transform="translate(-27.04 -37.12)"/><path class="cls-2" d="M170.41,178.39c.67,3.07,2.8,5.89,4.4,8.54a1.34,1.34,0,0,0,2.43-1c-.77-3.11-1.84-6.77-4.33-9a1.51,1.51,0,0,0-2.5,1.46Z" transform="translate(-27.04 -37.12)"/><path class="cls-2" d="M169.45,161.58c2.92,5.63,6.19,11.05,8.72,16.88s4,12,6.27,17.94c.66,1.71,3.58,1.67,3.45-.47-.73-12.61-7.55-27-16.06-36.19-1.21-1.31-3.16.36-2.39,1.84Z" transform="translate(-27.04 -37.12)"/><path class="cls-2" d="M63.94,160.89a14.37,14.37,0,0,0,2.56,4.23c1.11,1.25,2.22,2.53,3.31,3.82s2.63-.35,2.09-1.61c-1.24-2.91-2.92-6.46-5.76-8.13a1.51,1.51,0,0,0-2.2,1.69Z" transform="translate(-27.04 -37.12)"/><path class="cls-2" d="M59.2,178.39c.67,3.07,2.8,5.89,4.4,8.54a1.34,1.34,0,0,0,2.43-1c-.77-3.11-1.84-6.77-4.33-9a1.51,1.51,0,0,0-2.5,1.46Z" transform="translate(-27.04 -37.12)"/><path class="cls-2" d="M58.24,161.58c2.92,5.63,6.19,11.05,8.72,16.88s4,12,6.27,17.94c.66,1.71,3.58,1.67,3.45-.47-.73-12.61-7.55-27-16.06-36.19-1.21-1.31-3.16.36-2.39,1.84Z" transform="translate(-27.04 -37.12)"/><path class="cls-2" d="M175.15,307.2a14.36,14.36,0,0,0,2.56,4.23c1.11,1.25,2.22,2.53,3.31,3.82s2.63-.35,2.09-1.61c-1.24-2.91-2.92-6.46-5.76-8.13a1.51,1.51,0,0,0-2.2,1.69Z" transform="translate(-27.04 -37.12)"/><path class="cls-2" d="M170.41,324.7c.67,3.07,2.8,5.89,4.4,8.54a1.34,1.34,0,0,0,2.43-1c-.77-3.11-1.84-6.77-4.33-9a1.51,1.51,0,0,0-2.5,1.46Z" transform="translate(-27.04 -37.12)"/><path class="cls-2" d="M169.45,307.89c2.92,5.63,6.19,11.05,8.72,16.88s4,12,6.27,17.94c.66,1.71,3.58,1.67,3.45-.47-.73-12.61-7.55-27-16.06-36.19-1.21-1.31-3.16.36-2.39,1.84Z" transform="translate(-27.04 -37.12)"/><path class="cls-2" d="M63.94,307.2a14.37,14.37,0,0,0,2.56,4.23c1.11,1.25,2.22,2.53,3.31,3.82s2.63-.35,2.09-1.61c-1.24-2.91-2.92-6.46-5.76-8.13a1.51,1.51,0,0,0-2.2,1.69Z" transform="translate(-27.04 -37.12)"/><path class="cls-2" d="M59.2,324.7c.67,3.07,2.8,5.89,4.4,8.54a1.34,1.34,0,0,0,2.43-1c-.77-3.11-1.84-6.77-4.33-9a1.51,1.51,0,0,0-2.5,1.46Z" transform="translate(-27.04 -37.12)"/><path class="cls-2" d="M58.24,307.89c2.92,5.63,6.19,11.05,8.72,16.88s4,12,6.27,17.94c.66,1.71,3.58,1.67,3.45-.47-.73-12.61-7.55-27-16.06-36.19-1.21-1.31-3.16.36-2.39,1.84Z" transform="translate(-27.04 -37.12)"/><path class="cls-3" d="M342.83,438.69s-15.31,22.29,0,26.32,74,8.5,51.67-16.39S342.83,438.69,342.83,438.69Z" transform="translate(-27.04 -37.12)"/><path class="cls-3" d="M375.77,572.58c-5-4.4-3-112.62-3-112.62H355.34s2,108.22-3,112.62-49.07-16.18-49.07,14.5H424.83C424.83,556.39,380.75,577,375.77,572.58Z" transform="translate(-27.04 -37.12)"/><path class="cls-4" d="M329.13,157.78C254,153.84,229.8,171.9,221.53,192.2s49.16,237.45,73.76,246,82.55-15,89.46-26S382.28,160.57,329.13,157.78Z" transform="translate(-27.04 -37.12)"/><path class="cls-4" d="M448.95,450.35c9.19-29.65.49-41.83-11-47.92s-107.84,10.48-122.8,14.8c-11,3.18-28.62,10-26.35,17C295.29,454.31,442.45,471.32,448.95,450.35Z" transform="translate(-27.04 -37.12)"/><path class="cls-2" d="M291.83,430.11c2.41-.41,4.77-3,6.91-4.17a31.25,31.25,0,0,1,4.39-2c1.16-.43,1.57-.43,2.17-1.48a.52.52,0,0,0-.18-.7c-2.17-1-5.58,1.3-7.42,2.38-2.09,1.22-5.58,3.17-6.14,5.69a.23.23,0,0,0,.28.28Z" transform="translate(-27.04 -37.12)"/><path class="cls-5" d="M657.11,492.49a69.24,69.24,0,0,1,1.43-21.76c2.31-11.31,6.31-22.46,13.29-31.66,2.11-2.78,4.49-5.39,6.06-8.5,5.76-11.35-.7-24.79-1.5-37.49A42.19,42.19,0,0,1,690.78,359c4.16-3.57,9.09-6.39,12.25-10.86,6.35-9,3.65-21.12,3.49-32.11-.09-6,1-12.53,5.55-16.35a16.76,16.76,0,0,1,10.14-3.41,28.83,28.83,0,0,1,22.51,9.86,31,31,0,0,1,7.16,23.63c-1.22,10.41-7.55,20.14-6.56,30.57.74,7.79,5.48,14.62,7.39,22.22a31.57,31.57,0,0,1-3.59,23.76c-3.19,5.26-7.88,9.48-11.1,14.73-8.15,13.26-6.22,31.7-16.81,43.11-6.26,6.75-15.81,9.67-22.13,16.36-7.52,7.95-9.16,19.62-10.43,30.49L659.8,535.75c3.62-6.45,3.48-14.36,2.09-21.62S658,499.83,657.11,492.49Z" transform="translate(-27.04 -37.12)"/><path class="cls-5" d="M682.51,507.89a69.23,69.23,0,0,0,1.5-21.76c-.77-11.52-3.24-23.1-8.92-33.15-1.71-3-3.72-5.94-4.87-9.24-4.18-12,4-24.47,6.52-36.95a42.19,42.19,0,0,0-9.68-35.72c-3.64-4.1-8.15-7.55-10.69-12.41-5.09-9.74-.78-21.42.85-32.29.88-5.89.71-12.55-3.31-16.95a16.76,16.76,0,0,0-9.59-4.74,28.83,28.83,0,0,0-23.63,6.75,31,31,0,0,0-10.27,22.45c-.19,10.48,4.78,21,2.39,31.18-1.78,7.62-7.4,13.75-10.3,21a31.57,31.57,0,0,0,.36,24c2.46,5.64,6.53,10.46,9,16.08,6.3,14.24,1.91,32.25,10.87,45,5.29,7.53,14.36,11.71,19.74,19.18C648.9,499.24,649,511,648.76,522L674,550.4c-2.73-6.87-1.52-14.7.83-21.7S680.67,515.05,682.51,507.89Z" transform="translate(-27.04 -37.12)"/><path class="cls-6" d="M653,474.31a69.24,69.24,0,0,1-4.29-21.38c-.72-11.52.24-23.33,4.57-34,1.31-3.23,2.93-6.37,3.64-9.79,2.6-12.46-7.14-23.75-11.22-35.8a42.19,42.19,0,0,1,5-36.67c3.08-4.53,7.11-8.54,9-13.68,3.79-10.31-2-21.35-5-31.91-1.64-5.73-2.32-12.35,1.1-17.23a16.76,16.76,0,0,1,8.9-5.94,28.83,28.83,0,0,1,24.3,3.65,31,31,0,0,1,13.07,20.94c1.54,10.37-2,21.41,1.64,31.23,2.75,7.33,9.11,12.69,12.92,19.52a31.57,31.57,0,0,1,2.73,23.87c-1.71,5.91-5.13,11.21-6.88,17.11-4.41,14.93,2.26,32.22-5,46-4.28,8.15-12.74,13.46-17.1,21.56-5.19,9.63-3.72,21.33-2.12,32.16l-21.4,31.45c1.82-7.17-.38-14.77-3.62-21.42S655.74,481.17,653,474.31Z" transform="translate(-27.04 -37.12)"/><path class="cls-6" d="M665.23,534.69a69.24,69.24,0,0,0-1.43-21.76c-2.31-11.31-6.31-22.46-13.29-31.66-2.11-2.78-4.49-5.39-6.06-8.5-5.76-11.35.7-24.79,1.5-37.49a42.19,42.19,0,0,0-14.38-34.09c-4.16-3.57-9.09-6.39-12.26-10.86-6.35-9-3.65-21.12-3.49-32.11.09-6-1-12.53-5.55-16.35a16.77,16.77,0,0,0-10.14-3.41,28.83,28.83,0,0,0-22.51,9.86,31,31,0,0,0-7.16,23.63c1.22,10.41,7.55,20.14,6.56,30.57-.74,7.79-5.48,14.62-7.39,22.22a31.57,31.57,0,0,0,3.59,23.76c3.19,5.26,7.88,9.48,11.1,14.73,8.15,13.26,6.22,31.7,16.81,43.11,6.26,6.75,15.81,9.67,22.13,16.36,7.52,7.95,9.16,19.62,10.43,30.49L662.54,578c-3.62-6.44-3.48-14.36-2.09-21.62S664.38,542,665.23,534.69Z" transform="translate(-27.04 -37.12)"/><polygon class="cls-7" points="580.94 549.08 654.17 549.08 666.51 459.14 566.54 459.14 580.94 549.08"/><rect class="cls-3" x="589.57" y="486.48" width="107.99" height="14.98" transform="translate(1260.1 950.83) rotate(180)"/><path class="cls-8" d="M618.56,483.14c-9-19.05-16.69-38.32-22-58.76s-6.12-40.53-7.45-61.38c-.08-1.25-2-1.68-2.31-.31-4.23,20-.33,42.14,5.07,61.56,5.75,20.72,14.88,40.9,25.27,59.7.51.92,1.83.11,1.4-.82Z" transform="translate(-27.04 -37.12)"/><path class="cls-8" d="M674,482c-1.25-8.13-3.06-16-3.19-24.3a116.65,116.65,0,0,1,2.66-24.28c2.94-15,7.87-29.52,10.75-44.54,5.52-28.79,3.37-58.53-4.48-86.69-.78-2.8-5-1.63-4.35,1.2,7.8,32,9.18,62.91,2.07,95.13-5.81,26.34-14.9,57.37-4.85,83.85A.73.73,0,0,0,674,482Z" transform="translate(-27.04 -37.12)"/><path class="cls-8" d="M725.72,308.49c-1.35,13.09,1.36,27.27,2,40.44.61,13.45.73,27-.7,40.39-1.56,14.59-3.51,29.59-11,42.43-7,12-15.2,23.56-21.06,36.14-.33.71.59,1.61,1.18.91a242.11,242.11,0,0,0,25.49-37.07c6.22-11.12,8.17-24.1,9.12-36.66a344.35,344.35,0,0,0,.24-43.24c-.71-14-.64-29.93-4.73-43.4a.25.25,0,0,0-.49.07Z" transform="translate(-27.04 -37.12)"/><path class="cls-8" d="M637.16,312.08c-.1,18.9-6.19,37.06-6.34,55.86-.15,17.67,8.74,33,13.14,49.77a1.27,1.27,0,0,0,2.47-.33c.75-8.07-2.22-15-5.08-22.4-3.61-9.31-6-18.26-6.05-28.34-.16-18.21,4.72-36.36,3.15-54.54a.64.64,0,0,0-1.28,0Z" transform="translate(-27.04 -37.12)"/><circle class="cls-9" cx="639.8" cy="56.34" r="51.6"/><circle class="cls-10" cx="639.8" cy="56.34" r="45.42"/><rect class="cls-11" x="638.28" y="19.89" width="3.04" height="36.45"/><rect class="cls-11" x="597.86" y="54.82" width="41.94" height="3.04"/><circle class="cls-12" cx="639.8" cy="56.34" r="4.22"/><path class="cls-3" d="M761.48,588.6H28.56a1.52,1.52,0,1,1,0-3H761.48a1.52,1.52,0,1,1,0,3Z" transform="translate(-27.04 -37.12)"/><rect class="cls-3" x="424.32" y="305.32" width="14.49" height="6.51"/><polygon class="cls-3" points="491.86 300.61 477.37 300.61 479.02 294.1 493.51 294.1 491.86 300.61"/><polygon class="cls-3" points="576.27 300.61 561.78 300.61 563.43 294.1 577.92 294.1 576.27 300.61"/><rect class="cls-3" x="549.29" y="305.32" width="14.49" height="6.51"/><rect class="cls-3" x="413.57" y="299.08" width="164.35" height="9.49" rx="1" ry="1"/><path class="cls-3" d="M642.69,194.2H544.43a2.79,2.79,0,0,0-2.68,2L504.56,329.63a2.79,2.79,0,0,0,2.68,3.53h98.27a2.79,2.79,0,0,0,2.68-2l37.18-133.39A2.79,2.79,0,0,0,642.69,194.2Z" transform="translate(-27.04 -37.12)"/><ellipse class="cls-7" cx="577.7" cy="264.23" rx="12.77" ry="9.98" transform="translate(178.62 742.02) rotate(-78.73)"/><path class="cls-7" d="M640.15,200.95c-1.58,7-3.73,13.7-5,20.75a.57.57,0,0,0,1.1.3c2.6-7,3.41-13.71,4.22-21,0-.17-.26-.21-.3,0Z" transform="translate(-27.04 -37.12)"/><path class="cls-7" d="M613.38,198.81c7.15.1,14.2.69,21.36.44.61,0,.82-1,.15-1.12-7.42-1-14.13-.47-21.51.38a.15.15,0,0,0,0,.3Z" transform="translate(-27.04 -37.12)"/><path class="cls-13" d="M506.59,78.68s-5-26-3.6-27.76,6.15,9.6,6.15,9.6-1.5-19.65,1.5-20.25,3.9,20.7,3.9,20.7,6.21-24.3,9.56-23.85-3.86,25.81-3.56,25.36S531.94,40.12,535.09,41s-8.1,23.4-8.1,23.4,13.05-13.05,14.4-11.7-20.25,27.76-20.25,27.76Z" transform="translate(-27.04 -37.12)"/><path class="cls-13" d="M208,78.68s5-26,3.6-27.76-6.15,9.6-6.15,9.6S207,40.87,204,40.28s-3.9,20.7-3.9,20.7-6.21-24.3-9.56-23.85,3.86,25.81,3.56,25.36S182.67,40.12,179.52,41s8.1,23.4,8.1,23.4-13.05-13.05-14.4-11.7,20.25,27.76,20.25,27.76Z" transform="translate(-27.04 -37.12)"/><path class="cls-14" d="M331.51,192c-40.25,16.06-104.32-74-121.86-117.85a20.56,20.56,0,0,0-18.34,4.49S224.74,196.83,310.1,250Z" transform="translate(-27.04 -37.12)"/><path id="_Path_" data-name="&lt;Path&gt;" class="cls-14" d="M338.89,186.88c3-2.3,11.58-4.89,12.73-4.54,1.07-.56,9.93.39,13.35,2.08,20.82,10.31,51.91,15.21,53.68,33.72,0,0,.85,13.3-9.49,14.28l-52.36,4.94-52.36,4.94c-10.34,1-12-12.25-12-12.25C290.74,211.54,320.37,200.91,338.89,186.88Z" transform="translate(-27.04 -37.12)"/><path class="cls-4" d="M545.34,533.34c-6.51,1.37-9.06,4.77-9.65,8s-.14,12,3.35,14.13,65.71,2.57,66-6.86-28.78-14.09-34.61-14.1S553.56,531.61,545.34,533.34Z" transform="translate(-27.04 -37.12)"/><path class="cls-13" d="M540.22,510.36l5.47,24.79a6.89,6.89,0,0,0,5.8,7.6l5.49.84a6.89,6.89,0,0,0,7.9-6.26l-5.9-30" transform="translate(-27.04 -37.12)"/><path class="cls-4" d="M511.6,553.32c-6.65,0-9.85,2.8-11.09,5.81s-2.62,11.7.36,14.52,63.76,16.11,66,6.93-25.25-19.74-30.95-21S520,553.34,511.6,553.32Z" transform="translate(-27.04 -37.12)"/><path class="cls-13" d="M503.19,542.31,507,561.36a6.37,6.37,0,0,0,7.63,5l6.38-1.43a6.37,6.37,0,0,0,4.78-7.78l-6.23-24.43" transform="translate(-27.04 -37.12)"/><path class="cls-15" d="M335.21,365s-6.89,59.38,23.6,70.31c58.39,20.93,129.51,1.54,129.51,1.54L502.05,550,530,546l-2.12-90.76,10.86,69.81L567,523.59s-15.23-125.74-34.83-144.42C516.52,364.26,412,362.43,412,362.43S363.47,338.87,335.21,365Z" transform="translate(-27.04 -37.12)"/><path id="_Path_2" data-name="&lt;Path&gt;" class="cls-13" d="M355.21,201.9h0a13.83,13.83,0,0,0,13.38-14.27l-1.1-34.42-27.65.88,1.1,34.42A13.83,13.83,0,0,0,355.21,201.9Z" transform="translate(-27.04 -37.12)"/><path class="cls-13" d="M372.77,70.67l-.76,0c-3.26-5.68-8.24-9.8-14.43-9.94l-24.44-.56c-10-.23-19.26,10.58-17.69,21.37l13.81,63.06c1.54,10.63,9.36,24.62,34,25.84.49,0,1,.1,1.47.11l.65.07c14.39.33,26-11.63,26.29-26l3.86-50.05A23.4,23.4,0,0,0,372.77,70.67Z" transform="translate(-27.04 -37.12)"/><path id="_Path_3" data-name="&lt;Path&gt;" class="cls-3" d="M359.42,73.79a351.51,351.51,0,0,1-22,30.82c-7.8,9.73-9.94,18-10.56,25.69a3.14,3.14,0,0,1-6,.91c-9.86-23.76-24.49-73.79,26.91-74.39Z" transform="translate(-27.04 -37.12)"/><path id="_Path_4" data-name="&lt;Path&gt;" class="cls-13" d="M312.71,130.28c3.17,7,9.34,11,13.77,8.94a5.76,5.76,0,0,0,1.21-.75c3.38-2.71,3.93-9.24,1.07-15.52-3.17-7-9.34-11-13.77-8.94S309.53,123.32,312.71,130.28Z" transform="translate(-27.04 -37.12)"/><path class="cls-14" d="M383.42,192c40.25,16.06,104.32-74,121.86-117.85a20.56,20.56,0,0,1,18.34,4.49s-31.45,117-116.81,170.16Z" transform="translate(-27.04 -37.12)"/><path id="_Path_5" data-name="&lt;Path&gt;" class="cls-3" d="M357.26,71.66" transform="translate(-27.04 -37.12)"/><path id="_Path_6" data-name="&lt;Path&gt;" class="cls-3" d="M353.81,76.3s37,23.93,46.41,43.45c0,0,16.39-77.54-52.55-62.92Z" transform="translate(-27.04 -37.12)"/><path class="cls-14" d="M412.59,278.9c18.76-24.33-7.9-45.89-9.25-49.42l-8.53-33.62L370.15,235.2l-49.64-35.93L308.35,242l26.86,123c10.46,1.61,55.24,6.13,76.75-2.58C410.32,345.56,405.9,287.58,412.59,278.9Z" transform="translate(-27.04 -37.12)"/><path class="cls-3" d="M346.15,77.46A122.28,122.28,0,0,1,376,107.7s-1.85-24.64-7.76-38.85S348.84,64,348.84,64Z" transform="translate(-27.04 -37.12)"/><path class="cls-16" d="M367.51,123.22c-.79,4.34,0,9.61,2.61,13.18a5.07,5.07,0,0,1,1.52,2.74,21.83,21.83,0,0,1-2.45,2c-.22.29-.54.38-.62.81-.15.79,0,1.14.78,1.59,3.24,1.88,7.28-3,6.69-5.94-.42-2.07-2.15-3.5-3.47-5-2.6-2.93-2.45-5.8-3.42-9.33-.21-.76-1.47-.85-1.63,0Z" transform="translate(-27.04 -37.12)"/><path class="cls-16" d="M340.95,164.72c3.21,5.54,11.94,5.52,17.36,7a.92.92,0,0,0,.49-1.76c-3.06-1.07-6.31-1.29-9.36-2.35-2.77-1-5.06-3-8-3.54a.47.47,0,0,0-.52.68Z" transform="translate(-27.04 -37.12)"/><path class="cls-17" d="M351.54,135.71a1.15,1.15,0,0,0,0-2.3,1.15,1.15,0,0,0,0,2.3Z" transform="translate(-27.04 -37.12)"/><path class="cls-17" d="M348.47,142.26a1.43,1.43,0,0,0,0-2.85,1.43,1.43,0,0,0,0,2.85Z" transform="translate(-27.04 -37.12)"/><path class="cls-17" d="M355.15,142.1a1.27,1.27,0,0,0,0-2.53,1.27,1.27,0,0,0,0,2.53Z" transform="translate(-27.04 -37.12)"/><path class="cls-17" d="M383.81,131.12a1.25,1.25,0,0,0,0-2.5,1.25,1.25,0,0,0,0,2.5Z" transform="translate(-27.04 -37.12)"/><path class="cls-17" d="M381.9,137.14a.74.74,0,0,0-1.45-.2c-.29,1,1.47,1.29,1.45.2Z" transform="translate(-27.04 -37.12)"/><path class="cls-17" d="M386.87,137.43a1.08,1.08,0,0,0,0-2.16,1.08,1.08,0,0,0,0,2.16Z" transform="translate(-27.04 -37.12)"/><path class="cls-3" d="M357.76,108.47c-2.71-1.76-6.67.52-9.24,1.75a13.37,13.37,0,0,0-6.79,6.51c-.35.85.81,1.62,1.52,1.17,2.39-1.54,4.45-3.41,7.07-4.61s5.53-.28,7.81-2.05c.95-.74.49-2.21-.36-2.76Z" transform="translate(-27.04 -37.12)"/><path class="cls-3" d="M374.7,111.51c2,1.25,4.34,0,6.52.58,2.49.67,4.45,2.26,6.73,3.37a1,1,0,0,0,1.41-1.41c-1.3-2.65-4.1-4.37-6.82-5.27-2.43-.8-6.19-2.3-8.19,0a1.79,1.79,0,0,0,.36,2.76Z" transform="translate(-27.04 -37.12)"/><ellipse class="cls-3" cx="329.19" cy="85.82" rx="3.17" ry="4.71"/><ellipse class="cls-3" cx="350.03" cy="85.82" rx="3.17" ry="4.71"/><path class="cls-18" d="M399.17,206.68c1.33,11.81,2.69,22,10.4,31.21,10.35,12.34,7.68,28.56,1.13,42.16a1.12,1.12,0,0,0,1.93,1.13c6.12-9.51,8.88-22.6,6-33.65-1.6-6.1-5.15-9.66-9.11-14.33-6-7-6.89-18-10-26.56-.06-.17-.37-.17-.35,0Z" transform="translate(-27.04 -37.12)"/><path class="cls-19" d="M419.21,383.92c7.3,4.64,19.4,4.46,27.72,5.71,13.71,2.05,27.49,3.71,41.14,6.16,7.78,1.4,20.71,2,25.32,9.38,8.89,14.28,10.84,34.18,13.54,50.38.2,1.22,2,.7,1.86-.51-2.6-16.65-4.39-35.66-12.78-50.67-4.23-7.56-13.39-8.64-21.27-10.25C481,391.3,467,389.63,453.07,387.9c-10.92-1.36-22.81-4.4-33.81-4.16a.1.1,0,0,0,0,.18Z" transform="translate(-27.04 -37.12)"/><path class="cls-19" d="M488.64,435.41c.34-2.18-.75-4.67-2.06-6.37-.2-.27-.74-.23-.71.19.13,2.1.74,4.75,2.19,6.33a.35.35,0,0,0,.58-.15Z" transform="translate(-27.04 -37.12)"/><path class="cls-19" d="M488.49,436.28a4.83,4.83,0,0,0,3.18-3.93.5.5,0,0,0-.75-.43,11,11,0,0,0-3.27,3.26.76.76,0,0,0,.85,1.1Z" transform="translate(-27.04 -37.12)"/><path class="cls-19" d="M412.44,385.44c1.61.13,3.14.4,4.76.42,1.08,0,2.47.23,3.36-.53,1.69-1.45,1.11-4.93-.06-6.48-.34-.45-1.26-.38-1.2.32a12.5,12.5,0,0,1,.1,2.75,2.73,2.73,0,0,1-.31,1.26c-.31.39-.75.31-1.3.37-1.88.2-3.63.63-5.48,1-.56.1-.37.89.13.93Z" transform="translate(-27.04 -37.12)"/><path class="cls-18" d="M333.1,195.63c-.82,12.16,12.18,18.5,22.7,18.51,12.76,0,21.74-7.62,20.64-20.68a.65.65,0,0,0-1.31,0c-.56,6.13-1.57,11.84-7.41,15.42-4.83,3-10.93,2.94-16.32,2-9.52-1.7-13.54-7.41-18.14-15.26a.08.08,0,0,0-.15,0Z" transform="translate(-27.04 -37.12)"/><path class="cls-18" d="M311.31,250.91c8.4-5.06,14.87-18.88,15.09-28.44,0-.53-.7-.56-.86-.12-2,5.23-3.45,10.55-6.23,15.47-2.52,4.45-6.27,7.88-8.95,12.14a.69.69,0,0,0,.94.94Z" transform="translate(-27.04 -37.12)"/><path class="cls-12" d="M351.15,147.52s2.14,12.24,10.68,13.58,13.37-11.78,13.37-11.78Z" transform="translate(-27.04 -37.12)"/><circle class="cls-14" cx="296.68" cy="101.99" r="2.99"/><path class="cls-3" d="M666.38,588.6a1.52,1.52,0,0,1-1.52-1.52V354.93a1.52,1.52,0,1,1,3,0V587.08A1.52,1.52,0,0,1,666.38,588.6Z" transform="translate(-27.04 -37.12)"/><path class="cls-3" d="M580.53,588.6a1.52,1.52,0,0,1-1.52-1.52V354.93a1.52,1.52,0,0,1,3,0V587.08A1.52,1.52,0,0,1,580.53,588.6Z" transform="translate(-27.04 -37.12)"/><path class="cls-3" d="M242.63,588.6a1.52,1.52,0,0,1-1.52-1.52V354.93a1.52,1.52,0,1,1,3,0V587.08A1.52,1.52,0,0,1,242.63,588.6Z" transform="translate(-27.04 -37.12)"/><path class="cls-3" d="M156.78,588.6a1.52,1.52,0,0,1-1.52-1.52V354.93a1.52,1.52,0,0,1,3,0V587.08A1.52,1.52,0,0,1,156.78,588.6Z" transform="translate(-27.04 -37.12)"/><path class="cls-20" d="M105.8,360.91h608a6,6,0,0,0,6-6h0a6,6,0,0,0-6-6h-608a6,6,0,0,0-6,6h0A6,6,0,0,0,105.8,360.91Z" transform="translate(-27.04 -37.12)"/></svg>