<svg id="Layer_1" data-name="Layer 1" xmlns="http://www.w3.org/2000/svg" viewBox="0 0 734.01 570.11"><defs><style>.cls-1{fill:#002c3d;}.cls-2{fill:#286ae0;}.cls-3{fill:#004db2;}.cls-4{fill:#5793ce;}.cls-5{fill:#ffd3c1;}.cls-6{fill:#043c62;}.cls-7{fill:#ffcc0d;}.cls-8{fill:#fff;}.cls-9{fill:#ffb49c;}.cls-10{fill:#ffa889;}.cls-11{fill:#e79f00;}.cls-12{fill:#004c7f;}.cls-13{fill:#0065c1;}.cls-14{fill:#f25f68;}.cls-15{fill:#050545;}.cls-16{fill:#ff5449;}.cls-17{fill:#e3eef7;}.cls-18{fill:#e6e7e8;}.cls-19{fill:#173d7a;}.cls-20{fill:#e5e7ed;}.cls-21{fill:#00ae75;}.cls-22{fill:#009367;}.cls-23{fill:#004dba;}.cls-24{fill:#007d5c;}</style></defs><title>sass-content-12-3</title><path class="cls-1" d="M256.75,439s-15.27,22.23,0,26.25,73.79,8.47,51.53-16.34S256.75,439,256.75,439Z" transform="translate(-39.06 -18.35)"/><path class="cls-1" d="M289.6,572.49c-5-4.39-3-112.32-3-112.32H269.23s2,107.93-3,112.32S217.31,556.34,217.31,587H338.53C338.53,556.34,294.57,576.87,289.6,572.49Z" transform="translate(-39.06 -18.35)"/><path class="cls-2" d="M243.08,158.79c-74.94-3.93-99.06,14.08-107.32,34.33s49,236.82,73.57,245.4,82.33-15,89.23-26S296.1,161.57,243.08,158.79Z" transform="translate(-39.06 -18.35)"/><path class="cls-2" d="M362.58,450.58c9.16-29.58.49-41.72-11-47.79s-107.56,10.45-122.47,14.76c-11,3.17-28.54,10-26.28,17C209.34,454.54,356.1,471.5,362.58,450.58Z" transform="translate(-39.06 -18.35)"/><path class="cls-3" d="M205.61,430.12c.55-2.52,4-4.47,6.12-5.68,1.87-1.09,5.23-3.43,7.4-2.37a.52.52,0,0,1,.18.7,2.5,2.5,0,0,1-1.76,1.34,34.71,34.71,0,0,0-4.78,2.13c-2.15,1.2-4.48,3.74-6.89,4.16a.23.23,0,0,1-.28-.28Z" transform="translate(-39.06 -18.35)"/><path class="cls-4" d="M498.1,537.22c-3.27,5.77-2.41,9.93-.4,12.48s8.87,8,12.78,6.82,45.28-47.45,38.42-53.9-29.53,12.23-33.38,16.58S502.23,529.93,498.1,537.22Z" transform="translate(-39.06 -18.35)"/><path class="cls-4" d="M482.61,564.68c-5.89,3-7.45,7-7.17,10.22s3,11.56,7,12.7,63.87-14.92,61.65-24.07-31.41-5.93-37-4.4S490.06,560.84,482.61,564.68Z" transform="translate(-39.06 -18.35)"/><path class="cls-5" d="M470.13,558.76l12.11,15.13a6.35,6.35,0,0,0,9,.9l5-4.18a6.35,6.35,0,0,0,.67-9.09l-16.7-18.8" transform="translate(-39.06 -18.35)"/><path class="cls-5" d="M484.07,520.77l15.62,17.38a6.87,6.87,0,0,0,9.52.67l4.25-3.56a6.87,6.87,0,0,0,.53-10l-19.81-20.49" transform="translate(-39.06 -18.35)"/><path class="cls-5" d="M308.91,279.35s9.95,30.22,22.7,50.16c0,0,30.1,7.45,72.71,8.75l-2,7.94L306.08,343S289,306.9,281.85,278.49,308.91,279.35,308.91,279.35Z" transform="translate(-39.06 -18.35)"/><path class="cls-6" d="M211.23,374.57s-1.89,48.92,28.52,59.82c58.24,20.87,124.19,11.84,124.19,11.84l107.48,119,18.4-16-46-61.79,44.07,40.67,14.6-18.5s-93.22-108.92-104.82-113.2S287.78,372,287.78,372,239.42,348.49,211.23,374.57Z" transform="translate(-39.06 -18.35)"/><path class="cls-1" d="M191.13,87.82S160,107.68,167,157.28s-3.5,67.14-3.5,67.14a64.91,64.91,0,0,0,42-18.51c18.68-18.55,18.82-74.21-3.27-119.47Z" transform="translate(-39.06 -18.35)"/><path id="_Path_" data-name="&lt;Path&gt;" class="cls-5" d="M214.9,196.91c3-2.3,11.55-4.88,12.69-4.53,1.06-.56,9.91.38,13.32,2.07,20.76,10.28,51.77,15.17,53.54,33.63,0,0,.85,13.27-9.46,14.24l-52.22,4.93-52.22,4.93c-10.31,1-12-12.22-12-12.22C166.88,221.5,196.43,210.9,214.9,196.91Z" transform="translate(-39.06 -18.35)"/><path class="cls-7" d="M311.71,282c-1.73-11.66-4.54-23.9-5.3-37.51-.55-9.8-11.94-24.62-20-30.25L270.93,206l-5.21,19.6,4.22,28c2.77,12.17,5.56,23.6,8.32,34.38l.32-1S295.77,291.86,311.71,282Z" transform="translate(-39.06 -18.35)"/><path id="_Path_2" data-name="&lt;Path&gt;" class="cls-5" d="M231.18,211.88h0a13.79,13.79,0,0,0,13.34-14.23l-1.1-34.33-27.57.88,1.1,34.33A13.79,13.79,0,0,0,231.18,211.88Z" transform="translate(-39.06 -18.35)"/><path class="cls-5" d="M248.68,81l-.76,0c-3.25-5.67-8.21-9.77-14.39-9.91l-24.38-.56c-9.94-.23-19.21,10.55-17.64,21.32l13.78,62.89c1.54,10.6,9.33,24.55,33.94,25.77.49,0,1,.1,1.47.11l.65.07c14.35.33,25.89-11.6,26.22-26l3.85-49.92A23.34,23.34,0,0,0,248.68,81Z" transform="translate(-39.06 -18.35)"/><path id="_Path_3" data-name="&lt;Path&gt;" class="cls-1" d="M235.37,84.12a350.55,350.55,0,0,1-22,30.74c-7.78,9.7-9.92,17.9-10.53,25.62a3.14,3.14,0,0,1-6,.91C187,117.69,172.39,67.79,223.66,67.2Z" transform="translate(-39.06 -18.35)"/><path id="_Path_4" data-name="&lt;Path&gt;" class="cls-5" d="M188.78,140.46c3.16,6.94,9.31,10.94,13.73,8.92a5.73,5.73,0,0,0,1.21-.74c3.37-2.7,3.92-9.22,1.06-15.48-3.16-6.94-9.31-10.94-13.73-8.92S185.62,133.52,188.78,140.46Z" transform="translate(-39.06 -18.35)"/><path id="_Path_5" data-name="&lt;Path&gt;" class="cls-1" d="M233.22,82" transform="translate(-39.06 -18.35)"/><path id="_Path_6" data-name="&lt;Path&gt;" class="cls-1" d="M229.78,86.62s36.86,23.87,46.29,43.33c0,0,16.34-77.34-52.41-62.75Z" transform="translate(-39.06 -18.35)"/><path class="cls-7" d="M288.41,288.68c18.71-24.27-7.88-45.77-9.22-49.29l-8.5-33.53-24.6,39.24-49.51-35.84-12.13,42.63,26.79,122.68c10.44,1.6,55.1,6.12,76.55-2.57C286.14,355.17,281.73,297.34,288.41,288.68Z" transform="translate(-39.06 -18.35)"/><path class="cls-1" d="M222.13,87.78a122,122,0,0,1,29.73,30.16S250,93.36,244.12,79.19s-19.31-4.83-19.31-4.83Z" transform="translate(-39.06 -18.35)"/><path class="cls-8" d="M196.57,209.26s28,17.67,44,15.61S259.31,202,259.31,202s5.46,1.79,11.62,4c0,0,.31,47.75-19.1,47.75S195.12,229.79,196.57,209.26Z" transform="translate(-39.06 -18.35)"/><path class="cls-9" d="M245.07,133.41c1,3.52.81,6.39,3.41,9.31,1.33,1.5,3,2.91,3.47,5,.6,3-3.44,7.8-6.67,5.92-.77-.45-.93-.8-.78-1.59.09-.44.39-.49.62-.8a21.74,21.74,0,0,0,2.45-1.95,5.06,5.06,0,0,0-1.51-2.73c-2.62-3.57-3.39-8.8-2.6-13.14.15-.84,1.42-.76,1.62,0Z" transform="translate(-39.06 -18.35)"/><path class="cls-9" d="M217.47,174.13c2.89.53,5.18,2.57,7.94,3.53,3,1.06,6.29,1.27,9.33,2.34a.91.91,0,0,1-.49,1.76c-5.41-1.45-14.11-1.43-17.31-7a.47.47,0,0,1,.52-.68Z" transform="translate(-39.06 -18.35)"/><path class="cls-9" d="M230.25,158a6.91,6.91,0,0,1-.08,4.39c-.45,1.25-1.44,2.88-2.86,3.08a1.17,1.17,0,0,1-1.45-1.1c-.08-1.11.63-2.11,1.11-3.07s1.2-2.2,1.64-3.31a.85.85,0,0,1,1.62,0Z" transform="translate(-39.06 -18.35)"/><path class="cls-9" d="M229,161.64c4.81.26,9.12,2.5,13.64,3.15,3.08.05,4.45,2.81,1.17,3.26-5.59-.09-11.49-2.06-15.25-5.34A.63.63,0,0,1,229,161.64Z" transform="translate(-39.06 -18.35)"/><path class="cls-10" d="M227.52,145.87a1.15,1.15,0,0,1,0-2.29,1.15,1.15,0,0,1,0,2.29Z" transform="translate(-39.06 -18.35)"/><path class="cls-10" d="M224.45,152.4a1.42,1.42,0,0,1,0-2.84,1.42,1.42,0,0,1,0,2.84Z" transform="translate(-39.06 -18.35)"/><path class="cls-10" d="M231.11,152.24a1.26,1.26,0,0,1,0-2.52,1.26,1.26,0,0,1,0,2.52Z" transform="translate(-39.06 -18.35)"/><path class="cls-10" d="M259.7,141.29a1.25,1.25,0,0,1,0-2.49,1.25,1.25,0,0,1,0,2.49Z" transform="translate(-39.06 -18.35)"/><path class="cls-10" d="M257.42,146.66c.63.46.31,1.59-.57,1.35-1.09-.3-.27-2,.57-1.35Z" transform="translate(-39.06 -18.35)"/><path class="cls-10" d="M262.75,147.59a1.08,1.08,0,0,1,0-2.15,1.08,1.08,0,0,1,0,2.15Z" transform="translate(-39.06 -18.35)"/><path class="cls-1" d="M234.07,121.46c-2.27,1.76-5.19.87-7.79,2s-4.67,3.06-7,4.59c-.7.45-1.87-.32-1.51-1.16a13.31,13.31,0,0,1,6.77-6.49c2.55-1.21,6.54-3.49,9.22-1.74.84.55,1.3,2,.36,2.76Z" transform="translate(-39.06 -18.35)"/><path class="cls-1" d="M250.26,119c2-2.25,5.76-.76,8.17,0,2.72.9,5.51,2.61,6.81,5.25a1,1,0,0,1-1.41,1.41c-2.27-1.11-4.22-2.69-6.71-3.36-2.18-.59-4.52.67-6.5-.58a1.78,1.78,0,0,1-.36-2.76Z" transform="translate(-39.06 -18.35)"/><ellipse class="cls-1" cx="193.14" cy="114.78" rx="3.16" ry="4.7"/><ellipse class="cls-1" cx="213.92" cy="114.78" rx="3.16" ry="4.7"/><path class="cls-9" d="M197.9,208.56c6.27,1.22,12.42,5.85,18.2,8.54,5.53,2.58,11,5.07,17.1,6.17,14.24,2.58,21.76-8.8,24.8-20.78.39-1.55,2.62-.87,2.35.65-1.92,11.08-8.85,22.08-21.14,23.33-7.25.74-15.05-3-21.54-5.72s-15.4-6.21-20.48-11c-.56-.53,0-1.34.7-1.21Z" transform="translate(-39.06 -18.35)"/><path class="cls-11" d="M275.37,216.6c2.91,8,3.76,18.95,9.2,25.67,4.1,5.06,8.12,8.56,9.84,15.11,2.89,11,.13,24.09-6,33.56a1.12,1.12,0,0,1-1.92-1.12c6.53-13.57,9.2-29.74-1.13-42-7.68-9.16-9-19.35-10.37-31.13,0-.21.29-.22.35,0Z" transform="translate(-39.06 -18.35)"/><path class="cls-12" d="M295.05,393.24c5.65.21,11.38,1.74,16.92,2.79,8.7,1.64,17.44,3,26.17,4.45,13.38,2.21,27,3.82,40.25,6.56,13.46,2.78,22.73,19,30.25,29.52,11,15.41,21.35,31.49,33,46.44.75,1-.59,2.33-1.36,1.36-10.74-13.53-20.41-27.94-30.48-42-8.16-11.37-18.76-29.95-33.37-32.78-13.5-2.62-27.17-4.49-40.72-6.91-8.12-1.46-16.23-3-24.32-4.67C306,397,299.83,396.17,295,393.42a.1.1,0,0,1,0-.18Z" transform="translate(-39.06 -18.35)"/><path class="cls-12" d="M363.68,444.93c-1.46-1.59-2.05-4.22-2.18-6.32,0-.42.5-.46.71-.19,1.29,1.69,2.39,4.19,2.05,6.36a.35.35,0,0,1-.57.15Z" transform="translate(-39.06 -18.35)"/><path class="cls-12" d="M363.26,444.55a10.94,10.94,0,0,1,3.26-3.25.5.5,0,0,1,.75.43,4.83,4.83,0,0,1-3.17,3.92.75.75,0,0,1-.84-1.1Z" transform="translate(-39.06 -18.35)"/><path class="cls-12" d="M288.13,394c1.84-.33,3.59-.76,5.46-1,.24,0,1,0,1.19-.12s.33-.93.38-1.25a11.71,11.71,0,0,0-.06-3c-.06-.71.86-.77,1.19-.32,1.16,1.55,1.74,5,.06,6.46-.89.76-2.28.54-3.35.53-1.61,0-3.14-.29-4.75-.42-.49,0-.69-.83-.13-.93Z" transform="translate(-39.06 -18.35)"/><path class="cls-9" d="M330.63,330.61a13.52,13.52,0,0,1-5,2.21.24.24,0,0,1-.23-.4,13.46,13.46,0,0,1,4.61-2.94.65.65,0,0,1,.66,1.13Z" transform="translate(-39.06 -18.35)"/><path class="cls-9" d="M331.22,329.9a3.9,3.9,0,0,1-.56,3.19c-.44.58-1.69.52-1.59-.43a8.59,8.59,0,0,1,1-2.91.65.65,0,0,1,1.17.15Z" transform="translate(-39.06 -18.35)"/><path class="cls-5" d="M168.53,288.19s9.26,51,20.69,53.28,101.34-13.4,104.75-10.1A19.49,19.49,0,0,0,307,336.73c4.69,0-.29-13.8-5.57-18.49a13.89,13.89,0,0,0-13.21-3.31c-2.61.67-74.34,2.14-84.49,2.43A317.28,317.28,0,0,1,197.71,279Z" transform="translate(-39.06 -18.35)"/><path class="cls-7" d="M196.46,208.69l-.07,0L179.8,219.17c-8,5.63-17.26,19.79-17.8,29.6-.61,10.86,5.55,43.3,5.46,44.08,2.34,2.13,7.07,2.72,12.24,2.71a206,206,0,0,0,24.75-1c.11-.42-9.72-26.27-7-38.21l-4.16-20.73Z" transform="translate(-39.06 -18.35)"/><path class="cls-9" d="M203.59,317.87c-.05,1.58-1.12,2.42-2.11,3.48-.83.89-2-.24-1.56-1.21.58-1.32,1.17-2.67,2.76-3a.73.73,0,0,1,.92.7Z" transform="translate(-39.06 -18.35)"/><path class="cls-9" d="M203.42,317.61c1.14.76,1.54,2.94,1.31,4.21a.9.9,0,0,1-1.62.21c-.63-1-1-3.25-.31-4.26a.46.46,0,0,1,.62-.16Z" transform="translate(-39.06 -18.35)"/><path class="cls-9" d="M201.3,318.88a6.27,6.27,0,0,1-1.16,0,.86.86,0,0,1-.43-1.59,6.24,6.24,0,0,1,1-.62c1.74-1,2.63,2.22.61,2.25Z" transform="translate(-39.06 -18.35)"/><path class="cls-9" d="M295.16,314.18c5.59-1.52,12.63.13,17.43,3.23,2.09,1.35,4.67,2.33,6.55,3.92,2.4,2,3.59,5.41,4.79,8.2.23.53-.51,1-.8.47-2.71-5-6.46-7.13-10.89-10.35-5.47-4-10.4-3.72-17-4.49-.52-.06-.72-.82-.13-1Z" transform="translate(-39.06 -18.35)"/><path class="cls-9" d="M304.61,329.85c2.06,1,3.63,3.67,4.16,5.83a.51.51,0,0,1-.85.5c-1.68-1.4-2.74-3.53-4.2-5.17a.74.74,0,0,1,.89-1.15Z" transform="translate(-39.06 -18.35)"/><path class="cls-9" d="M311.43,326.81a14.58,14.58,0,0,1,5.72,7.3c.35,1-1.18,2-1.9,1.11-1.77-2.18-3.35-4.53-5.15-6.68-.74-.88.25-2.52,1.34-1.73Z" transform="translate(-39.06 -18.35)"/><path class="cls-9" d="M319.44,330.52c1.94-.53,3.87,2.94,4.09,4.44a.88.88,0,0,1-1.27,1,7.38,7.38,0,0,1-3.28-4.61.67.67,0,0,1,.46-.8Z" transform="translate(-39.06 -18.35)"/><circle class="cls-13" cx="342.07" cy="76.29" r="51.46"/><circle class="cls-14" cx="342.07" cy="76.29" r="45.3"/><rect class="cls-15" x="340.56" y="39.94" width="3.03" height="36.35"/><rect class="cls-15" x="342.07" y="74.77" width="41.83" height="3.03"/><circle class="cls-8" cx="342.07" cy="76.29" r="4.21"/><path class="cls-1" d="M40.57,588.47h731a1.52,1.52,0,0,0,0-3h-731a1.52,1.52,0,0,0,0,3Z" transform="translate(-39.06 -18.35)"/><path class="cls-1" d="M273.19,588.47a1.48,1.48,0,0,0,.73-.19,1.51,1.51,0,0,0,.6-2.06L146.81,354.68a1.52,1.52,0,1,0-2.65,1.46L271.87,587.68A1.52,1.52,0,0,0,273.19,588.47Z" transform="translate(-39.06 -18.35)"/><path class="cls-1" d="M145.48,588.47a1.51,1.51,0,0,0,1.33-.79L274.52,356.14a1.52,1.52,0,1,0-2.65-1.46L144.15,586.22a1.51,1.51,0,0,0,.6,2.06A1.48,1.48,0,0,0,145.48,588.47Z" transform="translate(-39.06 -18.35)"/><path class="cls-1" d="M631.92,588.47a1.48,1.48,0,0,0,.73-.19,1.51,1.51,0,0,0,.6-2.06L505.53,354.68a1.52,1.52,0,1,0-2.65,1.46L630.59,587.68A1.52,1.52,0,0,0,631.92,588.47Z" transform="translate(-39.06 -18.35)"/><path class="cls-1" d="M504.2,588.47a1.51,1.51,0,0,0,1.33-.79L633.25,356.14a1.52,1.52,0,1,0-2.65-1.46L502.87,586.22a1.51,1.51,0,0,0,.6,2.06A1.48,1.48,0,0,0,504.2,588.47Z" transform="translate(-39.06 -18.35)"/><path class="cls-16" d="M694.52,361.38H88.13a6,6,0,0,1-6-6h0a6,6,0,0,1,6-6H694.52a6,6,0,0,1,6,6h0A6,6,0,0,1,694.52,361.38Z" transform="translate(-39.06 -18.35)"/><rect class="cls-17" x="492.44" y="16.62" width="101.74" height="135.61" rx="1.02" ry="1.02"/><rect class="cls-17" x="604.62" y="16.62" width="101.74" height="135.61" rx="1.02" ry="1.02"/><rect class="cls-17" x="492.44" y="159.52" width="101.74" height="135.61" rx="1.02" ry="1.02"/><rect class="cls-17" x="604.62" y="159.52" width="101.74" height="135.61" rx="1.02" ry="1.02"/><rect class="cls-17" x="465.15" y="300.52" width="267.35" height="10.64"/><path class="cls-8" d="M625.35,40.57a14.33,14.33,0,0,1-2.56,4.22c-1.11,1.25-2.21,2.52-3.3,3.81s-2.62-.35-2.08-1.61c1.23-2.9,2.91-6.44,5.75-8.11a1.51,1.51,0,0,1,2.19,1.69Z" transform="translate(-39.06 -18.35)"/><path class="cls-8" d="M630.08,58c-.66,3.07-2.8,5.87-4.39,8.52a1.33,1.33,0,0,1-2.43-1c.76-3.1,1.84-6.76,4.32-8.95a1.51,1.51,0,0,1,2.5,1.45Z" transform="translate(-39.06 -18.35)"/><path class="cls-8" d="M631,41.25c-2.91,5.61-6.17,11-8.7,16.83s-4,12-6.25,17.89c-.66,1.71-3.57,1.66-3.45-.47.73-12.58,7.53-26.92,16-36.1,1.21-1.31,3.15.36,2.38,1.84Z" transform="translate(-39.06 -18.35)"/><path class="cls-8" d="M736.27,40.57a14.33,14.33,0,0,1-2.56,4.22c-1.11,1.25-2.21,2.52-3.3,3.81s-2.62-.35-2.08-1.61c1.23-2.9,2.91-6.44,5.75-8.11a1.51,1.51,0,0,1,2.19,1.69Z" transform="translate(-39.06 -18.35)"/><path class="cls-8" d="M741,58c-.66,3.07-2.8,5.87-4.39,8.52a1.33,1.33,0,0,1-2.43-1c.76-3.1,1.84-6.76,4.32-8.95A1.51,1.51,0,0,1,741,58Z" transform="translate(-39.06 -18.35)"/><path class="cls-8" d="M742,41.25c-2.91,5.61-6.17,11-8.7,16.83s-4,12-6.25,17.89c-.66,1.71-3.57,1.66-3.45-.47.73-12.58,7.53-26.92,16-36.1,1.21-1.31,3.15.36,2.38,1.84Z" transform="translate(-39.06 -18.35)"/><path class="cls-8" d="M625.35,186.49a14.33,14.33,0,0,1-2.56,4.22c-1.11,1.25-2.21,2.52-3.3,3.81s-2.62-.35-2.08-1.61c1.23-2.9,2.91-6.44,5.75-8.11a1.51,1.51,0,0,1,2.19,1.69Z" transform="translate(-39.06 -18.35)"/><path class="cls-8" d="M630.08,203.93c-.66,3.07-2.8,5.87-4.39,8.52a1.33,1.33,0,0,1-2.43-1c.76-3.1,1.84-6.76,4.32-8.95a1.51,1.51,0,0,1,2.5,1.45Z" transform="translate(-39.06 -18.35)"/><path class="cls-8" d="M631,187.17c-2.91,5.61-6.17,11-8.7,16.83s-4,12-6.25,17.89c-.66,1.71-3.57,1.66-3.45-.47.73-12.58,7.53-26.92,16-36.1,1.21-1.31,3.15.36,2.38,1.84Z" transform="translate(-39.06 -18.35)"/><path class="cls-8" d="M736.27,186.49a14.33,14.33,0,0,1-2.56,4.22c-1.11,1.25-2.21,2.52-3.3,3.81s-2.62-.35-2.08-1.61c1.23-2.9,2.91-6.44,5.75-8.11a1.51,1.51,0,0,1,2.19,1.69Z" transform="translate(-39.06 -18.35)"/><path class="cls-8" d="M741,203.93c-.66,3.07-2.8,5.87-4.39,8.52a1.33,1.33,0,0,1-2.43-1c.76-3.1,1.84-6.76,4.32-8.95a1.51,1.51,0,0,1,2.5,1.45Z" transform="translate(-39.06 -18.35)"/><path class="cls-8" d="M742,187.17c-2.91,5.61-6.17,11-8.7,16.83s-4,12-6.25,17.89c-.66,1.71-3.57,1.66-3.45-.47.73-12.58,7.53-26.92,16-36.1,1.21-1.31,3.15.36,2.38,1.84Z" transform="translate(-39.06 -18.35)"/><path class="cls-17" d="M174.87,18.35H86.32A16.51,16.51,0,0,0,69.86,34.81V54.69A16.51,16.51,0,0,0,86.32,71.15h57.26a1.86,1.86,0,0,1,1.8,1.36c1.12,4.22,6.1,16.9,25.49,17.92,2.25.12-14.43-9.49-6.53-18.65a1.9,1.9,0,0,1,1.43-.63h9.1a16.51,16.51,0,0,0,16.46-16.46V34.81A16.51,16.51,0,0,0,174.87,18.35Z" transform="translate(-39.06 -18.35)"/><circle class="cls-8" cx="56.8" cy="26.41" r="5.54"/><circle class="cls-8" cx="91.54" cy="26.41" r="5.54"/><circle class="cls-8" cx="126.28" cy="26.41" r="5.54"/><rect class="cls-18" x="251.58" y="324.6" width="14.46" height="6.49"/><polygon class="cls-18" points="318.94 319.91 304.49 319.91 306.13 313.42 320.59 313.42 318.94 319.91"/><polygon class="cls-18" points="403.13 319.91 388.67 319.91 390.32 313.42 404.77 313.42 403.13 319.91"/><rect class="cls-18" x="376.22" y="324.6" width="14.46" height="6.49"/><rect class="cls-19" x="240.86" y="318.38" width="163.92" height="9.47" rx="1" ry="1"/><path class="cls-4" d="M481.46,195.11h-98a2.78,2.78,0,0,0-2.68,2l-37.08,133a2.78,2.78,0,0,0,2.68,3.52h98a2.78,2.78,0,0,0,2.68-2l37.08-133A2.78,2.78,0,0,0,481.46,195.11Z" transform="translate(-39.06 -18.35)"/><ellipse class="cls-20" cx="417.25" cy="265.33" rx="12.74" ry="9.28" transform="translate(10.85 577.98) rotate(-74.47)"/><path class="cls-20" d="M479.22,201.88c-.8,7.28-1.61,14-4.2,21a.57.57,0,0,1-1.1-.3c1.29-7,3.43-13.75,5-20.69,0-.16.32-.13.3,0Z" transform="translate(-39.06 -18.35)"/><path class="cls-20" d="M452.22,199.4c7.36-.84,14.06-1.4,21.46-.38.66.09.46,1.1-.15,1.12-7.15.25-14.18-.34-21.3-.44a.15.15,0,0,1,0-.3Z" transform="translate(-39.06 -18.35)"/><path class="cls-11" d="M200.25,255.55c2.23,13.62,3.89,27.37,2.72,41.17a.81.81,0,0,1-1.58.21c-2.23-6.75-.31-14.3-1-21.34-.67-6.65-2.41-13.49-.49-20,0-.17.33-.19.37,0Z" transform="translate(-39.06 -18.35)"/><path class="cls-11" d="M196.75,209.21c2.15,14.69,12.85,24.14,24.39,32.44,12.57,9,35.18,20.42,43.19.33.63-1.58,3.22-.89,2.58.71-2.78,7-6.81,12.3-14.7,13.24C243.14,257,233.51,252.6,226,248c-12.4-7.59-32.64-21.58-29.57-38.78a.19.19,0,0,1,.37,0Z" transform="translate(-39.06 -18.35)"/><path class="cls-21" d="M585.72,319.77s-30.83-21-17.77-28.84S589,319.1,589,319.1Z" transform="translate(-39.06 -18.35)"/><path class="cls-22" d="M587.56,325.58S564,286.1,575.89,281.39,592,322.1,592,322.1Z" transform="translate(-39.06 -18.35)"/><path class="cls-21" d="M590.69,319.7s-18.22-39.29,2-42.13,3.06,41.53,3.06,41.53Z" transform="translate(-39.06 -18.35)"/><path class="cls-21" d="M600.86,321.08s-3.36-43.64,14.3-43.64-3.2,43.64-3.2,43.64Z" transform="translate(-39.06 -18.35)"/><path class="cls-22" d="M597.38,318.46s-12.49-36.8,3.94-39.63,1.48,38.39,1.48,38.39Z" transform="translate(-39.06 -18.35)"/><path class="cls-22" d="M609.15,322.51s5.78-35.68,20.51-33.75-15.49,34.76-15.49,34.76Z" transform="translate(-39.06 -18.35)"/><polygon class="cls-2" points="579.09 331.09 541.22 331.09 532.66 295.47 587.65 295.47 579.09 331.09"/><rect class="cls-23" x="529.64" y="293.29" width="61.03" height="4.36"/><path class="cls-8" d="M616.08,348.1l-.15-.1a1.49,1.49,0,0,1-.74-1.29c.12-1.78.19-3.53.41-5.31.11-.93,1.5-1.63,2-.54a8.87,8.87,0,0,1,.51,6.25,1.47,1.47,0,0,1-1,1,1.3,1.3,0,0,1-1-.06Z" transform="translate(-39.06 -18.35)"/><path class="cls-8" d="M614.62,348.27a10.23,10.23,0,0,1-3.91-3.11,1.29,1.29,0,0,1,1.11-1.93c2.07-.22,4.2,1.68,4.65,3.62a1.27,1.27,0,0,1-1.85,1.42Z" transform="translate(-39.06 -18.35)"/><path class="cls-8" d="M612.38,341.38a12,12,0,0,1-.56-1.83c-.07-.4.37-.91.78-.6a13.13,13.13,0,0,1,1.54,1.4c1.17,1.19-1.16,2.72-1.76,1Z" transform="translate(-39.06 -18.35)"/><path class="cls-8" d="M577.23,318.77c1.29.86,2.51,2.53,2,4.15a.51.51,0,0,1-.61.35,5.21,5.21,0,0,1-3.1-2.81c-.52-1,.6-2.42,1.69-1.69Z" transform="translate(-39.06 -18.35)"/><path class="cls-8" d="M578.5,318.3c.9-.72,1.71-1,2.73-.39a.71.71,0,0,1,0,1.21c-1.1.66-2,.27-2.73-.7a.08.08,0,0,1,0-.12Z" transform="translate(-39.06 -18.35)"/><path class="cls-22" d="M569.84,300.64a1.28,1.28,0,0,1,0-2.56,1.28,1.28,0,0,1,0,2.56Z" transform="translate(-39.06 -18.35)"/><path class="cls-22" d="M571.25,294.39a1,1,0,0,1,0-2,1,1,0,0,1,0,2Z" transform="translate(-39.06 -18.35)"/><path class="cls-22" d="M572.34,304.31a.06.06,0,0,1,0-.12.06.06,0,0,1,0,.12Z" transform="translate(-39.06 -18.35)"/><path class="cls-22" d="M572.19,305a.8.8,0,0,1,0-1.59.8.8,0,0,1,0,1.59Z" transform="translate(-39.06 -18.35)"/><path class="cls-22" d="M576.25,310a.68.68,0,0,1,0-1.35.68.68,0,0,1,0,1.35Z" transform="translate(-39.06 -18.35)"/><path class="cls-22" d="M574,302.82a1.17,1.17,0,0,1,0-2.35,1.17,1.17,0,0,1,0,2.35Z" transform="translate(-39.06 -18.35)"/><path class="cls-22" d="M593.09,282.43a1,1,0,0,1,0-2,1,1,0,0,1,0,2Z" transform="translate(-39.06 -18.35)"/><path class="cls-22" d="M585.6,289.7a1,1,0,0,1,0-2,1,1,0,0,1,0,2Z" transform="translate(-39.06 -18.35)"/><path class="cls-22" d="M589.83,287.92a1.71,1.71,0,0,1,0-3.41,1.71,1.71,0,0,1,0,3.41Z" transform="translate(-39.06 -18.35)"/><path class="cls-22" d="M591,295.41l-.1-.06a.53.53,0,0,1,.13-1l.11,0c1-.36.88,1.65-.14,1.06Z" transform="translate(-39.06 -18.35)"/><path class="cls-22" d="M586.46,296.23a.78.78,0,0,1,0-1.56.78.78,0,0,1,0,1.56Z" transform="translate(-39.06 -18.35)"/><path class="cls-22" d="M591.25,302.26a1.06,1.06,0,0,1,0-2.11,1.06,1.06,0,0,1,0,2.11Z" transform="translate(-39.06 -18.35)"/><path class="cls-22" d="M587.85,305.13c-2.48,0-2.49-3.86,0-3.86s2.49,3.86,0,3.86Z" transform="translate(-39.06 -18.35)"/><path class="cls-22" d="M591.9,309.72a.79.79,0,0,1,0-1.59.79.79,0,0,1,0,1.59Z" transform="translate(-39.06 -18.35)"/><path class="cls-22" d="M613.88,282.08l-.29.2c-.26.19-.56-.12-.5-.39l.08-.37c.17-.81,1.52,0,.71.55Z" transform="translate(-39.06 -18.35)"/><path class="cls-22" d="M619.06,286.64a1.29,1.29,0,0,1,0-2.58,1.29,1.29,0,0,1,0,2.58Z" transform="translate(-39.06 -18.35)"/><path class="cls-22" d="M610.48,288.25a.84.84,0,0,1,0-1.68.84.84,0,0,1,0,1.68Z" transform="translate(-39.06 -18.35)"/><path class="cls-22" d="M617.65,292.53c-2.53,0-2.54-3.94,0-3.94s2.54,3.94,0,3.94Z" transform="translate(-39.06 -18.35)"/><path class="cls-22" d="M612.87,293.45a1,1,0,0,1,0-2.09,1,1,0,0,1,0,2.09Z" transform="translate(-39.06 -18.35)"/><path class="cls-22" d="M611.24,301.26a1.25,1.25,0,0,1,0-2.49,1.25,1.25,0,0,1,0,2.49Z" transform="translate(-39.06 -18.35)"/><path class="cls-22" d="M615.47,296.38a.93.93,0,0,1,0-1.85.93.93,0,0,1,0,1.85Z" transform="translate(-39.06 -18.35)"/><path class="cls-22" d="M608.41,307.17a1.4,1.4,0,0,1,0-2.8,1.4,1.4,0,0,1,0,2.8Z" transform="translate(-39.06 -18.35)"/><path class="cls-22" d="M609.93,310.42a.63.63,0,0,1,0-1.26.63.63,0,0,1,0,1.26Z" transform="translate(-39.06 -18.35)"/><path class="cls-24" d="M576.14,285.42a.72.72,0,0,1,0-1.45.72.72,0,0,1,0,1.45Z" transform="translate(-39.06 -18.35)"/><path class="cls-24" d="M575.06,290.74a1.27,1.27,0,0,1,0-2.54,1.27,1.27,0,0,1,0,2.54Z" transform="translate(-39.06 -18.35)"/><path class="cls-24" d="M580.92,287.65a1.65,1.65,0,0,1,0-3.3,1.65,1.65,0,0,1,0,3.3Z" transform="translate(-39.06 -18.35)"/><path class="cls-24" d="M578.75,294.1a.6.6,0,0,1,0-1.21.6.6,0,0,1,0,1.21Z" transform="translate(-39.06 -18.35)"/><path class="cls-24" d="M580.92,291a.15.15,0,0,1,0-.3.15.15,0,0,1,0,.3Z" transform="translate(-39.06 -18.35)"/><path class="cls-24" d="M578,300.48a.69.69,0,0,1,0-1.37.69.69,0,0,1,0,1.37Z" transform="translate(-39.06 -18.35)"/><path class="cls-24" d="M581.79,298.28a1,1,0,0,1,0-2,1,1,0,0,1,0,2Z" transform="translate(-39.06 -18.35)"/><path class="cls-24" d="M579.51,305.59a1.34,1.34,0,0,1,0-2.68,1.34,1.34,0,0,1,0,2.68Z" transform="translate(-39.06 -18.35)"/><path class="cls-24" d="M583.64,308.6a.11.11,0,0,1,0-.21.11.11,0,0,1,0,.21Z" transform="translate(-39.06 -18.35)"/><path class="cls-24" d="M583.31,310.17a1.25,1.25,0,0,1,0-2.49,1.25,1.25,0,0,1,0,2.49Z" transform="translate(-39.06 -18.35)"/><path class="cls-24" d="M601.57,310.4a.5.5,0,0,1,0-1,.5.5,0,0,1,0,1Z" transform="translate(-39.06 -18.35)"/><path class="cls-24" d="M598.2,305.68a0,0,0,0,1,0,0,0,0,0,0,1,0,0Z" transform="translate(-39.06 -18.35)"/><path class="cls-24" d="M598,307.08a1.29,1.29,0,0,1,0-2.58,1.29,1.29,0,0,1,0,2.58Z" transform="translate(-39.06 -18.35)"/><path class="cls-24" d="M604.72,305.28a1,1,0,0,1,0-2.06,1,1,0,0,1,0,2.06Z" transform="translate(-39.06 -18.35)"/><path class="cls-24" d="M597.22,299.59a1.53,1.53,0,0,1,0-3.06,1.53,1.53,0,0,1,0,3.06Z" transform="translate(-39.06 -18.35)"/><path class="cls-24" d="M601.89,300.89a.44.44,0,0,1,0-.88.44.44,0,0,1,0,.88Z" transform="translate(-39.06 -18.35)"/><path class="cls-24" d="M606.67,294.79a1.08,1.08,0,0,1,0-2.16,1.08,1.08,0,0,1,0,2.16Z" transform="translate(-39.06 -18.35)"/><path class="cls-24" d="M600.15,290a.12.12,0,0,1,0-.24.12.12,0,0,1,0,.24Z" transform="translate(-39.06 -18.35)"/><path class="cls-24" d="M602.11,295.4a1,1,0,0,1,0-2.06,1,1,0,0,1,0,2.06Z" transform="translate(-39.06 -18.35)"/><path class="cls-24" d="M596.89,290.18a1.35,1.35,0,0,1,0-2.7,1.35,1.35,0,0,1,0,2.7Z" transform="translate(-39.06 -18.35)"/><path class="cls-24" d="M604.17,283.7a1.17,1.17,0,0,1,0-2.35,1.17,1.17,0,0,1,0,2.35Z" transform="translate(-39.06 -18.35)"/><path class="cls-24" d="M604.61,289.33a.72.72,0,0,1,0-1.45.72.72,0,0,1,0,1.45Z" transform="translate(-39.06 -18.35)"/><path class="cls-24" d="M627.75,293.63a1.11,1.11,0,0,1,0-2.23,1.11,1.11,0,0,1,0,2.23Z" transform="translate(-39.06 -18.35)"/><path class="cls-24" d="M630.57,296.87a1,1,0,0,1,0-2,1,1,0,0,1,0,2Z" transform="translate(-39.06 -18.35)"/><path class="cls-24" d="M621.12,298.27a1,1,0,0,1,0-1.94,1,1,0,0,1,0,1.94Z" transform="translate(-39.06 -18.35)"/><path class="cls-24" d="M623.51,304.75a.94.94,0,0,1,0-1.87.94.94,0,0,1,0,1.87Z" transform="translate(-39.06 -18.35)"/><path class="cls-24" d="M626.45,299.26a1.09,1.09,0,0,1,0-2.18,1.09,1.09,0,0,1,0,2.18Z" transform="translate(-39.06 -18.35)"/><path class="cls-24" d="M618.41,305.25a1,1,0,0,1,0-2,1,1,0,0,1,0,2Z" transform="translate(-39.06 -18.35)"/><path class="cls-24" d="M621.42,309.63c-.33-.19-.16-.69.16-.48s0,.6-.16.48Z" transform="translate(-39.06 -18.35)"/><path class="cls-24" d="M616.89,309.81a1.1,1.1,0,0,1,0-2.2,1.1,1.1,0,0,1,0,2.2Z" transform="translate(-39.06 -18.35)"/></svg>