<svg xmlns="http://www.w3.org/2000/svg" viewBox="0 0 450.8 379.13"><defs><style>.cls-1{isolation:isolate;}.cls-2{fill:#d9e4f5;}.cls-3{fill:#2543b1;}.cls-4{fill:#e06e0b;}.cls-5,.cls-8{fill:#1e93d9;}.cls-6{fill:#f2bb31;}.cls-7{fill:#006aec;}.cls-12,.cls-8{opacity:0.5;}.cls-8{mix-blend-mode:screen;}.cls-9{fill:#0070d4;}.cls-10{fill:#e3e5e8;}.cls-11{fill:#d4d5d6;}.cls-12{mix-blend-mode:multiply;}.cls-13{fill:#008cec;}.cls-14{fill:#ffd3c1;}.cls-15{fill:#fb927e;}.cls-16{fill:#3c3c48;}.cls-17{fill:#445279;}.cls-18{fill:#e79f00;}.cls-19{fill:#fff;}.cls-20{fill:#e6765d;}.cls-21{fill:#fcbb8c;}.cls-22{fill:#5793ce;}.cls-23{fill:#242d38;}.cls-24{fill:#ff2b25;}.cls-25{fill:#1a100e;}.cls-26{fill:#ff5449;}.cls-27{fill:#173d7a;}.cls-28{fill:#fcfcfc;}.cls-29{fill:#d75a1a;}.cls-30{fill:#286ae0;}.cls-31{fill:#015187;}.cls-32{fill:#043c62;}.cls-33{fill:#eee;}.cls-34{opacity:0.15;}</style></defs><title>about1-15</title><g class="cls-1"><g id="OBJECTS"><ellipse class="cls-2" cx="225.4" cy="364.87" rx="225.4" ry="14.26"/><path class="cls-2" d="M246.08,431.6c13.64-17.58,47.26-65.51,28.59-89.05-7.12-9-23-5.42-25.85,29.48-2,24.47-11.12,49-15.45,59.57Z" transform="translate(-25.65 -71.96)"/><path class="cls-2" d="M239.65,431.6A222,222,0,0,0,258.45,389a238.93,238.93,0,0,0,7.37-27.54.77.77,0,0,0-1.51-.28A237.39,237.39,0,0,1,257,388.57c-3.87,11.79-10.11,27.91-19.12,43Z" transform="translate(-25.65 -71.96)"/><path class="cls-2" d="M336.25,330.74c-5.37-15.69-28.75-18.52-49.54,27.71C272.38,390.3,248.62,419,237.36,431.6h27C295.38,410.35,348.79,367.39,336.25,330.74Z" transform="translate(-25.65 -71.96)"/><path class="cls-2" d="M314.61,350.78a1.11,1.11,0,0,0-1.52.4A343.66,343.66,0,0,1,289.84,385c-10.35,13.4-25.45,31-43.57,46.62h3.39a328.54,328.54,0,0,0,42-45.29,345.76,345.76,0,0,0,23.39-34A1.11,1.11,0,0,0,314.61,350.78Z" transform="translate(-25.65 -71.96)"/><path class="cls-2" d="M69.15,423.22A21.5,21.5,0,0,0,71,432.38h30a22.73,22.73,0,0,0,4.82-27.64c-2.25-4.13-5.67-7.37-10.86-8-16.24-1.93-4.83-14.21-10.8-24-6.87-11.31-18.79-6.94-23-15.86-5.85-12.42-23-18.91-24.77-3.9s11.73,20.28,6.83,31-1.63,21.79,8.55,23.8S69.49,410.65,69.15,423.22Z" transform="translate(-25.65 -71.96)"/><path class="cls-2" d="M96.62,432.38,53,364.81a1.17,1.17,0,1,0-2,1.27l42.76,66.3Z" transform="translate(-25.65 -71.96)"/><path class="cls-2" d="M76.19,383.74c10.3,7.68,18.31,12.75,11.22,26.61a26,26,0,0,0-.82,22h41.14a27.85,27.85,0,0,0,10.41-23.16c-.32-5.81-2.41-11.25-7.87-14.7-17.11-10.82,2.18-18.45.75-32.6-1.64-16.29-17.29-17.77-17.22-30,.09-17-15.64-33.4-25.58-17.57s2.29,28.91-8.89,38.22S65.9,376.06,76.19,383.74Z" transform="translate(-25.65 -71.96)"/><path class="cls-2" d="M109.93,432.38h2.93l-12.28-95.87a1.45,1.45,0,1,0-2.88.37Z" transform="translate(-25.65 -71.96)"/><path class="cls-2" d="M185.71,427.11c-26.33-64.42-34.47-110-23.52-132.26a1.79,1.79,0,1,0-3.21-1.58c-6.59,13.38-6.8,34.3-.62,62.16,4.51,20.34,12.4,44.4,23.49,71.68Z" transform="translate(-25.65 -71.96)"/><path class="cls-2" d="M154.92,330.14s-14.19,4.75-21.58-20.53C133.35,309.61,157.13,308.49,154.92,330.14Z" transform="translate(-25.65 -71.96)"/><path class="cls-2" d="M158.05,343.37s-5.54-13.91,19.29-22.68C177.35,320.68,179.78,344.37,158.05,343.37Z" transform="translate(-25.65 -71.96)"/><path class="cls-2" d="M157.12,304.73s-9.86-11.26,10.63-27.82C167.75,276.91,177.94,298.44,157.12,304.73Z" transform="translate(-25.65 -71.96)"/><path class="cls-2" d="M163.53,370.18s-11.75,9.27-27.25-12C136.29,358.16,158.3,349.06,163.53,370.18Z" transform="translate(-25.65 -71.96)"/><path class="cls-2" d="M168.76,383.17s-7.86-12.74,15.08-25.68C183.84,357.49,190.34,380.4,168.76,383.17Z" transform="translate(-25.65 -71.96)"/><path class="cls-2" d="M174.16,401.67s-11.57,9.5-27.47-11.5C146.69,390.17,168.52,380.66,174.16,401.67Z" transform="translate(-25.65 -71.96)"/><path class="cls-2" d="M332.65,429.85c42.92-54.79,63.19-96.42,58.73-120.82a1.79,1.79,0,0,1,3.52-.64c2.69,14.67-2.82,34.85-16.37,60-9.89,18.33-24,39.33-42.16,62.55Z" transform="translate(-25.65 -71.96)"/><path class="cls-2" d="M388.74,345s12.36,8.45,26.36-13.86C415.1,331.1,392.52,323.53,388.74,345Z" transform="translate(-25.65 -71.96)"/><path class="cls-2" d="M382.12,356.83s9.12-11.87-12.37-27.09C369.75,329.74,360.94,351.86,382.12,356.83Z" transform="translate(-25.65 -71.96)"/><path class="cls-2" d="M393.56,319.92s12.56-8.15-2.63-29.66C390.93,290.25,375.25,308.18,393.56,319.92Z" transform="translate(-25.65 -71.96)"/><path class="cls-2" d="M369.53,381.12S378.3,393.25,399,377C399,377,380.33,362.24,369.53,381.12Z" transform="translate(-25.65 -71.96)"/><path class="cls-2" d="M360.95,392.2s11-10.11-7.5-28.82C353.45,363.38,340.95,383.65,360.95,392.2Z" transform="translate(-25.65 -71.96)"/><path class="cls-2" d="M350.71,408.53s8.54,12.29,29.57-3.56C380.27,405,361.87,389.85,350.71,408.53Z" transform="translate(-25.65 -71.96)"/><path class="cls-3" d="M447.77,239a4.58,4.58,0,1,1-4.58,4.58A4.58,4.58,0,0,1,447.77,239Zm0,7.72a3.14,3.14,0,1,0-3.14-3.14A3.14,3.14,0,0,0,447.77,246.72Z" transform="translate(-25.65 -71.96)"/><path class="cls-4" d="M429.09,232.83a4.58,4.58,0,1,1-4.58,4.58A4.58,4.58,0,0,1,429.09,232.83Zm0,7.72a3.14,3.14,0,1,0-3.14-3.14A3.14,3.14,0,0,0,429.09,240.54Z" transform="translate(-25.65 -71.96)"/><path class="cls-5" d="M423.93,217.76a.72.72,0,0,1,.72.72v3.17a.72.72,0,0,1-1.44,0v-3.17A.72.72,0,0,1,423.93,217.76Z" transform="translate(-25.65 -71.96)"/><path class="cls-5" d="M423.93,212.22a.72.72,0,0,1,.72.72v3.17a.72.72,0,1,1-1.44,0v-3.17A.72.72,0,0,1,423.93,212.22Z" transform="translate(-25.65 -71.96)"/><path class="cls-5" d="M419.49,216.57h2.84a.72.72,0,1,1,0,1.44h-2.84a.72.72,0,1,1,0-1.44Z" transform="translate(-25.65 -71.96)"/><path class="cls-5" d="M425.53,216.57h2.84a.72.72,0,1,1,0,1.44h-2.84a.72.72,0,1,1,0-1.44Z" transform="translate(-25.65 -71.96)"/><path class="cls-6" d="M443.33,222.83a.72.72,0,0,1,.72.72v3.17a.72.72,0,0,1-1.44,0v-3.17A.72.72,0,0,1,443.33,222.83Z" transform="translate(-25.65 -71.96)"/><path class="cls-6" d="M443.33,217.29a.72.72,0,0,1,.72.72v3.17a.72.72,0,1,1-1.44,0V218A.72.72,0,0,1,443.33,217.29Z" transform="translate(-25.65 -71.96)"/><path class="cls-6" d="M438.88,221.64h2.84a.72.72,0,0,1,0,1.44h-2.84a.72.72,0,0,1,0-1.44Z" transform="translate(-25.65 -71.96)"/><path class="cls-6" d="M444.92,221.64h2.84a.72.72,0,0,1,0,1.44h-2.84a.72.72,0,0,1,0-1.44Z" transform="translate(-25.65 -71.96)"/><path class="cls-3" d="M56.25,255.64a4.58,4.58,0,1,1-4.58-4.58A4.58,4.58,0,0,1,56.25,255.64Zm-1.44,0a3.14,3.14,0,1,0-3.14,3.14A3.14,3.14,0,0,0,54.81,255.64Z" transform="translate(-25.65 -71.96)"/><path class="cls-4" d="M74.93,249.47a4.58,4.58,0,1,1-4.58-4.58A4.58,4.58,0,0,1,74.93,249.47Zm-1.44,0a3.14,3.14,0,1,0-3.14,3.14A3.14,3.14,0,0,0,73.49,249.47Z" transform="translate(-25.65 -71.96)"/><path class="cls-5" d="M75.51,229.82a.72.72,0,0,0-.72.72v3.17a.72.72,0,0,0,1.44,0v-3.17A.72.72,0,0,0,75.51,229.82Z" transform="translate(-25.65 -71.96)"/><path class="cls-5" d="M75.51,224.29a.72.72,0,0,0-.72.72v3.17a.72.72,0,1,0,1.44,0V225A.72.72,0,0,0,75.51,224.29Z" transform="translate(-25.65 -71.96)"/><path class="cls-5" d="M80,228.64H77.11a.72.72,0,1,0,0,1.44H80a.72.72,0,0,0,0-1.44Z" transform="translate(-25.65 -71.96)"/><path class="cls-5" d="M73.91,228.64H71.07a.72.72,0,0,0,0,1.44h2.84a.72.72,0,1,0,0-1.44Z" transform="translate(-25.65 -71.96)"/><path class="cls-6" d="M56.11,234.89a.72.72,0,0,0-.72.72v3.17a.72.72,0,0,0,1.44,0v-3.17A.72.72,0,0,0,56.11,234.89Z" transform="translate(-25.65 -71.96)"/><path class="cls-6" d="M56.11,229.36a.72.72,0,0,0-.72.72v3.17a.72.72,0,1,0,1.44,0v-3.17A.72.72,0,0,0,56.11,229.36Z" transform="translate(-25.65 -71.96)"/><path class="cls-6" d="M60.56,233.71H57.71a.72.72,0,1,0,0,1.44h2.84a.72.72,0,1,0,0-1.44Z" transform="translate(-25.65 -71.96)"/><path class="cls-6" d="M54.51,233.71H51.67a.72.72,0,1,0,0,1.44h2.84a.72.72,0,0,0,0-1.44Z" transform="translate(-25.65 -71.96)"/><path class="cls-7" d="M279.06,235.71v14a3.36,3.36,0,0,0,3.35,3.35h25.44l7.68,2.76a1,1,0,0,0,1.24-1.27l-2.91-7.5V235.71a3.36,3.36,0,0,0-3.36-3.35h-28.1A3.36,3.36,0,0,0,279.06,235.71Z" transform="translate(-25.65 -71.96)"/><circle class="cls-8" cx="277.94" cy="171.15" r="2.43"/><circle class="cls-8" cx="270.26" cy="171.15" r="2.43"/><circle class="cls-8" cx="262.58" cy="171.15" r="2.43"/><path class="cls-2" d="M468.41,306.7l-4.56-4.35-4.08,4.27a14.14,14.14,0,0,0-4.23-1.79l-.13-5.75-6.3.14.13,5.5a14.1,14.1,0,0,0-5.18,2.25l-4.27-4.08-4.35,4.56,4.4,4.2a14,14,0,0,0-1.41,3.56l-5.75.13.14,6.3,5.5-.13a14.11,14.11,0,0,0,2.25,5.18L437,330.44l4.56,4.35,3.69-3.86a14,14,0,0,0,4.62,1.63l.12,5.5,6.3-.14-.13-5.75a14.1,14.1,0,0,0,4.74-2.44l4.29,4.1,4.35-4.56-4.66-4.45a14,14,0,0,0,1.27-3.94l5.5-.12-.14-6.3-5.75.13a14.07,14.07,0,0,0-1.57-3.5ZM458,318.45a5.78,5.78,0,1,1-5.91-5.64A5.78,5.78,0,0,1,458,318.45Z" transform="translate(-25.65 -71.96)"/><path class="cls-2" d="M455.88,278.81l-2.49-2.38-2.23,2.33a7.73,7.73,0,0,0-2.31-1l-.07-3.14-3.44.08.07,3a7.71,7.71,0,0,0-2.83,1.23l-2.33-2.23-2.38,2.49,2.4,2.3a7.69,7.69,0,0,0-.77,1.95l-3.14.07.08,3.44,3-.07a7.71,7.71,0,0,0,1.23,2.83l-1.95,2,2.49,2.38,2-2.11a7.68,7.68,0,0,0,2.52.89l.07,3,3.44-.08-.07-3.14a7.7,7.7,0,0,0,2.59-1.33l2.35,2.24,2.38-2.49L454,288.72a7.65,7.65,0,0,0,.69-2.15l3-.07-.08-3.44-3.14.07a7.7,7.7,0,0,0-.86-1.91Zm-5.71,6.42a3.16,3.16,0,1,1-3.23-3.08A3.16,3.16,0,0,1,450.17,285.23Z" transform="translate(-25.65 -71.96)"/><path class="cls-2" d="M84.19,176.21a14.07,14.07,0,0,0,2.8-2.62l5.25,2.34,2.56-5.76-5-2.24a14,14,0,0,0,.35-4.12l6-2.31-2.26-5.88-5.55,2.13a14.1,14.1,0,0,0-3.43-4.08l2.34-5.25-5.76-2.56-2.24,5a14,14,0,0,0-4.89-.28l-1.91-5-5.88,2.26,1.85,4.82a14.11,14.11,0,0,0-4.08,3.91l-5-2.24-2.56,5.76L62,162.46a14,14,0,0,0-.08,3.83l-5.68,2.18,2.26,5.88L64,172.24a14.11,14.11,0,0,0,3.91,4.08l-2.24,5,5.76,2.56,2.34-5.25a14.14,14.14,0,0,0,4.59,0l2.11,5.51,5.88-2.26Zm-10.55-6.27A5.78,5.78,0,1,1,81.27,167,5.78,5.78,0,0,1,73.64,169.94Z" transform="translate(-25.65 -71.96)"/><path class="cls-2" d="M104.49,146.22a7.7,7.7,0,0,0,1.53-1.43l2.87,1.28,1.4-3.15-2.75-1.22a7.66,7.66,0,0,0,.19-2.25l3.29-1.26L109.79,135l-3,1.16a7.7,7.7,0,0,0-1.87-2.23l1.28-2.87-3.15-1.4-1.22,2.75a7.68,7.68,0,0,0-2.67-.15l-1-2.73-3.22,1.23,1,2.63a7.71,7.71,0,0,0-2.23,2.14l-2.75-1.22-1.4,3.15,2.87,1.28a7.68,7.68,0,0,0,0,2.09L89.22,142l1.23,3.22,3-1.16a7.71,7.71,0,0,0,2.14,2.23L94.38,149l3.15,1.4,1.28-2.87a7.73,7.73,0,0,0,2.51,0l1.16,3,3.21-1.23Zm-5.77-3.42a3.16,3.16,0,1,1,4.17-1.6A3.16,3.16,0,0,1,98.72,142.79Z" transform="translate(-25.65 -71.96)"/><path class="cls-2" d="M314.32,136.59A5.45,5.45,0,0,1,308.9,142h-116a5.42,5.42,0,0,1-3.82-9.26,5.36,5.36,0,0,1,3.82-1.6h5.48a14.14,14.14,0,0,1,23-4.38A19.64,19.64,0,0,1,244,117.94a22.45,22.45,0,0,1,41.48,4.53,14.14,14.14,0,0,1,19.91,8.69h3.49A5.44,5.44,0,0,1,314.32,136.59Z" transform="translate(-25.65 -71.96)"/><path class="cls-2" d="M448.4,103.17a4.42,4.42,0,0,1-4.39,4.4H349.95a4.39,4.39,0,0,1-3.1-7.51,4.35,4.35,0,0,1,3.1-1.29h4.45a11.47,11.47,0,0,1,18.66-3.55A15.93,15.93,0,0,1,391.4,88,18.2,18.2,0,0,1,425,91.72a11.47,11.47,0,0,1,16.14,7H444A4.41,4.41,0,0,1,448.4,103.17Z" transform="translate(-25.65 -71.96)"/><path class="cls-2" d="M144.64,96.76a4.42,4.42,0,0,1-4.39,4.4H46.2a4.39,4.39,0,0,1-3.1-7.51,4.35,4.35,0,0,1,3.1-1.29h4.45A11.47,11.47,0,0,1,69.3,88.8a15.93,15.93,0,0,1,18.35-7.17,18.2,18.2,0,0,1,33.62,3.67,11.47,11.47,0,0,1,16.14,7h2.83A4.41,4.41,0,0,1,144.64,96.76Z" transform="translate(-25.65 -71.96)"/><path class="cls-2" d="M384.67,226.94a1.15,1.15,0,0,0,1.82-1.39c-1.14-1.49-2.32-3-3.5-4.42a1.15,1.15,0,1,0-1.77,1.45C382.38,224,383.55,225.47,384.67,226.94Z" transform="translate(-25.65 -71.96)"/><path class="cls-2" d="M362.52,203.06a1.15,1.15,0,1,0,1.53-1.71c-1.4-1.25-2.83-2.49-4.27-3.69a1.15,1.15,0,1,0-1.47,1.76C359.73,200.6,361.14,201.83,362.52,203.06Z" transform="translate(-25.65 -71.96)"/><path class="cls-2" d="M106.87,434.88a1.15,1.15,0,0,0,.26-1.6c-1.08-1.49-2.15-3-3.18-4.55A1.15,1.15,0,0,0,102,430c1,1.55,2.13,3.1,3.23,4.62a1.14,1.14,0,0,0,.37.33h1.11Z" transform="translate(-25.65 -71.96)"/><path class="cls-2" d="M370.4,210.56a1.15,1.15,0,1,0,1.63-1.61c-1.31-1.33-2.67-2.66-4-3.95a1.15,1.15,0,1,0-1.58,1.66C367.77,207.93,369.11,209.24,370.4,210.56Z" transform="translate(-25.65 -71.96)"/><path class="cls-2" d="M396.77,245a1.15,1.15,0,0,0,2-1.16c-.94-1.61-1.92-3.23-2.92-4.81a1.15,1.15,0,0,0-1.94,1.22C394.87,241.77,395.84,243.37,396.77,245Z" transform="translate(-25.65 -71.96)"/><path class="cls-2" d="M390.49,431.1a1.15,1.15,0,0,0,1.59-.3c1.06-1.55,2.1-3.13,3.11-4.71a1.15,1.15,0,0,0-1.93-1.23c-1,1.56-2,3.12-3.07,4.65A1.15,1.15,0,0,0,390.49,431.1Z" transform="translate(-25.65 -71.96)"/><path class="cls-2" d="M389.11,435a1.14,1.14,0,0,0-2-1.1l-.81,1.1Z" transform="translate(-25.65 -71.96)"/><path class="cls-2" d="M391,235.77a1.15,1.15,0,0,0,1.9-1.28c-1-1.55-2.12-3.11-3.21-4.62a1.15,1.15,0,1,0-1.86,1.34C388.91,232.7,390,234.24,391,235.77Z" transform="translate(-25.65 -71.96)"/><path class="cls-2" d="M377.79,218.53a1.15,1.15,0,1,0,1.73-1.51c-1.23-1.41-2.49-2.82-3.77-4.19a1.15,1.15,0,0,0-1.68,1.56C375.33,215.75,376.58,217.14,377.79,218.53Z" transform="translate(-25.65 -71.96)"/><path class="cls-2" d="M301.55,167.78c1.76.58,3.53,1.2,5.27,1.83a1.15,1.15,0,0,0,.79-2.15c-1.76-.65-3.56-1.27-5.34-1.86a1.15,1.15,0,0,0-.72,2.18Z" transform="translate(-25.65 -71.96)"/><path class="cls-2" d="M311.79,171.52c1.72.69,3.45,1.42,5.14,2.16a1.15,1.15,0,0,0,.92-2.1c-1.72-.76-3.47-1.49-5.21-2.19a1.15,1.15,0,1,0-.86,2.13Z" transform="translate(-25.65 -71.96)"/><path class="cls-2" d="M259,159.5c1.84.12,3.71.28,5.55.46h.11a1.15,1.15,0,0,0,.11-2.29c-1.86-.18-3.75-.34-5.62-.46a1.15,1.15,0,1,0-.15,2.29Z" transform="translate(-25.65 -71.96)"/><path class="cls-2" d="M349.76,192.69c1.49,1.09,3,2.23,4.43,3.37a1.15,1.15,0,0,0,1.42-1.8c-1.47-1.16-3-2.31-4.49-3.42a1.15,1.15,0,0,0-1.36,1.85Z" transform="translate(-25.65 -71.96)"/><path class="cls-2" d="M280.52,162.29c1.81.35,3.64.74,5.44,1.15l.26,0a1.15,1.15,0,0,0,.25-2.26c-1.83-.42-3.68-.81-5.52-1.17a1.15,1.15,0,0,0-.44,2.25Z" transform="translate(-25.65 -71.96)"/><path class="cls-2" d="M340.79,186.52c1.56,1,3.12,2,4.64,3.09a1.15,1.15,0,1,0,1.3-1.89c-1.54-1.06-3.12-2.12-4.7-3.13a1.15,1.15,0,0,0-1.24,1.93Z" transform="translate(-25.65 -71.96)"/><path class="cls-2" d="M321.77,175.91c1.67.8,3.35,1.63,5,2.48a1.15,1.15,0,1,0,1.05-2c-1.67-.86-3.37-1.71-5.06-2.52a1.15,1.15,0,1,0-1,2.07Z" transform="translate(-25.65 -71.96)"/><path class="cls-2" d="M331.45,180.91c1.61.9,3.24,1.84,4.82,2.79a1.15,1.15,0,0,0,1.18-2c-1.61-1-3.25-1.92-4.89-2.83a1.15,1.15,0,0,0-1.12,2Z" transform="translate(-25.65 -71.96)"/><path class="cls-2" d="M291.12,164.7c1.79.47,3.59,1,5.36,1.49a1.15,1.15,0,1,0,.65-2.2c-1.79-.53-3.62-1-5.43-1.51a1.15,1.15,0,1,0-.58,2.22Z" transform="translate(-25.65 -71.96)"/><path class="cls-2" d="M408.13,395.8c-.68,1.72-1.4,3.46-2.14,5.15a1.15,1.15,0,1,0,2.1.91c.75-1.72,1.48-3.47,2.17-5.22a1.15,1.15,0,1,0-2.13-.85Z" transform="translate(-25.65 -71.96)"/><path class="cls-2" d="M411.83,385.54c-.57,1.76-1.18,3.54-1.81,5.28a1.15,1.15,0,1,0,2.16.78c.64-1.77,1.26-3.57,1.84-5.35a1.15,1.15,0,0,0-2.18-.71Z" transform="translate(-25.65 -71.96)"/><path class="cls-2" d="M405.31,405.25a1.15,1.15,0,0,0-1.53.55c-.79,1.67-1.62,3.36-2.46,5a1.15,1.15,0,1,0,2,1c.86-1.67,1.69-3.37,2.5-5.07A1.15,1.15,0,0,0,405.31,405.25Z" transform="translate(-25.65 -71.96)"/><path class="cls-2" d="M421.41,330.89a1.15,1.15,0,0,0-1.15,1.15c0,1.85,0,3.72-.09,5.56a1.15,1.15,0,0,0,1.11,1.18h0a1.15,1.15,0,0,0,1.14-1.11c.06-1.87.09-3.76.09-5.64A1.15,1.15,0,0,0,421.41,330.89Z" transform="translate(-25.65 -71.96)"/><path class="cls-2" d="M414.86,375.09c-.46,1.79-1,3.59-1.47,5.37a1.15,1.15,0,1,0,2.2.64c.52-1.8,1-3.63,1.49-5.44a1.15,1.15,0,1,0-2.22-.57Z" transform="translate(-25.65 -71.96)"/><path class="cls-2" d="M396.05,420.33a1.15,1.15,0,1,0,2,1.17c1-1.61,1.9-3.26,2.81-4.9a1.15,1.15,0,1,0-2-1.11C397.93,417.12,397,418.74,396.05,420.33Z" transform="translate(-25.65 -71.96)"/><path class="cls-2" d="M420.63,349.71a1.15,1.15,0,0,0,1.14-1c.18-1.86.32-3.75.44-5.62a1.15,1.15,0,1,0-2.29-.14c-.11,1.84-.26,3.71-.43,5.55a1.15,1.15,0,0,0,1,1.25Z" transform="translate(-25.65 -71.96)"/><path class="cls-2" d="M417.22,364.48c-.34,1.81-.72,3.65-1.13,5.45a1.15,1.15,0,0,0,.87,1.37l.25,0a1.15,1.15,0,0,0,1.12-.9c.41-1.83.79-3.68,1.14-5.52a1.15,1.15,0,1,0-2.25-.43Z" transform="translate(-25.65 -71.96)"/><path class="cls-2" d="M418.91,353.74c-.23,1.83-.49,3.68-.78,5.51a1.15,1.15,0,0,0,1,1.31h.18a1.15,1.15,0,0,0,1.13-1c.29-1.85.56-3.73.79-5.58a1.15,1.15,0,0,0-2.27-.28Z" transform="translate(-25.65 -71.96)"/><path class="cls-2" d="M406.51,264.34a1.15,1.15,0,0,0,2.11-.9c-.73-1.72-1.5-3.45-2.29-5.14a1.15,1.15,0,1,0-2.08,1C405,260.94,405.79,262.65,406.51,264.34Z" transform="translate(-25.65 -71.96)"/><path class="cls-2" d="M408.51,269.25c.67,1.72,1.32,3.47,1.94,5.22a1.15,1.15,0,0,0,2.16-.76c-.62-1.77-1.28-3.54-2-5.29a1.15,1.15,0,1,0-2.14.83Z" transform="translate(-25.65 -71.96)"/><path class="cls-2" d="M401.95,254.5a1.15,1.15,0,0,0,2-1c-.84-1.67-1.72-3.35-2.61-5a1.15,1.15,0,0,0-2,1.09C400.25,251.2,401.12,252.86,401.95,254.5Z" transform="translate(-25.65 -71.96)"/><path class="cls-2" d="M412.13,279.5c.56,1.76,1.1,3.55,1.6,5.33a1.15,1.15,0,0,0,1.1.83,1.16,1.16,0,0,0,.31,0,1.15,1.15,0,0,0,.79-1.42c-.51-1.8-1.06-3.62-1.62-5.4a1.15,1.15,0,1,0-2.18.7Z" transform="translate(-25.65 -71.96)"/><path class="cls-2" d="M415.11,290c.45,1.79.87,3.61,1.26,5.42a1.15,1.15,0,0,0,1.12.9l.24,0a1.15,1.15,0,0,0,.88-1.36c-.4-1.83-.83-3.68-1.28-5.49a1.15,1.15,0,0,0-2.22.56Z" transform="translate(-25.65 -71.96)"/><path class="cls-2" d="M420,310.06a1.15,1.15,0,0,0-1,1.27c.22,1.83.41,3.69.57,5.53a1.15,1.15,0,0,0,1.14,1h.1a1.15,1.15,0,0,0,1-1.24c-.16-1.87-.36-3.75-.58-5.61A1.15,1.15,0,0,0,420,310.06Z" transform="translate(-25.65 -71.96)"/><path class="cls-2" d="M420,322.17c.1,1.84.18,3.71.22,5.56a1.15,1.15,0,0,0,1.15,1.12h0a1.15,1.15,0,0,0,1.12-1.17c0-1.87-.12-3.77-.23-5.63a1.15,1.15,0,0,0-2.29.13Z" transform="translate(-25.65 -71.96)"/><path class="cls-2" d="M418.33,299.25a1.15,1.15,0,0,0-.92,1.33c.33,1.81.64,3.66.92,5.49a1.15,1.15,0,0,0,1.13,1h.17a1.15,1.15,0,0,0,1-1.3c-.28-1.85-.59-3.72-.93-5.56A1.14,1.14,0,0,0,418.33,299.25Z" transform="translate(-25.65 -71.96)"/><path class="cls-2" d="M269.78,160.55c1.83.24,3.68.51,5.51.8l.19,0a1.15,1.15,0,0,0,.18-2.28c-1.85-.3-3.72-.57-5.58-.81a1.15,1.15,0,1,0-.29,2.27Z" transform="translate(-25.65 -71.96)"/><path class="cls-2" d="M74.53,310.83h.15a1.15,1.15,0,0,0,1.14-1c.23-1.83.5-3.68.8-5.51a1.15,1.15,0,0,0-2.26-.36c-.3,1.85-.57,3.72-.81,5.58A1.15,1.15,0,0,0,74.53,310.83Z" transform="translate(-25.65 -71.96)"/><path class="cls-2" d="M85.23,268.45a1.14,1.14,0,0,0,1.49-.64c.69-1.72,1.41-3.45,2.16-5.14a1.15,1.15,0,1,0-2.1-.92c-.75,1.72-1.49,3.47-2.19,5.21A1.15,1.15,0,0,0,85.23,268.45Z" transform="translate(-25.65 -71.96)"/><path class="cls-2" d="M73.55,321.73h.08a1.15,1.15,0,0,0,1.14-1.07c.12-1.84.27-3.71.45-5.55a1.15,1.15,0,0,0-2.28-.22c-.18,1.86-.33,3.75-.46,5.62A1.15,1.15,0,0,0,73.55,321.73Z" transform="translate(-25.65 -71.96)"/><path class="cls-2" d="M73.63,343.62a1.15,1.15,0,0,0,1.08-1.21c-.11-1.84-.19-3.71-.24-5.56a1.15,1.15,0,0,0-2.29.06c.05,1.87.13,3.77.24,5.63a1.15,1.15,0,0,0,1.14,1.08Z" transform="translate(-25.65 -71.96)"/><path class="cls-2" d="M78.54,289.32a1.14,1.14,0,0,0,1.4-.82c.46-1.79,1-3.59,1.48-5.36a1.15,1.15,0,1,0-2.2-.65c-.53,1.79-1,3.62-1.5,5.43A1.15,1.15,0,0,0,78.54,289.32Z" transform="translate(-25.65 -71.96)"/><path class="cls-2" d="M81.55,278.79a1.14,1.14,0,0,0,1.45-.73c.58-1.76,1.19-3.54,1.83-5.27a1.15,1.15,0,1,0-2.15-.79c-.64,1.76-1.27,3.56-1.85,5.34A1.15,1.15,0,0,0,81.55,278.79Z" transform="translate(-25.65 -71.96)"/><path class="cls-2" d="M76.19,300l.22,0a1.15,1.15,0,0,0,1.12-.93c.35-1.81.73-3.65,1.14-5.45a1.15,1.15,0,1,0-2.24-.51c-.41,1.82-.8,3.68-1.16,5.52A1.15,1.15,0,0,0,76.19,300Z" transform="translate(-25.65 -71.96)"/><path class="cls-2" d="M74.69,354.51a1.15,1.15,0,0,0,1-1.28c-.22-1.83-.42-3.69-.59-5.53a1.15,1.15,0,0,0-2.28.2c.17,1.87.37,3.75.59,5.61a1.15,1.15,0,0,0,1.14,1Z" transform="translate(-25.65 -71.96)"/><path class="cls-2" d="M73.26,332.68h0a1.15,1.15,0,0,0,1.15-1.14c0-1.85,0-3.72.1-5.56a1.15,1.15,0,0,0-2.29-.08c-.06,1.87-.1,3.76-.11,5.64A1.15,1.15,0,0,0,73.26,332.68Z" transform="translate(-25.65 -71.96)"/><path class="cls-2" d="M98.87,243.31a1.15,1.15,0,1,0-2-1.18c-1,1.61-1.91,3.25-2.82,4.89a1.15,1.15,0,1,0,2,1.11C97,246.52,97.92,244.9,98.87,243.31Z" transform="translate(-25.65 -71.96)"/><path class="cls-2" d="M76.43,365.32a1.15,1.15,0,0,0,.92-1.34c-.34-1.81-.65-3.66-.93-5.49a1.15,1.15,0,1,0-2.27.35c.28,1.85.6,3.72.95,5.56a1.15,1.15,0,0,0,1.13.94Z" transform="translate(-25.65 -71.96)"/><path class="cls-2" d="M100.07,426a1.15,1.15,0,0,0,1-1.76c-1-1.56-2-3.15-2.89-4.74a1.15,1.15,0,0,0-2,1.16c.95,1.61,1.93,3.23,2.93,4.81A1.15,1.15,0,0,0,100.07,426Z" transform="translate(-25.65 -71.96)"/><path class="cls-2" d="M88.35,400.19a1.15,1.15,0,0,0-2.11.9c.74,1.72,1.51,3.44,2.3,5.13a1.15,1.15,0,0,0,2.08-1C89.84,403.59,89.08,401.89,88.35,400.19Z" transform="translate(-25.65 -71.96)"/><path class="cls-2" d="M92.94,410a1.15,1.15,0,0,0-2,1c.84,1.66,1.72,3.34,2.62,5a1.15,1.15,0,0,0,2-1.1C94.64,413.32,93.77,411.66,92.94,410Z" transform="translate(-25.65 -71.96)"/><path class="cls-2" d="M79.68,374.6c-.45-1.79-.88-3.61-1.28-5.42a1.15,1.15,0,0,0-2.24.49c.4,1.83.84,3.67,1.29,5.49a1.15,1.15,0,1,0,2.22-.56Z" transform="translate(-25.65 -71.96)"/><path class="cls-2" d="M82.68,385.06c-.57-1.76-1.11-3.55-1.62-5.32a1.15,1.15,0,1,0-2.2.63c.52,1.8,1.07,3.61,1.64,5.4a1.15,1.15,0,1,0,2.18-.7Z" transform="translate(-25.65 -71.96)"/><path class="cls-2" d="M86.34,395.3c-.68-1.72-1.33-3.47-2-5.21a1.15,1.15,0,0,0-2.16.77c.63,1.76,1.29,3.54,2,5.28a1.15,1.15,0,0,0,2.13-.84Z" transform="translate(-25.65 -71.96)"/><path class="cls-2" d="M137,198.57a1.14,1.14,0,0,0,.73-.26c1.43-1.17,2.89-2.34,4.35-3.46a1.15,1.15,0,0,0-1.4-1.82c-1.48,1.14-3,2.32-4.41,3.5a1.15,1.15,0,0,0,.73,2Z" transform="translate(-25.65 -71.96)"/><path class="cls-2" d="M183.89,171a1.14,1.14,0,0,0,.42-.08c1.72-.67,3.48-1.33,5.21-1.94a1.15,1.15,0,0,0-.77-2.16c-1.76.62-3.54,1.29-5.28,2a1.15,1.15,0,0,0,.42,2.21Z" transform="translate(-25.65 -71.96)"/><path class="cls-2" d="M204.73,164.36a1.15,1.15,0,0,0,.28,0c1.79-.45,3.61-.88,5.42-1.27a1.15,1.15,0,0,0-.49-2.24c-1.83.4-3.67.83-5.49,1.29a1.15,1.15,0,0,0,.28,2.26Z" transform="translate(-25.65 -71.96)"/><path class="cls-2" d="M194.2,167.37a1.14,1.14,0,0,0,.35-.06c1.76-.56,3.55-1.11,5.33-1.61a1.15,1.15,0,0,0-.63-2.2c-1.8.51-3.61,1.06-5.4,1.63a1.15,1.15,0,0,0,.35,2.24Z" transform="translate(-25.65 -71.96)"/><path class="cls-2" d="M173.86,175.33a1.14,1.14,0,0,0,.48-.11c1.67-.78,3.37-1.54,5.07-2.26a1.15,1.15,0,1,0-.9-2.11c-1.72.73-3.44,1.51-5.13,2.29a1.15,1.15,0,0,0,.49,2.19Z" transform="translate(-25.65 -71.96)"/><path class="cls-2" d="M89.57,258.37a1.15,1.15,0,0,0,1.53-.54c.79-1.67,1.63-3.35,2.48-5a1.15,1.15,0,1,0-2-1.05c-.86,1.67-1.7,3.37-2.51,5.06A1.15,1.15,0,0,0,89.57,258.37Z" transform="translate(-25.65 -71.96)"/><path class="cls-2" d="M164.11,180.26a1.14,1.14,0,0,0,.55-.14c1.62-.88,3.27-1.75,4.92-2.58a1.15,1.15,0,0,0-1-2c-1.67.84-3.34,1.72-5,2.61a1.15,1.15,0,0,0,.55,2.15Z" transform="translate(-25.65 -71.96)"/><path class="cls-2" d="M215.42,162l.21,0c1.81-.34,3.66-.65,5.49-.92a1.15,1.15,0,0,0-.34-2.27c-1.85.28-3.72.6-5.56.94a1.15,1.15,0,0,0,.21,2.27Z" transform="translate(-25.65 -71.96)"/><path class="cls-2" d="M226.25,160.37h.14c1.83-.22,3.7-.42,5.53-.58a1.15,1.15,0,0,0-.2-2.28c-1.86.16-3.75.36-5.61.59a1.15,1.15,0,0,0,.14,2.28Z" transform="translate(-25.65 -71.96)"/><path class="cls-2" d="M237.15,159.4h.07c1.84-.11,3.71-.18,5.56-.23a1.15,1.15,0,0,0-.06-2.29c-1.87,0-3.77.13-5.63.24a1.15,1.15,0,0,0,.07,2.29Z" transform="translate(-25.65 -71.96)"/><path class="cls-2" d="M106.24,230.06a1.15,1.15,0,0,0,1.6-.25c1.09-1.49,2.23-3,3.37-4.44a1.15,1.15,0,0,0-1.8-1.42c-1.16,1.47-2.3,3-3.41,4.49A1.15,1.15,0,0,0,106.24,230.06Z" transform="translate(-25.65 -71.96)"/><path class="cls-2" d="M113.67,221.66a1.14,1.14,0,0,0,.88-.41c1.19-1.42,2.41-2.84,3.64-4.21a1.15,1.15,0,1,0-1.71-1.52c-1.24,1.4-2.48,2.83-3.68,4.27a1.15,1.15,0,0,0,.88,1.88Z" transform="translate(-25.65 -71.96)"/><path class="cls-2" d="M154.69,185.79a1.14,1.14,0,0,0,.61-.18c1.56-1,3.16-2,4.75-2.88a1.15,1.15,0,1,0-1.16-2c-1.61.94-3.23,1.93-4.81,2.92a1.15,1.15,0,0,0,.61,2.12Z" transform="translate(-25.65 -71.96)"/><path class="cls-2" d="M100.09,239.14a1.15,1.15,0,0,0,1.58-.35c1-1.56,2-3.12,3.08-4.64a1.15,1.15,0,1,0-1.89-1.3c-1.06,1.54-2.11,3.12-3.12,4.7A1.15,1.15,0,0,0,100.09,239.14Z" transform="translate(-25.65 -71.96)"/><path class="cls-2" d="M120.95,213.48a1.14,1.14,0,0,0,.83-.36c1.27-1.34,2.58-2.68,3.89-4a1.15,1.15,0,0,0-1.61-1.63c-1.33,1.32-2.66,2.67-3.94,4a1.15,1.15,0,0,0,.83,1.93Z" transform="translate(-25.65 -71.96)"/><path class="cls-2" d="M145.62,191.9a1.14,1.14,0,0,0,.67-.22c1.5-1.08,3-2.15,4.56-3.18a1.15,1.15,0,1,0-1.28-1.9c-1.55,1-3.1,2.13-4.62,3.22a1.15,1.15,0,0,0,.67,2.08Z" transform="translate(-25.65 -71.96)"/><path class="cls-2" d="M248.09,159.11c1.85,0,3.72,0,5.56.11h0a1.15,1.15,0,0,0,0-2.29c-1.87-.07-3.77-.11-5.64-.11h0a1.15,1.15,0,0,0,0,2.29Z" transform="translate(-25.65 -71.96)"/><path class="cls-2" d="M128.72,205.77a1.14,1.14,0,0,0,.78-.31c1.35-1.26,2.74-2.51,4.13-3.73a1.15,1.15,0,1,0-1.51-1.73c-1.41,1.23-2.82,2.5-4.19,3.77a1.15,1.15,0,0,0,.78,2Z" transform="translate(-25.65 -71.96)"/><path class="cls-9" d="M464.47,376H431.4V372a1.54,1.54,0,0,0-1.54-1.54h-35.2A1.54,1.54,0,0,0,393.1,372v53.26c0,2,0,9,2,9h67.39c2,0,3.08-2.07,3.08-4l2.5-50.6A3.56,3.56,0,0,0,464.47,376Z" transform="translate(-25.65 -71.96)"/><path class="cls-10" d="M463.64,382.18V369.49a2.2,2.2,0,0,0-2.2-2.2H427.52a2.2,2.2,0,0,0-2.2,2.2v12.69Z" transform="translate(-25.65 -71.96)"/><path class="cls-11" d="M404.15,299h9.54a.6.6,0,0,1,.6.6V300a.61.61,0,0,1-.61.61h-9.54a.6.6,0,0,1-.6-.6v-.41A.6.6,0,0,1,404.15,299Z"/><g class="cls-12"><path class="cls-11" d="M460.2,376.88H430a.81.81,0,0,1-.81-.81h0a.81.81,0,0,1,.81-.81h30.2a.81.81,0,0,1,.81.81h0A.81.81,0,0,1,460.2,376.88Z" transform="translate(-25.65 -71.96)"/><path class="cls-11" d="M460.2,381H430a.81.81,0,0,1-.81-.81h0a.81.81,0,0,1,.81-.81h30.2a.81.81,0,0,1,.81.81h0A.81.81,0,0,1,460.2,381Z" transform="translate(-25.65 -71.96)"/></g><path class="cls-10" d="M423,377.86V365.17c0-1.21-.73-2.2-1.62-2.2H396.33c-.9,0-1.62,1-1.62,2.2v12.69Z" transform="translate(-25.65 -71.96)"/><rect class="cls-11" x="371.92" y="294.63" width="7.95" height="1.62" rx="0.6" ry="0.6"/><g class="cls-12"><path class="cls-11" d="M420.5,372.56H398.17c-.33,0-.6-.36-.6-.81h0c0-.45.27-.81.6-.81H420.5c.33,0,.6.36.6.81h0C421.1,372.19,420.83,372.56,420.5,372.56Z" transform="translate(-25.65 -71.96)"/><path class="cls-11" d="M420.5,376.69H398.17c-.33,0-.6-.36-.6-.81h0c0-.45.27-.81.6-.81H420.5c.33,0,.6.36.6.81h0C421.1,376.33,420.83,376.69,420.5,376.69Z" transform="translate(-25.65 -71.96)"/></g><path class="cls-13" d="M462,381.5H428.9v-4.07a1.54,1.54,0,0,0-1.54-1.54h-35.2a1.54,1.54,0,0,0-1.54,1.54v53.26a3.56,3.56,0,0,0,3.56,3.56H462a3.56,3.56,0,0,0,3.56-3.56V385.06A3.56,3.56,0,0,0,462,381.5Z" transform="translate(-25.65 -71.96)"/><path class="cls-14" d="M352.13,313.31l-1,9.71-.63,6.07-9.36,90.48c-3.35,1.08-6.18,1.56-9-1.32,0,0-1.86-34.66-1.86-64.86,0-5.94.1-13.2.25-20.61.07-3.25.14-6.54.22-9.75.4-16.17.91-30.58.91-30.58Z" transform="translate(-25.65 -71.96)"/><path class="cls-15" d="M330.75,323h20.38l-.63,6.07a14.59,14.59,0,0,0-9,1.83c-3.05,1.89-7.82,2-11,1.86C330.59,329.52,330.67,326.23,330.75,323Z" transform="translate(-25.65 -71.96)"/><path class="cls-14" d="M382.48,417.32l-8.17,1.16-10.5-85.61L362.6,323l-1-8.43,18.38-20.83s.72,13.73,1.54,29.26c.14,2.65.28,5.36.43,8.06.58,10.87,1.16,21.63,1.54,28.39C384.47,377.71,382.48,417.32,382.48,417.32Z" transform="translate(-25.65 -71.96)"/><path class="cls-15" d="M381.91,331.08c-1.53-.35-3.29-.72-4.85-.92-3.64-.49-10.22,3-13.25,2.73L362.6,323h18.88C381.62,325.67,381.77,328.38,381.91,331.08Z" transform="translate(-25.65 -71.96)"/><path class="cls-16" d="M395.79,324a4.39,4.39,0,0,1-.41.84c-1.06,1.77-4.51,5.47-13.87,2.6l-.88-.25a14.93,14.93,0,0,0-5-.5c-5.5.42-8.81,3.91-19.9.31-10-3.25-12.7-.76-17.45.5a17.74,17.74,0,0,1-3.11.54,11.72,11.72,0,0,1-1.67,0c-4.4-.24-8.55-2.76-11-4.59a26,26,0,0,1-2.35-1.93c.24-.83.49-1.72.74-2.66,1-3.63,2-8,3-12.84.3-1.44.61-2.92.91-4.43.73-3.65,1.46-7.45,2.16-11.26h0v-.06c.29-1.57.58-3.15.86-4.71l0-.22c.9-5,1.74-9.92,2.48-14.36.28-1.7.55-3.32.8-4.86,1.38-8.46,2.27-14.3,2.27-14.3l26.84,1.89,26.83-.14s.26,3,.71,7.76c.15,1.5.3,3.18.48,5,.47,4.8,1.06,10.58,1.73,16.7q.27,2.4.54,4.85c1.31,11.44,2.87,23.43,4.45,31.92C395.22,321.33,395.5,322.73,395.79,324Z" transform="translate(-25.65 -71.96)"/><circle class="cls-17" cx="336.73" cy="259.99" r="2.53" transform="translate(40.29 516.14) rotate(-88.14)"/><circle class="cls-17" cx="342.68" cy="269.98" r="2.53" transform="translate(36.07 531.75) rotate(-88.14)"/><circle class="cls-17" cx="355.17" cy="265.33" r="2.53" transform="translate(52.8 539.74) rotate(-88.14)"/><circle class="cls-17" cx="335.21" cy="280.14" r="2.53" transform="translate(18.69 534.12) rotate(-88.14)"/><circle class="cls-17" cx="350.65" cy="279.56" r="2.53" transform="translate(34.21 548.99) rotate(-88.14)"/><path class="cls-17" d="M332.64,268.55a2.52,2.52,0,0,1-2.37,2.44c.28-1.7.55-3.32.8-4.86A2.53,2.53,0,0,1,332.64,268.55Z" transform="translate(-25.65 -71.96)"/><circle class="cls-17" cx="375.28" cy="295.21" r="2.53" transform="translate(42.39 588.74) rotate(-88.14)"/><circle class="cls-17" cx="374.53" cy="281.42" r="2.53" transform="translate(55.45 574.65) rotate(-88.14)"/><path class="cls-17" d="M390.48,287.89a2.53,2.53,0,1,1-.83-4.88l.29,0Q390.21,285.44,390.48,287.89Z" transform="translate(-25.65 -71.96)"/><circle class="cls-17" cx="376.28" cy="305.33" r="2.53" transform="translate(33.24 599.54) rotate(-88.14)"/><circle class="cls-17" cx="387.22" cy="301.65" r="2.53" transform="translate(47.5 606.91) rotate(-88.14)"/><circle class="cls-17" cx="364.88" cy="310.16" r="2.53" transform="translate(17.39 592.81) rotate(-88.14)"/><circle class="cls-17" cx="361.52" cy="321.24" r="2.53" transform="translate(3.06 600.18) rotate(-88.14)"/><path class="cls-17" d="M338.3,327.1a2.38,2.38,0,0,1,0,.4,17.74,17.74,0,0,1-3.11.54,11.72,11.72,0,0,1-1.67,0,2.48,2.48,0,0,1-.23-1.13,2.53,2.53,0,0,1,5.05.16Z" transform="translate(-25.65 -71.96)"/><path class="cls-17" d="M380.63,327.08s0,.08,0,.12a14.93,14.93,0,0,0-5-.5,2.53,2.53,0,0,1,5,.38Z" transform="translate(-25.65 -71.96)"/><circle class="cls-17" cx="387.28" cy="314.65" r="2.53" transform="translate(34.56 619.55) rotate(-88.14)"/><path class="cls-17" d="M395.79,324a4.39,4.39,0,0,1-.41.84,2.37,2.37,0,0,1-.37,0,2.53,2.53,0,0,1-.07-5C395.22,321.33,395.5,322.73,395.79,324Z" transform="translate(-25.65 -71.96)"/><circle class="cls-17" cx="333.03" cy="296.04" r="2.53" transform="translate(0.69 547.32) rotate(-88.14)"/><path class="cls-17" d="M329.16,287.92a2.52,2.52,0,0,1-2.28,2.43v-.06c.29-1.57.58-3.15.86-4.71A2.53,2.53,0,0,1,329.16,287.92Z" transform="translate(-25.65 -71.96)"/><path class="cls-17" d="M325.69,303.69a2.53,2.53,0,0,1-1.88,2.36c.3-1.44.61-2.92.91-4.43A2.53,2.53,0,0,1,325.69,303.69Z" transform="translate(-25.65 -71.96)"/><circle class="cls-17" cx="339.01" cy="305.19" r="2.53" transform="translate(-2.68 562.14) rotate(-88.14)"/><circle class="cls-17" cx="352.4" cy="303.65" r="2.53" transform="translate(11.82 574.04) rotate(-88.14)"/><circle class="cls-17" cx="343.3" cy="290.92" r="2.53" transform="translate(15.73 552.63) rotate(-88.14)"/><circle class="cls-17" cx="356.94" cy="288.84" r="2.53" transform="translate(31.01 564.25) rotate(-88.14)"/><circle class="cls-17" cx="363.48" cy="275.71" r="2.53" transform="translate(50.46 558.08) rotate(-88.14)"/><path class="cls-17" d="M388.21,266.34a2.37,2.37,0,0,1-.54,0,2.53,2.53,0,0,1,.06-5C387.87,262.84,388,264.52,388.21,266.34Z" transform="translate(-25.65 -71.96)"/><circle class="cls-17" cx="372.51" cy="265.89" r="2.53" transform="matrix(0.03, -1, 1, 0.03, 69, 557.6)"/><circle class="cls-17" cx="381.47" cy="275.19" r="2.53" transform="translate(68.38 575.56) rotate(-88.14)"/><circle class="cls-17" cx="365.31" cy="297.08" r="2.53" transform="translate(30.87 580.59) rotate(-88.14)"/><circle class="cls-17" cx="329.94" cy="313.35" r="2.53" transform="translate(-19.6 560.98) rotate(-88.14)"/><circle class="cls-17" cx="346.95" cy="315.87" r="2.53" transform="translate(-5.67 580.42) rotate(-88.14)"/><path class="cls-17" d="M323.51,321.49a2.53,2.53,0,0,1-1.07,2,26,26,0,0,1-2.35-1.93c.24-.83.49-1.72.74-2.66h.23A2.53,2.53,0,0,1,323.51,321.49Z" transform="translate(-25.65 -71.96)"/><path class="cls-18" d="M388.62,254.29c-14.43,8.77-40.36,7.2-56.4-1.83,1.87-9.65,4.24-19.3,4.22-32.23q0-2.13,0-4.22,0-1.82-.09-3.62c-.71-21.53-3.8-39.22-1.93-41.43a17.13,17.13,0,0,1,3.82-3c.65-.41,1.34-.83,2.07-1.24,1.73-1,3.64-2,5.56-2.91,4.56-2.25,9.18-4.32,11.51-5.76a14.5,14.5,0,0,0,6,1.71h.33a14.53,14.53,0,0,0,6.06-1.32c2.07,1.48,6,3.57,10,5.84a88.09,88.09,0,0,1,8.22,5.14,16.83,16.83,0,0,1,3.48,3.19c.86,1.15.32,6.08-.68,13.36s-2.43,16.63-3.45,27c-.28,2.89-.54,5.86-.74,8.87C385.64,234.75,387.38,244.53,388.62,254.29Z" transform="translate(-25.65 -71.96)"/><path class="cls-9" d="M379,243.85h0c-11.38-.42-20.93-5.91-26.93-10.45a62.38,62.38,0,0,1-10.41-9.84.55.55,0,0,1,.86-.68,61.27,61.27,0,0,0,10.23,9.66c5.87,4.43,15.2,9.8,26.29,10.21a.55.55,0,0,1,0,1.1Z" transform="translate(-25.65 -71.96)"/><path class="cls-9" d="M367,247.33c-9.88-.32-19.54-6.27-20-6.54a.55.55,0,0,1,.58-.93c.11.07,11.49,7.07,21.8,6.34a.55.55,0,0,1,.08,1.09A24,24,0,0,1,367,247.33Z" transform="translate(-25.65 -71.96)"/><path class="cls-9" d="M360.29,185.8a.55.55,0,0,1-.07-1.09c14-2.18,18.43-11,18.48-11.06a.55.55,0,1,1,1,.48c-.19.38-4.77,9.39-19.29,11.66Z" transform="translate(-25.65 -71.96)"/><path class="cls-14" d="M379.67,164.24c-3,6.19-9.71,14.5-18.46,12.7-8.48-1.75-12.61-8.42-15.38-13.18,4.56-2.25,9.18-4.32,11.51-5.76a14.57,14.57,0,0,0,6,1.71h.33a14.58,14.58,0,0,0,6.06-1.32C371.76,159.87,375.68,162,379.67,164.24Z" transform="translate(-25.65 -71.96)"/><path class="cls-19" d="M363,168.67c9,.29,10.86-8.23,10.88-8.32a.51.51,0,0,0-1-.21c-.07.32-1.73,7.76-9.84,7.5a9.78,9.78,0,0,1-9.65-7.63.51.51,0,0,0-1,.19A11,11,0,0,0,363,168.67Z" transform="translate(-25.65 -71.96)"/><path class="cls-16" d="M363.62,159.93h0Z" transform="translate(-25.65 -71.96)"/><path class="cls-15" d="M350.32,133s-2.54-3.63-4.61-.76.44,11.6,5.34,9.65Z" transform="translate(-25.65 -71.96)"/><path class="cls-20" d="M350.09,139.14a.41.41,0,0,1-.38-.31,6.32,6.32,0,0,0-3.42-3.88.41.41,0,0,1,.31-.75,7,7,0,0,1,3.9,4.44.41.41,0,0,1-.3.49Z" transform="translate(-25.65 -71.96)"/><path class="cls-20" d="M347.34,137.7a.41.41,0,0,1-.32-.64,3.73,3.73,0,0,1,1.57-1.19.41.41,0,1,1,.31.76,3,3,0,0,0-1.21.89A.41.41,0,0,1,347.34,137.7Z" transform="translate(-25.65 -71.96)"/><path class="cls-15" d="M377.68,133.85s2.77-3.45,4.65-.46-1.19,11.55-6,9.28Z" transform="translate(-25.65 -71.96)"/><path class="cls-20" d="M377.52,140a.41.41,0,0,0,.4-.29,6.32,6.32,0,0,1,3.66-3.65.41.41,0,0,0-.26-.77,7,7,0,0,0-4.18,4.17.41.41,0,0,0,.27.51Z" transform="translate(-25.65 -71.96)"/><path class="cls-20" d="M380.35,138.77a.41.41,0,0,0,.36-.62,3.73,3.73,0,0,0-1.49-1.29.41.41,0,0,0-.36.73,3,3,0,0,1,1.15,1A.41.41,0,0,0,380.35,138.77Z" transform="translate(-25.65 -71.96)"/><path class="cls-21" d="M370,149.8l-.28,8.6s-2.71,4.29-6.18,4.48-6.42-4-6.42-4l.29-8.9Z" transform="translate(-25.65 -71.96)"/><path class="cls-15" d="M370,149.8l-.12,3.81c-2.41,2.51-6.57,3.29-12.66,2.19l.19-5.8Z" transform="translate(-25.65 -71.96)"/><path class="cls-14" d="M379.79,128a83.73,83.73,0,0,1-1.47,10.82c-.19.83-.39,1.61-.61,2.3-2,6.28-6.89,17-19.42,12.06-5.53-2.18-7.92-8.5-8.87-14.87a61.32,61.32,0,0,1-.46-11.79,9,9,0,0,1,4.8-7.49c7.62-4,15.46-2.16,20.59,0A9,9,0,0,1,379.79,128Z" transform="translate(-25.65 -71.96)"/><ellipse class="cls-16" cx="357.13" cy="133.7" rx="1.66" ry="1.06" transform="translate(186.27 414.34) rotate(-88.14)"/><ellipse class="cls-16" cx="370.18" cy="134.12" rx="1.66" ry="1.06" transform="translate(198.46 427.79) rotate(-88.14)"/><path class="cls-16" d="M355.42,128.68a17.65,17.65,0,0,1,4.54-.53.79.79,0,0,1,.75.95h0a.78.78,0,0,1-.83.62,19.85,19.85,0,0,0-6.21.56,1.18,1.18,0,0,1,.39-.83A2.72,2.72,0,0,1,355.42,128.68Z" transform="translate(-25.65 -71.96)"/><path class="cls-16" d="M372.49,129.27a17.65,17.65,0,0,0-4.5-.82.79.79,0,0,0-.81.89h0a.78.78,0,0,0,.79.67,19.85,19.85,0,0,1,6.16,1,1.18,1.18,0,0,0-.33-.85A2.72,2.72,0,0,0,372.49,129.27Z" transform="translate(-25.65 -71.96)"/><path class="cls-15" d="M363.88,141.5a1.72,1.72,0,0,1-.88-.24,1.25,1.25,0,0,1-.56-1,60.59,60.59,0,0,1,.45-6.4.41.41,0,0,1,.81.09,61.89,61.89,0,0,0-.45,6.25.44.44,0,0,0,.19.39,2.45,2.45,0,0,0,1.64-.1.41.41,0,0,1,.28.77A4.36,4.36,0,0,1,363.88,141.5Z" transform="translate(-25.65 -71.96)"/><path class="cls-19" d="M358.61,143.91c.26,1.56,1.19,4.46,4.65,4.57s4.52-2.47,4.91-4.26Z" transform="translate(-25.65 -71.96)"/><path class="cls-15" d="M363.13,150.86a4.09,4.09,0,0,1-1.9-.62.41.41,0,0,1,.45-.68h0a3.29,3.29,0,0,0,1.47.49,3.48,3.48,0,0,0,1.58-.39.41.41,0,0,1,.4.71A4.27,4.27,0,0,1,363.13,150.86Z" transform="translate(-25.65 -71.96)"/><path class="cls-16" d="M381.46,127.4a1.34,1.34,0,0,1-1,.72,26.28,26.28,0,0,1-.25,3c-.7,5.89-2.22,6.88-2.51,5.4a68.58,68.58,0,0,1,.17-8.34,19.34,19.34,0,0,1-2.15-.34l-1.18-5.78-.66,5.64c-2.08.65-6.83-.65-6.83-.65l-1.42-5.7-1.17,5.4c-3.13,1.4-6.95.27-6.95.27l-.7-5.89-2.23,5.8a20.83,20.83,0,0,1-4.32.88c.13,2.13.34,6.44-.08,6.93-1.47,1.71-2-1.14-1.9-3.86.07-1.35.16-2.49.22-3.29a.91.91,0,0,1-.57-.87c0-1.37,1.13-5.2,2.08-8.17a12.39,12.39,0,0,1,6.21-7.38c8.29-4.11,16.84-1.5,19.74.36C382.1,115.5,381.46,127.4,381.46,127.4Z" transform="translate(-25.65 -71.96)"/><circle class="cls-16" cx="341.52" cy="35.61" r="11.71"/><circle class="cls-19" cx="378.45" cy="142.93" r="0.96" transform="translate(197.66 444.57) rotate(-88.14)"/><path class="cls-19" d="M375.46,133.43a4.93,4.93,0,0,0-.35-.75,5.14,5.14,0,0,0-2.36-2.14h0a5,5,0,0,0-1.91-.44,5.36,5.36,0,0,0-.72,0,5.13,5.13,0,0,0-4,2.79,5,5,0,0,0-.34.85,5.11,5.11,0,1,0,10,1.61A5,5,0,0,0,375.46,133.43Zm-4.92,6.09a4.31,4.31,0,1,1,4.45-4.17A4.31,4.31,0,0,1,370.54,139.53Z" transform="translate(-25.65 -71.96)"/><path class="cls-19" d="M361.7,133.64a4.91,4.91,0,0,0-.27-.85,5.11,5.11,0,0,0-4-3.07A5,5,0,0,0,355,130h0a5.13,5.13,0,0,0-2.58,2.06,4.86,4.86,0,0,0-.39.74,5.11,5.11,0,1,0,9.8,2.18A4.91,4.91,0,0,0,361.7,133.64Zm-5.12,5.44a4.31,4.31,0,1,1,4.45-4.17A4.32,4.32,0,0,1,356.58,139.07Z" transform="translate(-25.65 -71.96)"/><path class="cls-19" d="M377.69,131.43a7.1,7.1,0,0,0-3,1.59.4.4,0,0,0,0,.56.4.4,0,0,0,.56,0,6.45,6.45,0,0,1,2.41-1.31Z" transform="translate(-25.65 -71.96)"/><path class="cls-19" d="M352.68,132.25a6.92,6.92,0,0,0-2.42-1.48l-.09,1a7.84,7.84,0,0,1,2,1.14.39.39,0,0,0,.22.07.4.4,0,0,0,.24-.72Z" transform="translate(-25.65 -71.96)"/><path class="cls-19" d="M361.58,133.77a3.22,3.22,0,0,1,2.24-1.22,2.93,2.93,0,0,1,2.05,1.36l.68-.41a3.69,3.69,0,0,0-2.71-1.74,4,4,0,0,0-2.9,1.53Z" transform="translate(-25.65 -71.96)"/><path class="cls-14" d="M336.31,212.38c-.71-21.53-3.8-39.22-1.93-41.43a17.13,17.13,0,0,1,3.82-3C339.59,175.69,343,199.09,336.31,212.38Z" transform="translate(-25.65 -71.96)"/><path class="cls-14" d="M390.69,185.93c-1,7.17-2.43,16.63-3.45,27-5.1-13.64-1.24-35.84.65-43.6a16.83,16.83,0,0,1,3.48,3.19C392.23,173.72,391.69,178.64,390.69,185.93Z" transform="translate(-25.65 -71.96)"/><path class="cls-14" d="M406.71,231.83c-1.78,7.91-7,15.42-10.82,20.13l0,0a63.79,63.79,0,0,1-4.47,5l-5-4.46a76.64,76.64,0,0,0,5.32-11.11c2.39-6.15,4.55-14.07,3.93-21.55v0c0-.17,0-.34,0-.51l-.25-.68v0l-8.95-23.74,5.17-22s11,28,14.6,42C406.15,214.94,408.93,222,406.71,231.83Z" transform="translate(-25.65 -71.96)"/><path class="cls-15" d="M402.32,217.68a.63.63,0,0,1-.47.66q-3.39.79-6.21,1.52v0c0-.17,0-.34,0-.51l-.25-.68q2.83-.73,6.22-1.53a.62.62,0,0,1,.75.47A.29.29,0,0,1,402.32,217.68Z" transform="translate(-25.65 -71.96)"/><path class="cls-15" d="M386.38,252.51l5,4.46a63.71,63.71,0,0,0,4.47-5v0c-.19-4.15-1.81-9.72-4.19-10.55A76.55,76.55,0,0,1,386.38,252.51Z" transform="translate(-25.65 -71.96)"/><path class="cls-14" d="M387.75,248.46c-.79.14-5,.84-4.71-.66.32-1.66,4.21-4,4.21-4l0-.22,0-.39-.34-3.15a3.43,3.43,0,0,1,1.4.07c1.89.35,2.91,4.28,2.91,4.28s2.39.56,2.5,2.25a2.23,2.23,0,0,1-1.71,2.16s2.67,1,2.25,2.47a3.84,3.84,0,0,1-2.29,2.14s2.33,1.18,1.69,2.28a5.67,5.67,0,0,1-2.35,1.8s1.75,1.87.34,3.17-3.7,1.31-5.21,1-1.47-2.22,1.23-3.89a4.19,4.19,0,0,1-4-1.42c-1.25-1.63,1.34-2.7,3.6-3.26-1.78.33-4.89.63-5.62-1C380.62,249.89,386.79,248.64,387.75,248.46Z" transform="translate(-25.65 -71.96)"/><path class="cls-22" d="M377.71,417.07a40.46,40.46,0,0,1,5.68-1.16c1.23,0,9.46,9.25,12.24,9.8,5,1,5,8.85,2,9.24-8.86,1.12-24-2.64-24-2.64s-1.39-10.09-.77-13.25S375.23,418,377.71,417.07Z" transform="translate(-25.65 -71.96)"/><path class="cls-19" d="M385,425.69a.61.61,0,0,1-.64-.94,9.44,9.44,0,0,1,3.43-3.08,4.23,4.23,0,0,1,4.32.53.61.61,0,1,1-.8.93,3,3,0,0,0-3-.32,8.35,8.35,0,0,0-2.89,2.63A.61.61,0,0,1,385,425.69Z" transform="translate(-25.65 -71.96)"/><path class="cls-19" d="M383.34,423.83a.61.61,0,0,1-.64-.94,9.45,9.45,0,0,1,3.43-3.08,4.23,4.23,0,0,1,4.32.53.61.61,0,1,1-.8.93,3,3,0,0,0-3-.32,8.31,8.31,0,0,0-2.89,2.63A.61.61,0,0,1,383.34,423.83Z" transform="translate(-25.65 -71.96)"/><path class="cls-19" d="M387.41,427.27a.61.61,0,0,1-.64-.94,9.45,9.45,0,0,1,3.44-3.08,4.23,4.23,0,0,1,4.32.53.61.61,0,1,1-.8.93,3,3,0,0,0-3-.32,8.31,8.31,0,0,0-2.89,2.63A.61.61,0,0,1,387.41,427.27Z" transform="translate(-25.65 -71.96)"/><path class="cls-22" d="M334.21,419.47s-2-2.67-3.54-2.56-13.75,9.7-17.91,10.48-3.9,6-2.26,6.53c1.87.65,32.68-.24,32.68-.24s1.06-11,0-13.93S337.46,420.18,334.21,419.47Z" transform="translate(-25.65 -71.96)"/><path class="cls-19" d="M327.47,426.18a.58.58,0,0,0,.68-.84,9,9,0,0,0-3-3.17,4,4,0,0,0-4.12.18.58.58,0,1,0,.69.94,2.86,2.86,0,0,1,2.9-.07,7.93,7.93,0,0,1,2.53,2.71A.58.58,0,0,0,327.47,426.18Z" transform="translate(-25.65 -71.96)"/><path class="cls-19" d="M329.22,424.54a.58.58,0,0,0,.68-.84,9,9,0,0,0-3-3.17,4,4,0,0,0-4.12.18.58.58,0,1,0,.69.94,2.86,2.86,0,0,1,2.9-.08,7.89,7.89,0,0,1,2.53,2.71A.58.58,0,0,0,329.22,424.54Z" transform="translate(-25.65 -71.96)"/><path class="cls-19" d="M325.12,427.5a.58.58,0,0,0,.68-.84,9,9,0,0,0-3-3.17,4,4,0,0,0-4.12.18.58.58,0,1,0,.69.94,2.87,2.87,0,0,1,2.9-.07,7.88,7.88,0,0,1,2.53,2.71A.58.58,0,0,0,325.12,427.5Z" transform="translate(-25.65 -71.96)"/><path class="cls-14" d="M335.57,189.81a43.69,43.69,0,0,1-5.89-4.69c-5.64-6.28-19.8-21.18-24-34-2.69-8.16-7.11-46-7.12-46.56h0l7.12-1.7,0,.08h0c.31,1.5,5.06,23.92,10.24,38,.14.4.29.78.44,1.16.28.72.55,1.41.82,2.07l.37.86q.25.57.51,1.13a51.07,51.07,0,0,0,14.42,18.52c.31.23,5.06,3.69,5.06,3.69A41.72,41.72,0,0,1,335.57,189.81Z" transform="translate(-25.65 -71.96)"/><path class="cls-15" d="M316.35,142.07q-2.23,1-4.77,2.22a.63.63,0,0,1-.78-.22.29.29,0,0,1,0-.08.62.62,0,0,1,.29-.83q2.6-1.23,4.87-2.25C316.06,141.3,316.2,141.69,316.35,142.07Z" transform="translate(-25.65 -71.96)"/><path class="cls-14" d="M304.48,104.12s3-2.51,3.23-5.6,1.18-8.49-.6-11.17c-1.49-2.24-1.18,3.48-2.78,5.7a43,43,0,0,1-4.3-5.1c-1.41-2.1-4.57-5.81-6-7.51a.61.61,0,0,0-1.06.5c.19,1,.92,2.6,3,5.22,0,0-5.32-6.08-6.72-5.63s5.4,7.93,5.4,7.93-5.8-5.12-6.71-4.29c-.55.51,4.71,6.77,4.71,6.77s-5.87-4.35-5.19-2.35c.2.58,11.18,10.56,11.47,18.17C298.89,106.75,302.78,106.1,304.48,104.12Z" transform="translate(-25.65 -71.96)"/><path class="cls-23" d="M213.85,433.91h53.22a9.89,9.89,0,0,0-9.89-9.89h-.09s-11.29-1.47-11.29-10.7v-55H235.13v55c0,9.23-11.29,10.7-11.29,10.7h-.09A9.88,9.88,0,0,0,213.85,433.91Z" transform="translate(-25.65 -71.96)"/><path class="cls-9" d="M189.28,358.28H291.64a19.59,19.59,0,0,0-19.33-16.1l-31.85.08-31.85-.08A19.59,19.59,0,0,0,189.28,358.28Z" transform="translate(-25.65 -71.96)"/><path class="cls-24" d="M262.22,238.67c2.67,9.87,16.13,35.58,21.36,39.26,6.8,4.8,28.13,13.8,39.22,18.39,2,.83-5.42,9.59-5.42,9.59s-28.69-7.3-40.38-14.76c-3.31-2.11-10.47-9.28-19.54-23.65-2.75-4.36-9.12-13-9.82-19.2C246.82,241.18,254.84,236.28,262.22,238.67Z" transform="translate(-25.65 -71.96)"/><path class="cls-21" d="M337.84,410.29l5.15,9.43s3.28.34,7.51-3.29l-3.95-11.08Z" transform="translate(-25.65 -71.96)"/><path class="cls-23" d="M348.78,415.81s.29-3.18,1.64-3.88,16.16,1.14,20-.29,6.18,3,5.12,4.26c-1.22,1.47-27,16.09-27,16.09s-6.34-8.51-7-11.47S346.46,418,348.78,415.81Z" transform="translate(-25.65 -71.96)"/><path class="cls-19" d="M357.67,418a.56.56,0,0,1-1-.36,8.63,8.63,0,0,1,.91-4.12,3.87,3.87,0,0,1,3.48-1.91.56.56,0,0,1-.1,1.12,2.76,2.76,0,0,0-2.43,1.38,7.63,7.63,0,0,0-.74,3.49A.56.56,0,0,1,357.67,418Z" transform="translate(-25.65 -71.96)"/><path class="cls-19" d="M355.42,417.5a.56.56,0,0,1-1-.36,8.63,8.63,0,0,1,.91-4.12,3.86,3.86,0,0,1,3.48-1.91.56.56,0,1,1-.1,1.12,2.76,2.76,0,0,0-2.43,1.38,7.59,7.59,0,0,0-.74,3.49A.56.56,0,0,1,355.42,417.5Z" transform="translate(-25.65 -71.96)"/><path class="cls-19" d="M360.27,417.89a.56.56,0,0,1-1-.36,8.64,8.64,0,0,1,.91-4.12,3.86,3.86,0,0,1,3.48-1.91.56.56,0,1,1-.1,1.12,2.76,2.76,0,0,0-2.43,1.38,7.59,7.59,0,0,0-.74,3.49A.56.56,0,0,1,360.27,417.89Z" transform="translate(-25.65 -71.96)"/><path class="cls-25" d="M291.7,317.34s16.76,1,20.67,4.69S350,406.53,350,406.53a37.17,37.17,0,0,1-12.42,6s-24.18-41.5-31.44-52.37c-7.5-11.22-8.43-17.47-8.43-17.47l-17.2-2.51Z" transform="translate(-25.65 -71.96)"/><path class="cls-26" d="M229.22,226.09s-11.51,3.76-17.67,9.16-1.59,21.54-1.16,30.69c1.26,26.33,1.36,62.33,14.48,69,9.91,5,48.43-2.42,45.38-16a397.47,397.47,0,0,1-8.17-45.75c-1.76-14.83,1.79-28.36.14-34.52s-20.93-13.21-20.93-13.21Z" transform="translate(-25.65 -71.96)"/><path class="cls-24" d="M237.81,237c-6,0-11.54-6.38-11.78-6.66a.42.42,0,0,1,.64-.55c.06.07,5.86,6.75,11.66,6.35a.42.42,0,0,1,.06.85Z" transform="translate(-25.65 -71.96)"/><path class="cls-24" d="M232.6,308.81a.42.42,0,0,1,0-.84c15.51-1.79,21.94-28.63,22-28.9a.42.42,0,0,1,.83.19c-.26,1.13-6.63,27.7-22.73,29.55Z" transform="translate(-25.65 -71.96)"/><path class="cls-24" d="M238.78,300.69a.42.42,0,0,1-.22-.78c8.25-5.09,9.48-12.58,9.49-12.66a.42.42,0,0,1,.84.13c0,.32-1.28,8-9.88,13.25A.42.42,0,0,1,238.78,300.69Z" transform="translate(-25.65 -71.96)"/><path class="cls-21" d="M271,409.88l-.37,10.74s2.65,2,8.14,1L281,410.06Z" transform="translate(-25.65 -71.96)"/><path class="cls-23" d="M277.61,420.2s1.87-2.59,3.39-2.5,13.33,9.21,17.34,9.92,3.81,5.7,2.24,6.27c-1.8.65-31.47.09-31.47.09S268,423.42,269,420.57,274.49,420.92,277.61,420.2Z" transform="translate(-25.65 -71.96)"/><path class="cls-19" d="M284.16,426.59a.56.56,0,0,1-.66-.8,8.63,8.63,0,0,1,2.87-3.08,3.86,3.86,0,0,1,4,.13.56.56,0,1,1-.66.91,2.76,2.76,0,0,0-2.79,0,7.63,7.63,0,0,0-2.41,2.63A.56.56,0,0,1,284.16,426.59Z" transform="translate(-25.65 -71.96)"/><path class="cls-19" d="M282.47,425a.56.56,0,0,1-.66-.81,8.63,8.63,0,0,1,2.87-3.08,3.86,3.86,0,0,1,4,.13.56.56,0,1,1-.66.91,2.76,2.76,0,0,0-2.79,0,7.59,7.59,0,0,0-2.41,2.63A.56.56,0,0,1,282.47,425Z" transform="translate(-25.65 -71.96)"/><path class="cls-19" d="M286.44,427.84a.56.56,0,0,1-.66-.81,8.64,8.64,0,0,1,2.87-3.08,3.86,3.86,0,0,1,4,.13.56.56,0,1,1-.66.91,2.76,2.76,0,0,0-2.79,0,7.59,7.59,0,0,0-2.41,2.63A.56.56,0,0,1,286.44,427.84Z" transform="translate(-25.65 -71.96)"/><path class="cls-16" d="M218.13,337.74a9.74,9.74,0,0,0,.88,1.13c2,2.26,5,3.61,9,3.61l47.8-.24a182.48,182.48,0,0,0-5.19,32.39c-3.53,29.87-1.31,35.25-1.31,35.25a7.74,7.74,0,0,0,1.42,1.1,8.45,8.45,0,0,0,1.14.62c2.88,1.41,7,2.16,10.16,1.16,0,0,29.09-90.06,18.45-93.43-12.36-3.92-85.34-.94-85.34-.94l-.58,5.27A21.23,21.23,0,0,0,218.13,337.74Z" transform="translate(-25.65 -71.96)"/><path class="cls-25" d="M280.24,339.48a1.61,1.61,0,0,1,.29,1.37c-2.38,10-9.79,43.28-9.78,70.13a8.45,8.45,0,0,0,1.14.62c-.15-26.84,7.34-60.43,9.74-70.48a2.75,2.75,0,0,0-2.68-3.38H218.13a9.74,9.74,0,0,0,.88,1.13H279A1.65,1.65,0,0,1,280.24,339.48Z" transform="translate(-25.65 -71.96)"/><path class="cls-16" d="M224.77,195.09c-1.83,9.5,2.76,17.17,12.26,19s17.48-3.93,19.31-13.43-2.41-17.78-11.91-19.61C233,178.86,226.6,185.59,224.77,195.09Z" transform="translate(-25.65 -71.96)"/><path class="cls-15" d="M253.32,204.83s3.32-3,4.72.28-3,11.35-7.43,8.32Z" transform="translate(-25.65 -71.96)"/><path class="cls-20" d="M252.17,211a.41.41,0,0,0,.45-.22,6.39,6.39,0,0,1,4.24-3.06.41.41,0,0,0-.14-.81,7.12,7.12,0,0,0-4.84,3.51.41.41,0,0,0,.18.55Z" transform="translate(-25.65 -71.96)"/><path class="cls-20" d="M255.2,210.18a.41.41,0,0,0,.46-.56,3.77,3.77,0,0,0-1.29-1.52.41.41,0,0,0-.47.68,3,3,0,0,1,1,1.15A.41.41,0,0,0,255.2,210.18Z" transform="translate(-25.65 -71.96)"/><path class="cls-21" d="M243.12,219.55l-1.74,9s-2.5,2.74-5.4,2.53c-4.05-.29-7.14-4.75-7.14-4.75l1.66-8.63Z" transform="translate(-25.65 -71.96)"/><path class="cls-15" d="M243.12,219.55l-.73,3.79c-2.81,2.12-7,2-12.94-.1l1.06-5.5Z" transform="translate(-25.65 -71.96)"/><path class="cls-21" d="M224.75,199.16c-.06.5-.12,1-.16,1.53-.12,1.3-.2,2.64-.21,4,0,0,0,.09,0,.14-.07,6.52,1.32,13.22,6.5,16.27,11.73,6.92,18.31-3,21.32-9,.33-.66.66-1.4,1-2.2l0-.1c.35-.9.7-1.86,1-2.86.24-.74.47-1.49.69-2.25.55-1.85,1-3.71,1.43-5.37a9.05,9.05,0,0,0-4-9.82c-4.78-3-12.33-6.07-20.57-3.28a9.09,9.09,0,0,0-6,6.72C225.41,194.69,225,196.83,224.75,199.16Z" transform="translate(-25.65 -71.96)"/><ellipse class="cls-16" cx="235.1" cy="201.94" rx="1.68" ry="1.07" transform="translate(-33.31 322.65) rotate(-79.1)"/><ellipse class="cls-16" cx="247.05" cy="204.3" rx="1.68" ry="1.07" transform="translate(-25.94 336.28) rotate(-79.1)"/><path class="cls-16" d="M251.52,198.94s-3.06-1.95-5.83-1.34l0,1.47s3.81.4,5.55,1.53A2.51,2.51,0,0,0,251.52,198.94Z" transform="translate(-25.65 -71.96)"/><path class="cls-16" d="M232.71,195.15s3.57-.67,5.91.92l-.53,1.37s-3.68-1-5.72-.64A2.51,2.51,0,0,1,232.71,195.15Z" transform="translate(-25.65 -71.96)"/><path class="cls-15" d="M238.65,210a4.41,4.41,0,0,1-1.47-.42.41.41,0,0,1,.36-.74,2.48,2.48,0,0,0,1.64.27.45.45,0,0,0,.23-.37,62.53,62.53,0,0,0,.18-6.33.41.41,0,0,1,.83,0,61.26,61.26,0,0,1-.2,6.49,1.26,1.26,0,0,1-.67,1A1.74,1.74,0,0,1,238.65,210Z" transform="translate(-25.65 -71.96)"/><path class="cls-19" d="M232.63,211.32c0,1.73.52,5,4.24,5.73s5.31-1.89,6-3.75Z" transform="translate(-25.65 -71.96)"/><path class="cls-16" d="M254.78,205.19l-1.84-.35a13.57,13.57,0,0,0,.05-5.76c-.61-3.62,2.35-4.59.52-6.69s-6.06-2.52-9.78-3.36a47.92,47.92,0,0,0-9.56-1.19c-1.54.05-2,1.74-1.82,3.74s-3.11,1.78-4.06,5.92a18,18,0,0,0-.79,2.69l-2.78-.77c.28-2.42.68-4.65,1.06-6.44a9.09,9.09,0,0,1,6-6.72c8.25-2.78,15.79.3,20.57,3.28a9.06,9.06,0,0,1,4,9.82C255.92,201.14,255.38,203.19,254.78,205.19Z" transform="translate(-25.65 -71.96)"/><path class="cls-19" d="M242.56,203.92a4.93,4.93,0,1,1,3.91,5.77A4.93,4.93,0,0,1,242.56,203.92Zm.75.15a4.16,4.16,0,1,0,4.87-3.3A4.16,4.16,0,0,0,243.31,204.07Z" transform="translate(-25.65 -71.96)"/><path class="cls-19" d="M229.33,201.37a4.93,4.93,0,1,1,3.91,5.77A4.93,4.93,0,0,1,229.33,201.37Zm.75.15a4.16,4.16,0,1,0,4.87-3.3A4.16,4.16,0,0,0,230.09,201.52Z" transform="translate(-25.65 -71.96)"/><path class="cls-19" d="M251.72,204.07A.38.38,0,0,0,252,204h0a6.05,6.05,0,0,1,5.39-.5.38.38,0,0,0,.31-.7,6.72,6.72,0,0,0-6.13.56.38.38,0,0,0,.14.7Z" transform="translate(-25.65 -71.96)"/><path class="cls-19" d="M230.36,200a.38.38,0,0,0,.34-.65c-.13-.12-3.12-3-6.13-3.07a.38.38,0,0,0,0,.77c2.71.07,5.59,2.83,5.62,2.86A.38.38,0,0,0,230.36,200Z" transform="translate(-25.65 -71.96)"/><path class="cls-19" d="M239,202.1a3.11,3.11,0,0,1,2.32-.82,2.83,2.83,0,0,1,1.75,1.6l.71-.29a3.56,3.56,0,0,0-2.31-2.07,3.83,3.83,0,0,0-3,1Z" transform="translate(-25.65 -71.96)"/><path class="cls-21" d="M226.12,199.6s-2-4-4.48-1.5-1.4,11.66,3.8,10.49Z" transform="translate(-25.65 -71.96)"/><path class="cls-15" d="M224.9,205.73a.41.41,0,0,1-.33-.37,6.39,6.39,0,0,0-2.8-4.42.41.41,0,0,1,.43-.7,7.12,7.12,0,0,1,3.19,5.05.41.41,0,0,1-.38.45Z" transform="translate(-25.65 -71.96)"/><path class="cls-15" d="M222.38,203.86a.41.41,0,0,1-.22-.69,3.77,3.77,0,0,1,1.76-.93.41.41,0,1,1,.19.8,3,3,0,0,0-1.35.7A.41.41,0,0,1,222.38,203.86Z" transform="translate(-25.65 -71.96)"/><path class="cls-21" d="M285.5,297.28s10.85,1.83,15.37,5.61,10.59,7,9.69,9-7.29-2.19-7.29-2.19-1.52,3.52-6.75,5-16.41-7.46-16.41-7.46Z" transform="translate(-25.65 -71.96)"/><path class="cls-24" d="M214,233.36c6.05,9.17,29.21,40.88,34.44,44.57,6.8,4.8,25.83,14.76,36.93,19.35,2,.83-4.45,10.26-4.45,10.26s-27.37-8.93-39.06-16.39C238.55,289,224.8,275.26,216,263c-3-4.19-7.89-10-8.6-16.18C206.62,239.74,208.86,235.93,214,233.36Z" transform="translate(-25.65 -71.96)"/><rect class="cls-27" x="267.59" y="311.48" width="60.22" height="7.85" rx="2.31" ry="2.31" transform="translate(569.74 558.86) rotate(180)"/><path class="cls-22" d="M337.93,319.33l12.25-45.89a4.06,4.06,0,0,0-3.92-5.11h-27a4.06,4.06,0,0,0-3.91,3l-13.49,48Z" transform="translate(-25.65 -71.96)"/><path class="cls-27" d="M315.39,271.3,302,318.94h-3.08l13.38-47.64a4.06,4.06,0,0,1,3.91-3h3.08A4.06,4.06,0,0,0,315.39,271.3Z" transform="translate(-25.65 -71.96)"/><path class="cls-28" d="M322.32,295.89a4.22,4.22,0,0,0,4.21,5.48,7.32,7.32,0,0,0,6.75-5.48,4.22,4.22,0,0,0-4.21-5.48A7.32,7.32,0,0,0,322.32,295.89Z" transform="translate(-25.65 -71.96)"/><polygon class="cls-21" points="68.26 334.7 66.57 345.36 75.25 346.43 77.45 335.28 68.26 334.7"/><path class="cls-29" d="M95.82,416.16a40.51,40.51,0,0,1,5.8-.36c1.22.2,8.11,10.49,10.79,11.41,4.86,1.68,3.77,9.47.68,9.43-8.94-.11-23.45-5.94-23.45-5.94s0-10.2,1.06-13.25S93.24,416.74,95.82,416.16Z" transform="translate(-25.65 -71.96)"/><path class="cls-19" d="M101.9,425.72a.61.61,0,0,1-.51-1,9.46,9.46,0,0,1,3.83-2.58,4.24,4.24,0,0,1,4.21,1.12.61.61,0,0,1-.93.81,3,3,0,0,0-3-.74,8.36,8.36,0,0,0-3.23,2.21A.61.61,0,0,1,101.9,425.72Z" transform="translate(-25.65 -71.96)"/><path class="cls-19" d="M100.47,423.64a.61.61,0,0,1-.51-1A9.46,9.46,0,0,1,103.8,420a4.23,4.23,0,0,1,4.21,1.12.61.61,0,1,1-.92.81,3,3,0,0,0-3-.74,8.32,8.32,0,0,0-3.23,2.21A.61.61,0,0,1,100.47,423.64Z" transform="translate(-25.65 -71.96)"/><path class="cls-19" d="M104,427.62a.61.61,0,0,1-.51-1,9.46,9.46,0,0,1,3.83-2.58,4.23,4.23,0,0,1,4.21,1.12.61.61,0,1,1-.92.81,3,3,0,0,0-3-.74,8.32,8.32,0,0,0-3.23,2.21A.61.61,0,0,1,104,427.62Z" transform="translate(-25.65 -71.96)"/><path class="cls-30" d="M139.18,279.33s-.44,2.5-1.19,6.64c-.2,1.1-.42,2.31-.66,3.62-2.55,13.89-7.31,39-11.52,56.72-5.9,24.85-20.62,65.18-20.62,65.18L94.39,410l-1.07-.15-2.56-.35s4.47-26,9.09-48.51c3-14.84,7.56-50.23,10.28-72.59,1.4-11.53,2.33-19.6,2.33-19.6Z" transform="translate(-25.65 -71.96)"/><path class="cls-30" d="M139.18,279.33s-.44,2.5-1.19,6.64c-.2,1.1-.42,2.31-.66,3.62-5.1.43-18.92-.33-27.2-1.17,1.4-11.53,2.33-19.6,2.33-19.6Z" transform="translate(-25.65 -71.96)"/><path class="cls-25" d="M116.85,283.63c-.1.86-9.41,82.39-22.46,126.38l-1.07-.15c13.05-43.85,22.38-125.5,22.47-126.35Z" transform="translate(-25.65 -71.96)"/><polygon class="cls-21" points="148.44 338.6 148.16 348.32 139.27 347.92 138.99 337.6 148.44 338.6"/><path class="cls-29" d="M171.54,419.85s1.92-2.54,3.42-2.42S188,426.88,192,427.67s3.18,3.72,2.44,5.21-31.78-.79-31.78-.79-.79-9.25.25-12.07S168.42,420.5,171.54,419.85Z" transform="translate(-25.65 -71.96)"/><path class="cls-19" d="M177.92,426.35a.56.56,0,0,1-.64-.81,8.59,8.59,0,0,1,2.93-3,3.85,3.85,0,0,1,3.95.21.56.56,0,1,1-.67.89,2.74,2.74,0,0,0-2.78-.1,7.59,7.59,0,0,0-2.46,2.57A.56.56,0,0,1,177.92,426.35Z" transform="translate(-25.65 -71.96)"/><path class="cls-19" d="M176.27,424.77a.56.56,0,0,1-.64-.82,8.6,8.6,0,0,1,2.93-3,3.85,3.85,0,0,1,3.95.21.56.56,0,0,1-.67.89,2.74,2.74,0,0,0-2.78-.1,7.56,7.56,0,0,0-2.46,2.57A.56.56,0,0,1,176.27,424.77Z" transform="translate(-25.65 -71.96)"/><path class="cls-19" d="M180.17,427.64a.56.56,0,0,1-.64-.82,8.6,8.6,0,0,1,2.93-3,3.84,3.84,0,0,1,3.95.21.56.56,0,1,1-.67.89,2.75,2.75,0,0,0-2.78-.1,7.56,7.56,0,0,0-2.46,2.57A.55.55,0,0,1,180.17,427.64Z" transform="translate(-25.65 -71.96)"/><path class="cls-30" d="M175.72,413.08l-9-.6-1.08-.07-2.19-.15s-6-52.75-7.79-66.8c-1.6-12.2-8.81-39.6-13.49-56.64-1.33-4.84-2.45-8.84-3.19-11.43-.56-2-.9-3.19-.9-3.19l30.16-3.16s.09.66.24,1.85c.31,2.44.91,7.12,1.64,13,2,16,5.07,40.89,6.28,53.56C179.47,372.09,175.72,413.08,175.72,413.08Z" transform="translate(-25.65 -71.96)"/><path class="cls-30" d="M170.09,285.9l-28,2.93c-1.33-4.84-2.45-8.84-3.19-11.43l29.5-4.49C168.76,275.35,169.36,280,170.09,285.9Z" transform="translate(-25.65 -71.96)"/><path class="cls-25" d="M166.69,412.48l-1.08-.07c-.65-16.32-2.57-57.08-6-74.34-4.28-21.75-14-53.41-14.08-53.73l1-.31c.1.32,9.82,32,14.1,53.83C164.11,355.24,166,396.19,166.69,412.48Z" transform="translate(-25.65 -71.96)"/><path class="cls-31" d="M165.89,206.24c4,13.35,14.39,22.95,14.39,22.95,5.93,2.81,25.14,7.77,30.64,6.69,4.22-.6,10.38-1.64,11-6.25-7.51-.29-34.73-12.51-34.73-12.51-9.93-23.94-17-47.44-17-47.44C162.39,177.87,165.89,206.24,165.89,206.24Z" transform="translate(-25.65 -71.96)"/><path class="cls-32" d="M139.4,155.64s-15.64,4.16-22.15,9.51c0,0-8.7,3.53-8.65,57.52A468.71,468.71,0,0,0,111.45,275S122,278.6,138,279.27,170.24,275,170.24,275s-6-33.64-6-50.76,6-54.6,6-54.6l-18.3-11.55Z" transform="translate(-25.65 -71.96)"/><path class="cls-33" d="M146.92,169.67c-6-.36-11.12-7.05-11.34-7.35a.42.42,0,0,1,.67-.51c.05.07,5.43,7.08,11.23,7a.42.42,0,0,1,0,.85Z" transform="translate(-25.65 -71.96)"/><path class="cls-33" d="M131.77,248.26a.42.42,0,0,1,0-.84c15.56-.85,23.57-27.21,23.65-27.47a.42.42,0,0,1,.81.24c-.33,1.11-8.27,27.2-24.42,28.08Z" transform="translate(-25.65 -71.96)"/><path class="cls-33" d="M138.41,240.53a.42.42,0,0,1-.18-.79c8.52-4.57,10.2-12,10.21-12a.42.42,0,0,1,.83.18c-.07.32-1.75,7.84-10.64,12.61A.42.42,0,0,1,138.41,240.53Z" transform="translate(-25.65 -71.96)"/><path class="cls-21" d="M180.69,230.27l2,0a4.26,4.26,0,0,0,3.82-2.63,25.32,25.32,0,0,1,1.11-2.4c.9-1.23,2.25-4.17,3.18-4.25s.74,2.12.52,3.11a16.42,16.42,0,0,1-1.22,3.61c-.54,1.08,4.26,1,6.35,1.45s4,.74,4.4,2.45-.61,2.24-.61,2.24.82,1.54-1.44,2.86a2.1,2.1,0,0,1-1,2.34,2.35,2.35,0,0,1-1.51,2.45c-1.7.53-7,2.13-17.52-4.07Z" transform="translate(-25.65 -71.96)"/><path class="cls-31" d="M180.79,229.16s-31.64-7.91-43.59-14.31c0,0-4.23-12.34-7.23-22.4a95.15,95.15,0,0,0-7.83-18.77c-1.84-3.34-3.15-6.89-4.89-8.52,0,0-9.47,6.83-3.38,30.91,3.32,13.11,8.53,22.1,10.51,27.23,1,2.59,5.58,5.35,8.07,6.59a86.63,86.63,0,0,0,45.71,8.47S181.16,232.45,180.79,229.16Z" transform="translate(-25.65 -71.96)"/><path class="cls-21" d="M221.82,227.55s3,2.06,2.47,4.34-4.71-3.08-4.71-3.08,4.25,5.45,2.93,6.94-5.61-3.63-5.61-3.63,4.09,6,3.19,7.2-6.15-4.16-6.15-4.16,2.35,3.87,1.32,5.07c-.77.89-4.42-2.2-5.63-4.48s2.12-3.24,2.12-3.24,1.62-2.61,3.06-2.54c0,0,1.19-2.63,2.79-3.06C217.59,226.89,219.38,225.36,221.82,227.55Z" transform="translate(-25.65 -71.96)"/><path class="cls-21" d="M210,235.2s-3.11.69-2.11,4.76A12,12,0,0,1,210,236.3Z" transform="translate(-25.65 -71.96)"/><path class="cls-16" d="M166.64,130.12a17,17,0,0,1-19.69,13.77c-9.24-1.63-14.51-10.34-12.88-19.59s9.55-15.51,18.79-13.88A17,17,0,0,1,166.64,130.12Z" transform="translate(-25.65 -71.96)"/><path class="cls-16" d="M165.78,124s6-1.79,3.93-6.35,1.83-5.07-.6-8.56c-2.19-3.14-6.53-.1-8.43-2.66s-6.8-4.3-9.27-1.52c-2.28,2.56-5.21,1.14-8.23,1.14-5,0-3.33,4.95-4.57,7.7s-5.1,5.81-1,8.18S165.78,124,165.78,124Z" transform="translate(-25.65 -71.96)"/><path class="cls-15" d="M163,134.3s3.28-3.07,4.73.21-2.86,11.41-7.31,8.45Z" transform="translate(-25.65 -71.96)"/><path class="cls-20" d="M161.94,140.48a.41.41,0,0,0,.45-.23,6.4,6.4,0,0,1,4.2-3.13.41.41,0,0,0-.15-.81,7.13,7.13,0,0,0-4.79,3.58.41.41,0,0,0,.19.55Z" transform="translate(-25.65 -71.96)"/><path class="cls-20" d="M165,139.63a.41.41,0,0,0,.45-.57,3.78,3.78,0,0,0-1.31-1.5.41.41,0,1,0-.46.69,3,3,0,0,1,1,1.14A.41.41,0,0,0,165,139.63Z" transform="translate(-25.65 -71.96)"/><path class="cls-21" d="M140.92,147.06l-1.52,8.58s2.86,4.41,6.27,5.32,6.23-2.82,6.23-2.82l1.46-8.25Z" transform="translate(-25.65 -71.96)"/><path class="cls-15" d="M140.92,147.06l-.67,3.81c1.87,3,5.88,4.36,12.14,4.54l1-5.52Z" transform="translate(-25.65 -71.96)"/><path class="cls-21" d="M135,134.46c0,.86.05,1.68.13,2.41s.17,1.52.31,2.35c1.08,6.69,4.46,15.69,16.43,13.65,5.94-1,9.63-6.77,11.9-12.89.55-1.47,1-3,1.4-4.41a68.36,68.36,0,0,0,1.52-7.18,9.11,9.11,0,0,0-3.2-8.43c-6.72-5.55-14.87-5.37-20.41-4.29a9.07,9.07,0,0,0-7.27,7.75A84.43,84.43,0,0,0,135,134.46Z" transform="translate(-25.65 -71.96)"/><path class="cls-16" d="M135.4,139.22c1.08,6.69,4.46,15.69,16.43,13.65,5.94-1,9.63-6.77,11.9-12.89.55-1.47,1-3,1.4-4.41l-1.72.18c-.94,2.67-2.34,6.55-3.64,8.26-1.17-3.15-9.84-2.37-9.84-2.37s-8.16-4.24-11.07-1.56a25.84,25.84,0,0,1-.09-7.95l-2.16-.68S135.89,135.34,135.4,139.22Zm13.55,3.9a11.34,11.34,0,0,1,5.64,1.19,2.47,2.47,0,0,1-.42,4.4,10.76,10.76,0,0,1-3.3.75,13.21,13.21,0,0,1-8.2-2.42,2.83,2.83,0,0,1-.76-3.81C142.72,142,144.62,141.29,148.95,143.12Z" transform="translate(-25.65 -71.96)"/><ellipse class="cls-16" cx="157.5" cy="134.49" rx="1.68" ry="1.07" transform="translate(-28 194.21) rotate(-79.98)"/><ellipse class="cls-16" cx="145.14" cy="132.3" rx="1.68" ry="1.07" transform="matrix(0.17, -0.98, 0.98, 0.17, -36.05, 180.25)"/><path class="cls-16" d="M161.83,130s-4.08-2.51-7.72-1.65V130a14.48,14.48,0,0,1,7.15,1.8C161.61,131.09,162,130.79,161.83,130Z" transform="translate(-25.65 -71.96)"/><path class="cls-16" d="M141.74,126.45s4.7-1,7.82,1.1l-.56,1.52a14.47,14.47,0,0,0-7.34-.76C141.56,127.54,141.32,127.14,141.74,126.45Z" transform="translate(-25.65 -71.96)"/><path class="cls-15" d="M149.44,139.79a4.42,4.42,0,0,1-1.42-.57.41.41,0,0,1,.44-.7c.34.21,1.18.61,1.61.44a.45.45,0,0,0,.27-.34,62.66,62.66,0,0,0,.86-6.29.41.41,0,0,1,.82.08,61.33,61.33,0,0,1-.89,6.44,1.26,1.26,0,0,1-.77.89A1.74,1.74,0,0,1,149.44,139.79Z" transform="translate(-25.65 -71.96)"/><path class="cls-19" d="M154.13,144.69c-.63,1.62-2.28,4.51-6,3.85s-4.29-3.67-4.31-5.67Z" transform="translate(-25.65 -71.96)"/><path class="cls-16" d="M162.94,137.1a17.32,17.32,0,0,0,1.27-4.9c0-2-1.47-3.48-.6-5.29s-.77-4.2-2.19-4.8-5-.48-8.11-2.69-8.8-2-10.09-.09c-1.56,2.32-.09,2.83-3.6,5-1.4.87-.47,3.95-.58,5.82a12.48,12.48,0,0,1-.31,2.18l-.09.46-3.63-.64c.1-2.92.43-6.09.77-8.74a9.07,9.07,0,0,1,7.27-7.75c5.54-1.08,13.69-1.26,20.41,4.29a9.1,9.1,0,0,1,3.2,8.43,66,66,0,0,1-2,9Z" transform="translate(-25.65 -71.96)"/><path class="cls-21" d="M136.33,134a15.46,15.46,0,0,0,.28-2.87c0-1.32-.17-2.55-1.38-3.31a2.27,2.27,0,0,0-3.11.22c-2.49,2.57-1.9,12.05,3.3,10.8Z" transform="translate(-25.65 -71.96)"/><path class="cls-15" d="M134.95,136a.41.41,0,0,1-.26-.43,6.4,6.4,0,0,0-2-4.86.41.41,0,0,1,.55-.62,7.13,7.13,0,0,1,2.23,5.55.41.41,0,0,1-.45.37Z" transform="translate(-25.65 -71.96)"/><path class="cls-15" d="M132.81,133.74a.41.41,0,0,1-.09-.72,3.78,3.78,0,0,1,1.9-.6.41.41,0,0,1,0,.83,3,3,0,0,0-1.46.45A.41.41,0,0,1,132.81,133.74Z" transform="translate(-25.65 -71.96)"/><path class="cls-16" d="M69.36,435.9H48.19a6.65,6.65,0,0,1-6.32-4.59l-9-27.63a1.84,1.84,0,0,1,1.61-2.4,310.89,310.89,0,0,1,48.56,0,1.84,1.84,0,0,1,1.6,2.4l-9,27.64A6.65,6.65,0,0,1,69.36,435.9Z" transform="translate(-25.65 -71.96)"/><ellipse class="cls-25" cx="33.27" cy="331.32" rx="23.86" ry="1.33"/><path class="cls-3" d="M57.65,352.92v50.2a3.77,3.77,0,0,0,2.24,0v-50.2a1.12,1.12,0,0,0-1.12-1.12h0A1.12,1.12,0,0,0,57.65,352.92Z" transform="translate(-25.65 -71.96)"/><path class="cls-9" d="M58.48,367.08S69.9,377.9,83,356.83C83,356.83,60.34,352.3,58.48,367.08Z" transform="translate(-25.65 -71.96)"/><path class="cls-9" d="M59.53,358s12.78-9.17-5.45-26C54.08,332,45.36,353.4,59.53,358Z" transform="translate(-25.65 -71.96)"/><path class="cls-9" d="M59.27,386S72,395.16,82.17,372.54C82.17,372.54,59.15,371.05,59.27,386Z" transform="translate(-25.65 -71.96)"/><path class="cls-9" d="M58.77,394.06s-.45-15.72-24.58-10C34.19,384,47,403.21,58.77,394.06Z" transform="translate(-25.65 -71.96)"/><path class="cls-9" d="M59.93,371.65S59.87,355.92,35.61,361C35.61,361,48,380.52,59.93,371.65Z" transform="translate(-25.65 -71.96)"/><circle class="cls-10" cx="396.09" cy="75.85" r="23.51"/><circle class="cls-16" cx="396.09" cy="73.45" r="23.51"/><path class="cls-19" d="M421.74,167.07a21.66,21.66,0,1,1,21.66-21.66A21.68,21.68,0,0,1,421.74,167.07Z" transform="translate(-25.65 -71.96)"/><rect class="cls-16" x="395.34" y="53.77" width="0.81" height="4.52"/><rect class="cls-16" x="395.34" y="88.51" width="0.81" height="4.52"/><rect class="cls-16" x="376.11" y="72.99" width="4.52" height="0.81"/><rect class="cls-16" x="410.85" y="72.99" width="4.52" height="0.81"/><rect class="cls-16" x="431.41" y="132.67" width="4.52" height="0.81" transform="translate(7.26 273.64) rotate(-45)"/><rect class="cls-16" x="406.85" y="157.24" width="4.52" height="0.81" transform="translate(-17.28 263.53) rotate(-45)"/><rect class="cls-16" x="408.7" y="130.82" width="0.81" height="4.52" transform="translate(0.06 256.26) rotate(-45)"/><rect class="cls-16" x="433.27" y="155.38" width="0.81" height="4.52" transform="translate(-10.1 280.86) rotate(-45)"/><g class="cls-34"><path class="cls-16" d="M443.39,145.42q0,.62,0,1.24a21.66,21.66,0,0,0-43.24,0q0-.62,0-1.24a21.66,21.66,0,0,1,43.31,0Z" transform="translate(-25.65 -71.96)"/></g><path class="cls-9" d="M428.32,148.36l-7-2.76a.35.35,0,0,1-.2-.45h0a.35.35,0,0,1,.45-.2l7,2.76a.35.35,0,0,1,.2.45h0A.35.35,0,0,1,428.32,148.36Z" transform="translate(-25.65 -71.96)"/><polygon class="cls-16" points="396.09 73.74 383.46 73.74 383.46 73.05 395.39 73.05 395.39 63.24 396.09 63.24 396.09 73.74"/></g></g></svg>