<svg xmlns="http://www.w3.org/2000/svg" xmlns:xlink="http://www.w3.org/1999/xlink" viewBox="0 0 567.98 414.18"><defs><style>.cls-1{fill:#2644b0;}.cls-2{fill:#76d0fc;}.cls-3{isolation:isolate;}.cls-4{fill:#d9e4f5;}.cls-16,.cls-17,.cls-4{opacity:0.38;}.cls-12,.cls-17,.cls-21,.cls-5{fill:none;}.cls-5{stroke:#8aa2f5;stroke-width:1.02px;stroke-dasharray:2.04 7.13;}.cls-12,.cls-5{stroke-linecap:round;stroke-linejoin:round;}.cls-6{fill:#6882f3;}.cls-7{fill:#5473e0;}.cls-8{fill:#8aa2f5;}.cls-9{fill:#008cec;}.cls-10{fill:#fff;}.cls-11{fill:#e79f00;}.cls-12{stroke:#fff;stroke-width:1.45px;}.cls-13{fill:#292dc2;}.cls-14{fill:#5a82f6;}.cls-15{fill:#f4d752;}.cls-16{fill:#dde0e5;}.cls-17{stroke:#cdd1d6;stroke-width:2.04px;}.cls-17,.cls-21{stroke-miterlimit:10;}.cls-18{fill:#3a66d9;}.cls-19{fill:#d1d2db;opacity:0.16;}.cls-20{opacity:0.8;}.cls-21{stroke:#2f3b53;stroke-width:0.88px;}.cls-22{clip-path:url(#clip-path);}.cls-23{fill:#e0e0e0;opacity:0.63;mix-blend-mode:multiply;}.cls-24{clip-path:url(#clip-path-2);}.cls-25{clip-path:url(#clip-path-3);}.cls-26{fill:#6abbe3;}.cls-27{clip-path:url(#clip-path-4);}.cls-28{fill:#213a88;}.cls-29{opacity:0.46;fill:url(#Degradado_sin_nombre_27);}.cls-30{clip-path:url(#clip-path-5);}.cls-31{fill:#f5de86;}.cls-32{fill:#e69423;}</style><clipPath id="clip-path" transform="translate(-49.39 -39.48)"><path id="_Clipping_Path_" data-name="&lt;Clipping Path&gt;" class="cls-1" d="M301.29,175.12l-16.73,24.65a53.81,53.81,0,0,0-9.29,30.05l-.13,40.62,35.45-37.56Z"/></clipPath><clipPath id="clip-path-2" transform="translate(-49.39 -39.48)"><path id="_Clipping_Path_2" data-name="&lt;Clipping Path&gt;" class="cls-1" d="M373.72,175.36l16.57,24.76a53.81,53.81,0,0,1,9.09,30.11l-.13,40.62-35.2-37.79Z"/></clipPath><clipPath id="clip-path-3" transform="translate(-49.39 -39.48)"><path id="_Clipping_Path_3" data-name="&lt;Clipping Path&gt;" class="cls-2" d="M335.78,54.09s-20.87,37.48-32.14,105.19-1.39,107-1.39,107h71.24S391,145.08,335.78,54.09Z"/></clipPath><clipPath id="clip-path-4" transform="translate(-49.39 -39.48)"><polygon id="_Clipping_Path_4" data-name="&lt;Clipping Path&gt;" class="cls-1" points="365.64 82.25 311.66 81.13 334.71 48.11 365.64 82.25"/></clipPath><linearGradient id="Degradado_sin_nombre_27" x1="546.24" y1="66.42" x2="575.92" y2="66.42" gradientTransform="translate(-146.71 453.54) rotate(-37.95)" gradientUnits="userSpaceOnUse"><stop offset="0.14" stop-color="#0e1971"/><stop offset="0.23" stop-color="#0f1b72" stop-opacity="0.95"/><stop offset="0.35" stop-color="#111f75" stop-opacity="0.82"/><stop offset="0.48" stop-color="#16267a" stop-opacity="0.59"/><stop offset="0.61" stop-color="#1c3181" stop-opacity="0.28"/><stop offset="0.71" stop-color="#213a88" stop-opacity="0"/></linearGradient><clipPath id="clip-path-5" transform="translate(-49.39 -39.48)"><polygon id="_Clipping_Path_5" data-name="&lt;Clipping Path&gt;" class="cls-1" points="316.56 266.23 359.01 266.23 362.29 287.85 313.29 287.71 316.56 266.23"/></clipPath></defs><title>about</title><g class="cls-3"><g id="OBJECTS"><path class="cls-4" d="M156.8,453.3s-97.58-67.69-46.92-131.78S261,280.19,360.41,241.26s138-53.68,174.32-19.3C570.21,255.55,504,320.42,550,376.73c49.73,60.9-13.57,72-25.56,76.57Z" transform="translate(-49.39 -39.48)"/><path class="cls-5" d="M258.29,253.23c-23.52,16.29-35.69,26.36-37.85,1.6-5.32-61.09-57.87-93.18-96.15-93.17" transform="translate(-49.39 -39.48)"/><path class="cls-6" d="M104.65,151c-.14-.1,9.73.13,9.73.13l5.27,13.29-8.9-7-10.39,3.7-20.67-4.71Z" transform="translate(-49.39 -39.48)"/><polygon class="cls-7" points="30.3 116.88 70.26 124.91 61.36 117.88 30.3 116.88"/><polygon class="cls-8" points="30.3 116.88 69.3 103.88 64.98 111.62 30.3 116.88 61.36 117.88 54.22 131.37 30.3 116.88"/><path class="cls-9" d="M454.76,91.53H422.84a7.72,7.72,0,0,1-7.72-7.72h0a7.72,7.72,0,0,1,7.72-7.72h31.92a7.72,7.72,0,0,1,7.72,7.72h0A7.72,7.72,0,0,1,454.76,91.53Z" transform="translate(-49.39 -39.48)"/><circle class="cls-10" cx="430.33" cy="83.84" r="1.97" transform="matrix(1, 0, 0, 1, -49.66, -38.13)"/><circle class="cls-10" cx="438.8" cy="83.81" r="1.97" transform="translate(-49.65 -38.12) rotate(-0.18)"/><circle class="cls-10" cx="447.27" cy="83.78" r="1.97" transform="translate(-49.65 -38.09) rotate(-0.18)"/><circle class="cls-9" cx="72.09" cy="197.04" r="36.24"/><polygon class="cls-10" points="57.27 205.79 65.55 197.51 57.27 191.35 57.27 205.79"/><polygon class="cls-10" points="76.47 199.03 72.03 202.33 67.51 198.97 59.71 206.91 84.31 206.91 76.47 199.03"/><polygon class="cls-10" points="78.51 197.51 86.79 205.78 86.79 191.35 78.51 197.51"/><polygon class="cls-10" points="72.09 199.52 86.85 188.55 86.85 184.97 57.33 184.97 57.33 188.55 72.09 199.52"/><path class="cls-11" d="M417.63,73.79h66.14a4.79,4.79,0,0,1,4.79,4.79v62.08a4.79,4.79,0,0,1-4.79,4.79H419.16a6.32,6.32,0,0,1-6.32-6.32V78.57A4.79,4.79,0,0,1,417.63,73.79Z"/><polyline class="cls-12" points="461.9 88.26 468.63 89.27 449.48 101.68 445.92 96.84 431.61 105.16"/><line class="cls-12" x1="466.23" y1="95.79" x2="468.63" y2="89.26"/><rect class="cls-10" x="433.15" y="114.72" width="6.73" height="13.35"/><rect class="cls-10" x="442.55" y="110.8" width="6.73" height="17.27"/><rect class="cls-10" x="452.18" y="106.64" width="6.73" height="21.42"/><rect class="cls-10" x="461.9" y="103.11" width="6.73" height="24.96"/><circle class="cls-13" cx="512.57" cy="219" r="33.19"/><path class="cls-10" d="M574.95,255.93l-2.15-.38a11.15,11.15,0,0,0-1.11-2.68l1.25-1.79a1.65,1.65,0,0,0-.19-2.12l-1.29-1.29a1.65,1.65,0,0,0-2.12-.15l-1.79,1.25a11.13,11.13,0,0,0-2.68-1.11l-.37-2.2a1.65,1.65,0,0,0-1.6-1.37h-1.86a1.65,1.65,0,0,0-1.63,1.37l-.38,2.15a11.14,11.14,0,0,0-2.68,1.11l-1.78-1.2a1.65,1.65,0,0,0-2.12.19L551.18,249a1.65,1.65,0,0,0-.19,2.12l1.25,1.79a11.15,11.15,0,0,0-1.11,2.68L549,256a1.65,1.65,0,0,0-1.37,1.63v1.82a1.65,1.65,0,0,0,1.37,1.63l2.15.38a11.13,11.13,0,0,0,1.11,2.68L551,265.9a1.65,1.65,0,0,0,.19,2.12l1.29,1.29a1.65,1.65,0,0,0,2.12.19l1.79-1.25a11.15,11.15,0,0,0,2.68,1.11l.38,2.15a1.65,1.65,0,0,0,1.63,1.37h1.85a1.65,1.65,0,0,0,1.63-1.37l.38-2.15a11.13,11.13,0,0,0,2.68-1.11l1.75,1.23a1.65,1.65,0,0,0,2.12-.19l1.29-1.29a1.65,1.65,0,0,0,.19-2.12l-1.25-1.8a11.15,11.15,0,0,0,1.11-2.68l2.15-.38a1.65,1.65,0,0,0,1.37-1.63v-1.82A1.65,1.65,0,0,0,574.95,255.93Zm-13,7.46a4.92,4.92,0,1,1,4.92-4.92v0A4.92,4.92,0,0,1,562,263.39Z" transform="translate(-49.39 -39.48)"/><path class="cls-13" d="M118.58,29.83h79.89a4.77,4.77,0,0,1,4.77,4.77V94.93a4.77,4.77,0,0,1-4.77,4.77H120.1a6.3,6.3,0,0,1-6.3-6.3V34.6A4.77,4.77,0,0,1,118.58,29.83Z"/><path class="cls-10" d="M230.2,87.18l-4-.8a.35.35,0,0,1-.25-.25l-.8-4c-.09-.46-.44-.57-.77-.23l-5.73,5.73a.89.89,0,0,0-.22.72l.57,2.85-13.6,13.38a1.49,1.49,0,1,0,2.11,2.11l13.6-13.39,2.85.57a.89.89,0,0,0,.72-.22l5.73-5.73C230.77,87.62,230.66,87.27,230.2,87.18Z" transform="translate(-49.39 -39.48)"/><path class="cls-10" d="M211.08,96.93l2.5-2.5a.18.18,0,0,0,0-.29A13.62,13.62,0,1,0,218.39,99a.18.18,0,0,0-.29,0l-2.5,2.5a.36.36,0,0,0-.07.38A9.79,9.79,0,1,1,210.69,97,.36.36,0,0,0,211.08,96.93Z" transform="translate(-49.39 -39.48)"/><path class="cls-10" d="M225.32,96.08l-2.54,2.54a.37.37,0,0,0-.07.38,17.46,17.46,0,1,1-9.19-9.19.38.38,0,0,0,.38-.07l2.54-2.54a.16.16,0,0,0,0-.28,21.32,21.32,0,1,0,9.19,9.2A.16.16,0,0,0,225.32,96.08Z" transform="translate(-49.39 -39.48)"/><rect class="cls-14" x="81.07" y="319.76" width="11.82" height="11.45" rx="1.79" ry="1.79"/><path class="cls-15" d="M579.82,361H513.66a2.88,2.88,0,0,1-2.88-2.88h0a2.88,2.88,0,0,1,2.88-2.88h66.16a2.88,2.88,0,0,1,2.88,2.88h0A2.88,2.88,0,0,1,579.82,361Z" transform="translate(-49.39 -39.48)"/><rect class="cls-16" x="345.99" y="94.93" width="37.52" height="8.93" rx="2.77" ry="2.77"/><path class="cls-16" d="M262.65,186.73H221.26a4.46,4.46,0,0,1-4.46-4.46h0a4.46,4.46,0,0,1,4.46-4.46h41.39a4.46,4.46,0,0,1,4.46,4.46h0A4.46,4.46,0,0,1,262.65,186.73Z" transform="translate(-49.39 -39.48)"/><rect class="cls-15" x="27.4" y="285.03" width="52.43" height="5.77" rx="1.69" ry="1.69"/><rect class="cls-6" x="472.25" y="289.99" width="29.47" height="5.77" rx="1.69" ry="1.69"/><circle class="cls-15" cx="533.3" cy="142.19" r="4.74"/><circle class="cls-6" cx="326.35" cy="4.74" r="4.74"/><circle class="cls-17" cx="514.76" cy="43.13" r="6.58"/><circle class="cls-17" cx="7.6" cy="335.07" r="6.58"/><circle class="cls-16" cx="62.82" cy="60.35" r="5.41"/><circle class="cls-16" cx="556.76" cy="278.5" r="5.41"/><path class="cls-18" d="M492.57,453l-304.31.24a20.87,20.87,0,0,1-20.89-20.85h0l346.05-.27h0A20.87,20.87,0,0,1,492.57,453Z" transform="translate(-49.39 -39.48)"/><path class="cls-14" d="M492.56,445.8,188.25,446a20.86,20.86,0,0,1-19.58-13.67h-1.3a20.87,20.87,0,0,0,20.89,20.85L492.57,453a20.87,20.87,0,0,0,20.85-20.89h-1.3A20.86,20.86,0,0,1,492.56,445.8Z" transform="translate(-49.39 -39.48)"/><path class="cls-1" d="M360.06,439.2l-39.32,0a7,7,0,0,1-7-7h0l53.29,0h0A7,7,0,0,1,360.06,439.2Z" transform="translate(-49.39 -39.48)"/><path class="cls-14" d="M495.61,432.11l-310.43.24L185,245a19.46,19.46,0,0,1,19.45-19.48L476,225.29a19.46,19.46,0,0,1,19.48,19.45Z" transform="translate(-49.39 -39.48)"/><rect class="cls-10" x="151.87" y="202.1" width="278.1" height="174.46"/><rect class="cls-19" x="151.93" y="359.89" width="278.1" height="16.68"/><rect class="cls-19" x="151.81" y="202.1" width="278.1" height="8.28"/><g class="cls-20"><polygon class="cls-16" points="244.55 202.14 151.88 294.96 151.94 376.68 152.14 376.68 326.47 202.08 244.55 202.14"/><polygon class="cls-16" points="177.86 376.65 228.74 376.62 403.06 202.02 352.19 202.06 177.86 376.65"/><polygon class="cls-16" points="397.33 376.48 430.01 343.75 429.97 292.87 346.45 376.52 397.33 376.48"/></g><line class="cls-21" x1="16.83" y1="413.74" x2="567.98" y2="413.74"/><polygon class="cls-2" points="269.27 245.03 270.23 257.56 305.38 257.56 307.27 245.5 269.27 245.03"/><path id="_Clipping_Path_6" data-name="&lt;Clipping Path&gt;" class="cls-1" d="M301.29,175.12l-16.73,24.65a53.81,53.81,0,0,0-9.29,30.05l-.13,40.62,35.45-37.56Z" transform="translate(-49.39 -39.48)"/><g class="cls-22"><path class="cls-23" d="M301,166.73s-17.3,54.79-8.25,94.58l18.45-22-5.33-68Z" transform="translate(-49.39 -39.48)"/></g><path id="_Clipping_Path_7" data-name="&lt;Clipping Path&gt;" class="cls-1" d="M373.72,175.36l16.57,24.76a53.81,53.81,0,0,1,9.09,30.11l-.13,40.62-35.2-37.79Z" transform="translate(-49.39 -39.48)"/><g class="cls-24"><path class="cls-23" d="M370.06,156.63s19.46,60.86,12.84,105.18L359,230.43l10.14-58.51Z" transform="translate(-49.39 -39.48)"/></g><path id="_Clipping_Path_8" data-name="&lt;Clipping Path&gt;" class="cls-2" d="M335.78,54.09s-20.87,37.48-32.14,105.19-1.39,107-1.39,107h71.24S391,145.08,335.78,54.09Z" transform="translate(-49.39 -39.48)"/><g class="cls-25"><polygon class="cls-26" points="286.05 7.89 285.39 236.16 357.42 238.1 331.14 15.95 286.05 7.89"/><polygon id="_Clipping_Path_9" data-name="&lt;Clipping Path&gt;" class="cls-1" points="316.25 42.78 262.27 41.66 285.32 8.63 316.25 42.78"/><g class="cls-27"><polygon class="cls-28" points="286.79 0.34 285.93 50.27 310.09 45.39 286.79 0.34"/></g></g><circle class="cls-10" cx="336.99" cy="160.91" r="22.74" transform="translate(125.57 457.89) rotate(-89.81)"/><circle class="cls-1" cx="336.59" cy="160.91" r="14.84" transform="translate(125.18 457.5) rotate(-89.81)"/><circle class="cls-29" cx="336.59" cy="160.91" r="14.84" transform="translate(125.18 457.5) rotate(-89.81)"/><polygon id="_Clipping_Path_10" data-name="&lt;Clipping Path&gt;" class="cls-1" points="267.17 226.75 309.62 226.75 312.89 248.38 263.89 248.24 267.17 226.75"/><g class="cls-30"><polygon class="cls-28" points="285.41 224.69 286.28 254.26 322.75 251.75 317.16 227 285.41 224.69"/></g><polygon class="cls-15" points="270.17 257.56 241.13 376.61 334.46 376.5 305.31 257.56 270.17 257.56"/><polygon class="cls-31" points="277.86 257.56 263.83 376.68 311.93 376.51 297.32 257.56 277.86 257.56"/><path class="cls-32" d="M327.7,297s-17,32.32,9.67,59.56c0,0,25.08-19.51,9.64-59.56Z" transform="translate(-49.39 -39.48)"/><path class="cls-15" d="M330.44,297s-10.89,23.54,7.3,39.77c0,0,15.76-12.62,6.56-39.77Z" transform="translate(-49.39 -39.48)"/><path class="cls-32" d="M332.77,297s-6.66,14.4,4.47,24.33c0,0,9.64-7.72,4-24.33Z" transform="translate(-49.39 -39.48)"/><circle class="cls-15" cx="220.89" cy="348.26" r="7.85"/><circle class="cls-15" cx="345.91" cy="338.92" r="5.67"/><circle class="cls-15" cx="231.57" cy="360.98" r="3.06"/><circle class="cls-15" cx="342.85" cy="359.37" r="3.06"/><circle class="cls-15" cx="366.34" cy="358.04" r="3.04"/><circle class="cls-15" cx="207.31" cy="366.63" r="3.06"/></g></g></svg>